<?xml version="1.0" encoding="UTF-8" standalone="no"?>
<svg width="88.9mm" height="71.2611mm"
 viewBox="0 0 252 202"
 xmlns="http://www.w3.org/2000/svg" xmlns:xlink="http://www.w3.org/1999/xlink"  version="1.2" baseProfile="tiny">
<title>Qt SVG Document</title>
<desc>MATLAB, The MathWorks, Inc. Version 25.2.0.2998904 R2025b</desc>
<defs>
</defs>
<g fill="none" stroke="black" stroke-width="1" fill-rule="evenodd" stroke-linecap="square" stroke-linejoin="bevel" >

<g fill="#ffffff" fill-opacity="1" stroke="none" transform="matrix(0.75,0,0,0.75,0,0)"
font-family="SimSun" font-size="9" font-weight="400" font-style="normal" 
>
<path vector-effect="none" fill-rule="evenodd" d="M0,0 L337,0 L337,270 L0,270 L0,0"/>
</g>

<g fill="#ffffff" fill-opacity="1" stroke="none" transform="matrix(7.5e-05,0,0,7.5e-05,0,0)"
font-family="SimSun" font-size="9" font-weight="400" font-style="normal" 
>
<path vector-effect="none" fill-rule="evenodd" d="M440000,200000 L440000,2.39e+06 L3.04e+06,2.39e+06 L3.04e+06,200000 L440000,200000"/>
</g>

<g fill="#212121" fill-opacity="0.14902" stroke="#212121" stroke-opacity="0.14902" stroke-width="1.06667" stroke-linecap="butt" stroke-linejoin="round" transform="matrix(0.75,0,0,0.75,0,0)"
font-family="SimSun" font-size="9" font-weight="400" font-style="normal" 
>
<polyline fill="none" vector-effect="none" points="44,20 44,239 " />
<polyline fill="none" vector-effect="none" points="87.3333,20 87.3333,239 " />
<polyline fill="none" vector-effect="none" points="130.667,20 130.667,239 " />
<polyline fill="none" vector-effect="none" points="174,20 174,239 " />
<polyline fill="none" vector-effect="none" points="217.333,20 217.333,239 " />
<polyline fill="none" vector-effect="none" points="260.667,20 260.667,239 " />
<polyline fill="none" vector-effect="none" points="304,20 304,239 " />
<polyline fill="none" vector-effect="none" points="44,239 304,239 " />
<polyline fill="none" vector-effect="none" points="44,213.302 304,213.302 " />
<polyline fill="none" vector-effect="none" points="44,187.604 304,187.604 " />
<polyline fill="none" vector-effect="none" points="44,161.906 304,161.906 " />
<polyline fill="none" vector-effect="none" points="44,136.208 304,136.208 " />
<polyline fill="none" vector-effect="none" points="44,110.509 304,110.509 " />
<polyline fill="none" vector-effect="none" points="44,84.8114 304,84.8114 " />
<polyline fill="none" vector-effect="none" points="44,59.1133 304,59.1133 " />
<polyline fill="none" vector-effect="none" points="44,33.4152 304,33.4152 " />
</g>

<g fill="#212121" fill-opacity="1" stroke="#212121" stroke-opacity="1" stroke-width="1" stroke-linecap="square" stroke-linejoin="bevel" transform="matrix(0.75,0,0,0.75,108,198.55)"
font-family="Times New Roman" font-size="11" font-weight="400" font-style="normal" 
>
<text fill="#212121" fill-opacity="1" stroke="none" xml:space="preserve" x="0" y="0" font-family="Times New Roman" font-size="11" font-weight="400" font-style="normal" 
 >Arrival Ratio</text>
</g>

<g fill="#212121" fill-opacity="1" stroke="#212121" stroke-opacity="1" stroke-width="1.06667" stroke-linecap="square" stroke-linejoin="round" transform="matrix(0.75,0,0,0.75,0,0)"
font-family="Times New Roman" font-size="11" font-weight="400" font-style="normal" 
>
<polyline fill="none" vector-effect="none" points="44,239 304,239 " />
<polyline fill="none" vector-effect="none" points="44,20 304,20 " />
<polyline fill="none" vector-effect="none" points="44,241.6 44,239 " />
<polyline fill="none" vector-effect="none" points="44,20 44,17.4 " />
<polyline fill="none" vector-effect="none" points="87.3333,241.6 87.3333,239 " />
<polyline fill="none" vector-effect="none" points="87.3333,20 87.3333,17.4 " />
<polyline fill="none" vector-effect="none" points="130.667,241.6 130.667,239 " />
<polyline fill="none" vector-effect="none" points="130.667,20 130.667,17.4 " />
<polyline fill="none" vector-effect="none" points="174,241.6 174,239 " />
<polyline fill="none" vector-effect="none" points="174,20 174,17.4 " />
<polyline fill="none" vector-effect="none" points="217.333,241.6 217.333,239 " />
<polyline fill="none" vector-effect="none" points="217.333,20 217.333,17.4 " />
<polyline fill="none" vector-effect="none" points="260.667,241.6 260.667,239 " />
<polyline fill="none" vector-effect="none" points="260.667,20 260.667,17.4 " />
<polyline fill="none" vector-effect="none" points="304,241.6 304,239 " />
<polyline fill="none" vector-effect="none" points="304,20 304,17.4 " />
</g>

<g fill="#212121" fill-opacity="1" stroke="#212121" stroke-opacity="1" stroke-width="1" stroke-linecap="square" stroke-linejoin="bevel" transform="matrix(0.75,0,0,0.75,29.25,189.55)"
font-family="Times New Roman" font-size="10" font-weight="400" font-style="normal" 
>
<text fill="#212121" fill-opacity="1" stroke="none" xml:space="preserve" x="0" y="0" font-family="Times New Roman" font-size="10" font-weight="400" font-style="normal" 
 >40</text>
</g>

<g fill="#212121" fill-opacity="1" stroke="#212121" stroke-opacity="1" stroke-width="1" stroke-linecap="square" stroke-linejoin="bevel" transform="matrix(0.75,0,0,0.75,61.75,189.55)"
font-family="Times New Roman" font-size="10" font-weight="400" font-style="normal" 
>
<text fill="#212121" fill-opacity="1" stroke="none" xml:space="preserve" x="0" y="0" font-family="Times New Roman" font-size="10" font-weight="400" font-style="normal" 
 >50</text>
</g>

<g fill="#212121" fill-opacity="1" stroke="#212121" stroke-opacity="1" stroke-width="1" stroke-linecap="square" stroke-linejoin="bevel" transform="matrix(0.75,0,0,0.75,94.25,189.55)"
font-family="Times New Roman" font-size="10" font-weight="400" font-style="normal" 
>
<text fill="#212121" fill-opacity="1" stroke="none" xml:space="preserve" x="0" y="0" font-family="Times New Roman" font-size="10" font-weight="400" font-style="normal" 
 >60</text>
</g>

<g fill="#212121" fill-opacity="1" stroke="#212121" stroke-opacity="1" stroke-width="1" stroke-linecap="square" stroke-linejoin="bevel" transform="matrix(0.75,0,0,0.75,126.75,189.55)"
font-family="Times New Roman" font-size="10" font-weight="400" font-style="normal" 
>
<text fill="#212121" fill-opacity="1" stroke="none" xml:space="preserve" x="0" y="0" font-family="Times New Roman" font-size="10" font-weight="400" font-style="normal" 
 >70</text>
</g>

<g fill="#212121" fill-opacity="1" stroke="#212121" stroke-opacity="1" stroke-width="1" stroke-linecap="square" stroke-linejoin="bevel" transform="matrix(0.75,0,0,0.75,159.25,189.55)"
font-family="Times New Roman" font-size="10" font-weight="400" font-style="normal" 
>
<text fill="#212121" fill-opacity="1" stroke="none" xml:space="preserve" x="0" y="0" font-family="Times New Roman" font-size="10" font-weight="400" font-style="normal" 
 >80</text>
</g>

<g fill="#212121" fill-opacity="1" stroke="#212121" stroke-opacity="1" stroke-width="1" stroke-linecap="square" stroke-linejoin="bevel" transform="matrix(0.75,0,0,0.75,191.75,189.55)"
font-family="Times New Roman" font-size="10" font-weight="400" font-style="normal" 
>
<text fill="#212121" fill-opacity="1" stroke="none" xml:space="preserve" x="0" y="0" font-family="Times New Roman" font-size="10" font-weight="400" font-style="normal" 
 >90</text>
</g>

<g fill="#212121" fill-opacity="1" stroke="#212121" stroke-opacity="1" stroke-width="1" stroke-linecap="square" stroke-linejoin="bevel" transform="matrix(0.75,0,0,0.75,222.375,189.55)"
font-family="Times New Roman" font-size="10" font-weight="400" font-style="normal" 
>
<text fill="#212121" fill-opacity="1" stroke="none" xml:space="preserve" x="0" y="0" font-family="Times New Roman" font-size="10" font-weight="400" font-style="normal" 
 >100</text>
</g>

<g fill="#212121" fill-opacity="1" stroke="#212121" stroke-opacity="1" stroke-width="1" stroke-linecap="square" stroke-linejoin="bevel" transform="matrix(0,-0.75,0.75,0,11.2,123)"
font-family="Times New Roman" font-size="11" font-weight="400" font-style="normal" 
>
<text fill="#212121" fill-opacity="1" stroke="none" xml:space="preserve" x="0" y="0" font-family="Times New Roman" font-size="11" font-weight="400" font-style="normal" 
 >Blocking Ratio</text>
</g>

<g fill="#212121" fill-opacity="1" stroke="#212121" stroke-opacity="1" stroke-width="1.06667" stroke-linecap="square" stroke-linejoin="round" transform="matrix(0.75,0,0,0.75,0,0)"
font-family="Times New Roman" font-size="11" font-weight="400" font-style="normal" 
>
<polyline fill="none" vector-effect="none" points="44,239 44,20 " />
<polyline fill="none" vector-effect="none" points="304,239 304,20 " />
<polyline fill="none" vector-effect="none" points="41.4,239 44,239 " />
<polyline fill="none" vector-effect="none" points="304,239 306.6,239 " />
<polyline fill="none" vector-effect="none" points="41.4,213.302 44,213.302 " />
<polyline fill="none" vector-effect="none" points="304,213.302 306.6,213.302 " />
<polyline fill="none" vector-effect="none" points="41.4,187.604 44,187.604 " />
<polyline fill="none" vector-effect="none" points="304,187.604 306.6,187.604 " />
<polyline fill="none" vector-effect="none" points="41.4,161.906 44,161.906 " />
<polyline fill="none" vector-effect="none" points="304,161.906 306.6,161.906 " />
<polyline fill="none" vector-effect="none" points="41.4,136.208 44,136.208 " />
<polyline fill="none" vector-effect="none" points="304,136.208 306.6,136.208 " />
<polyline fill="none" vector-effect="none" points="41.4,110.509 44,110.509 " />
<polyline fill="none" vector-effect="none" points="304,110.509 306.6,110.509 " />
<polyline fill="none" vector-effect="none" points="41.4,84.8114 44,84.8114 " />
<polyline fill="none" vector-effect="none" points="304,84.8114 306.6,84.8114 " />
<polyline fill="none" vector-effect="none" points="41.4,59.1133 44,59.1133 " />
<polyline fill="none" vector-effect="none" points="304,59.1133 306.6,59.1133 " />
<polyline fill="none" vector-effect="none" points="41.4,33.4152 44,33.4152 " />
<polyline fill="none" vector-effect="none" points="304,33.4152 306.6,33.4152 " />
</g>

<g fill="#212121" fill-opacity="1" stroke="#212121" stroke-opacity="1" stroke-width="1" stroke-linecap="square" stroke-linejoin="bevel" transform="matrix(0.75,0,0,0.75,25.7,181.5)"
font-family="Times New Roman" font-size="10" font-weight="400" font-style="normal" 
>
<text fill="#212121" fill-opacity="1" stroke="none" xml:space="preserve" x="0" y="0" font-family="Times New Roman" font-size="10" font-weight="400" font-style="normal" 
 >0</text>
</g>

<g fill="#212121" fill-opacity="1" stroke="#212121" stroke-opacity="1" stroke-width="1" stroke-linecap="square" stroke-linejoin="bevel" transform="matrix(0.75,0,0,0.75,15.95,162.226)"
font-family="Times New Roman" font-size="10" font-weight="400" font-style="normal" 
>
<text fill="#212121" fill-opacity="1" stroke="none" xml:space="preserve" x="0" y="0" font-family="Times New Roman" font-size="10" font-weight="400" font-style="normal" 
 >0.02</text>
</g>

<g fill="#212121" fill-opacity="1" stroke="#212121" stroke-opacity="1" stroke-width="1" stroke-linecap="square" stroke-linejoin="bevel" transform="matrix(0.75,0,0,0.75,15.95,142.953)"
font-family="Times New Roman" font-size="10" font-weight="400" font-style="normal" 
>
<text fill="#212121" fill-opacity="1" stroke="none" xml:space="preserve" x="0" y="0" font-family="Times New Roman" font-size="10" font-weight="400" font-style="normal" 
 >0.04</text>
</g>

<g fill="#212121" fill-opacity="1" stroke="#212121" stroke-opacity="1" stroke-width="1" stroke-linecap="square" stroke-linejoin="bevel" transform="matrix(0.75,0,0,0.75,15.95,123.679)"
font-family="Times New Roman" font-size="10" font-weight="400" font-style="normal" 
>
<text fill="#212121" fill-opacity="1" stroke="none" xml:space="preserve" x="0" y="0" font-family="Times New Roman" font-size="10" font-weight="400" font-style="normal" 
 >0.06</text>
</g>

<g fill="#212121" fill-opacity="1" stroke="#212121" stroke-opacity="1" stroke-width="1" stroke-linecap="square" stroke-linejoin="bevel" transform="matrix(0.75,0,0,0.75,15.95,104.406)"
font-family="Times New Roman" font-size="10" font-weight="400" font-style="normal" 
>
<text fill="#212121" fill-opacity="1" stroke="none" xml:space="preserve" x="0" y="0" font-family="Times New Roman" font-size="10" font-weight="400" font-style="normal" 
 >0.08</text>
</g>

<g fill="#212121" fill-opacity="1" stroke="#212121" stroke-opacity="1" stroke-width="1" stroke-linecap="square" stroke-linejoin="bevel" transform="matrix(0.75,0,0,0.75,19.7,85.1321)"
font-family="Times New Roman" font-size="10" font-weight="400" font-style="normal" 
>
<text fill="#212121" fill-opacity="1" stroke="none" xml:space="preserve" x="0" y="0" font-family="Times New Roman" font-size="10" font-weight="400" font-style="normal" 
 >0.1</text>
</g>

<g fill="#212121" fill-opacity="1" stroke="#212121" stroke-opacity="1" stroke-width="1" stroke-linecap="square" stroke-linejoin="bevel" transform="matrix(0.75,0,0,0.75,15.95,65.8585)"
font-family="Times New Roman" font-size="10" font-weight="400" font-style="normal" 
>
<text fill="#212121" fill-opacity="1" stroke="none" xml:space="preserve" x="0" y="0" font-family="Times New Roman" font-size="10" font-weight="400" font-style="normal" 
 >0.12</text>
</g>

<g fill="#212121" fill-opacity="1" stroke="#212121" stroke-opacity="1" stroke-width="1" stroke-linecap="square" stroke-linejoin="bevel" transform="matrix(0.75,0,0,0.75,15.95,46.5849)"
font-family="Times New Roman" font-size="10" font-weight="400" font-style="normal" 
>
<text fill="#212121" fill-opacity="1" stroke="none" xml:space="preserve" x="0" y="0" font-family="Times New Roman" font-size="10" font-weight="400" font-style="normal" 
 >0.14</text>
</g>

<g fill="#212121" fill-opacity="1" stroke="#212121" stroke-opacity="1" stroke-width="1" stroke-linecap="square" stroke-linejoin="bevel" transform="matrix(0.75,0,0,0.75,15.95,27.3114)"
font-family="Times New Roman" font-size="10" font-weight="400" font-style="normal" 
>
<text fill="#212121" fill-opacity="1" stroke="none" xml:space="preserve" x="0" y="0" font-family="Times New Roman" font-size="10" font-weight="400" font-style="normal" 
 >0.16</text>
</g>

<g fill="none" stroke="#0073bd" stroke-opacity="1" stroke-width="1.33333" stroke-linecap="butt" stroke-linejoin="round" transform="matrix(0.75,0,0,0.75,0,0)"
font-family="Times New Roman" font-size="10" font-weight="400" font-style="normal" 
>
<polyline fill="none" vector-effect="none" points="44,239 48.3333,239 52.6667,239 57,239 61.3333,239 65.6667,238.452 70,236.482 74.3333,232.228 78.6667,226.683 83,222.28 87.3333,220.064 91.6667,219.224 96,218.915 100.333,218.595 104.667,218.266 109,217.926 113.333,217.574 117.667,217.211 122,216.835 126.333,216.445 130.667,216.042 135,215.624 139.333,215.191 143.667,214.741 148,214.274 152.333,213.788 156.667,213.22 161,212.473 165.333,211.468 169.667,210.356 174,209.441 178.333,208.83 182.667,208.399 187,208.03 191.333,207.652 195.667,207.265 200,206.868 204.333,206.461 208.667,206.044 213,205.616 217.333,205.176 221.667,204.725 226,204.261 230.333,203.785 234.667,203.296 239,202.699 243.333,201.851 247.667,200.617 252,199.188 256.333,197.989 260.667,197.189 265,196.631 269.333,195.876 273.667,194.021 278,189.786 282.333,182.706 286.667,174.276 291,167.122 295.333,162.832 299.667,160.909 304,160.169 " />
</g>

<g fill="#0073bd" fill-opacity="1" stroke="none" transform="matrix(0.75,0,0,0.75,0,0)"
font-family="Times New Roman" font-size="10" font-weight="400" font-style="normal" 
>
<circle cx="44" cy="239" r="2.66667"/>
</g>

<g fill="none" stroke="#0073bd" stroke-opacity="1" stroke-width="1.33333" stroke-linecap="butt" stroke-linejoin="miter" stroke-miterlimit="2" transform="matrix(0.75,0,0,0.75,0,0)"
font-family="Times New Roman" font-size="10" font-weight="400" font-style="normal" 
>
<path vector-effect="none" fill-rule="evenodd" d="M46.6667,239 C46.6667,237.527 45.4728,236.333 44,236.333 C42.5272,236.333 41.3333,237.527 41.3333,239 C41.3333,240.473 42.5272,241.667 44,241.667 C45.4728,241.667 46.6667,240.473 46.6667,239 "/>
</g>

<g fill="#0073bd" fill-opacity="1" stroke="none" transform="matrix(0.75,0,0,0.75,0,0)"
font-family="Times New Roman" font-size="10" font-weight="400" font-style="normal" 
>
<circle cx="70" cy="236.482" r="2.66667"/>
</g>

<g fill="none" stroke="#0073bd" stroke-opacity="1" stroke-width="1.33333" stroke-linecap="butt" stroke-linejoin="miter" stroke-miterlimit="2" transform="matrix(0.75,0,0,0.75,0,0)"
font-family="Times New Roman" font-size="10" font-weight="400" font-style="normal" 
>
<path vector-effect="none" fill-rule="evenodd" d="M72.6667,236.482 C72.6667,235.009 71.4728,233.816 70,233.816 C68.5272,233.816 67.3333,235.009 67.3333,236.482 C67.3333,237.955 68.5272,239.149 70,239.149 C71.4728,239.149 72.6667,237.955 72.6667,236.482 "/>
</g>

<g fill="#0073bd" fill-opacity="1" stroke="none" transform="matrix(0.75,0,0,0.75,0,0)"
font-family="Times New Roman" font-size="10" font-weight="400" font-style="normal" 
>
<circle cx="96" cy="218.915" r="2.66667"/>
</g>

<g fill="none" stroke="#0073bd" stroke-opacity="1" stroke-width="1.33333" stroke-linecap="butt" stroke-linejoin="miter" stroke-miterlimit="2" transform="matrix(0.75,0,0,0.75,0,0)"
font-family="Times New Roman" font-size="10" font-weight="400" font-style="normal" 
>
<path vector-effect="none" fill-rule="evenodd" d="M98.6667,218.915 C98.6667,217.442 97.4728,216.248 96,216.248 C94.5272,216.248 93.3333,217.442 93.3333,218.915 C93.3333,220.387 94.5272,221.581 96,221.581 C97.4728,221.581 98.6667,220.387 98.6667,218.915 "/>
</g>

<g fill="#0073bd" fill-opacity="1" stroke="none" transform="matrix(0.75,0,0,0.75,0,0)"
font-family="Times New Roman" font-size="10" font-weight="400" font-style="normal" 
>
<circle cx="122" cy="216.835" r="2.66667"/>
</g>

<g fill="none" stroke="#0073bd" stroke-opacity="1" stroke-width="1.33333" stroke-linecap="butt" stroke-linejoin="miter" stroke-miterlimit="2" transform="matrix(0.75,0,0,0.75,0,0)"
font-family="Times New Roman" font-size="10" font-weight="400" font-style="normal" 
>
<path vector-effect="none" fill-rule="evenodd" d="M124.667,216.835 C124.667,215.362 123.473,214.168 122,214.168 C120.527,214.168 119.333,215.362 119.333,216.835 C119.333,218.307 120.527,219.501 122,219.501 C123.473,219.501 124.667,218.307 124.667,216.835 "/>
</g>

<g fill="#0073bd" fill-opacity="1" stroke="none" transform="matrix(0.75,0,0,0.75,0,0)"
font-family="Times New Roman" font-size="10" font-weight="400" font-style="normal" 
>
<circle cx="148" cy="214.274" r="2.66667"/>
</g>

<g fill="none" stroke="#0073bd" stroke-opacity="1" stroke-width="1.33333" stroke-linecap="butt" stroke-linejoin="miter" stroke-miterlimit="2" transform="matrix(0.75,0,0,0.75,0,0)"
font-family="Times New Roman" font-size="10" font-weight="400" font-style="normal" 
>
<path vector-effect="none" fill-rule="evenodd" d="M150.667,214.274 C150.667,212.801 149.473,211.607 148,211.607 C146.527,211.607 145.333,212.801 145.333,214.274 C145.333,215.747 146.527,216.94 148,216.94 C149.473,216.94 150.667,215.747 150.667,214.274 "/>
</g>

<g fill="#0073bd" fill-opacity="1" stroke="none" transform="matrix(0.75,0,0,0.75,0,0)"
font-family="Times New Roman" font-size="10" font-weight="400" font-style="normal" 
>
<circle cx="174" cy="209.441" r="2.66667"/>
</g>

<g fill="none" stroke="#0073bd" stroke-opacity="1" stroke-width="1.33333" stroke-linecap="butt" stroke-linejoin="miter" stroke-miterlimit="2" transform="matrix(0.75,0,0,0.75,0,0)"
font-family="Times New Roman" font-size="10" font-weight="400" font-style="normal" 
>
<path vector-effect="none" fill-rule="evenodd" d="M176.667,209.441 C176.667,207.968 175.473,206.774 174,206.774 C172.527,206.774 171.333,207.968 171.333,209.441 C171.333,210.913 172.527,212.107 174,212.107 C175.473,212.107 176.667,210.913 176.667,209.441 "/>
</g>

<g fill="#0073bd" fill-opacity="1" stroke="none" transform="matrix(0.75,0,0,0.75,0,0)"
font-family="Times New Roman" font-size="10" font-weight="400" font-style="normal" 
>
<circle cx="200" cy="206.868" r="2.66667"/>
</g>

<g fill="none" stroke="#0073bd" stroke-opacity="1" stroke-width="1.33333" stroke-linecap="butt" stroke-linejoin="miter" stroke-miterlimit="2" transform="matrix(0.75,0,0,0.75,0,0)"
font-family="Times New Roman" font-size="10" font-weight="400" font-style="normal" 
>
<path vector-effect="none" fill-rule="evenodd" d="M202.667,206.868 C202.667,205.396 201.473,204.202 200,204.202 C198.527,204.202 197.333,205.396 197.333,206.868 C197.333,208.341 198.527,209.535 200,209.535 C201.473,209.535 202.667,208.341 202.667,206.868 "/>
</g>

<g fill="#0073bd" fill-opacity="1" stroke="none" transform="matrix(0.75,0,0,0.75,0,0)"
font-family="Times New Roman" font-size="10" font-weight="400" font-style="normal" 
>
<circle cx="226" cy="204.261" r="2.66667"/>
</g>

<g fill="none" stroke="#0073bd" stroke-opacity="1" stroke-width="1.33333" stroke-linecap="butt" stroke-linejoin="miter" stroke-miterlimit="2" transform="matrix(0.75,0,0,0.75,0,0)"
font-family="Times New Roman" font-size="10" font-weight="400" font-style="normal" 
>
<path vector-effect="none" fill-rule="evenodd" d="M228.667,204.261 C228.667,202.789 227.473,201.595 226,201.595 C224.527,201.595 223.333,202.789 223.333,204.261 C223.333,205.734 224.527,206.928 226,206.928 C227.473,206.928 228.667,205.734 228.667,204.261 "/>
</g>

<g fill="#0073bd" fill-opacity="1" stroke="none" transform="matrix(0.75,0,0,0.75,0,0)"
font-family="Times New Roman" font-size="10" font-weight="400" font-style="normal" 
>
<circle cx="252" cy="199.188" r="2.66667"/>
</g>

<g fill="none" stroke="#0073bd" stroke-opacity="1" stroke-width="1.33333" stroke-linecap="butt" stroke-linejoin="miter" stroke-miterlimit="2" transform="matrix(0.75,0,0,0.75,0,0)"
font-family="Times New Roman" font-size="10" font-weight="400" font-style="normal" 
>
<path vector-effect="none" fill-rule="evenodd" d="M254.667,199.188 C254.667,197.715 253.473,196.521 252,196.521 C250.527,196.521 249.333,197.715 249.333,199.188 C249.333,200.661 250.527,201.854 252,201.854 C253.473,201.854 254.667,200.661 254.667,199.188 "/>
</g>

<g fill="#0073bd" fill-opacity="1" stroke="none" transform="matrix(0.75,0,0,0.75,0,0)"
font-family="Times New Roman" font-size="10" font-weight="400" font-style="normal" 
>
<circle cx="278" cy="189.786" r="2.66667"/>
</g>

<g fill="none" stroke="#0073bd" stroke-opacity="1" stroke-width="1.33333" stroke-linecap="butt" stroke-linejoin="miter" stroke-miterlimit="2" transform="matrix(0.75,0,0,0.75,0,0)"
font-family="Times New Roman" font-size="10" font-weight="400" font-style="normal" 
>
<path vector-effect="none" fill-rule="evenodd" d="M280.667,189.786 C280.667,188.313 279.473,187.119 278,187.119 C276.527,187.119 275.333,188.313 275.333,189.786 C275.333,191.258 276.527,192.452 278,192.452 C279.473,192.452 280.667,191.258 280.667,189.786 "/>
</g>

<g fill="#0073bd" fill-opacity="1" stroke="none" transform="matrix(0.75,0,0,0.75,0,0)"
font-family="Times New Roman" font-size="10" font-weight="400" font-style="normal" 
>
<circle cx="304" cy="160.169" r="2.66667"/>
</g>

<g fill="none" stroke="#0073bd" stroke-opacity="1" stroke-width="1.33333" stroke-linecap="butt" stroke-linejoin="miter" stroke-miterlimit="2" transform="matrix(0.75,0,0,0.75,0,0)"
font-family="Times New Roman" font-size="10" font-weight="400" font-style="normal" 
>
<path vector-effect="none" fill-rule="evenodd" d="M306.667,160.169 C306.667,158.696 305.473,157.502 304,157.502 C302.527,157.502 301.333,158.696 301.333,160.169 C301.333,161.641 302.527,162.835 304,162.835 C305.473,162.835 306.667,161.641 306.667,160.169 "/>
</g>

<g fill="none" stroke="#d9541a" stroke-opacity="1" stroke-width="1.33333" stroke-linecap="butt" stroke-linejoin="round" transform="matrix(0.75,0,0,0.75,0,0)"
font-family="Times New Roman" font-size="10" font-weight="400" font-style="normal" 
>
<polyline fill="none" vector-effect="none" points="44,208.536 48.3333,207.41 52.6667,204.581 57,199.053 61.3333,191.852 65.6667,185.641 70,181.19 74.3333,177.168 78.6667,173.219 83,170.061 87.3333,168.268 91.6667,167.35 96,166.763 100.333,166.174 104.667,165.567 109,164.951 113.333,164.331 117.667,163.714 122,163.098 126.333,162.46 130.667,161.798 135,161.116 139.333,160.422 143.667,159.724 148,159.018 152.333,158.296 156.667,157.543 161,156.798 165.333,156.125 169.667,155.488 174,154.875 178.333,154.247 182.667,153.565 187,152.736 191.333,151.649 195.667,150.346 200,149.021 204.333,147.881 208.667,146.995 213,146.246 217.333,145.508 221.667,144.686 226,143.673 230.333,142.447 234.667,141.019 239,139.509 243.333,138.087 247.667,136.804 252,135.457 256.333,133.773 260.667,131.217 265,127.266 269.333,121.256 273.667,112.699 278,102.141 282.333,91.1538 286.667,81.3958 291,74.016 295.333,69.2343 299.667,66.0752 304,63.8 " />
</g>

<g fill="#d9541a" fill-opacity="1" stroke="none" transform="matrix(7.5e-05,0,0,7.5e-05,0,0)"
font-family="Times New Roman" font-size="10" font-weight="400" font-style="normal" 
>
<path vector-effect="none" fill-rule="evenodd" d="M419199,2.06456e+06 L419199,2.10616e+06 L460800,2.10616e+06 L460800,2.06456e+06 L419199,2.06456e+06"/>
</g>

<g fill="none" stroke="#d9541a" stroke-opacity="1" stroke-width="1.33333" stroke-linecap="butt" stroke-linejoin="miter" stroke-miterlimit="2" transform="matrix(0.75,0,0,0.75,0,0)"
font-family="Times New Roman" font-size="10" font-weight="400" font-style="normal" 
>
<path vector-effect="none" fill-rule="evenodd" d="M41.92,206.456 L41.92,210.616 L46.08,210.616 L46.08,206.456 L41.92,206.456"/>
</g>

<g fill="#d9541a" fill-opacity="1" stroke="none" transform="matrix(7.5e-05,0,0,7.5e-05,0,0)"
font-family="Times New Roman" font-size="10" font-weight="400" font-style="normal" 
>
<path vector-effect="none" fill-rule="evenodd" d="M679200,1.7911e+06 L679200,1.8327e+06 L720800,1.8327e+06 L720800,1.7911e+06 L679200,1.7911e+06"/>
</g>

<g fill="none" stroke="#d9541a" stroke-opacity="1" stroke-width="1.33333" stroke-linecap="butt" stroke-linejoin="miter" stroke-miterlimit="2" transform="matrix(0.75,0,0,0.75,0,0)"
font-family="Times New Roman" font-size="10" font-weight="400" font-style="normal" 
>
<path vector-effect="none" fill-rule="evenodd" d="M67.92,179.11 L67.92,183.27 L72.08,183.27 L72.08,179.11 L67.92,179.11"/>
</g>

<g fill="#d9541a" fill-opacity="1" stroke="none" transform="matrix(7.5e-05,0,0,7.5e-05,0,0)"
font-family="Times New Roman" font-size="10" font-weight="400" font-style="normal" 
>
<path vector-effect="none" fill-rule="evenodd" d="M939200,1.64683e+06 L939200,1.68843e+06 L980800,1.68843e+06 L980800,1.64683e+06 L939200,1.64683e+06"/>
</g>

<g fill="none" stroke="#d9541a" stroke-opacity="1" stroke-width="1.33333" stroke-linecap="butt" stroke-linejoin="miter" stroke-miterlimit="2" transform="matrix(0.75,0,0,0.75,0,0)"
font-family="Times New Roman" font-size="10" font-weight="400" font-style="normal" 
>
<path vector-effect="none" fill-rule="evenodd" d="M93.92,164.683 L93.92,168.843 L98.08,168.843 L98.08,164.683 L93.92,164.683"/>
</g>

<g fill="#d9541a" fill-opacity="1" stroke="none" transform="matrix(7.5e-05,0,0,7.5e-05,0,0)"
font-family="Times New Roman" font-size="10" font-weight="400" font-style="normal" 
>
<path vector-effect="none" fill-rule="evenodd" d="M1.1992e+06,1.61018e+06 L1.1992e+06,1.65178e+06 L1.2408e+06,1.65178e+06 L1.2408e+06,1.61018e+06 L1.1992e+06,1.61018e+06"/>
</g>

<g fill="none" stroke="#d9541a" stroke-opacity="1" stroke-width="1.33333" stroke-linecap="butt" stroke-linejoin="miter" stroke-miterlimit="2" transform="matrix(0.75,0,0,0.75,0,0)"
font-family="Times New Roman" font-size="10" font-weight="400" font-style="normal" 
>
<path vector-effect="none" fill-rule="evenodd" d="M119.92,161.018 L119.92,165.178 L124.08,165.178 L124.08,161.018 L119.92,161.018"/>
</g>

<g fill="#d9541a" fill-opacity="1" stroke="none" transform="matrix(7.5e-05,0,0,7.5e-05,0,0)"
font-family="Times New Roman" font-size="10" font-weight="400" font-style="normal" 
>
<path vector-effect="none" fill-rule="evenodd" d="M1.4592e+06,1.56938e+06 L1.4592e+06,1.61098e+06 L1.5008e+06,1.61098e+06 L1.5008e+06,1.56938e+06 L1.4592e+06,1.56938e+06"/>
</g>

<g fill="none" stroke="#d9541a" stroke-opacity="1" stroke-width="1.33333" stroke-linecap="butt" stroke-linejoin="miter" stroke-miterlimit="2" transform="matrix(0.75,0,0,0.75,0,0)"
font-family="Times New Roman" font-size="10" font-weight="400" font-style="normal" 
>
<path vector-effect="none" fill-rule="evenodd" d="M145.92,156.938 L145.92,161.098 L150.08,161.098 L150.08,156.938 L145.92,156.938"/>
</g>

<g fill="#d9541a" fill-opacity="1" stroke="none" transform="matrix(7.5e-05,0,0,7.5e-05,0,0)"
font-family="Times New Roman" font-size="10" font-weight="400" font-style="normal" 
>
<path vector-effect="none" fill-rule="evenodd" d="M1.7192e+06,1.52795e+06 L1.7192e+06,1.56955e+06 L1.7608e+06,1.56955e+06 L1.7608e+06,1.52795e+06 L1.7192e+06,1.52795e+06"/>
</g>

<g fill="none" stroke="#d9541a" stroke-opacity="1" stroke-width="1.33333" stroke-linecap="butt" stroke-linejoin="miter" stroke-miterlimit="2" transform="matrix(0.75,0,0,0.75,0,0)"
font-family="Times New Roman" font-size="10" font-weight="400" font-style="normal" 
>
<path vector-effect="none" fill-rule="evenodd" d="M171.92,152.795 L171.92,156.955 L176.08,156.955 L176.08,152.795 L171.92,152.795"/>
</g>

<g fill="#d9541a" fill-opacity="1" stroke="none" transform="matrix(7.5e-05,0,0,7.5e-05,0,0)"
font-family="Times New Roman" font-size="10" font-weight="400" font-style="normal" 
>
<path vector-effect="none" fill-rule="evenodd" d="M1.9792e+06,1.46941e+06 L1.9792e+06,1.51101e+06 L2.0208e+06,1.51101e+06 L2.0208e+06,1.46941e+06 L1.9792e+06,1.46941e+06"/>
</g>

<g fill="none" stroke="#d9541a" stroke-opacity="1" stroke-width="1.33333" stroke-linecap="butt" stroke-linejoin="miter" stroke-miterlimit="2" transform="matrix(0.75,0,0,0.75,0,0)"
font-family="Times New Roman" font-size="10" font-weight="400" font-style="normal" 
>
<path vector-effect="none" fill-rule="evenodd" d="M197.92,146.941 L197.92,151.101 L202.08,151.101 L202.08,146.941 L197.92,146.941"/>
</g>

<g fill="#d9541a" fill-opacity="1" stroke="none" transform="matrix(7.5e-05,0,0,7.5e-05,0,0)"
font-family="Times New Roman" font-size="10" font-weight="400" font-style="normal" 
>
<path vector-effect="none" fill-rule="evenodd" d="M2.2392e+06,1.41593e+06 L2.2392e+06,1.45753e+06 L2.2808e+06,1.45753e+06 L2.2808e+06,1.41593e+06 L2.2392e+06,1.41593e+06"/>
</g>

<g fill="none" stroke="#d9541a" stroke-opacity="1" stroke-width="1.33333" stroke-linecap="butt" stroke-linejoin="miter" stroke-miterlimit="2" transform="matrix(0.75,0,0,0.75,0,0)"
font-family="Times New Roman" font-size="10" font-weight="400" font-style="normal" 
>
<path vector-effect="none" fill-rule="evenodd" d="M223.92,141.593 L223.92,145.753 L228.08,145.753 L228.08,141.593 L223.92,141.593"/>
</g>

<g fill="#d9541a" fill-opacity="1" stroke="none" transform="matrix(7.5e-05,0,0,7.5e-05,0,0)"
font-family="Times New Roman" font-size="10" font-weight="400" font-style="normal" 
>
<path vector-effect="none" fill-rule="evenodd" d="M2.4992e+06,1.33377e+06 L2.4992e+06,1.37537e+06 L2.5408e+06,1.37537e+06 L2.5408e+06,1.33377e+06 L2.4992e+06,1.33377e+06"/>
</g>

<g fill="none" stroke="#d9541a" stroke-opacity="1" stroke-width="1.33333" stroke-linecap="butt" stroke-linejoin="miter" stroke-miterlimit="2" transform="matrix(0.75,0,0,0.75,0,0)"
font-family="Times New Roman" font-size="10" font-weight="400" font-style="normal" 
>
<path vector-effect="none" fill-rule="evenodd" d="M249.92,133.377 L249.92,137.537 L254.08,137.537 L254.08,133.377 L249.92,133.377"/>
</g>

<g fill="#d9541a" fill-opacity="1" stroke="none" transform="matrix(7.5e-05,0,0,7.5e-05,0,0)"
font-family="Times New Roman" font-size="10" font-weight="400" font-style="normal" 
>
<path vector-effect="none" fill-rule="evenodd" d="M2.7592e+06,1.00061e+06 L2.7592e+06,1.04221e+06 L2.8008e+06,1.04221e+06 L2.8008e+06,1.00061e+06 L2.7592e+06,1.00061e+06"/>
</g>

<g fill="none" stroke="#d9541a" stroke-opacity="1" stroke-width="1.33333" stroke-linecap="butt" stroke-linejoin="miter" stroke-miterlimit="2" transform="matrix(0.75,0,0,0.75,0,0)"
font-family="Times New Roman" font-size="10" font-weight="400" font-style="normal" 
>
<path vector-effect="none" fill-rule="evenodd" d="M275.92,100.061 L275.92,104.221 L280.08,104.221 L280.08,100.061 L275.92,100.061"/>
</g>

<g fill="#d9541a" fill-opacity="1" stroke="none" transform="matrix(7.5e-05,0,0,7.5e-05,0,0)"
font-family="Times New Roman" font-size="10" font-weight="400" font-style="normal" 
>
<path vector-effect="none" fill-rule="evenodd" d="M3.0192e+06,617199 L3.0192e+06,658799 L3.0608e+06,658799 L3.0608e+06,617199 L3.0192e+06,617199"/>
</g>

<g fill="none" stroke="#d9541a" stroke-opacity="1" stroke-width="1.33333" stroke-linecap="butt" stroke-linejoin="miter" stroke-miterlimit="2" transform="matrix(0.75,0,0,0.75,0,0)"
font-family="Times New Roman" font-size="10" font-weight="400" font-style="normal" 
>
<path vector-effect="none" fill-rule="evenodd" d="M301.92,61.72 L301.92,65.88 L306.08,65.88 L306.08,61.72 L301.92,61.72"/>
</g>

<g fill="#ffffff" fill-opacity="1" stroke="none" transform="matrix(7.5e-05,0,0,7.5e-05,0,0)"
font-family="Times New Roman" font-size="10" font-weight="400" font-style="normal" 
>
<path vector-effect="none" fill-rule="evenodd" d="M540000,300000 L540000,560000 L2.13e+06,560000 L2.13e+06,300000 L540000,300000"/>
</g>

<g fill="#0073bd" fill-opacity="1" stroke="#0073bd" stroke-opacity="1" stroke-width="1.33333" stroke-linecap="butt" stroke-linejoin="round" transform="matrix(0.75,0,0,0.75,0,0)"
font-family="Times New Roman" font-size="10" font-weight="400" font-style="normal" 
>
<polyline fill="none" vector-effect="none" points="58,37.3585 98,37.3585 " />
</g>

<g fill="#0073bd" fill-opacity="1" stroke="none" transform="matrix(0.75,0,0,0.75,0,0)"
font-family="Times New Roman" font-size="10" font-weight="400" font-style="normal" 
>
<circle cx="78" cy="37.3585" r="2.66667"/>
</g>

<g fill="none" stroke="#0073bd" stroke-opacity="1" stroke-width="1.33333" stroke-linecap="butt" stroke-linejoin="miter" stroke-miterlimit="2" transform="matrix(0.75,0,0,0.75,0,0)"
font-family="Times New Roman" font-size="10" font-weight="400" font-style="normal" 
>
<path vector-effect="none" fill-rule="evenodd" d="M80.6667,37.3585 C80.6667,35.8857 79.4728,34.6918 78,34.6918 C76.5272,34.6918 75.3333,35.8857 75.3333,37.3585 C75.3333,38.8312 76.5272,40.0252 78,40.0252 C79.4728,40.0252 80.6667,38.8312 80.6667,37.3585 "/>
</g>

<g fill="#d9541a" fill-opacity="1" stroke="#d9541a" stroke-opacity="1" stroke-width="1.33333" stroke-linecap="butt" stroke-linejoin="round" transform="matrix(0.75,0,0,0.75,0,0)"
font-family="Times New Roman" font-size="10" font-weight="400" font-style="normal" 
>
<polyline fill="none" vector-effect="none" points="58,48.6415 98,48.6415 " />
</g>

<g fill="#d9541a" fill-opacity="1" stroke="none" transform="matrix(7.5e-05,0,0,7.5e-05,0,0)"
font-family="Times New Roman" font-size="10" font-weight="400" font-style="normal" 
>
<path vector-effect="none" fill-rule="evenodd" d="M759200,465615 L759200,507215 L800800,507215 L800800,465615 L759200,465615"/>
</g>

<g fill="none" stroke="#d9541a" stroke-opacity="1" stroke-width="1.33333" stroke-linecap="butt" stroke-linejoin="miter" stroke-miterlimit="2" transform="matrix(0.75,0,0,0.75,0,0)"
font-family="Times New Roman" font-size="10" font-weight="400" font-style="normal" 
>
<path vector-effect="none" fill-rule="evenodd" d="M75.92,46.5615 L75.92,50.7215 L80.08,50.7215 L80.08,46.5615 L75.92,46.5615"/>
</g>

<g fill="#212121" fill-opacity="1" stroke="#212121" stroke-opacity="1" stroke-width="1" stroke-linecap="square" stroke-linejoin="bevel" transform="matrix(0.75,0,0,0.75,75.75,30.2689)"
font-family="Times New Roman" font-size="10" font-weight="400" font-style="normal" 
>
<text fill="#212121" fill-opacity="1" stroke="none" xml:space="preserve" x="0" y="0" font-family="Times New Roman" font-size="10" font-weight="400" font-style="normal" 
 >With delay weighting</text>
</g>

<g fill="#212121" fill-opacity="1" stroke="#212121" stroke-opacity="1" stroke-width="1" stroke-linecap="square" stroke-linejoin="bevel" transform="matrix(0.75,0,0,0.75,75.75,38.7311)"
font-family="Times New Roman" font-size="10" font-weight="400" font-style="normal" 
>
<text fill="#212121" fill-opacity="1" stroke="none" xml:space="preserve" x="0" y="0" font-family="Times New Roman" font-size="10" font-weight="400" font-style="normal" 
 >Without delay weighting</text>
</g>

<g fill="none" stroke="#212121" stroke-opacity="1" stroke-width="1.06667" stroke-linecap="butt" stroke-linejoin="miter" stroke-miterlimit="2" transform="matrix(0.75,0,0,0.75,0,0)"
font-family="Times New Roman" font-size="10" font-weight="400" font-style="normal" 
>
<path vector-effect="none" fill-rule="evenodd" d="M54,56 L54,30 L213,30 L213,56 L54,56"/>
</g>
</g>
</svg>
