<?xml version="1.0" encoding="UTF-8" standalone="no"?>
<svg width="189.442mm" height="127.353mm"
 viewBox="0 0 537 361"
 xmlns="http://www.w3.org/2000/svg" xmlns:xlink="http://www.w3.org/1999/xlink"  version="1.2" baseProfile="tiny">
<title>Qt SVG Document</title>
<desc>MATLAB, The MathWorks, Inc. Version 25.2.0.2998904 R2025b</desc>
<defs>
</defs>
<g fill="none" stroke="black" stroke-width="1" fill-rule="evenodd" stroke-linecap="square" stroke-linejoin="bevel" >

<g fill="#ffffff" fill-opacity="1" stroke="none" transform="matrix(0.5,0,0,0.5,-171.5,-21.625)"
font-family="SimSun" font-size="9" font-weight="400" font-style="normal" 
>
<path vector-effect="none" fill-rule="evenodd" d="M342,42 L1417,42 L1417,765 L342,765 L342,42"/>
</g>

<g fill="#212121" fill-opacity="1" stroke="#212121" stroke-opacity="1" stroke-width="1" stroke-linecap="square" stroke-linejoin="bevel" transform="matrix(0.5,0,0,0.5,147.75,9.5)"
font-family="Helvetica" font-size="22" font-weight="400" font-style="normal" 
>
<text fill="#212121" fill-opacity="1" stroke="none" xml:space="preserve" x="0" y="0" font-family="Helvetica" font-size="22" font-weight="400" font-style="normal" 
 >Multicast Service Function Chain Tree (Req ID: 29)</text>
</g>

<g fill="#1171be" fill-opacity="0.501961" stroke="none" transform="matrix(5e-05,0,0,5e-05,-171.5,-21.625)"
font-family="Helvetica" font-size="22" font-weight="400" font-style="normal" 
>
<path vector-effect="none" fill-rule="evenodd" d="M7.16455e+06,5.19591e+06 L7.23955e+06,4.99591e+06 L7.16455e+06,5.06591e+06 L7.08955e+06,4.99591e+06 L7.16455e+06,5.19591e+06"/>
</g>

<g fill="#1171be" fill-opacity="0.501961" stroke="none" transform="matrix(5e-05,0,0,5e-05,-171.5,-21.625)"
font-family="Helvetica" font-size="22" font-weight="400" font-style="normal" 
>
<path vector-effect="none" fill-rule="evenodd" d="M5.49409e+06,3.76409e+06 L5.70746e+06,3.75424e+06 L5.61358e+06,3.71288e+06 L5.64838e+06,3.61637e+06 L5.49409e+06,3.76409e+06"/>
</g>

<g fill="#1171be" fill-opacity="0.501961" stroke="none" transform="matrix(5e-05,0,0,5e-05,-171.5,-21.625)"
font-family="Helvetica" font-size="22" font-weight="400" font-style="normal" 
>
<path vector-effect="none" fill-rule="evenodd" d="M7.16455e+06,3.76409e+06 L7.23955e+06,3.56409e+06 L7.16455e+06,3.63409e+06 L7.08955e+06,3.56409e+06 L7.16455e+06,3.76409e+06"/>
</g>

<g fill="#1171be" fill-opacity="0.501961" stroke="none" transform="matrix(5e-05,0,0,5e-05,-171.5,-21.625)"
font-family="Helvetica" font-size="22" font-weight="400" font-style="normal" 
>
<path vector-effect="none" fill-rule="evenodd" d="M9.67023e+06,3.76409e+06 L9.49853e+06,3.63703e+06 L9.54523e+06,3.72838e+06 L9.45732e+06,3.78126e+06 L9.67023e+06,3.76409e+06"/>
</g>

<g fill="#1171be" fill-opacity="0.501961" stroke="none" transform="matrix(5e-05,0,0,5e-05,-171.5,-21.625)"
font-family="Helvetica" font-size="22" font-weight="400" font-style="normal" 
>
<path vector-effect="none" fill-rule="evenodd" d="M7.16455e+06,2.33227e+06 L7.23955e+06,2.13227e+06 L7.16455e+06,2.20227e+06 L7.08955e+06,2.13227e+06 L7.16455e+06,2.33227e+06"/>
</g>

<g fill="#1171be" fill-opacity="0.501961" stroke="none" transform="matrix(5e-05,0,0,5e-05,-171.5,-21.625)"
font-family="Helvetica" font-size="22" font-weight="400" font-style="normal" 
>
<path vector-effect="none" fill-rule="evenodd" d="M1.13407e+07,5.19591e+06 L1.15413e+07,5.1227e+06 L1.14394e+07,5.11131e+06 L1.14437e+07,5.00881e+06 L1.13407e+07,5.19591e+06"/>
</g>

<g fill="#1171be" fill-opacity="0.501961" stroke="none" transform="matrix(5e-05,0,0,5e-05,-171.5,-21.625)"
font-family="Helvetica" font-size="22" font-weight="400" font-style="normal" 
>
<path vector-effect="none" fill-rule="evenodd" d="M1.30111e+07,5.19591e+06 L1.29081e+07,5.00881e+06 L1.29124e+07,5.11131e+06 L1.28105e+07,5.1227e+06 L1.30111e+07,5.19591e+06"/>
</g>

<g fill="#1171be" fill-opacity="0.501961" stroke="none" transform="matrix(5e-05,0,0,5e-05,-171.5,-21.625)"
font-family="Helvetica" font-size="22" font-weight="400" font-style="normal" 
>
<path vector-effect="none" fill-rule="evenodd" d="M1.05055e+07,6.62773e+06 L1.05805e+07,6.42773e+06 L1.05055e+07,6.49773e+06 L1.04305e+07,6.42773e+06 L1.05055e+07,6.62773e+06"/>
</g>

<g fill="#1171be" fill-opacity="0.501961" stroke="#1171be" stroke-opacity="0.501961" stroke-width="2.4" stroke-linecap="butt" stroke-linejoin="round" transform="matrix(0.5,0,0,0.5,-171.5,-21.625)"
font-family="Helvetica" font-size="22" font-weight="400" font-style="normal" 
>
<polyline fill="none" vector-effect="none" points="716.455,448 716.455,591.182 " />
<polyline fill="none" vector-effect="none" points="716.455,304.818 382.364,448 " />
<polyline fill="none" vector-effect="none" points="716.455,304.818 716.455,448 " />
<polyline fill="none" vector-effect="none" points="716.455,304.818 1217.59,448 " />
<polyline fill="none" vector-effect="none" points="716.455,161.636 716.455,304.818 " />
<polyline fill="none" vector-effect="none" points="1217.59,448 1050.55,591.182 " />
<polyline fill="none" vector-effect="none" points="1217.59,448 1384.64,591.182 " />
<polyline fill="none" vector-effect="none" points="1050.55,591.182 1050.55,734.364 " />
</g>

<g fill="#999999" fill-opacity="1" stroke="none" transform="matrix(0.5,0,0,0.5,-171.5,-21.625)"
font-family="Helvetica" font-size="22" font-weight="400" font-style="normal" 
>
<circle cx="716.455" cy="448" r="8"/>
</g>

<g fill="none" stroke="#999999" stroke-opacity="1" stroke-width="2" stroke-linecap="butt" stroke-linejoin="miter" stroke-miterlimit="2" transform="matrix(0.5,0,0,0.5,-171.5,-21.625)"
font-family="Helvetica" font-size="22" font-weight="400" font-style="normal" 
>
<path vector-effect="none" fill-rule="evenodd" d="M724.455,448 C724.455,443.582 720.873,440 716.455,440 C712.036,440 708.455,443.582 708.455,448 C708.455,452.418 712.036,456 716.455,456 C720.873,456 724.455,452.418 724.455,448 "/>
</g>

<g fill="#999999" fill-opacity="1" stroke="none" transform="matrix(0.5,0,0,0.5,-171.5,-21.625)"
font-family="Helvetica" font-size="22" font-weight="400" font-style="normal" 
>
<circle cx="716.455" cy="304.818" r="8"/>
</g>

<g fill="none" stroke="#999999" stroke-opacity="1" stroke-width="2" stroke-linecap="butt" stroke-linejoin="miter" stroke-miterlimit="2" transform="matrix(0.5,0,0,0.5,-171.5,-21.625)"
font-family="Helvetica" font-size="22" font-weight="400" font-style="normal" 
>
<path vector-effect="none" fill-rule="evenodd" d="M724.455,304.818 C724.455,300.4 720.873,296.818 716.455,296.818 C712.036,296.818 708.455,300.4 708.455,304.818 C708.455,309.236 712.036,312.818 716.455,312.818 C720.873,312.818 724.455,309.236 724.455,304.818 "/>
</g>

<g fill="#999999" fill-opacity="1" stroke="none" transform="matrix(0.5,0,0,0.5,-171.5,-21.625)"
font-family="Helvetica" font-size="22" font-weight="400" font-style="normal" 
>
<circle cx="1217.59" cy="448" r="8"/>
</g>

<g fill="none" stroke="#999999" stroke-opacity="1" stroke-width="2" stroke-linecap="butt" stroke-linejoin="miter" stroke-miterlimit="2" transform="matrix(0.5,0,0,0.5,-171.5,-21.625)"
font-family="Helvetica" font-size="22" font-weight="400" font-style="normal" 
>
<path vector-effect="none" fill-rule="evenodd" d="M1225.59,448 C1225.59,443.582 1222.01,440 1217.59,440 C1213.17,440 1209.59,443.582 1209.59,448 C1209.59,452.418 1213.17,456 1217.59,456 C1222.01,456 1225.59,452.418 1225.59,448 "/>
</g>

<g fill="#ff0000" fill-opacity="1" stroke="none" transform="matrix(5e-05,0,0,5e-05,-171.5,-21.625)"
font-family="Helvetica" font-size="22" font-weight="400" font-style="normal" 
>
<path vector-effect="none" fill-rule="evenodd" d="M3.74755e+06,4.45528e+06 L3.80483e+06,4.45528e+06 L3.82364e+06,4.4e+06 L3.84245e+06,4.45528e+06 L3.89972e+06,4.45528e+06 L3.85407e+06,4.48989e+06 L3.87066e+06,4.54472e+06 L3.82364e+06,4.512e+06 L3.77661e+06,4.54472e+06 L3.7932e+06,4.48989e+06 L3.74755e+06,4.45528e+06"/>
</g>

<g fill="none" stroke="#ff0000" stroke-opacity="1" stroke-width="2" stroke-linecap="butt" stroke-linejoin="miter" stroke-miterlimit="2" transform="matrix(0.5,0,0,0.5,-171.5,-21.625)"
font-family="Helvetica" font-size="22" font-weight="400" font-style="normal" 
>
<path vector-effect="none" fill-rule="evenodd" d="M374.755,445.528 L380.483,445.528 L382.364,440 L384.245,445.528 L389.972,445.528 L385.407,448.989 L387.066,454.472 L382.364,451.2 L377.661,454.472 L379.32,448.989 L374.755,445.528"/>
</g>

<g fill="#ff0000" fill-opacity="1" stroke="none" transform="matrix(5e-05,0,0,5e-05,-171.5,-21.625)"
font-family="Helvetica" font-size="22" font-weight="400" font-style="normal" 
>
<path vector-effect="none" fill-rule="evenodd" d="M7.08846e+06,5.8871e+06 L7.14574e+06,5.8871e+06 L7.16455e+06,5.83182e+06 L7.18335e+06,5.8871e+06 L7.24063e+06,5.8871e+06 L7.19498e+06,5.92171e+06 L7.21157e+06,5.97654e+06 L7.16455e+06,5.94382e+06 L7.11752e+06,5.97654e+06 L7.13411e+06,5.92171e+06 L7.08846e+06,5.8871e+06"/>
</g>

<g fill="none" stroke="#ff0000" stroke-opacity="1" stroke-width="2" stroke-linecap="butt" stroke-linejoin="miter" stroke-miterlimit="2" transform="matrix(0.5,0,0,0.5,-171.5,-21.625)"
font-family="Helvetica" font-size="22" font-weight="400" font-style="normal" 
>
<path vector-effect="none" fill-rule="evenodd" d="M708.846,588.71 L714.574,588.71 L716.455,583.182 L718.335,588.71 L724.063,588.71 L719.498,592.171 L721.157,597.654 L716.455,594.382 L711.752,597.654 L713.411,592.171 L708.846,588.71"/>
</g>

<g fill="#ff0000" fill-opacity="1" stroke="none" transform="matrix(5e-05,0,0,5e-05,-171.5,-21.625)"
font-family="Helvetica" font-size="22" font-weight="400" font-style="normal" 
>
<path vector-effect="none" fill-rule="evenodd" d="M1.04294e+07,5.8871e+06 L1.04866e+07,5.8871e+06 L1.05055e+07,5.83182e+06 L1.05243e+07,5.8871e+06 L1.05815e+07,5.8871e+06 L1.05359e+07,5.92171e+06 L1.05525e+07,5.97654e+06 L1.05055e+07,5.94382e+06 L1.04584e+07,5.97654e+06 L1.0475e+07,5.92171e+06 L1.04294e+07,5.8871e+06"/>
</g>

<g fill="none" stroke="#ff0000" stroke-opacity="1" stroke-width="2" stroke-linecap="butt" stroke-linejoin="miter" stroke-miterlimit="2" transform="matrix(0.5,0,0,0.5,-171.5,-21.625)"
font-family="Helvetica" font-size="22" font-weight="400" font-style="normal" 
>
<path vector-effect="none" fill-rule="evenodd" d="M1042.94,588.71 L1048.66,588.71 L1050.55,583.182 L1052.43,588.71 L1058.15,588.71 L1053.59,592.171 L1055.25,597.654 L1050.55,594.382 L1045.84,597.654 L1047.5,592.171 L1042.94,588.71"/>
</g>

<g fill="#ff0000" fill-opacity="1" stroke="none" transform="matrix(5e-05,0,0,5e-05,-171.5,-21.625)"
font-family="Helvetica" font-size="22" font-weight="400" font-style="normal" 
>
<path vector-effect="none" fill-rule="evenodd" d="M1.37703e+07,5.8871e+06 L1.38276e+07,5.8871e+06 L1.38464e+07,5.83182e+06 L1.38652e+07,5.8871e+06 L1.39224e+07,5.8871e+06 L1.38768e+07,5.92171e+06 L1.38934e+07,5.97654e+06 L1.38464e+07,5.94382e+06 L1.37993e+07,5.97654e+06 L1.38159e+07,5.92171e+06 L1.37703e+07,5.8871e+06"/>
</g>

<g fill="none" stroke="#ff0000" stroke-opacity="1" stroke-width="2" stroke-linecap="butt" stroke-linejoin="miter" stroke-miterlimit="2" transform="matrix(0.5,0,0,0.5,-171.5,-21.625)"
font-family="Helvetica" font-size="22" font-weight="400" font-style="normal" 
>
<path vector-effect="none" fill-rule="evenodd" d="M1377.03,588.71 L1382.76,588.71 L1384.64,583.182 L1386.52,588.71 L1392.24,588.71 L1387.68,592.171 L1389.34,597.654 L1384.64,594.382 L1379.93,597.654 L1381.59,592.171 L1377.03,588.71"/>
</g>

<g fill="#ff0000" fill-opacity="1" stroke="none" transform="matrix(5e-05,0,0,5e-05,-171.5,-21.625)"
font-family="Helvetica" font-size="22" font-weight="400" font-style="normal" 
>
<path vector-effect="none" fill-rule="evenodd" d="M1.04103e+07,7.31273e+06 L1.04819e+07,7.31273e+06 L1.05055e+07,7.24364e+06 L1.0529e+07,7.31273e+06 L1.06006e+07,7.31273e+06 L1.05435e+07,7.356e+06 L1.05642e+07,7.42454e+06 L1.05055e+07,7.38364e+06 L1.04467e+07,7.42454e+06 L1.04674e+07,7.356e+06 L1.04103e+07,7.31273e+06"/>
</g>

<g fill="none" stroke="#ff0000" stroke-opacity="1" stroke-width="2" stroke-linecap="butt" stroke-linejoin="miter" stroke-miterlimit="2" transform="matrix(0.5,0,0,0.5,-171.5,-21.625)"
font-family="Helvetica" font-size="22" font-weight="400" font-style="normal" 
>
<path vector-effect="none" fill-rule="evenodd" d="M1041.03,731.273 L1048.19,731.273 L1050.55,724.364 L1052.9,731.273 L1060.06,731.273 L1054.35,735.6 L1056.42,742.454 L1050.55,738.364 L1044.67,742.454 L1046.74,735.6 L1041.03,731.273"/>
</g>

<g fill="#ff0000" fill-opacity="1" stroke="none" transform="matrix(5e-05,0,0,5e-05,-171.5,-21.625)"
font-family="Helvetica" font-size="22" font-weight="400" font-style="normal" 
>
<path vector-effect="none" fill-rule="evenodd" d="M7.08655e+06,1.53836e+06 L7.08655e+06,1.69436e+06 L7.24255e+06,1.69436e+06 L7.24255e+06,1.53836e+06 L7.08655e+06,1.53836e+06"/>
</g>

<g fill="none" stroke="#ff0000" stroke-opacity="1" stroke-width="2" stroke-linecap="butt" stroke-linejoin="miter" stroke-miterlimit="2" transform="matrix(0.5,0,0,0.5,-171.5,-21.625)"
font-family="Helvetica" font-size="22" font-weight="400" font-style="normal" 
>
<path vector-effect="none" fill-rule="evenodd" d="M708.655,153.836 L708.655,169.436 L724.255,169.436 L724.255,153.836 L708.655,153.836"/>
</g>

<g fill="#212121" fill-opacity="1" stroke="#212121" stroke-opacity="1" stroke-width="1" stroke-linecap="square" stroke-linejoin="bevel" transform="matrix(0.469846,0.17101,-0.17101,0.469846,22.7134,207.203)"
font-family="Helvetica" font-size="20" font-weight="400" font-style="normal" 
>
<text fill="#212121" fill-opacity="1" stroke="none" xml:space="preserve" x="0" y="0" font-family="Helvetica" font-size="20" font-weight="400" font-style="normal" 
 >8</text>
</g>

<g fill="#212121" fill-opacity="1" stroke="#212121" stroke-opacity="1" stroke-width="1" stroke-linecap="square" stroke-linejoin="bevel" transform="matrix(0.469846,0.17101,-0.17101,0.469846,189.759,278.794)"
font-family="Helvetica" font-size="20" font-weight="400" font-style="normal" 
>
<text fill="#212121" fill-opacity="1" stroke="none" xml:space="preserve" x="0" y="0" font-family="Helvetica" font-size="20" font-weight="400" font-style="normal" 
 >11</text>
</g>

<g fill="#212121" fill-opacity="1" stroke="#212121" stroke-opacity="1" stroke-width="1" stroke-linecap="square" stroke-linejoin="bevel" transform="matrix(0.469846,0.17101,-0.17101,0.469846,189.759,207.203)"
font-family="Helvetica" font-size="20" font-weight="400" font-style="normal" 
>
<text fill="#212121" fill-opacity="1" stroke="none" xml:space="preserve" x="0" y="0" font-family="Helvetica" font-size="20" font-weight="400" font-style="normal" 
 >12</text>
</g>

<g fill="#212121" fill-opacity="1" stroke="#212121" stroke-opacity="1" stroke-width="1" stroke-linecap="square" stroke-linejoin="bevel" transform="matrix(0.469846,0.17101,-0.17101,0.469846,189.759,135.612)"
font-family="Helvetica" font-size="20" font-weight="400" font-style="normal" 
>
<text fill="#212121" fill-opacity="1" stroke="none" xml:space="preserve" x="0" y="0" font-family="Helvetica" font-size="20" font-weight="400" font-style="normal" 
 >13</text>
</g>

<g fill="#212121" fill-opacity="1" stroke="#212121" stroke-opacity="1" stroke-width="1" stroke-linecap="square" stroke-linejoin="bevel" transform="matrix(0.469846,0.17101,-0.17101,0.469846,189.759,64.0212)"
font-family="Helvetica" font-size="20" font-weight="400" font-style="normal" 
>
<text fill="#212121" fill-opacity="1" stroke="none" xml:space="preserve" x="0" y="0" font-family="Helvetica" font-size="20" font-weight="400" font-style="normal" 
 >16</text>
</g>

<g fill="#212121" fill-opacity="1" stroke="#212121" stroke-opacity="1" stroke-width="1" stroke-linecap="square" stroke-linejoin="bevel" transform="matrix(0.469846,0.17101,-0.17101,0.469846,440.327,207.203)"
font-family="Helvetica" font-size="20" font-weight="400" font-style="normal" 
>
<text fill="#212121" fill-opacity="1" stroke="none" xml:space="preserve" x="0" y="0" font-family="Helvetica" font-size="20" font-weight="400" font-style="normal" 
 >18</text>
</g>

<g fill="#212121" fill-opacity="1" stroke="#212121" stroke-opacity="1" stroke-width="1" stroke-linecap="square" stroke-linejoin="bevel" transform="matrix(0.469846,0.17101,-0.17101,0.469846,356.804,278.794)"
font-family="Helvetica" font-size="20" font-weight="400" font-style="normal" 
>
<text fill="#212121" fill-opacity="1" stroke="none" xml:space="preserve" x="0" y="0" font-family="Helvetica" font-size="20" font-weight="400" font-style="normal" 
 >19</text>
</g>

<g fill="#212121" fill-opacity="1" stroke="#212121" stroke-opacity="1" stroke-width="1" stroke-linecap="square" stroke-linejoin="bevel" transform="matrix(0.469846,0.17101,-0.17101,0.469846,523.85,278.794)"
font-family="Helvetica" font-size="20" font-weight="400" font-style="normal" 
>
<text fill="#212121" fill-opacity="1" stroke="none" xml:space="preserve" x="0" y="0" font-family="Helvetica" font-size="20" font-weight="400" font-style="normal" 
 >20</text>
</g>

<g fill="#212121" fill-opacity="1" stroke="#212121" stroke-opacity="1" stroke-width="1" stroke-linecap="square" stroke-linejoin="bevel" transform="matrix(0.469846,0.17101,-0.17101,0.469846,356.804,350.385)"
font-family="Helvetica" font-size="20" font-weight="400" font-style="normal" 
>
<text fill="#212121" fill-opacity="1" stroke="none" xml:space="preserve" x="0" y="0" font-family="Helvetica" font-size="20" font-weight="400" font-style="normal" 
 >22</text>
</g>

<g fill="#212121" fill-opacity="1" stroke="#212121" stroke-opacity="1" stroke-width="1" stroke-linecap="square" stroke-linejoin="bevel" transform="matrix(0,0.5,-0.5,0,189.227,232.67)"
font-family="Helvetica" font-size="20" font-weight="400" font-style="italic" 
>
<text fill="#212121" fill-opacity="1" stroke="none" xml:space="preserve" x="0" y="0" font-family="Helvetica" font-size="20" font-weight="400" font-style="italic" 
 >33</text>
</g>

<g fill="#212121" fill-opacity="1" stroke="#212121" stroke-opacity="1" stroke-width="1" stroke-linecap="square" stroke-linejoin="bevel" transform="matrix(0.459573,-0.19696,0.19696,0.459573,97.1645,166.448)"
font-family="Helvetica" font-size="20" font-weight="400" font-style="italic" 
>
<text fill="#212121" fill-opacity="1" stroke="none" xml:space="preserve" x="0" y="0" font-family="Helvetica" font-size="20" font-weight="400" font-style="italic" 
 >36</text>
</g>

<g fill="#212121" fill-opacity="1" stroke="#212121" stroke-opacity="1" stroke-width="1" stroke-linecap="square" stroke-linejoin="bevel" transform="matrix(0,0.5,-0.5,0,189.227,161.08)"
font-family="Helvetica" font-size="20" font-weight="400" font-style="italic" 
>
<text fill="#212121" fill-opacity="1" stroke="none" xml:space="preserve" x="0" y="0" font-family="Helvetica" font-size="20" font-weight="400" font-style="italic" 
 >37</text>
</g>

<g fill="#212121" fill-opacity="1" stroke="#212121" stroke-opacity="1" stroke-width="1" stroke-linecap="square" stroke-linejoin="bevel" transform="matrix(0.480762,0.137361,-0.137361,0.480762,307.41,162.665)"
font-family="Helvetica" font-size="20" font-weight="400" font-style="italic" 
>
<text fill="#212121" fill-opacity="1" stroke="none" xml:space="preserve" x="0" y="0" font-family="Helvetica" font-size="20" font-weight="400" font-style="italic" 
 >39</text>
</g>

<g fill="#212121" fill-opacity="1" stroke="#212121" stroke-opacity="1" stroke-width="1" stroke-linecap="square" stroke-linejoin="bevel" transform="matrix(0,0.5,-0.5,0,189.227,89.4886)"
font-family="Helvetica" font-size="20" font-weight="400" font-style="italic" 
>
<text fill="#212121" fill-opacity="1" stroke="none" xml:space="preserve" x="0" y="0" font-family="Helvetica" font-size="20" font-weight="400" font-style="italic" 
 >48</text>
</g>

<g fill="#212121" fill-opacity="1" stroke="#212121" stroke-opacity="1" stroke-width="1" stroke-linecap="square" stroke-linejoin="bevel" transform="matrix(0.379628,-0.325396,0.325396,0.379628,389.731,239.852)"
font-family="Helvetica" font-size="20" font-weight="400" font-style="italic" 
>
<text fill="#212121" fill-opacity="1" stroke="none" xml:space="preserve" x="0" y="0" font-family="Helvetica" font-size="20" font-weight="400" font-style="italic" 
 >57</text>
</g>

<g fill="#212121" fill-opacity="1" stroke="#212121" stroke-opacity="1" stroke-width="1" stroke-linecap="square" stroke-linejoin="bevel" transform="matrix(0.379628,0.325396,-0.325396,0.379628,476.508,232.693)"
font-family="Helvetica" font-size="20" font-weight="400" font-style="italic" 
>
<text fill="#212121" fill-opacity="1" stroke="none" xml:space="preserve" x="0" y="0" font-family="Helvetica" font-size="20" font-weight="400" font-style="italic" 
 >58</text>
</g>

<g fill="#212121" fill-opacity="1" stroke="#212121" stroke-opacity="1" stroke-width="1" stroke-linecap="square" stroke-linejoin="bevel" transform="matrix(0,0.5,-0.5,0,356.273,304.261)"
font-family="Helvetica" font-size="20" font-weight="400" font-style="italic" 
>
<text fill="#212121" fill-opacity="1" stroke="none" xml:space="preserve" x="0" y="0" font-family="Helvetica" font-size="20" font-weight="400" font-style="italic" 
 >62</text>
</g>

<g fill="#ff0000" fill-opacity="1" stroke="#ff0000" stroke-opacity="1" stroke-width="1" stroke-linecap="square" stroke-linejoin="bevel" transform="matrix(0.5,0,0,0.5,169.977,51.9545)"
font-family="Helvetica" font-size="20" font-weight="700" font-style="normal" 
>
<text fill="#ff0000" fill-opacity="1" stroke="none" xml:space="preserve" x="0" y="0" font-family="Helvetica" font-size="20" font-weight="700" font-style="normal" 
 >Source</text>
</g>

<g fill="#ff0000" fill-opacity="1" stroke="#ff0000" stroke-opacity="1" stroke-width="1" stroke-linecap="square" stroke-linejoin="bevel" transform="matrix(0.5,0,0,0.5,181.477,287.455)"
font-family="Helvetica" font-size="16" font-weight="400" font-style="normal" 
>
<text fill="#ff0000" fill-opacity="1" stroke="none" xml:space="preserve" x="0" y="0" font-family="Helvetica" font-size="16" font-weight="400" font-style="normal" 
 >D1</text>
</g>

<g fill="#ff0000" fill-opacity="1" stroke="#ff0000" stroke-opacity="1" stroke-width="1" stroke-linecap="square" stroke-linejoin="bevel" transform="matrix(0.5,0,0,0.5,348.523,287.455)"
font-family="Helvetica" font-size="16" font-weight="400" font-style="normal" 
>
<text fill="#ff0000" fill-opacity="1" stroke="none" xml:space="preserve" x="0" y="0" font-family="Helvetica" font-size="16" font-weight="400" font-style="normal" 
 >D2</text>
</g>

<g fill="#ff0000" fill-opacity="1" stroke="#ff0000" stroke-opacity="1" stroke-width="1" stroke-linecap="square" stroke-linejoin="bevel" transform="matrix(0.5,0,0,0.5,515.568,287.455)"
font-family="Helvetica" font-size="16" font-weight="400" font-style="normal" 
>
<text fill="#ff0000" fill-opacity="1" stroke="none" xml:space="preserve" x="0" y="0" font-family="Helvetica" font-size="16" font-weight="400" font-style="normal" 
 >D3</text>
</g>

<g fill="#ff0000" fill-opacity="1" stroke="#ff0000" stroke-opacity="1" stroke-width="1" stroke-linecap="square" stroke-linejoin="bevel" transform="matrix(0.5,0,0,0.5,14.4318,215.864)"
font-family="Helvetica" font-size="16" font-weight="400" font-style="normal" 
>
<text fill="#ff0000" fill-opacity="1" stroke="none" xml:space="preserve" x="0" y="0" font-family="Helvetica" font-size="16" font-weight="400" font-style="normal" 
 >D4</text>
</g>

<g fill="#ff0000" fill-opacity="1" stroke="#ff0000" stroke-opacity="1" stroke-width="1" stroke-linecap="square" stroke-linejoin="bevel" transform="matrix(0.5,0,0,0.5,348.523,359.045)"
font-family="Helvetica" font-size="16" font-weight="400" font-style="normal" 
>
<text fill="#ff0000" fill-opacity="1" stroke="none" xml:space="preserve" x="0" y="0" font-family="Helvetica" font-size="16" font-weight="400" font-style="normal" 
 >D5</text>
</g>

<g fill="#0000ff" fill-opacity="1" stroke="#0000ff" stroke-opacity="1" stroke-width="1" stroke-linecap="square" stroke-linejoin="bevel" transform="matrix(0.5,0,0,0.5,1.5,191.375)"
font-family="Helvetica" font-size="18" font-weight="700" font-style="normal" 
>
<text fill="#0000ff" fill-opacity="1" stroke="none" xml:space="preserve" x="0" y="0" font-family="Helvetica" font-size="18" font-weight="700" font-style="normal" 
 >VNF: 2,3</text>
</g>

<g fill="#0000ff" fill-opacity="1" stroke="#0000ff" stroke-opacity="1" stroke-width="1" stroke-linecap="square" stroke-linejoin="bevel" transform="matrix(0.5,0,0,0.5,172,263.375)"
font-family="Helvetica" font-size="18" font-weight="700" font-style="normal" 
>
<text fill="#0000ff" fill-opacity="1" stroke="none" xml:space="preserve" x="0" y="0" font-family="Helvetica" font-size="18" font-weight="700" font-style="normal" 
 >VNF: 2</text>
</g>

<g fill="#0000ff" fill-opacity="1" stroke="#0000ff" stroke-opacity="1" stroke-width="1" stroke-linecap="square" stroke-linejoin="bevel" transform="matrix(0.5,0,0,0.5,172,191.375)"
font-family="Helvetica" font-size="18" font-weight="700" font-style="normal" 
>
<text fill="#0000ff" fill-opacity="1" stroke="none" xml:space="preserve" x="0" y="0" font-family="Helvetica" font-size="18" font-weight="700" font-style="normal" 
 >VNF: 3</text>
</g>

<g fill="#0000ff" fill-opacity="1" stroke="#0000ff" stroke-opacity="1" stroke-width="1" stroke-linecap="square" stroke-linejoin="bevel" transform="matrix(0.5,0,0,0.5,172,119.875)"
font-family="Helvetica" font-size="18" font-weight="700" font-style="normal" 
>
<text fill="#0000ff" fill-opacity="1" stroke="none" xml:space="preserve" x="0" y="0" font-family="Helvetica" font-size="18" font-weight="700" font-style="normal" 
 >VNF: 1</text>
</g>

<g fill="#0000ff" fill-opacity="1" stroke="#0000ff" stroke-opacity="1" stroke-width="1" stroke-linecap="square" stroke-linejoin="bevel" transform="matrix(0.5,0,0,0.5,423,191.375)"
font-family="Helvetica" font-size="18" font-weight="700" font-style="normal" 
>
<text fill="#0000ff" fill-opacity="1" stroke="none" xml:space="preserve" x="0" y="0" font-family="Helvetica" font-size="18" font-weight="700" font-style="normal" 
 >VNF: 3</text>
</g>

<g fill="#0000ff" fill-opacity="1" stroke="#0000ff" stroke-opacity="1" stroke-width="1" stroke-linecap="square" stroke-linejoin="bevel" transform="matrix(0.5,0,0,0.5,339.5,263.375)"
font-family="Helvetica" font-size="18" font-weight="700" font-style="normal" 
>
<text fill="#0000ff" fill-opacity="1" stroke="none" xml:space="preserve" x="0" y="0" font-family="Helvetica" font-size="18" font-weight="700" font-style="normal" 
 >VNF: 2</text>
</g>

<g fill="#0000ff" fill-opacity="1" stroke="#0000ff" stroke-opacity="1" stroke-width="1" stroke-linecap="square" stroke-linejoin="bevel" transform="matrix(0.5,0,0,0.5,506.5,263.375)"
font-family="Helvetica" font-size="18" font-weight="700" font-style="normal" 
>
<text fill="#0000ff" fill-opacity="1" stroke="none" xml:space="preserve" x="0" y="0" font-family="Helvetica" font-size="18" font-weight="700" font-style="normal" 
 >VNF: 2</text>
</g>
</g>
</svg>
