<?xml version="1.0" encoding="UTF-8" standalone="no"?>
<svg width="191.911mm" height="128.764mm"
 viewBox="0 0 544 365"
 xmlns="http://www.w3.org/2000/svg" xmlns:xlink="http://www.w3.org/1999/xlink"  version="1.2" baseProfile="tiny">
<title>Qt SVG Document</title>
<desc>MATLAB, The MathWorks, Inc. Version 25.2.0.2998904 R2025b</desc>
<defs>
</defs>
<g fill="none" stroke="black" stroke-width="1" fill-rule="evenodd" stroke-linecap="square" stroke-linejoin="bevel" >

<g fill="#ffffff" fill-opacity="1" stroke="none" transform="matrix(0.5,0,0,0.5,-171.5,-21.625)"
font-family="SimSun" font-size="9" font-weight="400" font-style="normal" 
>
<path vector-effect="none" fill-rule="evenodd" d="M342,42 L1430,42 L1430,772 L342,772 L342,42"/>
</g>

<g fill="#212121" fill-opacity="1" stroke="#212121" stroke-opacity="1" stroke-width="1" stroke-linecap="square" stroke-linejoin="bevel" transform="matrix(0.5,0,0,0.5,147.75,9.5)"
font-family="Helvetica" font-size="22" font-weight="400" font-style="normal" 
>
<text fill="#212121" fill-opacity="1" stroke="none" xml:space="preserve" x="0" y="0" font-family="Helvetica" font-size="22" font-weight="400" font-style="normal" 
 >Multicast Service Function Chain Tree (Req ID: 29)</text>
</g>

<g fill="#1171be" fill-opacity="0.501961" stroke="none" transform="matrix(5e-05,0,0,5e-05,-171.5,-21.625)"
font-family="Helvetica" font-size="22" font-weight="400" font-style="normal" 
>
<path vector-effect="none" fill-rule="evenodd" d="M7.16455e+06,6.38909e+06 L7.23955e+06,6.18909e+06 L7.16455e+06,6.25909e+06 L7.08955e+06,6.18909e+06 L7.16455e+06,6.38909e+06"/>
</g>

<g fill="#1171be" fill-opacity="0.501961" stroke="none" transform="matrix(5e-05,0,0,5e-05,-171.5,-21.625)"
font-family="Helvetica" font-size="22" font-weight="400" font-style="normal" 
>
<path vector-effect="none" fill-rule="evenodd" d="M5.49409e+06,4.48e+06 L5.70495e+06,4.44589e+06 L5.60696e+06,4.4155e+06 L5.63053e+06,4.31565e+06 L5.49409e+06,4.48e+06"/>
</g>

<g fill="#1171be" fill-opacity="0.501961" stroke="none" transform="matrix(5e-05,0,0,5e-05,-171.5,-21.625)"
font-family="Helvetica" font-size="22" font-weight="400" font-style="normal" 
>
<path vector-effect="none" fill-rule="evenodd" d="M7.16455e+06,4.48e+06 L7.23955e+06,4.28e+06 L7.16455e+06,4.35e+06 L7.08955e+06,4.28e+06 L7.16455e+06,4.48e+06"/>
</g>

<g fill="#1171be" fill-opacity="0.501961" stroke="none" transform="matrix(5e-05,0,0,5e-05,-171.5,-21.625)"
font-family="Helvetica" font-size="22" font-weight="400" font-style="normal" 
>
<path vector-effect="none" fill-rule="evenodd" d="M8.835e+06,4.48e+06 L8.69856e+06,4.31565e+06 L8.72213e+06,4.4155e+06 L8.62414e+06,4.44589e+06 L8.835e+06,4.48e+06"/>
</g>

<g fill="#1171be" fill-opacity="0.501961" stroke="none" transform="matrix(5e-05,0,0,5e-05,-171.5,-21.625)"
font-family="Helvetica" font-size="22" font-weight="400" font-style="normal" 
>
<path vector-effect="none" fill-rule="evenodd" d="M8.835e+06,2.57091e+06 L9.04586e+06,2.5368e+06 L8.94787e+06,2.50641e+06 L8.97144e+06,2.40656e+06 L8.835e+06,2.57091e+06"/>
</g>

<g fill="#1171be" fill-opacity="0.501961" stroke="none" transform="matrix(5e-05,0,0,5e-05,-171.5,-21.625)"
font-family="Helvetica" font-size="22" font-weight="400" font-style="normal" 
>
<path vector-effect="none" fill-rule="evenodd" d="M1.21759e+07,2.57091e+06 L1.20395e+07,2.40656e+06 L1.2063e+07,2.50641e+06 L1.19651e+07,2.5368e+06 L1.21759e+07,2.57091e+06"/>
</g>

<g fill="#1171be" fill-opacity="0.501961" stroke="none" transform="matrix(5e-05,0,0,5e-05,-171.5,-21.625)"
font-family="Helvetica" font-size="22" font-weight="400" font-style="normal" 
>
<path vector-effect="none" fill-rule="evenodd" d="M1.05055e+07,6.38909e+06 L1.05805e+07,6.18909e+06 L1.05055e+07,6.25909e+06 L1.04305e+07,6.18909e+06 L1.05055e+07,6.38909e+06"/>
</g>

<g fill="#1171be" fill-opacity="0.501961" stroke="none" transform="matrix(5e-05,0,0,5e-05,-171.5,-21.625)"
font-family="Helvetica" font-size="22" font-weight="400" font-style="normal" 
>
<path vector-effect="none" fill-rule="evenodd" d="M1.38464e+07,4.48e+06 L1.39214e+07,4.28e+06 L1.38464e+07,4.35e+06 L1.37714e+07,4.28e+06 L1.38464e+07,4.48e+06"/>
</g>

<g fill="#1171be" fill-opacity="0.501961" stroke="#1171be" stroke-opacity="0.501961" stroke-width="2.4" stroke-linecap="butt" stroke-linejoin="round" transform="matrix(0.5,0,0,0.5,-171.5,-21.625)"
font-family="Helvetica" font-size="22" font-weight="400" font-style="normal" 
>
<polyline fill="none" vector-effect="none" points="716.455,543.455 716.455,734.364 " />
<polyline fill="none" vector-effect="none" points="716.455,352.545 382.364,543.455 " />
<polyline fill="none" vector-effect="none" points="716.455,352.545 716.455,543.455 " />
<polyline fill="none" vector-effect="none" points="716.455,352.545 1050.55,543.455 " />
<polyline fill="none" vector-effect="none" points="1050.55,161.636 716.455,352.545 " />
<polyline fill="none" vector-effect="none" points="1050.55,161.636 1384.64,352.545 " />
<polyline fill="none" vector-effect="none" points="1050.55,543.455 1050.55,734.364 " />
<polyline fill="none" vector-effect="none" points="1384.64,352.545 1384.64,543.455 " />
</g>

<g fill="#999999" fill-opacity="1" stroke="none" transform="matrix(0.5,0,0,0.5,-171.5,-21.625)"
font-family="Helvetica" font-size="22" font-weight="400" font-style="normal" 
>
<circle cx="716.455" cy="543.455" r="8"/>
</g>

<g fill="none" stroke="#999999" stroke-opacity="1" stroke-width="2" stroke-linecap="butt" stroke-linejoin="miter" stroke-miterlimit="2" transform="matrix(0.5,0,0,0.5,-171.5,-21.625)"
font-family="Helvetica" font-size="22" font-weight="400" font-style="normal" 
>
<path vector-effect="none" fill-rule="evenodd" d="M724.455,543.455 C724.455,539.036 720.873,535.455 716.455,535.455 C712.036,535.455 708.455,539.036 708.455,543.455 C708.455,547.873 712.036,551.455 716.455,551.455 C720.873,551.455 724.455,547.873 724.455,543.455 "/>
</g>

<g fill="#999999" fill-opacity="1" stroke="none" transform="matrix(0.5,0,0,0.5,-171.5,-21.625)"
font-family="Helvetica" font-size="22" font-weight="400" font-style="normal" 
>
<circle cx="716.455" cy="352.545" r="8"/>
</g>

<g fill="none" stroke="#999999" stroke-opacity="1" stroke-width="2" stroke-linecap="butt" stroke-linejoin="miter" stroke-miterlimit="2" transform="matrix(0.5,0,0,0.5,-171.5,-21.625)"
font-family="Helvetica" font-size="22" font-weight="400" font-style="normal" 
>
<path vector-effect="none" fill-rule="evenodd" d="M724.455,352.545 C724.455,348.127 720.873,344.545 716.455,344.545 C712.036,344.545 708.455,348.127 708.455,352.545 C708.455,356.964 712.036,360.545 716.455,360.545 C720.873,360.545 724.455,356.964 724.455,352.545 "/>
</g>

<g fill="#999999" fill-opacity="1" stroke="none" transform="matrix(0.5,0,0,0.5,-171.5,-21.625)"
font-family="Helvetica" font-size="22" font-weight="400" font-style="normal" 
>
<circle cx="1050.55" cy="543.455" r="8"/>
</g>

<g fill="none" stroke="#999999" stroke-opacity="1" stroke-width="2" stroke-linecap="butt" stroke-linejoin="miter" stroke-miterlimit="2" transform="matrix(0.5,0,0,0.5,-171.5,-21.625)"
font-family="Helvetica" font-size="22" font-weight="400" font-style="normal" 
>
<path vector-effect="none" fill-rule="evenodd" d="M1058.55,543.455 C1058.55,539.036 1054.96,535.455 1050.55,535.455 C1046.13,535.455 1042.55,539.036 1042.55,543.455 C1042.55,547.873 1046.13,551.455 1050.55,551.455 C1054.96,551.455 1058.55,547.873 1058.55,543.455 "/>
</g>

<g fill="#ff0000" fill-opacity="1" stroke="none" transform="matrix(5e-05,0,0,5e-05,-171.5,-21.625)"
font-family="Helvetica" font-size="22" font-weight="400" font-style="normal" 
>
<path vector-effect="none" fill-rule="evenodd" d="M3.74755e+06,5.40982e+06 L3.80483e+06,5.40982e+06 L3.82364e+06,5.35455e+06 L3.84245e+06,5.40982e+06 L3.89972e+06,5.40982e+06 L3.85407e+06,5.44443e+06 L3.87066e+06,5.49927e+06 L3.82364e+06,5.46655e+06 L3.77661e+06,5.49927e+06 L3.7932e+06,5.44443e+06 L3.74755e+06,5.40982e+06"/>
</g>

<g fill="none" stroke="#ff0000" stroke-opacity="1" stroke-width="2" stroke-linecap="butt" stroke-linejoin="miter" stroke-miterlimit="2" transform="matrix(0.5,0,0,0.5,-171.5,-21.625)"
font-family="Helvetica" font-size="22" font-weight="400" font-style="normal" 
>
<path vector-effect="none" fill-rule="evenodd" d="M374.755,540.982 L380.483,540.982 L382.364,535.455 L384.245,540.982 L389.972,540.982 L385.407,544.443 L387.066,549.927 L382.364,546.655 L377.661,549.927 L379.32,544.443 L374.755,540.982"/>
</g>

<g fill="#ff0000" fill-opacity="1" stroke="none" transform="matrix(5e-05,0,0,5e-05,-171.5,-21.625)"
font-family="Helvetica" font-size="22" font-weight="400" font-style="normal" 
>
<path vector-effect="none" fill-rule="evenodd" d="M7.08846e+06,7.31892e+06 L7.14574e+06,7.31892e+06 L7.16455e+06,7.26364e+06 L7.18335e+06,7.31892e+06 L7.24063e+06,7.31892e+06 L7.19498e+06,7.35353e+06 L7.21157e+06,7.40836e+06 L7.16455e+06,7.37564e+06 L7.11752e+06,7.40836e+06 L7.13411e+06,7.35353e+06 L7.08846e+06,7.31892e+06"/>
</g>

<g fill="none" stroke="#ff0000" stroke-opacity="1" stroke-width="2" stroke-linecap="butt" stroke-linejoin="miter" stroke-miterlimit="2" transform="matrix(0.5,0,0,0.5,-171.5,-21.625)"
font-family="Helvetica" font-size="22" font-weight="400" font-style="normal" 
>
<path vector-effect="none" fill-rule="evenodd" d="M708.846,731.891 L714.574,731.891 L716.455,726.364 L718.335,731.891 L724.063,731.891 L719.498,735.353 L721.157,740.836 L716.455,737.564 L711.752,740.836 L713.411,735.353 L708.846,731.891"/>
</g>

<g fill="#ff0000" fill-opacity="1" stroke="none" transform="matrix(5e-05,0,0,5e-05,-171.5,-21.625)"
font-family="Helvetica" font-size="22" font-weight="400" font-style="normal" 
>
<path vector-effect="none" fill-rule="evenodd" d="M1.37703e+07,3.50073e+06 L1.38276e+07,3.50073e+06 L1.38464e+07,3.44545e+06 L1.38652e+07,3.50073e+06 L1.39224e+07,3.50073e+06 L1.38768e+07,3.53534e+06 L1.38934e+07,3.59018e+06 L1.38464e+07,3.55745e+06 L1.37993e+07,3.59018e+06 L1.38159e+07,3.53534e+06 L1.37703e+07,3.50073e+06"/>
</g>

<g fill="none" stroke="#ff0000" stroke-opacity="1" stroke-width="2" stroke-linecap="butt" stroke-linejoin="miter" stroke-miterlimit="2" transform="matrix(0.5,0,0,0.5,-171.5,-21.625)"
font-family="Helvetica" font-size="22" font-weight="400" font-style="normal" 
>
<path vector-effect="none" fill-rule="evenodd" d="M1377.03,350.073 L1382.76,350.073 L1384.64,344.545 L1386.52,350.073 L1392.24,350.073 L1387.68,353.534 L1389.34,359.018 L1384.64,355.745 L1379.93,359.018 L1381.59,353.534 L1377.03,350.073"/>
</g>

<g fill="#ff0000" fill-opacity="1" stroke="none" transform="matrix(5e-05,0,0,5e-05,-171.5,-21.625)"
font-family="Helvetica" font-size="22" font-weight="400" font-style="normal" 
>
<path vector-effect="none" fill-rule="evenodd" d="M1.04294e+07,7.31892e+06 L1.04866e+07,7.31892e+06 L1.05055e+07,7.26364e+06 L1.05243e+07,7.31892e+06 L1.05815e+07,7.31892e+06 L1.05359e+07,7.35353e+06 L1.05525e+07,7.40836e+06 L1.05055e+07,7.37564e+06 L1.04584e+07,7.40836e+06 L1.0475e+07,7.35353e+06 L1.04294e+07,7.31892e+06"/>
</g>

<g fill="none" stroke="#ff0000" stroke-opacity="1" stroke-width="2" stroke-linecap="butt" stroke-linejoin="miter" stroke-miterlimit="2" transform="matrix(0.5,0,0,0.5,-171.5,-21.625)"
font-family="Helvetica" font-size="22" font-weight="400" font-style="normal" 
>
<path vector-effect="none" fill-rule="evenodd" d="M1042.94,731.891 L1048.66,731.891 L1050.55,726.364 L1052.43,731.891 L1058.15,731.891 L1053.59,735.353 L1055.25,740.836 L1050.55,737.564 L1045.84,740.836 L1047.5,735.353 L1042.94,731.891"/>
</g>

<g fill="#ff0000" fill-opacity="1" stroke="none" transform="matrix(5e-05,0,0,5e-05,-171.5,-21.625)"
font-family="Helvetica" font-size="22" font-weight="400" font-style="normal" 
>
<path vector-effect="none" fill-rule="evenodd" d="M1.37513e+07,5.40364e+06 L1.38229e+07,5.40364e+06 L1.38464e+07,5.33455e+06 L1.38699e+07,5.40364e+06 L1.39415e+07,5.40364e+06 L1.38844e+07,5.44691e+06 L1.39051e+07,5.51545e+06 L1.38464e+07,5.47455e+06 L1.37876e+07,5.51545e+06 L1.38083e+07,5.44691e+06 L1.37513e+07,5.40364e+06"/>
</g>

<g fill="none" stroke="#ff0000" stroke-opacity="1" stroke-width="2" stroke-linecap="butt" stroke-linejoin="miter" stroke-miterlimit="2" transform="matrix(0.5,0,0,0.5,-171.5,-21.625)"
font-family="Helvetica" font-size="22" font-weight="400" font-style="normal" 
>
<path vector-effect="none" fill-rule="evenodd" d="M1375.13,540.364 L1382.29,540.364 L1384.64,533.455 L1386.99,540.364 L1394.15,540.364 L1388.44,544.691 L1390.51,551.545 L1384.64,547.455 L1378.76,551.545 L1380.83,544.691 L1375.13,540.364"/>
</g>

<g fill="#ff0000" fill-opacity="1" stroke="none" transform="matrix(5e-05,0,0,5e-05,-171.5,-21.625)"
font-family="Helvetica" font-size="22" font-weight="400" font-style="normal" 
>
<path vector-effect="none" fill-rule="evenodd" d="M1.04275e+07,1.53836e+06 L1.04275e+07,1.69436e+06 L1.05835e+07,1.69436e+06 L1.05835e+07,1.53836e+06 L1.04275e+07,1.53836e+06"/>
</g>

<g fill="none" stroke="#ff0000" stroke-opacity="1" stroke-width="2" stroke-linecap="butt" stroke-linejoin="miter" stroke-miterlimit="2" transform="matrix(0.5,0,0,0.5,-171.5,-21.625)"
font-family="Helvetica" font-size="22" font-weight="400" font-style="normal" 
>
<path vector-effect="none" fill-rule="evenodd" d="M1042.75,153.836 L1042.75,169.436 L1058.35,169.436 L1058.35,153.836 L1042.75,153.836"/>
</g>

<g fill="#212121" fill-opacity="1" stroke="#212121" stroke-opacity="1" stroke-width="1" stroke-linecap="square" stroke-linejoin="bevel" transform="matrix(0.469846,0.17101,-0.17101,0.469846,22.7134,254.93)"
font-family="Helvetica" font-size="20" font-weight="400" font-style="normal" 
>
<text fill="#212121" fill-opacity="1" stroke="none" xml:space="preserve" x="0" y="0" font-family="Helvetica" font-size="20" font-weight="400" font-style="normal" 
 >8</text>
</g>

<g fill="#212121" fill-opacity="1" stroke="#212121" stroke-opacity="1" stroke-width="1" stroke-linecap="square" stroke-linejoin="bevel" transform="matrix(0.469846,0.17101,-0.17101,0.469846,189.759,350.385)"
font-family="Helvetica" font-size="20" font-weight="400" font-style="normal" 
>
<text fill="#212121" fill-opacity="1" stroke="none" xml:space="preserve" x="0" y="0" font-family="Helvetica" font-size="20" font-weight="400" font-style="normal" 
 >11</text>
</g>

<g fill="#212121" fill-opacity="1" stroke="#212121" stroke-opacity="1" stroke-width="1" stroke-linecap="square" stroke-linejoin="bevel" transform="matrix(0.469846,0.17101,-0.17101,0.469846,189.759,254.93)"
font-family="Helvetica" font-size="20" font-weight="400" font-style="normal" 
>
<text fill="#212121" fill-opacity="1" stroke="none" xml:space="preserve" x="0" y="0" font-family="Helvetica" font-size="20" font-weight="400" font-style="normal" 
 >12</text>
</g>

<g fill="#212121" fill-opacity="1" stroke="#212121" stroke-opacity="1" stroke-width="1" stroke-linecap="square" stroke-linejoin="bevel" transform="matrix(0.469846,0.17101,-0.17101,0.469846,189.759,159.476)"
font-family="Helvetica" font-size="20" font-weight="400" font-style="normal" 
>
<text fill="#212121" fill-opacity="1" stroke="none" xml:space="preserve" x="0" y="0" font-family="Helvetica" font-size="20" font-weight="400" font-style="normal" 
 >13</text>
</g>

<g fill="#212121" fill-opacity="1" stroke="#212121" stroke-opacity="1" stroke-width="1" stroke-linecap="square" stroke-linejoin="bevel" transform="matrix(0.469846,0.17101,-0.17101,0.469846,356.804,64.0212)"
font-family="Helvetica" font-size="20" font-weight="400" font-style="normal" 
>
<text fill="#212121" fill-opacity="1" stroke="none" xml:space="preserve" x="0" y="0" font-family="Helvetica" font-size="20" font-weight="400" font-style="normal" 
 >16</text>
</g>

<g fill="#212121" fill-opacity="1" stroke="#212121" stroke-opacity="1" stroke-width="1" stroke-linecap="square" stroke-linejoin="bevel" transform="matrix(0.469846,0.17101,-0.17101,0.469846,356.804,254.93)"
font-family="Helvetica" font-size="20" font-weight="400" font-style="normal" 
>
<text fill="#212121" fill-opacity="1" stroke="none" xml:space="preserve" x="0" y="0" font-family="Helvetica" font-size="20" font-weight="400" font-style="normal" 
 >18</text>
</g>

<g fill="#212121" fill-opacity="1" stroke="#212121" stroke-opacity="1" stroke-width="1" stroke-linecap="square" stroke-linejoin="bevel" transform="matrix(0.469846,0.17101,-0.17101,0.469846,523.85,159.476)"
font-family="Helvetica" font-size="20" font-weight="400" font-style="normal" 
>
<text fill="#212121" fill-opacity="1" stroke="none" xml:space="preserve" x="0" y="0" font-family="Helvetica" font-size="20" font-weight="400" font-style="normal" 
 >19</text>
</g>

<g fill="#212121" fill-opacity="1" stroke="#212121" stroke-opacity="1" stroke-width="1" stroke-linecap="square" stroke-linejoin="bevel" transform="matrix(0.469846,0.17101,-0.17101,0.469846,356.804,350.385)"
font-family="Helvetica" font-size="20" font-weight="400" font-style="normal" 
>
<text fill="#212121" fill-opacity="1" stroke="none" xml:space="preserve" x="0" y="0" font-family="Helvetica" font-size="20" font-weight="400" font-style="normal" 
 >20</text>
</g>

<g fill="#212121" fill-opacity="1" stroke="#212121" stroke-opacity="1" stroke-width="1" stroke-linecap="square" stroke-linejoin="bevel" transform="matrix(0.469846,0.17101,-0.17101,0.469846,523.85,254.93)"
font-family="Helvetica" font-size="20" font-weight="400" font-style="normal" 
>
<text fill="#212121" fill-opacity="1" stroke="none" xml:space="preserve" x="0" y="0" font-family="Helvetica" font-size="20" font-weight="400" font-style="normal" 
 >22</text>
</g>

<g fill="#212121" fill-opacity="1" stroke="#212121" stroke-opacity="1" stroke-width="1" stroke-linecap="square" stroke-linejoin="bevel" transform="matrix(0,0.5,-0.5,0,189.227,292.33)"
font-family="Helvetica" font-size="20" font-weight="400" font-style="italic" 
>
<text fill="#212121" fill-opacity="1" stroke="none" xml:space="preserve" x="0" y="0" font-family="Helvetica" font-size="20" font-weight="400" font-style="italic" 
 >33</text>
</g>

<g fill="#212121" fill-opacity="1" stroke="#212121" stroke-opacity="1" stroke-width="1" stroke-linecap="square" stroke-linejoin="bevel" transform="matrix(0.434122,-0.248069,0.248069,0.434122,97.1889,202.933)"
font-family="Helvetica" font-size="20" font-weight="400" font-style="italic" 
>
<text fill="#212121" fill-opacity="1" stroke="none" xml:space="preserve" x="0" y="0" font-family="Helvetica" font-size="20" font-weight="400" font-style="italic" 
 >36</text>
</g>

<g fill="#212121" fill-opacity="1" stroke="#212121" stroke-opacity="1" stroke-width="1" stroke-linecap="square" stroke-linejoin="bevel" transform="matrix(0,0.5,-0.5,0,189.227,196.875)"
font-family="Helvetica" font-size="20" font-weight="400" font-style="italic" 
>
<text fill="#212121" fill-opacity="1" stroke="none" xml:space="preserve" x="0" y="0" font-family="Helvetica" font-size="20" font-weight="400" font-style="italic" 
 >37</text>
</g>

<g fill="#212121" fill-opacity="1" stroke="#212121" stroke-opacity="1" stroke-width="1" stroke-linecap="square" stroke-linejoin="bevel" transform="matrix(0.434122,0.248069,-0.248069,0.434122,266.715,197.476)"
font-family="Helvetica" font-size="20" font-weight="400" font-style="italic" 
>
<text fill="#212121" fill-opacity="1" stroke="none" xml:space="preserve" x="0" y="0" font-family="Helvetica" font-size="20" font-weight="400" font-style="italic" 
 >39</text>
</g>

<g fill="#212121" fill-opacity="1" stroke="#212121" stroke-opacity="1" stroke-width="1" stroke-linecap="square" stroke-linejoin="bevel" transform="matrix(0.434122,-0.248069,0.248069,0.434122,264.234,107.479)"
font-family="Helvetica" font-size="20" font-weight="400" font-style="italic" 
>
<text fill="#212121" fill-opacity="1" stroke="none" xml:space="preserve" x="0" y="0" font-family="Helvetica" font-size="20" font-weight="400" font-style="italic" 
 >48</text>
</g>

<g fill="#212121" fill-opacity="1" stroke="#212121" stroke-opacity="1" stroke-width="1" stroke-linecap="square" stroke-linejoin="bevel" transform="matrix(0.434122,0.248069,-0.248069,0.434122,433.76,102.021)"
font-family="Helvetica" font-size="20" font-weight="400" font-style="italic" 
>
<text fill="#212121" fill-opacity="1" stroke="none" xml:space="preserve" x="0" y="0" font-family="Helvetica" font-size="20" font-weight="400" font-style="italic" 
 >49</text>
</g>

<g fill="#212121" fill-opacity="1" stroke="#212121" stroke-opacity="1" stroke-width="1" stroke-linecap="square" stroke-linejoin="bevel" transform="matrix(0,0.5,-0.5,0,356.273,292.33)"
font-family="Helvetica" font-size="20" font-weight="400" font-style="italic" 
>
<text fill="#212121" fill-opacity="1" stroke="none" xml:space="preserve" x="0" y="0" font-family="Helvetica" font-size="20" font-weight="400" font-style="italic" 
 >58</text>
</g>

<g fill="#212121" fill-opacity="1" stroke="#212121" stroke-opacity="1" stroke-width="1" stroke-linecap="square" stroke-linejoin="bevel" transform="matrix(0,0.5,-0.5,0,523.318,196.875)"
font-family="Helvetica" font-size="20" font-weight="400" font-style="italic" 
>
<text fill="#212121" fill-opacity="1" stroke="none" xml:space="preserve" x="0" y="0" font-family="Helvetica" font-size="20" font-weight="400" font-style="italic" 
 >62</text>
</g>

<g fill="#ff0000" fill-opacity="1" stroke="#ff0000" stroke-opacity="1" stroke-width="1" stroke-linecap="square" stroke-linejoin="bevel" transform="matrix(0.5,0,0,0.5,337.023,48.375)"
font-family="Helvetica" font-size="20" font-weight="700" font-style="normal" 
>
<text fill="#ff0000" fill-opacity="1" stroke="none" xml:space="preserve" x="0" y="0" font-family="Helvetica" font-size="20" font-weight="700" font-style="normal" 
 >Source</text>
</g>

<g fill="#ff0000" fill-opacity="1" stroke="#ff0000" stroke-opacity="1" stroke-width="1" stroke-linecap="square" stroke-linejoin="bevel" transform="matrix(0.5,0,0,0.5,181.477,362.625)"
font-family="Helvetica" font-size="16" font-weight="400" font-style="normal" 
>
<text fill="#ff0000" fill-opacity="1" stroke="none" xml:space="preserve" x="0" y="0" font-family="Helvetica" font-size="16" font-weight="400" font-style="normal" 
 >D1</text>
</g>

<g fill="#ff0000" fill-opacity="1" stroke="#ff0000" stroke-opacity="1" stroke-width="1" stroke-linecap="square" stroke-linejoin="bevel" transform="matrix(0.5,0,0,0.5,515.568,171.716)"
font-family="Helvetica" font-size="16" font-weight="400" font-style="normal" 
>
<text fill="#ff0000" fill-opacity="1" stroke="none" xml:space="preserve" x="0" y="0" font-family="Helvetica" font-size="16" font-weight="400" font-style="normal" 
 >D2</text>
</g>

<g fill="#ff0000" fill-opacity="1" stroke="#ff0000" stroke-opacity="1" stroke-width="1" stroke-linecap="square" stroke-linejoin="bevel" transform="matrix(0.5,0,0,0.5,348.523,362.625)"
font-family="Helvetica" font-size="16" font-weight="400" font-style="normal" 
>
<text fill="#ff0000" fill-opacity="1" stroke="none" xml:space="preserve" x="0" y="0" font-family="Helvetica" font-size="16" font-weight="400" font-style="normal" 
 >D3</text>
</g>

<g fill="#ff0000" fill-opacity="1" stroke="#ff0000" stroke-opacity="1" stroke-width="1" stroke-linecap="square" stroke-linejoin="bevel" transform="matrix(0.5,0,0,0.5,14.4318,267.17)"
font-family="Helvetica" font-size="16" font-weight="400" font-style="normal" 
>
<text fill="#ff0000" fill-opacity="1" stroke="none" xml:space="preserve" x="0" y="0" font-family="Helvetica" font-size="16" font-weight="400" font-style="normal" 
 >D4</text>
</g>

<g fill="#ff0000" fill-opacity="1" stroke="#ff0000" stroke-opacity="1" stroke-width="1" stroke-linecap="square" stroke-linejoin="bevel" transform="matrix(0.5,0,0,0.5,515.568,267.17)"
font-family="Helvetica" font-size="16" font-weight="400" font-style="normal" 
>
<text fill="#ff0000" fill-opacity="1" stroke="none" xml:space="preserve" x="0" y="0" font-family="Helvetica" font-size="16" font-weight="400" font-style="normal" 
 >D5</text>
</g>

<g fill="#0000ff" fill-opacity="1" stroke="#0000ff" stroke-opacity="1" stroke-width="1" stroke-linecap="square" stroke-linejoin="bevel" transform="matrix(0.5,0,0,0.5,1.5,234.375)"
font-family="Helvetica" font-size="18" font-weight="700" font-style="normal" 
>
<text fill="#0000ff" fill-opacity="1" stroke="none" xml:space="preserve" x="0" y="0" font-family="Helvetica" font-size="18" font-weight="700" font-style="normal" 
 >VNF: 2,3</text>
</g>

<g fill="#0000ff" fill-opacity="1" stroke="#0000ff" stroke-opacity="1" stroke-width="1" stroke-linecap="square" stroke-linejoin="bevel" transform="matrix(0.5,0,0,0.5,172,329.875)"
font-family="Helvetica" font-size="18" font-weight="700" font-style="normal" 
>
<text fill="#0000ff" fill-opacity="1" stroke="none" xml:space="preserve" x="0" y="0" font-family="Helvetica" font-size="18" font-weight="700" font-style="normal" 
 >VNF: 2</text>
</g>

<g fill="#0000ff" fill-opacity="1" stroke="#0000ff" stroke-opacity="1" stroke-width="1" stroke-linecap="square" stroke-linejoin="bevel" transform="matrix(0.5,0,0,0.5,172,234.375)"
font-family="Helvetica" font-size="18" font-weight="700" font-style="normal" 
>
<text fill="#0000ff" fill-opacity="1" stroke="none" xml:space="preserve" x="0" y="0" font-family="Helvetica" font-size="18" font-weight="700" font-style="normal" 
 >VNF: 3</text>
</g>

<g fill="#0000ff" fill-opacity="1" stroke="#0000ff" stroke-opacity="1" stroke-width="1" stroke-linecap="square" stroke-linejoin="bevel" transform="matrix(0.5,0,0,0.5,172,138.875)"
font-family="Helvetica" font-size="18" font-weight="700" font-style="normal" 
>
<text fill="#0000ff" fill-opacity="1" stroke="none" xml:space="preserve" x="0" y="0" font-family="Helvetica" font-size="18" font-weight="700" font-style="normal" 
 >VNF: 1</text>
</g>

<g fill="#0000ff" fill-opacity="1" stroke="#0000ff" stroke-opacity="1" stroke-width="1" stroke-linecap="square" stroke-linejoin="bevel" transform="matrix(0.5,0,0,0.5,339.5,234.375)"
font-family="Helvetica" font-size="18" font-weight="700" font-style="normal" 
>
<text fill="#0000ff" fill-opacity="1" stroke="none" xml:space="preserve" x="0" y="0" font-family="Helvetica" font-size="18" font-weight="700" font-style="normal" 
 >VNF: 3</text>
</g>

<g fill="#0000ff" fill-opacity="1" stroke="#0000ff" stroke-opacity="1" stroke-width="1" stroke-linecap="square" stroke-linejoin="bevel" transform="matrix(0.5,0,0,0.5,499,138.875)"
font-family="Helvetica" font-size="18" font-weight="700" font-style="normal" 
>
<text fill="#0000ff" fill-opacity="1" stroke="none" xml:space="preserve" x="0" y="0" font-family="Helvetica" font-size="18" font-weight="700" font-style="normal" 
 >VNF: 1,2,3</text>
</g>

<g fill="#0000ff" fill-opacity="1" stroke="#0000ff" stroke-opacity="1" stroke-width="1" stroke-linecap="square" stroke-linejoin="bevel" transform="matrix(0.5,0,0,0.5,339.5,329.875)"
font-family="Helvetica" font-size="18" font-weight="700" font-style="normal" 
>
<text fill="#0000ff" fill-opacity="1" stroke="none" xml:space="preserve" x="0" y="0" font-family="Helvetica" font-size="18" font-weight="700" font-style="normal" 
 >VNF: 2</text>
</g>
</g>
</svg>
