<?xml version="1.0" encoding="UTF-8" standalone="no"?>
<svg width="272.697mm" height="145.697mm"
 viewBox="0 0 773 413"
 xmlns="http://www.w3.org/2000/svg" xmlns:xlink="http://www.w3.org/1999/xlink"  version="1.2" baseProfile="tiny">
<title>Qt SVG Document</title>
<desc>MATLAB, The MathWorks, Inc. Version 25.2.0.2998904 R2025b</desc>
<defs>
</defs>
<g fill="none" stroke="black" stroke-width="1" fill-rule="evenodd" stroke-linecap="square" stroke-linejoin="bevel" >

<g fill="#ffffff" fill-opacity="1" stroke="none" transform="matrix(0.75,0,0,0.75,0,0)"
font-family="SimSun" font-size="9" font-weight="400" font-style="normal" 
>
<path vector-effect="none" fill-rule="evenodd" d="M0,0 L1031,0 L1031,551 L0,551 L0,0"/>
</g>

<g fill="#ffffff" fill-opacity="1" stroke="none" transform="matrix(7.5e-05,0,0,7.5e-05,0,0)"
font-family="SimSun" font-size="9" font-weight="400" font-style="normal" 
>
<path vector-effect="none" fill-rule="evenodd" d="M1.34e+06,410000 L1.34e+06,4.89e+06 L9.32e+06,4.89e+06 L9.32e+06,410000 L1.34e+06,410000"/>
</g>

<g fill="#212121" fill-opacity="0.14902" stroke="#212121" stroke-opacity="0.14902" stroke-width="0.666667" stroke-linecap="butt" stroke-linejoin="round" transform="matrix(0.75,0,0,0.75,0,0)"
font-family="SimSun" font-size="9" font-weight="400" font-style="normal" 
>
<polyline fill="none" vector-effect="none" points="415.647,41 415.647,489 " />
<polyline fill="none" vector-effect="none" points="650.353,41 650.353,489 " />
<polyline fill="none" vector-effect="none" points="134,489 932,489 " />
<polyline fill="none" vector-effect="none" points="134,439.222 932,439.222 " />
<polyline fill="none" vector-effect="none" points="134,389.444 932,389.444 " />
<polyline fill="none" vector-effect="none" points="134,339.667 932,339.667 " />
<polyline fill="none" vector-effect="none" points="134,289.889 932,289.889 " />
<polyline fill="none" vector-effect="none" points="134,240.111 932,240.111 " />
<polyline fill="none" vector-effect="none" points="134,190.333 932,190.333 " />
<polyline fill="none" vector-effect="none" points="134,140.556 932,140.556 " />
<polyline fill="none" vector-effect="none" points="134,90.7778 932,90.7778 " />
<polyline fill="none" vector-effect="none" points="134,41 932,41 " />
</g>

<g fill="#212121" fill-opacity="1" stroke="none" transform="matrix(0.75,0,0,0.75,355.125,25.275)"
font-family="SimSun" font-size="9" font-weight="400" font-style="normal" 
>
<path vector-effect="none" fill-rule="evenodd" d="M10.0938,-11.6875 C10.0938,-12.6146 10.0729,-13.3698 10.0313,-13.9531 L11.5625,-13.2813 L11.0313,-12.8125 L11.0313,-11.6875 L13.75,-11.6875 L14.6719,-12.5469 L15.8125,-11.2969 L11.0313,-11.2969 L11.0313,-9.89063 L12.9531,-9.89063 L13.8125,-10.6875 L14.875,-9.5 L11.0313,-9.5 L11.0313,-7.84375 L14.1406,-7.84375 L15.0781,-8.70313 L16.2031,-7.4375 L7.04688,-7.4375 C6.69271,-7.4375 6.27083,-7.36979 5.78125,-7.23438 L5.1875,-7.84375 L10.0938,-7.84375 L10.0938,-9.5 L8.5625,-9.5 C8.20833,-9.5 7.79167,-9.43229 7.3125,-9.29688 L6.70313,-9.89063 L10.0938,-9.89063 L10.0938,-11.2969 L7.57813,-11.2969 C7.22396,-11.2969 6.80208,-11.2292 6.3125,-11.0938 L5.71875,-11.6875 L10.0938,-11.6875 M8.17188,-5.71875 L8.17188,-4.39063 L13.2188,-4.39063 L13.2188,-5.71875 L8.17188,-5.71875 M8.17188,-3.98438 L8.17188,-2.45313 L13.2188,-2.45313 L13.2188,-3.98438 L8.17188,-3.98438 M7.23438,-6.64063 L8.10938,-6.10938 L13.0781,-6.10938 L13.4844,-6.70313 L14.5469,-5.90625 L14.0781,-5.51563 L14.0781,-0.140625 C14.1198,0.703125 13.6354,1.28125 12.625,1.59375 C12.625,1.02083 12.026,0.598958 10.8281,0.328125 L10.8281,0.0625 C11.5781,0.114583 12.1745,0.151042 12.6172,0.171875 C13.0599,0.192708 13.2604,-0.0208333 13.2188,-0.46875 L13.2188,-2.0625 L8.17188,-2.0625 L8.17188,1.20313 L7.23438,1.65625 C7.28646,0.333333 7.3125,-1.10417 7.3125,-2.65625 C7.3125,-4.20833 7.28646,-5.53646 7.23438,-6.64063 M2.26563,-13.2813 L2.45313,-13.4219 C3.25521,-12.8906 3.77865,-12.4583 4.02344,-12.125 C4.26823,-11.7917 4.34635,-11.4688 4.25781,-11.1563 C4.16927,-10.8438 4.03646,-10.625 3.85938,-10.5 L3.51563,-10.2969 C3.33854,-10.2969 3.22917,-10.5417 3.1875,-11.0313 C3.10417,-11.6458 2.79688,-12.3958 2.26563,-13.2813 M0.53125,-8.17188 L2.92188,-8.17188 L3.45313,-8.82813 L4.57813,-7.96875 L3.98438,-7.5 L3.98438,-1.59375 L6.375,-3.78125 L6.57813,-3.59375 C5.33854,-2.125 4.38542,-0.791667 3.71875,0.40625 L2.79688,-0.671875 C2.97396,-0.932292 3.0625,-1.23958 3.0625,-1.59375 L3.0625,-7.76563 L2.39063,-7.76563 C2.03646,-7.76563 1.61458,-7.70313 1.125,-7.57813 L0.53125,-8.17188 M27.5,-13.3438 C28.4688,-12.9896 29.1641,-12.6927 29.5859,-12.4531 C30.0078,-12.2135 30.2188,-11.9167 30.2188,-11.5625 C30.2188,-11.4688 30.1641,-11.2682 30.0547,-10.9609 C29.9453,-10.6536 29.8438,-10.5 29.75,-10.5 C29.6146,-10.5 29.4583,-10.6771 29.2813,-11.0313 C28.9271,-11.6042 28.2865,-12.3125 27.3594,-13.1563 L27.5,-13.3438 M24.7031,-13.875 L26.2969,-13.0156 L25.7656,-12.4844 L25.7656,-10.0313 L30.4219,-10.0313 L31.3438,-11.0313 L32.6719,-9.625 L25.8281,-9.625 C26.4115,-7.77083 27.0104,-6.33333 27.625,-5.3125 C28.9063,-6.33333 29.8802,-7.32813 30.5469,-8.29688 L31.6719,-7.04688 C31.1927,-6.95313 30.6875,-6.75 30.1563,-6.4375 C29.625,-6.08333 28.8281,-5.59896 27.7656,-4.98438 C29.2656,-2.81771 31.0781,-1.48958 33.2031,-1 L33.2031,-0.734375 C32.4531,-0.640625 31.9427,-0.328125 31.6719,0.203125 C28.5365,-1.52604 26.5677,-4.53646 25.7656,-8.82813 L25.7656,-0.46875 C25.8073,0.59375 25.2552,1.28125 24.1094,1.59375 C24.0677,0.979167 23.401,0.46875 22.1094,0.0625 L22.1094,-0.203125 C23.0885,-0.109375 23.7656,-0.0625 24.1406,-0.0625 C24.5156,-0.0625 24.724,-0.265625 24.7656,-0.671875 L24.7656,-4.51563 C23.0469,-3.41146 21.6875,-2.52604 20.6875,-1.85938 C19.6875,-1.19271 19.0781,-0.661458 18.8594,-0.265625 L17.7969,-1.59375 C18.2865,-1.6875 19.1068,-2.02083 20.2578,-2.59375 C21.4089,-3.16667 22.9115,-3.94271 24.7656,-4.92188 L24.7656,-9.625 L20.3906,-9.625 C19.8177,-9.625 19.2865,-9.5625 18.7969,-9.4375 L18.2031,-10.0313 L24.7656,-10.0313 C24.7656,-11.9375 24.7448,-13.2188 24.7031,-13.875 M19.7969,-8.4375 C21.0781,-7.94792 21.8958,-7.53646 22.25,-7.20313 C22.6042,-6.86979 22.7813,-6.55208 22.7813,-6.25 C22.7813,-6.07292 22.6927,-5.82813 22.5156,-5.51563 C22.3385,-5.20313 22.2031,-5.04688 22.1094,-5.04688 C21.9844,-5.04688 21.8333,-5.29167 21.6563,-5.78125 C21.3438,-6.48958 20.6771,-7.30729 19.6563,-8.23438 L19.7969,-8.4375 M40.6406,-11.3594 L47.6875,-11.3594 L48.4063,-12.0938 L49.5469,-10.9531 L42.7031,-10.9531 C42.1302,-10.9531 41.6406,-10.8906 41.2344,-10.7656 L40.6406,-11.3594 M42.2344,-10.6875 C43.2135,-10.0313 43.7578,-9.59115 43.8672,-9.36719 C43.9766,-9.14323 44.0313,-8.98958 44.0313,-8.90625 C44.0313,-8.72917 43.9427,-8.53906 43.7656,-8.33594 C43.5885,-8.13281 43.4531,-8.03125 43.3594,-8.03125 C43.2344,-8.03125 43.125,-8.23438 43.0313,-8.64063 C42.8958,-9.17188 42.5625,-9.8125 42.0313,-10.5625 L42.2344,-10.6875 M44.5625,-6.51563 L43.625,-4.78125 L48.4063,-4.78125 L49.2031,-5.57813 L50.3438,-4.39063 L47.5469,-4.39063 C46.8802,-2.97396 46.3281,-2 45.8906,-1.46875 C46.776,-1.15625 47.5286,-0.833333 48.1484,-0.5 C48.7682,-0.166667 49.1328,0.122396 49.2422,0.367188 C49.3516,0.611979 49.4063,0.822917 49.4063,1 C49.4063,1.13542 49.3724,1.25781 49.3047,1.36719 C49.237,1.47656 49.1615,1.53125 49.0781,1.53125 C48.9427,1.53125 48.7448,1.39583 48.4844,1.125 C48.0781,0.6875 47.6667,0.335938 47.25,0.0703125 C46.8333,-0.195313 46.224,-0.505208 45.4219,-0.859375 C44.7135,-0.244792 43.862,0.283854 42.8672,0.726563 C41.8724,1.16927 40.5104,1.45833 38.7813,1.59375 L38.7813,1.32813 C39.7083,1.19271 40.6719,0.9375 41.6719,0.5625 C42.6719,0.1875 43.6354,-0.401042 44.5625,-1.20313 C43.5417,-1.59896 42.4323,-1.90625 41.2344,-2.125 C41.6823,-2.875 42.125,-3.63021 42.5625,-4.39063 L40.1719,-4.39063 L39.5781,-4.25 L39.0469,-4.78125 L42.7031,-4.78125 C43.1406,-5.80208 43.4948,-6.70833 43.7656,-7.5 L40.8438,-7.5 L40.25,-7.375 L39.7188,-7.90625 L45.2969,-7.90625 C45.474,-8.30208 45.6615,-8.74479 45.8594,-9.23438 C46.0573,-9.72396 46.2448,-10.276 46.4219,-10.8906 L47.75,-9.96875 L47.1563,-9.82813 C46.5313,-8.94271 46.0417,-8.30208 45.6875,-7.90625 L48.1406,-7.90625 L48.9375,-8.70313 L50.1406,-7.5 L43.8906,-7.5 L45.0938,-6.78125 L44.5625,-6.51563 M42.2344,-2.32813 C43.2135,-2.15104 44.1458,-1.95313 45.0313,-1.73438 C45.6042,-2.48438 46.0885,-3.36979 46.4844,-4.39063 L43.5,-4.39063 C43.1042,-3.72396 42.6823,-3.03646 42.2344,-2.32813 M43.5625,-13.875 C44.3646,-13.4375 44.875,-13.1068 45.0938,-12.8828 C45.3125,-12.6589 45.4219,-12.4844 45.4219,-12.3594 C45.4219,-12.1823 45.3333,-11.9818 45.1563,-11.7578 C44.9792,-11.5339 44.8698,-11.4219 44.8281,-11.4219 C44.6927,-11.4219 44.5833,-11.599 44.5,-11.9531 C44.3229,-12.4844 43.9427,-13.0833 43.3594,-13.75 L43.5625,-13.875 M38.3906,-6.375 L40.25,-7.17188 L40.375,-6.96875 L38.3906,-5.78125 L38.3906,-0.140625 C38.3906,0.578125 37.9479,1.13542 37.0625,1.53125 C37.1458,1.04167 36.5885,0.552083 35.3906,0.0625 L35.3906,-0.203125 C36.3698,-0.0260417 36.9688,0.0520833 37.1875,0.03125 C37.4063,0.0104167 37.5156,-0.177083 37.5156,-0.53125 L37.5156,-5.3125 C36.3281,-4.60417 35.6458,-4.11979 35.4688,-3.85938 L34.5938,-4.98438 C35.3958,-5.20313 36.3698,-5.55729 37.5156,-6.04688 L37.5156,-9.76563 L36.125,-9.76563 L35.3281,-9.625 L34.7969,-10.1563 L37.5156,-10.1563 C37.5156,-11.9792 37.4948,-13.2656 37.4531,-14.0156 L38.9219,-13.2813 L38.3906,-12.8125 L38.3906,-10.1563 L39.25,-10.1563 L39.9844,-10.8906 L41.1094,-9.76563 L38.3906,-9.76563 L38.3906,-6.375 M53.5938,-11.9531 C55.5833,-12.0885 57.6406,-12.3229 59.7656,-12.6563 C61.8906,-12.9896 63.3542,-13.375 64.1563,-13.8125 L65.2188,-12.4844 C63.1771,-12.3073 61.3385,-12.151 59.7031,-12.0156 C58.0156,-11.8385 55.9792,-11.7292 53.5938,-11.6875 L53.5938,-11.9531 M61.6875,-8.23438 C62.2708,-9.25521 62.7813,-10.474 63.2188,-11.8906 L64.75,-10.8906 L64.0156,-10.625 C63.2656,-9.69792 62.6458,-8.90104 62.1563,-8.23438 L65.1406,-8.23438 L65.75,-8.96875 L67.0781,-7.64063 C66.276,-7.54688 65.4323,-6.90625 64.5469,-5.71875 L64.3438,-5.84375 L65.2188,-7.84375 L53.9844,-7.84375 C54.0781,-6.90625 53.9922,-6.30469 53.7266,-6.03906 C53.4609,-5.77344 53.1615,-5.67448 52.8281,-5.74219 C52.4948,-5.8099 52.3281,-5.91146 52.3281,-6.04688 C52.3281,-6.18229 52.4635,-6.40104 52.7344,-6.70313 C53.1719,-7.23438 53.4792,-8.03125 53.6563,-9.09375 L53.9219,-9.09375 L53.9844,-8.23438 L55.5156,-8.23438 C55.474,-8.50521 55.3854,-8.8724 55.25,-9.33594 C55.1146,-9.79948 54.8073,-10.3646 54.3281,-11.0313 L54.5156,-11.1563 C55.1823,-10.8021 55.6823,-10.4479 56.0156,-10.0938 C56.349,-9.73958 56.5156,-9.45313 56.5156,-9.23438 C56.5156,-8.92188 56.3385,-8.58854 55.9844,-8.23438 L59.0313,-8.23438 C58.9479,-8.85938 58.8385,-9.36979 58.7031,-9.76563 C58.5677,-10.1615 58.3229,-10.6719 57.9688,-11.2969 L58.1719,-11.4219 C58.7448,-11.0677 59.1979,-10.6927 59.5313,-10.2969 C59.8646,-9.90104 60.0313,-9.56771 60.0313,-9.29688 C60.0313,-8.94271 59.8333,-8.58854 59.4375,-8.23438 L61.6875,-8.23438 M54.3906,-5.78125 L61.9531,-5.78125 L62.625,-6.4375 L63.8125,-5.3125 L63.0156,-4.98438 C62.224,-3.74479 61.276,-2.61458 60.1719,-1.59375 C62.0677,-0.354167 64.4323,0.177083 67.2656,0 L67.2656,0.265625 C66.3802,0.484375 65.8958,0.838542 65.8125,1.32813 C63.4688,1.06771 61.3438,0.25 59.4375,-1.125 C57.3125,0.291667 54.8542,1.17708 52.0625,1.53125 L52,1.26563 C54.7917,0.640625 57.0469,-0.333333 58.7656,-1.65625 C57.7552,-2.77083 56.9844,-4.01042 56.4531,-5.375 L55.5156,-5.375 L54.9219,-5.25 L54.3906,-5.78125 M56.7813,-5.375 C57.4896,-4.13542 58.375,-3.05208 59.4375,-2.125 C60.5417,-3.10417 61.4063,-4.1875 62.0313,-5.375 L56.7813,-5.375 M70.3281,-9.89063 L70.4531,-10.0938 C71.2552,-9.83333 71.8099,-9.59115 72.1172,-9.36719 C72.4245,-9.14323 72.5781,-8.90104 72.5781,-8.64063 C72.5781,-8.50521 72.5234,-8.30469 72.4141,-8.03906 C72.3047,-7.77344 72.2083,-7.64063 72.125,-7.64063 C72.0313,-7.64063 71.9167,-7.79688 71.7813,-8.10938 C71.5208,-8.58854 71.0365,-9.18229 70.3281,-9.89063 M69.4688,-4.92188 C70.0417,-5.04688 71.3229,-5.6875 73.3125,-6.84375 L73.4531,-6.64063 C72.7865,-6.15104 72.1536,-5.65365 71.5547,-5.14844 C70.9557,-4.64323 70.5469,-4.1875 70.3281,-3.78125 L69.4688,-4.92188 M81.8125,-9.17188 C81.1042,-8.64063 80.2865,-8.0625 79.3594,-7.4375 L79.2188,-7.64063 C80.1979,-8.56771 80.9323,-9.49479 81.4219,-10.4219 L82.4844,-9.35938 L81.8125,-9.17188 M79.4844,-6.64063 L79.5625,-6.84375 C81.1042,-6.44792 82.0078,-6.1276 82.2734,-5.88281 C82.5391,-5.63802 82.6719,-5.35938 82.6719,-5.04688 C82.6719,-4.82813 82.6406,-4.61979 82.5781,-4.42188 C82.5156,-4.22396 82.4375,-4.125 82.3438,-4.125 C82.2083,-4.125 82.0313,-4.34375 81.8125,-4.78125 C81.4167,-5.40625 80.6406,-6.02604 79.4844,-6.64063 M76.375,-10.3594 C75.2188,-9.29688 74.4635,-8.63542 74.1094,-8.375 C74.9948,-8.375 75.9688,-8.39583 77.0313,-8.4375 C77.5625,-9.01042 77.9635,-9.58333 78.2344,-10.1563 L79.2969,-9.17188 C78.9427,-9.07813 78.2344,-8.52083 77.1719,-7.5 C76.1094,-6.48958 75.2448,-5.71875 74.5781,-5.1875 C75.776,-5.22917 76.9948,-5.27083 78.2344,-5.3125 C78.0573,-5.625 77.7917,-6.02604 77.4375,-6.51563 L77.5625,-6.64063 C78.3646,-6.20313 78.8984,-5.85156 79.1641,-5.58594 C79.4297,-5.32031 79.5625,-5.09896 79.5625,-4.92188 C79.5625,-4.78646 79.474,-4.58594 79.2969,-4.32031 C79.1198,-4.05469 78.9844,-3.92188 78.8906,-3.92188 C78.849,-3.92188 78.8073,-3.98958 78.7656,-4.125 C78.6719,-4.38542 78.5365,-4.69271 78.3594,-5.04688 C77.9219,-5.00521 77.1927,-4.91667 76.1719,-4.78125 L77.2969,-4.125 L76.8281,-3.78125 L76.8281,-2.59375 L82.1406,-2.59375 L83.0156,-3.45313 L84.2031,-2.1875 L76.8281,-2.1875 C76.8281,-0.239583 76.8542,0.953125 76.9063,1.39063 L75.9063,1.73438 C75.9479,0.578125 75.9688,-0.729167 75.9688,-2.1875 L70.9844,-2.1875 C70.4115,-2.1875 69.8802,-2.125 69.3906,-2 L68.7969,-2.59375 L75.9688,-2.59375 L75.9688,-4.71875 C75,-4.58333 74.2917,-4.35938 73.8438,-4.04688 L73.1875,-5.1875 C73.7604,-5.1875 74.401,-5.54167 75.1094,-6.25 C75.8177,-6.95833 76.3906,-7.57813 76.8281,-8.10938 C75.1927,-7.93229 74.1563,-7.6875 73.7188,-7.375 L73.1875,-8.4375 C73.5417,-8.39583 74.0052,-8.75 74.5781,-9.5 C75.151,-10.25 75.526,-10.8229 75.7031,-11.2188 L71.8594,-11.2188 C71.276,-11.2188 70.7448,-11.1563 70.2656,-11.0313 L69.6563,-11.625 L76.2344,-11.625 C76.151,-12.375 75.776,-13.1042 75.1094,-13.8125 L75.2344,-13.9531 C76.1198,-13.599 76.6641,-13.2995 76.8672,-13.0547 C77.0703,-12.8099 77.1719,-12.6198 77.1719,-12.4844 C77.1719,-12.224 76.9948,-11.9375 76.6406,-11.625 L81.3438,-11.625 L82.2188,-12.4219 L83.3438,-11.2188 L76.1094,-11.2188 L76.9688,-10.5 L76.375,-10.3594 M86.0625,-11.2969 L91.3125,-11.2969 L91.8438,-11.9531 L92.9688,-11.0313 L92.3125,-10.5 C91.6875,-8.55208 91.0885,-6.91146 90.5156,-5.57813 C91.401,-4.29688 91.9323,-3.38021 92.1094,-2.82813 C92.2865,-2.27604 92.3646,-1.8099 92.3438,-1.42969 C92.3229,-1.04948 92.2344,-0.783854 92.0781,-0.632813 C91.9219,-0.481771 91.8229,-0.40625 91.7813,-0.40625 C91.6042,-0.40625 91.4479,-0.78125 91.3125,-1.53125 C91.0938,-2.41667 90.6927,-3.5 90.1094,-4.78125 C89.6719,-3.98958 89.099,-3.17188 88.3906,-2.32813 C87.6823,-1.48438 86.776,-0.619792 85.6719,0.265625 L85.5938,-0.0625 C86.3958,-0.822917 87.1615,-1.72135 87.8906,-2.75781 C88.6198,-3.79427 89.1823,-4.73438 89.5781,-5.57813 C88.2969,-7.39063 87.3698,-8.67708 86.7969,-9.4375 L87,-9.625 C87.9688,-8.5625 88.9427,-7.47917 89.9219,-6.375 C90.3594,-7.53125 90.8229,-9.03646 91.3125,-10.8906 L88.25,-10.8906 C87.6771,-10.8906 87.1458,-10.8229 86.6563,-10.6875 L86.0625,-11.2969 M94.5625,-0.328125 C95.9375,-0.109375 96.7682,-0.0234375 97.0547,-0.0703125 C97.3411,-0.117188 97.4844,-0.291667 97.4844,-0.59375 L97.4844,-8.90625 L94.3594,-8.90625 C93.7865,-8.90625 93.2552,-8.83854 92.7656,-8.70313 L92.1719,-9.29688 L97.4844,-9.29688 L97.4844,-11.5625 C97.4844,-12.3542 97.4635,-13.0365 97.4219,-13.6094 L99.0156,-12.8125 L98.4219,-12.2813 L98.4219,-9.29688 L99.1406,-9.29688 L100.016,-10.1563 L101.266,-8.90625 L98.4219,-8.90625 L98.4219,-0.140625 C98.4219,0.619792 97.9323,1.19792 96.9531,1.59375 C96.9531,1.0625 96.1563,0.53125 94.5625,0 L94.5625,-0.328125 M93.2344,-7.375 L93.4375,-7.5 C94.3646,-6.75 94.9271,-6.17708 95.125,-5.78125 C95.3229,-5.38542 95.4219,-5.05208 95.4219,-4.78125 C95.4219,-4.46875 95.3125,-4.16927 95.0938,-3.88281 C94.875,-3.59635 94.7448,-3.45313 94.7031,-3.45313 C94.526,-3.45313 94.4115,-3.76563 94.3594,-4.39063 C94.2344,-5.22396 93.8594,-6.21875 93.2344,-7.375 M104.797,-9.03125 C104.797,-11.0208 104.771,-12.5052 104.719,-13.4844 L106.313,-12.75 L105.719,-12.2188 L105.719,-7.76563 L108.375,-7.76563 L109.172,-8.5625 L110.375,-7.375 L105.719,-7.375 L105.719,-0.9375 L110.109,-2.45313 L110.234,-2.1875 C107.62,-1 105.984,-0.046875 105.328,0.671875 L104.531,-0.46875 C104.708,-0.645833 104.797,-0.953125 104.797,-1.39063 L104.797,-9.03125 M111.094,-10.1563 C111.094,-11.4896 111.073,-12.6406 111.031,-13.6094 L112.688,-12.8125 L112.031,-12.2813 L112.031,-6.70313 C112.958,-7.41146 113.786,-8.1875 114.516,-9.03125 C115.245,-9.875 115.745,-10.5625 116.016,-11.0938 L117.344,-9.82813 C116.813,-9.74479 116.146,-9.34896 115.344,-8.64063 C114.51,-7.93229 113.406,-7.15625 112.031,-6.3125 L112.031,-1.125 C112.031,-0.59375 112.318,-0.328125 112.891,-0.328125 L115.609,-0.328125 C115.964,-0.328125 116.208,-0.528646 116.344,-0.929688 C116.479,-1.33073 116.568,-2.28125 116.609,-3.78125 L116.938,-3.78125 C116.938,-2.71875 117.016,-1.94531 117.172,-1.46094 C117.328,-0.976563 117.583,-0.645833 117.938,-0.46875 C117.719,-0.114583 117.466,0.140625 117.18,0.296875 C116.893,0.453125 116.505,0.53125 116.016,0.53125 L112.563,0.53125 C111.583,0.53125 111.094,0.109375 111.094,-0.734375 L111.094,-10.1563"/>
</g>

<g fill="#212121" fill-opacity="1" stroke="#212121" stroke-opacity="1" stroke-width="0.666667" stroke-linecap="butt" stroke-linejoin="round" transform="matrix(0.75,0,0,0.75,0,0)"
font-family="SimSun" font-size="9" font-weight="400" font-style="normal" 
>
<polyline fill="none" vector-effect="none" points="134,489 932,489 " />
</g>

<g fill="#1171be" fill-opacity="1" stroke="none" transform="matrix(7.5e-05,0,0,7.5e-05,0,0)"
font-family="SimSun" font-size="9" font-weight="400" font-style="normal" 
>
<path vector-effect="none" fill-rule="evenodd" d="M3.21765e+06,410000 L3.21765e+06,4.89e+06 L5.09529e+06,4.89e+06 L5.09529e+06,410000 L3.21765e+06,410000"/>
</g>

<g fill="#dd5400" fill-opacity="1" stroke="none" transform="matrix(7.5e-05,0,0,7.5e-05,0,0)"
font-family="SimSun" font-size="9" font-weight="400" font-style="normal" 
>
<path vector-effect="none" fill-rule="evenodd" d="M5.56471e+06,459777 L5.56471e+06,4.89e+06 L7.44235e+06,4.89e+06 L7.44235e+06,459777 L5.56471e+06,459777"/>
</g>

<g fill="none" stroke="#212121" stroke-opacity="1" stroke-width="0.666667" stroke-linecap="butt" stroke-linejoin="miter" stroke-miterlimit="2" transform="matrix(0.75,0,0,0.75,0,0)"
font-family="SimSun" font-size="9" font-weight="400" font-style="normal" 
>
<path vector-effect="none" fill-rule="evenodd" d="M321.765,489 L321.765,41 L509.529,41 L509.529,489 L321.765,489"/>
<path vector-effect="none" fill-rule="evenodd" d="M556.471,489 L556.471,45.9778 L744.235,45.9778 L744.235,489 L556.471,489"/>
</g>

<g fill="#000000" fill-opacity="1" stroke="#000000" stroke-opacity="1" stroke-width="1.6" stroke-linecap="butt" stroke-linejoin="miter" stroke-miterlimit="2" transform="matrix(0.75,0,0,0.75,0,0)"
font-family="SimSun" font-size="9" font-weight="400" font-style="normal" 
>
<polyline fill="none" vector-effect="none" points="411.647,41 419.647,41 " />
<polyline fill="none" vector-effect="none" points="646.353,45.9778 654.353,45.9778 " />
<polyline fill="none" vector-effect="none" points="411.647,41 419.647,41 " />
<polyline fill="none" vector-effect="none" points="646.353,45.9778 654.353,45.9778 " />
</g>

<g fill="#212121" fill-opacity="1" stroke="none" transform="matrix(0.75,0,0,0.75,298.235,30.7667)"
font-family="SimSun" font-size="9" font-weight="400" font-style="normal" 
>
<path vector-effect="none" fill-rule="evenodd" d="M0.578125,-4.9375 C0.578125,-6.125 0.700521,-7.08073 0.945313,-7.80469 C1.1901,-8.52865 1.55208,-9.08594 2.03125,-9.47656 C2.51042,-9.86719 3.11458,-10.0625 3.84375,-10.0625 C4.38542,-10.0625 4.85938,-9.95313 5.26563,-9.73438 C5.67188,-9.51563 6.00781,-9.20313 6.27344,-8.79688 C6.53906,-8.39063 6.74479,-7.89583 6.89063,-7.3125 C7.03646,-6.72917 7.10938,-5.9375 7.10938,-4.9375 C7.10938,-3.76042 6.98958,-2.8125 6.75,-2.09375 C6.51042,-1.375 6.15104,-0.817708 5.67188,-0.421875 C5.19271,-0.0260417 4.58333,0.171875 3.84375,0.171875 C2.88542,0.171875 2.13021,-0.177083 1.57813,-0.875 C0.911458,-1.70833 0.578125,-3.0625 0.578125,-4.9375 M1.84375,-4.9375 C1.84375,-3.29167 2.03646,-2.19792 2.42188,-1.65625 C2.80729,-1.11458 3.28125,-0.84375 3.84375,-0.84375 C4.41667,-0.84375 4.89583,-1.11719 5.28125,-1.66406 C5.66667,-2.21094 5.85938,-3.30208 5.85938,-4.9375 C5.85938,-6.59375 5.66667,-7.69271 5.28125,-8.23438 C4.89583,-8.77604 4.41146,-9.04688 3.82813,-9.04688 C3.26563,-9.04688 2.81771,-8.80729 2.48438,-8.32813 C2.05729,-7.71354 1.84375,-6.58333 1.84375,-4.9375 M9.26563,0 L9.26563,-1.40625 L10.6719,-1.40625 L10.6719,0 L9.26563,0 M12.7656,-2.3125 L13.9531,-2.42188 C14.0469,-1.86979 14.237,-1.46875 14.5234,-1.21875 C14.8099,-0.96875 15.1719,-0.84375 15.6094,-0.84375 C15.9844,-0.84375 16.3151,-0.929688 16.6016,-1.10156 C16.888,-1.27344 17.1224,-1.50521 17.3047,-1.79688 C17.487,-2.08854 17.6406,-2.47917 17.7656,-2.96875 C17.8906,-3.45833 17.9531,-3.95833 17.9531,-4.46875 C17.9531,-4.52083 17.9479,-4.60417 17.9375,-4.71875 C17.6979,-4.32292 17.3646,-4.0026 16.9375,-3.75781 C16.5104,-3.51302 16.0469,-3.39063 15.5469,-3.39063 C14.7135,-3.39063 14.0104,-3.69271 13.4375,-4.29688 C12.8646,-4.90104 12.5781,-5.69271 12.5781,-6.67188 C12.5781,-7.69271 12.8776,-8.51302 13.4766,-9.13281 C14.0755,-9.7526 14.8281,-10.0625 15.7344,-10.0625 C16.3802,-10.0625 16.974,-9.88802 17.5156,-9.53906 C18.0573,-9.1901 18.4688,-8.6901 18.75,-8.03906 C19.0313,-7.38802 19.1719,-6.44792 19.1719,-5.21875 C19.1719,-3.9375 19.0339,-2.91667 18.7578,-2.15625 C18.4818,-1.39583 18.0677,-0.817708 17.5156,-0.421875 C16.9635,-0.0260417 16.3177,0.171875 15.5781,0.171875 C14.7969,0.171875 14.1589,-0.046875 13.6641,-0.484375 C13.1693,-0.921875 12.8698,-1.53125 12.7656,-2.3125 M17.7969,-6.73438 C17.7969,-7.44271 17.6094,-8.00521 17.2344,-8.42188 C16.8594,-8.83854 16.4115,-9.04688 15.8906,-9.04688 C15.3385,-9.04688 14.8594,-8.82292 14.4531,-8.375 C14.0469,-7.92708 13.8438,-7.34896 13.8438,-6.64063 C13.8438,-6.00521 14.0365,-5.48698 14.4219,-5.08594 C14.8073,-4.6849 15.2813,-4.48438 15.8438,-4.48438 C16.4167,-4.48438 16.8854,-4.6849 17.25,-5.08594 C17.6146,-5.48698 17.7969,-6.03646 17.7969,-6.73438 M20.5781,-4.9375 C20.5781,-6.125 20.7005,-7.08073 20.9453,-7.80469 C21.1901,-8.52865 21.5521,-9.08594 22.0313,-9.47656 C22.5104,-9.86719 23.1146,-10.0625 23.8438,-10.0625 C24.3854,-10.0625 24.8594,-9.95313 25.2656,-9.73438 C25.6719,-9.51563 26.0078,-9.20313 26.2734,-8.79688 C26.5391,-8.39063 26.7448,-7.89583 26.8906,-7.3125 C27.0365,-6.72917 27.1094,-5.9375 27.1094,-4.9375 C27.1094,-3.76042 26.9896,-2.8125 26.75,-2.09375 C26.5104,-1.375 26.151,-0.817708 25.6719,-0.421875 C25.1927,-0.0260417 24.5833,0.171875 23.8438,0.171875 C22.8854,0.171875 22.1302,-0.177083 21.5781,-0.875 C20.9115,-1.70833 20.5781,-3.0625 20.5781,-4.9375 M21.8438,-4.9375 C21.8438,-3.29167 22.0365,-2.19792 22.4219,-1.65625 C22.8073,-1.11458 23.2813,-0.84375 23.8438,-0.84375 C24.4167,-0.84375 24.8958,-1.11719 25.2813,-1.66406 C25.6667,-2.21094 25.8594,-3.30208 25.8594,-4.9375 C25.8594,-6.59375 25.6667,-7.69271 25.2813,-8.23438 C24.8958,-8.77604 24.4115,-9.04688 23.8281,-9.04688 C23.2656,-9.04688 22.8177,-8.80729 22.4844,-8.32813 C22.0573,-7.71354 21.8438,-6.58333 21.8438,-4.9375 M28.5781,-4.9375 C28.5781,-6.125 28.7005,-7.08073 28.9453,-7.80469 C29.1901,-8.52865 29.5521,-9.08594 30.0313,-9.47656 C30.5104,-9.86719 31.1146,-10.0625 31.8438,-10.0625 C32.3854,-10.0625 32.8594,-9.95313 33.2656,-9.73438 C33.6719,-9.51563 34.0078,-9.20313 34.2734,-8.79688 C34.5391,-8.39063 34.7448,-7.89583 34.8906,-7.3125 C35.0365,-6.72917 35.1094,-5.9375 35.1094,-4.9375 C35.1094,-3.76042 34.9896,-2.8125 34.75,-2.09375 C34.5104,-1.375 34.151,-0.817708 33.6719,-0.421875 C33.1927,-0.0260417 32.5833,0.171875 31.8438,0.171875 C30.8854,0.171875 30.1302,-0.177083 29.5781,-0.875 C28.9115,-1.70833 28.5781,-3.0625 28.5781,-4.9375 M29.8438,-4.9375 C29.8438,-3.29167 30.0365,-2.19792 30.4219,-1.65625 C30.8073,-1.11458 31.2813,-0.84375 31.8438,-0.84375 C32.4167,-0.84375 32.8958,-1.11719 33.2813,-1.66406 C33.6667,-2.21094 33.8594,-3.30208 33.8594,-4.9375 C33.8594,-6.59375 33.6667,-7.69271 33.2813,-8.23438 C32.8958,-8.77604 32.4115,-9.04688 31.8281,-9.04688 C31.2656,-9.04688 30.8177,-8.80729 30.4844,-8.32813 C30.0573,-7.71354 29.8438,-6.58333 29.8438,-4.9375 "/>
</g>

<g fill="#212121" fill-opacity="1" stroke="none" transform="matrix(0.75,0,0,0.75,474.265,34.5)"
font-family="SimSun" font-size="9" font-weight="400" font-style="normal" 
>
<path vector-effect="none" fill-rule="evenodd" d="M0.578125,-4.9375 C0.578125,-6.125 0.700521,-7.08073 0.945313,-7.80469 C1.1901,-8.52865 1.55208,-9.08594 2.03125,-9.47656 C2.51042,-9.86719 3.11458,-10.0625 3.84375,-10.0625 C4.38542,-10.0625 4.85938,-9.95313 5.26563,-9.73438 C5.67188,-9.51563 6.00781,-9.20313 6.27344,-8.79688 C6.53906,-8.39063 6.74479,-7.89583 6.89063,-7.3125 C7.03646,-6.72917 7.10938,-5.9375 7.10938,-4.9375 C7.10938,-3.76042 6.98958,-2.8125 6.75,-2.09375 C6.51042,-1.375 6.15104,-0.817708 5.67188,-0.421875 C5.19271,-0.0260417 4.58333,0.171875 3.84375,0.171875 C2.88542,0.171875 2.13021,-0.177083 1.57813,-0.875 C0.911458,-1.70833 0.578125,-3.0625 0.578125,-4.9375 M1.84375,-4.9375 C1.84375,-3.29167 2.03646,-2.19792 2.42188,-1.65625 C2.80729,-1.11458 3.28125,-0.84375 3.84375,-0.84375 C4.41667,-0.84375 4.89583,-1.11719 5.28125,-1.66406 C5.66667,-2.21094 5.85938,-3.30208 5.85938,-4.9375 C5.85938,-6.59375 5.66667,-7.69271 5.28125,-8.23438 C4.89583,-8.77604 4.41146,-9.04688 3.82813,-9.04688 C3.26563,-9.04688 2.81771,-8.80729 2.48438,-8.32813 C2.05729,-7.71354 1.84375,-6.58333 1.84375,-4.9375 M9.26563,0 L9.26563,-1.40625 L10.6719,-1.40625 L10.6719,0 L9.26563,0 M14.4688,-5.4375 C13.9583,-5.625 13.5807,-5.89063 13.3359,-6.23438 C13.0911,-6.57813 12.9688,-6.99479 12.9688,-7.48438 C12.9688,-8.21354 13.2318,-8.82552 13.7578,-9.32031 C14.2839,-9.8151 14.9792,-10.0625 15.8438,-10.0625 C16.7188,-10.0625 17.4245,-9.80729 17.9609,-9.29688 C18.4974,-8.78646 18.7656,-8.16667 18.7656,-7.4375 C18.7656,-6.97917 18.6432,-6.57813 18.3984,-6.23438 C18.1536,-5.89063 17.7813,-5.625 17.2813,-5.4375 C17.8958,-5.23958 18.3646,-4.91667 18.6875,-4.46875 C19.0104,-4.02083 19.1719,-3.48438 19.1719,-2.85938 C19.1719,-2.00521 18.8698,-1.28646 18.2656,-0.703125 C17.6615,-0.119792 16.8646,0.171875 15.875,0.171875 C14.8854,0.171875 14.0859,-0.122396 13.4766,-0.710938 C12.8672,-1.29948 12.5625,-2.03125 12.5625,-2.90625 C12.5625,-3.55208 12.7292,-4.09635 13.0625,-4.53906 C13.3958,-4.98177 13.8646,-5.28125 14.4688,-5.4375 M14.2344,-7.51563 C14.2344,-7.04688 14.3854,-6.66146 14.6875,-6.35938 C14.9896,-6.05729 15.3854,-5.90625 15.875,-5.90625 C16.3542,-5.90625 16.7448,-6.05469 17.0469,-6.35156 C17.349,-6.64844 17.5,-7.01563 17.5,-7.45313 C17.5,-7.90104 17.3438,-8.27865 17.0313,-8.58594 C16.7188,-8.89323 16.3281,-9.04688 15.8594,-9.04688 C15.3906,-9.04688 15.0026,-8.89844 14.6953,-8.60156 C14.388,-8.30469 14.2344,-7.94271 14.2344,-7.51563 M13.8281,-2.89063 C13.8281,-2.53646 13.9115,-2.19531 14.0781,-1.86719 C14.2448,-1.53906 14.4922,-1.28646 14.8203,-1.10938 C15.1484,-0.932292 15.5052,-0.84375 15.8906,-0.84375 C16.474,-0.84375 16.9557,-1.03125 17.3359,-1.40625 C17.7161,-1.78125 17.9063,-2.26042 17.9063,-2.84375 C17.9063,-3.4375 17.7109,-3.92969 17.3203,-4.32031 C16.9297,-4.71094 16.4375,-4.90625 15.8438,-4.90625 C15.2604,-4.90625 14.7786,-4.71354 14.3984,-4.32813 C14.0182,-3.94271 13.8281,-3.46354 13.8281,-2.89063 M20.7656,-2.3125 L21.9531,-2.42188 C22.0469,-1.86979 22.237,-1.46875 22.5234,-1.21875 C22.8099,-0.96875 23.1719,-0.84375 23.6094,-0.84375 C23.9844,-0.84375 24.3151,-0.929688 24.6016,-1.10156 C24.888,-1.27344 25.1224,-1.50521 25.3047,-1.79688 C25.487,-2.08854 25.6406,-2.47917 25.7656,-2.96875 C25.8906,-3.45833 25.9531,-3.95833 25.9531,-4.46875 C25.9531,-4.52083 25.9479,-4.60417 25.9375,-4.71875 C25.6979,-4.32292 25.3646,-4.0026 24.9375,-3.75781 C24.5104,-3.51302 24.0469,-3.39063 23.5469,-3.39063 C22.7135,-3.39063 22.0104,-3.69271 21.4375,-4.29688 C20.8646,-4.90104 20.5781,-5.69271 20.5781,-6.67188 C20.5781,-7.69271 20.8776,-8.51302 21.4766,-9.13281 C22.0755,-9.7526 22.8281,-10.0625 23.7344,-10.0625 C24.3802,-10.0625 24.974,-9.88802 25.5156,-9.53906 C26.0573,-9.1901 26.4688,-8.6901 26.75,-8.03906 C27.0313,-7.38802 27.1719,-6.44792 27.1719,-5.21875 C27.1719,-3.9375 27.0339,-2.91667 26.7578,-2.15625 C26.4818,-1.39583 26.0677,-0.817708 25.5156,-0.421875 C24.9635,-0.0260417 24.3177,0.171875 23.5781,0.171875 C22.7969,0.171875 22.1589,-0.046875 21.6641,-0.484375 C21.1693,-0.921875 20.8698,-1.53125 20.7656,-2.3125 M25.7969,-6.73438 C25.7969,-7.44271 25.6094,-8.00521 25.2344,-8.42188 C24.8594,-8.83854 24.4115,-9.04688 23.8906,-9.04688 C23.3385,-9.04688 22.8594,-8.82292 22.4531,-8.375 C22.0469,-7.92708 21.8438,-7.34896 21.8438,-6.64063 C21.8438,-6.00521 22.0365,-5.48698 22.4219,-5.08594 C22.8073,-4.6849 23.2813,-4.48438 23.8438,-4.48438 C24.4167,-4.48438 24.8854,-4.6849 25.25,-5.08594 C25.6146,-5.48698 25.7969,-6.03646 25.7969,-6.73438 M28.5781,-4.9375 C28.5781,-6.125 28.7005,-7.08073 28.9453,-7.80469 C29.1901,-8.52865 29.5521,-9.08594 30.0313,-9.47656 C30.5104,-9.86719 31.1146,-10.0625 31.8438,-10.0625 C32.3854,-10.0625 32.8594,-9.95313 33.2656,-9.73438 C33.6719,-9.51563 34.0078,-9.20313 34.2734,-8.79688 C34.5391,-8.39063 34.7448,-7.89583 34.8906,-7.3125 C35.0365,-6.72917 35.1094,-5.9375 35.1094,-4.9375 C35.1094,-3.76042 34.9896,-2.8125 34.75,-2.09375 C34.5104,-1.375 34.151,-0.817708 33.6719,-0.421875 C33.1927,-0.0260417 32.5833,0.171875 31.8438,0.171875 C30.8854,0.171875 30.1302,-0.177083 29.5781,-0.875 C28.9115,-1.70833 28.5781,-3.0625 28.5781,-4.9375 M29.8438,-4.9375 C29.8438,-3.29167 30.0365,-2.19792 30.4219,-1.65625 C30.8073,-1.11458 31.2813,-0.84375 31.8438,-0.84375 C32.4167,-0.84375 32.8958,-1.11719 33.2813,-1.66406 C33.6667,-2.21094 33.8594,-3.30208 33.8594,-4.9375 C33.8594,-6.59375 33.6667,-7.69271 33.2813,-8.23438 C32.8958,-8.77604 32.4115,-9.04688 31.8281,-9.04688 C31.2656,-9.04688 30.8177,-8.80729 30.4844,-8.32813 C30.0573,-7.71354 29.8438,-6.58333 29.8438,-4.9375 "/>
</g>

<g fill="#212121" fill-opacity="1" stroke="#212121" stroke-opacity="1" stroke-width="0.666667" stroke-linecap="square" stroke-linejoin="round" transform="matrix(0.75,0,0,0.75,0,0)"
font-family="SimSun" font-size="9" font-weight="400" font-style="normal" 
>
<polyline fill="none" vector-effect="none" points="134,489 932,489 " />
<polyline fill="none" vector-effect="none" points="134,41 932,41 " />
<polyline fill="none" vector-effect="none" points="415.647,489 415.647,481.02 " />
<polyline fill="none" vector-effect="none" points="415.647,48.98 415.647,41 " />
<polyline fill="none" vector-effect="none" points="650.353,489 650.353,481.02 " />
<polyline fill="none" vector-effect="none" points="650.353,48.98 650.353,41 " />
</g>

<g fill="#212121" fill-opacity="1" stroke="none" transform="matrix(0.75,0,0,0.75,255.86,382.4)"
font-family="SimSun" font-size="9" font-weight="400" font-style="normal" 
>
<path vector-effect="none" fill-rule="evenodd" d="M3.23438,0 L0.203125,-11.4531 L1.75,-11.4531 L3.5,-3.95313 C3.6875,-3.16146 3.84896,-2.38021 3.98438,-1.60938 C4.27604,-2.82813 4.44792,-3.53125 4.5,-3.71875 L6.67188,-11.4531 L8.5,-11.4531 L10.1406,-5.65625 C10.5573,-4.21875 10.8542,-2.86979 11.0313,-1.60938 C11.1771,-2.32813 11.3698,-3.15625 11.6094,-4.09375 L13.4063,-11.4531 L14.9219,-11.4531 L11.7813,0 L10.3281,0 L7.90625,-8.73438 C7.70833,-9.46354 7.58854,-9.91146 7.54688,-10.0781 C7.43229,-9.54688 7.32292,-9.09896 7.21875,-8.73438 L4.78125,0 L3.23438,0 M16.0625,-9.84375 L16.0625,-11.4531 L17.4688,-11.4531 L17.4688,-9.84375 L16.0625,-9.84375 M16.0625,0 L16.0625,-8.29688 L17.4688,-8.29688 L17.4688,0 L16.0625,0 M23.125,-1.26563 L23.3281,-0.015625 C22.9323,0.0677083 22.5781,0.109375 22.2656,0.109375 C21.7552,0.109375 21.3594,0.0286458 21.0781,-0.132813 C20.7969,-0.294271 20.599,-0.507813 20.4844,-0.773438 C20.3698,-1.03906 20.3125,-1.59375 20.3125,-2.4375 L20.3125,-7.20313 L19.2813,-7.20313 L19.2813,-8.29688 L20.3125,-8.29688 L20.3125,-10.3594 L21.7188,-11.2031 L21.7188,-8.29688 L23.125,-8.29688 L23.125,-7.20313 L21.7188,-7.20313 L21.7188,-2.35938 C21.7188,-1.95313 21.7422,-1.69271 21.7891,-1.57813 C21.8359,-1.46354 21.9167,-1.3724 22.0313,-1.30469 C22.1458,-1.23698 22.3073,-1.20313 22.5156,-1.20313 C22.6719,-1.20313 22.875,-1.22396 23.125,-1.26563 M24.0625,0 L24.0625,-11.4531 L25.4688,-11.4531 L25.4688,-7.34375 C26.125,-8.10417 26.9531,-8.48438 27.9531,-8.48438 C28.5677,-8.48438 29.1016,-8.36458 29.5547,-8.125 C30.0078,-7.88542 30.3307,-7.55208 30.5234,-7.125 C30.7161,-6.69792 30.8125,-6.07813 30.8125,-5.26563 L30.8125,0 L29.4063,0 L29.4063,-5.26563 C29.4063,-5.96354 29.2552,-6.47396 28.9531,-6.79688 C28.651,-7.11979 28.2188,-7.28125 27.6563,-7.28125 C27.2396,-7.28125 26.849,-7.17188 26.4844,-6.95313 C26.1198,-6.73438 25.8594,-6.4401 25.7031,-6.07031 C25.5469,-5.70052 25.4688,-5.19271 25.4688,-4.54688 L25.4688,0 L24.0625,0 M36.5,-2.48438 L37.8906,-2.70313 C37.9635,-2.14063 38.1797,-1.71094 38.5391,-1.41406 C38.8984,-1.11719 39.3958,-0.96875 40.0313,-0.96875 C40.6771,-0.96875 41.1563,-1.10156 41.4688,-1.36719 C41.7813,-1.63281 41.9375,-1.94271 41.9375,-2.29688 C41.9375,-2.60938 41.8021,-2.85938 41.5313,-3.04688 C41.3333,-3.17188 40.8542,-3.32813 40.0938,-3.51563 C39.0625,-3.77604 38.3464,-4.0026 37.9453,-4.19531 C37.5443,-4.38802 37.2422,-4.65104 37.0391,-4.98438 C36.8359,-5.31771 36.7344,-5.6875 36.7344,-6.09375 C36.7344,-6.46875 36.8177,-6.8125 36.9844,-7.125 C37.151,-7.4375 37.3802,-7.69792 37.6719,-7.90625 C37.8906,-8.07292 38.1901,-8.21094 38.5703,-8.32031 C38.9505,-8.42969 39.3542,-8.48438 39.7813,-8.48438 C40.4375,-8.48438 41.0104,-8.39063 41.5,-8.20313 C41.9896,-8.01563 42.3516,-7.76302 42.5859,-7.44531 C42.8203,-7.1276 42.9844,-6.69792 43.0781,-6.15625 L41.7031,-5.96875 C41.6406,-6.39583 41.4583,-6.72917 41.1563,-6.96875 C40.8542,-7.20833 40.4323,-7.32813 39.8906,-7.32813 C39.2448,-7.32813 38.7839,-7.22135 38.5078,-7.00781 C38.2318,-6.79427 38.0938,-6.54688 38.0938,-6.26563 C38.0938,-6.07813 38.151,-5.91146 38.2656,-5.76563 C38.3802,-5.61979 38.5573,-5.49479 38.7969,-5.39063 C38.9427,-5.33854 39.3594,-5.21875 40.0469,-5.03125 C41.0365,-4.77083 41.7292,-4.55469 42.125,-4.38281 C42.5208,-4.21094 42.8307,-3.96354 43.0547,-3.64063 C43.2786,-3.31771 43.3906,-2.91667 43.3906,-2.4375 C43.3906,-1.96875 43.2526,-1.52865 42.9766,-1.11719 C42.7005,-0.705729 42.3047,-0.385417 41.7891,-0.15625 C41.2734,0.0729167 40.6927,0.1875 40.0469,0.1875 C38.9635,0.1875 38.1406,-0.0364583 37.5781,-0.484375 C37.0156,-0.932292 36.6563,-1.59896 36.5,-2.48438 M45.0625,0 L45.0625,-11.4531 L46.4688,-11.4531 L46.4688,-7.34375 C47.125,-8.10417 47.9531,-8.48438 48.9531,-8.48438 C49.5677,-8.48438 50.1016,-8.36458 50.5547,-8.125 C51.0078,-7.88542 51.3307,-7.55208 51.5234,-7.125 C51.7161,-6.69792 51.8125,-6.07813 51.8125,-5.26563 L51.8125,0 L50.4063,0 L50.4063,-5.26563 C50.4063,-5.96354 50.2552,-6.47396 49.9531,-6.79688 C49.651,-7.11979 49.2188,-7.28125 48.6563,-7.28125 C48.2396,-7.28125 47.849,-7.17188 47.4844,-6.95313 C47.1198,-6.73438 46.8594,-6.4401 46.7031,-6.07031 C46.5469,-5.70052 46.4688,-5.19271 46.4688,-4.54688 L46.4688,0 L45.0625,0 M59.4688,-1.03125 C58.9479,-0.583333 58.4479,-0.268229 57.9688,-0.0859375 C57.4896,0.0963542 56.974,0.1875 56.4219,0.1875 C55.5052,0.1875 54.8021,-0.0364583 54.3125,-0.484375 C53.8229,-0.932292 53.5781,-1.5 53.5781,-2.1875 C53.5781,-2.59375 53.6719,-2.96615 53.8594,-3.30469 C54.0469,-3.64323 54.2891,-3.91406 54.5859,-4.11719 C54.8828,-4.32031 55.2188,-4.47396 55.5938,-4.57813 C55.875,-4.65104 56.2917,-4.71875 56.8438,-4.78125 C57.9792,-4.91667 58.8177,-5.07813 59.3594,-5.26563 C59.3594,-5.46354 59.3594,-5.58854 59.3594,-5.64063 C59.3594,-6.21354 59.2292,-6.61458 58.9688,-6.84375 C58.6042,-7.16667 58.0677,-7.32813 57.3594,-7.32813 C56.7031,-7.32813 56.2161,-7.21094 55.8984,-6.97656 C55.5807,-6.74219 55.349,-6.33333 55.2031,-5.75 L53.8281,-5.9375 C53.9531,-6.52083 54.1589,-6.99479 54.4453,-7.35938 C54.7318,-7.72396 55.1458,-8.0026 55.6875,-8.19531 C56.2292,-8.38802 56.8542,-8.48438 57.5625,-8.48438 C58.2708,-8.48438 58.8464,-8.40104 59.2891,-8.23438 C59.7318,-8.06771 60.0573,-7.85938 60.2656,-7.60938 C60.474,-7.35938 60.6198,-7.04167 60.7031,-6.65625 C60.7552,-6.41667 60.7813,-5.98438 60.7813,-5.35938 L60.7813,-3.48438 C60.7813,-2.17188 60.8099,-1.34375 60.8672,-1 C60.9245,-0.65625 61.0417,-0.322917 61.2188,0 L59.75,0 C59.6042,-0.291667 59.5104,-0.635417 59.4688,-1.03125 M59.3594,-4.17188 C58.849,-3.96354 58.0833,-3.78646 57.0625,-3.64063 C56.4792,-3.55729 56.0677,-3.46354 55.8281,-3.35938 C55.5885,-3.25521 55.4036,-3.10156 55.2734,-2.89844 C55.1432,-2.69531 55.0781,-2.47396 55.0781,-2.23438 C55.0781,-1.85938 55.2214,-1.54688 55.5078,-1.29688 C55.7943,-1.04688 56.2083,-0.921875 56.75,-0.921875 C57.2917,-0.921875 57.7734,-1.03906 58.1953,-1.27344 C58.6172,-1.50781 58.9271,-1.83333 59.125,-2.25 C59.2813,-2.5625 59.3594,-3.03125 59.3594,-3.65625 L59.3594,-4.17188 M63.0469,0 L63.0469,-8.29688 L64.3125,-8.29688 L64.3125,-7.04688 C64.6354,-7.63021 64.9323,-8.01563 65.2031,-8.20313 C65.474,-8.39063 65.776,-8.48438 66.1094,-8.48438 C66.5781,-8.48438 67.0573,-8.33333 67.5469,-8.03125 L67.0625,-6.73438 C66.7188,-6.93229 66.375,-7.03125 66.0313,-7.03125 C65.7292,-7.03125 65.4557,-6.9401 65.2109,-6.75781 C64.9661,-6.57552 64.7917,-6.31771 64.6875,-5.98438 C64.5313,-5.48438 64.4531,-4.9375 64.4531,-4.34375 L64.4531,0 L63.0469,0 M73.7344,-2.67188 L75.1875,-2.5 C74.9583,-1.64583 74.5339,-0.984375 73.9141,-0.515625 C73.2943,-0.046875 72.5052,0.1875 71.5469,0.1875 C70.3281,0.1875 69.3646,-0.1875 68.6563,-0.9375 C67.9479,-1.6875 67.5938,-2.73438 67.5938,-4.07813 C67.5938,-5.47396 67.9531,-6.55729 68.6719,-7.32813 C69.3906,-8.09896 70.3229,-8.48438 71.4688,-8.48438 C72.5729,-8.48438 73.4766,-8.10677 74.1797,-7.35156 C74.8828,-6.59635 75.2344,-5.53646 75.2344,-4.17188 C75.2344,-4.08854 75.2344,-3.96354 75.2344,-3.79688 L69.0469,-3.79688 C69.099,-2.88021 69.3568,-2.17969 69.8203,-1.69531 C70.2839,-1.21094 70.8594,-0.96875 71.5469,-0.96875 C72.0677,-0.96875 72.5104,-1.10417 72.875,-1.375 C73.2396,-1.64583 73.526,-2.07813 73.7344,-2.67188 M69.125,-4.95313 L73.75,-4.95313 C73.6875,-5.65104 73.5104,-6.17188 73.2188,-6.51563 C72.7708,-7.05729 72.1927,-7.32813 71.4844,-7.32813 C70.8385,-7.32813 70.2943,-7.11198 69.8516,-6.67969 C69.4089,-6.2474 69.1667,-5.67188 69.125,-4.95313 M82.5938,0 L80.0469,-8.29688 L81.5,-8.29688 L82.8281,-3.51563 L83.3125,-1.73438 C83.3333,-1.81771 83.4792,-2.38542 83.75,-3.4375 L85.0625,-8.29688 L86.5156,-8.29688 L87.75,-3.48438 L88.1719,-1.90625 L88.6406,-3.5 L90.0625,-8.29688 L91.4375,-8.29688 L88.8438,0 L87.375,0 L86.0625,-4.96875 L85.7344,-6.39063 L84.0625,0 L82.5938,0 M98.7344,-2.67188 L100.188,-2.5 C99.9583,-1.64583 99.5339,-0.984375 98.9141,-0.515625 C98.2943,-0.046875 97.5052,0.1875 96.5469,0.1875 C95.3281,0.1875 94.3646,-0.1875 93.6563,-0.9375 C92.9479,-1.6875 92.5938,-2.73438 92.5938,-4.07813 C92.5938,-5.47396 92.9531,-6.55729 93.6719,-7.32813 C94.3906,-8.09896 95.3229,-8.48438 96.4688,-8.48438 C97.5729,-8.48438 98.4766,-8.10677 99.1797,-7.35156 C99.8828,-6.59635 100.234,-5.53646 100.234,-4.17188 C100.234,-4.08854 100.234,-3.96354 100.234,-3.79688 L94.0469,-3.79688 C94.099,-2.88021 94.3568,-2.17969 94.8203,-1.69531 C95.2839,-1.21094 95.8594,-0.96875 96.5469,-0.96875 C97.0677,-0.96875 97.5104,-1.10417 97.875,-1.375 C98.2396,-1.64583 98.526,-2.07813 98.7344,-2.67188 M94.125,-4.95313 L98.75,-4.95313 C98.6875,-5.65104 98.5104,-6.17188 98.2188,-6.51563 C97.7708,-7.05729 97.1927,-7.32813 96.4844,-7.32813 C95.8385,-7.32813 95.2943,-7.11198 94.8516,-6.67969 C94.4089,-6.2474 94.1667,-5.67188 94.125,-4.95313 M102.063,-9.84375 L102.063,-11.4531 L103.469,-11.4531 L103.469,-9.84375 L102.063,-9.84375 M102.063,0 L102.063,-8.29688 L103.469,-8.29688 L103.469,0 L102.063,0 M105.797,0.6875 L107.172,0.890625 C107.224,1.31771 107.38,1.625 107.641,1.8125 C107.995,2.07292 108.474,2.20313 109.078,2.20313 C109.724,2.20313 110.224,2.07292 110.578,1.8125 C110.932,1.55208 111.172,1.1875 111.297,0.71875 C111.37,0.4375 111.406,-0.166667 111.406,-1.09375 C110.792,-0.364583 110.026,0 109.109,0 C107.964,0 107.078,-0.411458 106.453,-1.23438 C105.828,-2.05729 105.516,-3.04688 105.516,-4.20313 C105.516,-4.99479 105.659,-5.72396 105.945,-6.39063 C106.232,-7.05729 106.648,-7.57292 107.195,-7.9375 C107.742,-8.30208 108.38,-8.48438 109.109,-8.48438 C110.089,-8.48438 110.896,-8.08854 111.531,-7.29688 L111.531,-8.29688 L112.828,-8.29688 L112.828,-1.125 C112.828,0.166667 112.698,1.08333 112.438,1.625 C112.177,2.16667 111.76,2.59375 111.188,2.90625 C110.615,3.21875 109.911,3.375 109.078,3.375 C108.089,3.375 107.289,3.15104 106.68,2.70313 C106.07,2.25521 105.776,1.58333 105.797,0.6875 M106.969,-4.29688 C106.969,-3.21354 107.185,-2.42188 107.617,-1.92188 C108.049,-1.42188 108.589,-1.17188 109.234,-1.17188 C109.88,-1.17188 110.422,-1.41927 110.859,-1.91406 C111.297,-2.40885 111.516,-3.1875 111.516,-4.25 C111.516,-5.27083 111.292,-6.03906 110.844,-6.55469 C110.396,-7.07031 109.854,-7.32813 109.219,-7.32813 C108.594,-7.32813 108.063,-7.07292 107.625,-6.5625 C107.188,-6.05208 106.969,-5.29688 106.969,-4.29688 M115.063,0 L115.063,-11.4531 L116.469,-11.4531 L116.469,-7.34375 C117.125,-8.10417 117.953,-8.48438 118.953,-8.48438 C119.568,-8.48438 120.102,-8.36458 120.555,-8.125 C121.008,-7.88542 121.331,-7.55208 121.523,-7.125 C121.716,-6.69792 121.813,-6.07813 121.813,-5.26563 L121.813,0 L120.406,0 L120.406,-5.26563 C120.406,-5.96354 120.255,-6.47396 119.953,-6.79688 C119.651,-7.11979 119.219,-7.28125 118.656,-7.28125 C118.24,-7.28125 117.849,-7.17188 117.484,-6.95313 C117.12,-6.73438 116.859,-6.4401 116.703,-6.07031 C116.547,-5.70052 116.469,-5.19271 116.469,-4.54688 L116.469,0 L115.063,0 M127.125,-1.26563 L127.328,-0.015625 C126.932,0.0677083 126.578,0.109375 126.266,0.109375 C125.755,0.109375 125.359,0.0286458 125.078,-0.132813 C124.797,-0.294271 124.599,-0.507813 124.484,-0.773438 C124.37,-1.03906 124.313,-1.59375 124.313,-2.4375 L124.313,-7.20313 L123.281,-7.20313 L123.281,-8.29688 L124.313,-8.29688 L124.313,-10.3594 L125.719,-11.2031 L125.719,-8.29688 L127.125,-8.29688 L127.125,-7.20313 L125.719,-7.20313 L125.719,-2.35938 C125.719,-1.95313 125.742,-1.69271 125.789,-1.57813 C125.836,-1.46354 125.917,-1.3724 126.031,-1.30469 C126.146,-1.23698 126.307,-1.20313 126.516,-1.20313 C126.672,-1.20313 126.875,-1.22396 127.125,-1.26563 M128.063,-9.84375 L128.063,-11.4531 L129.469,-11.4531 L129.469,-9.84375 L128.063,-9.84375 M128.063,0 L128.063,-8.29688 L129.469,-8.29688 L129.469,0 L128.063,0 M132.063,0 L132.063,-8.29688 L133.328,-8.29688 L133.328,-7.125 C133.932,-8.03125 134.813,-8.48438 135.969,-8.48438 C136.469,-8.48438 136.927,-8.39583 137.344,-8.21875 C137.76,-8.04167 138.073,-7.80729 138.281,-7.51563 C138.49,-7.22396 138.635,-6.875 138.719,-6.46875 C138.771,-6.20833 138.797,-5.75521 138.797,-5.10938 L138.797,0 L137.391,0 L137.391,-5.04688 C137.391,-5.61979 137.336,-6.04948 137.227,-6.33594 C137.117,-6.6224 136.924,-6.84896 136.648,-7.01563 C136.372,-7.18229 136.047,-7.26563 135.672,-7.26563 C135.068,-7.26563 134.549,-7.07552 134.117,-6.69531 C133.685,-6.3151 133.469,-5.59375 133.469,-4.53125 L133.469,0 L132.063,0 M140.797,0.6875 L142.172,0.890625 C142.224,1.31771 142.38,1.625 142.641,1.8125 C142.995,2.07292 143.474,2.20313 144.078,2.20313 C144.724,2.20313 145.224,2.07292 145.578,1.8125 C145.932,1.55208 146.172,1.1875 146.297,0.71875 C146.37,0.4375 146.406,-0.166667 146.406,-1.09375 C145.792,-0.364583 145.026,0 144.109,0 C142.964,0 142.078,-0.411458 141.453,-1.23438 C140.828,-2.05729 140.516,-3.04688 140.516,-4.20313 C140.516,-4.99479 140.659,-5.72396 140.945,-6.39063 C141.232,-7.05729 141.648,-7.57292 142.195,-7.9375 C142.742,-8.30208 143.38,-8.48438 144.109,-8.48438 C145.089,-8.48438 145.896,-8.08854 146.531,-7.29688 L146.531,-8.29688 L147.828,-8.29688 L147.828,-1.125 C147.828,0.166667 147.698,1.08333 147.438,1.625 C147.177,2.16667 146.76,2.59375 146.188,2.90625 C145.615,3.21875 144.911,3.375 144.078,3.375 C143.089,3.375 142.289,3.15104 141.68,2.70313 C141.07,2.25521 140.776,1.58333 140.797,0.6875 M141.969,-4.29688 C141.969,-3.21354 142.185,-2.42188 142.617,-1.92188 C143.049,-1.42188 143.589,-1.17188 144.234,-1.17188 C144.88,-1.17188 145.422,-1.41927 145.859,-1.91406 C146.297,-2.40885 146.516,-3.1875 146.516,-4.25 C146.516,-5.27083 146.292,-6.03906 145.844,-6.55469 C145.396,-7.07031 144.854,-7.32813 144.219,-7.32813 C143.594,-7.32813 143.063,-7.07292 142.625,-6.5625 C142.188,-6.05208 141.969,-5.29688 141.969,-4.29688 "/>
</g>

<g fill="#212121" fill-opacity="1" stroke="none" transform="matrix(0.75,0,0,0.75,423.64,382.4)"
font-family="SimSun" font-size="9" font-weight="400" font-style="normal" 
>
<path vector-effect="none" fill-rule="evenodd" d="M3.23438,0 L0.203125,-11.4531 L1.75,-11.4531 L3.5,-3.95313 C3.6875,-3.16146 3.84896,-2.38021 3.98438,-1.60938 C4.27604,-2.82813 4.44792,-3.53125 4.5,-3.71875 L6.67188,-11.4531 L8.5,-11.4531 L10.1406,-5.65625 C10.5573,-4.21875 10.8542,-2.86979 11.0313,-1.60938 C11.1771,-2.32813 11.3698,-3.15625 11.6094,-4.09375 L13.4063,-11.4531 L14.9219,-11.4531 L11.7813,0 L10.3281,0 L7.90625,-8.73438 C7.70833,-9.46354 7.58854,-9.91146 7.54688,-10.0781 C7.43229,-9.54688 7.32292,-9.09896 7.21875,-8.73438 L4.78125,0 L3.23438,0 M16.0625,-9.84375 L16.0625,-11.4531 L17.4688,-11.4531 L17.4688,-9.84375 L16.0625,-9.84375 M16.0625,0 L16.0625,-8.29688 L17.4688,-8.29688 L17.4688,0 L16.0625,0 M23.125,-1.26563 L23.3281,-0.015625 C22.9323,0.0677083 22.5781,0.109375 22.2656,0.109375 C21.7552,0.109375 21.3594,0.0286458 21.0781,-0.132813 C20.7969,-0.294271 20.599,-0.507813 20.4844,-0.773438 C20.3698,-1.03906 20.3125,-1.59375 20.3125,-2.4375 L20.3125,-7.20313 L19.2813,-7.20313 L19.2813,-8.29688 L20.3125,-8.29688 L20.3125,-10.3594 L21.7188,-11.2031 L21.7188,-8.29688 L23.125,-8.29688 L23.125,-7.20313 L21.7188,-7.20313 L21.7188,-2.35938 C21.7188,-1.95313 21.7422,-1.69271 21.7891,-1.57813 C21.8359,-1.46354 21.9167,-1.3724 22.0313,-1.30469 C22.1458,-1.23698 22.3073,-1.20313 22.5156,-1.20313 C22.6719,-1.20313 22.875,-1.22396 23.125,-1.26563 M24.0625,0 L24.0625,-11.4531 L25.4688,-11.4531 L25.4688,-7.34375 C26.125,-8.10417 26.9531,-8.48438 27.9531,-8.48438 C28.5677,-8.48438 29.1016,-8.36458 29.5547,-8.125 C30.0078,-7.88542 30.3307,-7.55208 30.5234,-7.125 C30.7161,-6.69792 30.8125,-6.07813 30.8125,-5.26563 L30.8125,0 L29.4063,0 L29.4063,-5.26563 C29.4063,-5.96354 29.2552,-6.47396 28.9531,-6.79688 C28.651,-7.11979 28.2188,-7.28125 27.6563,-7.28125 C27.2396,-7.28125 26.849,-7.17188 26.4844,-6.95313 C26.1198,-6.73438 25.8594,-6.4401 25.7031,-6.07031 C25.5469,-5.70052 25.4688,-5.19271 25.4688,-4.54688 L25.4688,0 L24.0625,0 M32.5313,-4.15625 C32.5313,-5.6875 32.9583,-6.82292 33.8125,-7.5625 C34.5313,-8.17708 35.401,-8.48438 36.4219,-8.48438 C37.5677,-8.48438 38.5026,-8.11198 39.2266,-7.36719 C39.9505,-6.6224 40.3125,-5.58854 40.3125,-4.26563 C40.3125,-3.20313 40.151,-2.36458 39.8281,-1.75 C39.5052,-1.13542 39.0391,-0.658854 38.4297,-0.320313 C37.8203,0.0182292 37.151,0.1875 36.4219,0.1875 C35.2656,0.1875 34.3281,-0.184896 33.6094,-0.929688 C32.8906,-1.67448 32.5313,-2.75 32.5313,-4.15625 M33.9844,-4.15625 C33.9844,-3.09375 34.2161,-2.29688 34.6797,-1.76563 C35.1432,-1.23438 35.724,-0.96875 36.4219,-0.96875 C37.1198,-0.96875 37.7005,-1.23438 38.1641,-1.76563 C38.6276,-2.29688 38.8594,-3.10938 38.8594,-4.20313 C38.8594,-5.22396 38.6276,-6 38.1641,-6.53125 C37.7005,-7.0625 37.1198,-7.32813 36.4219,-7.32813 C35.724,-7.32813 35.1432,-7.0651 34.6797,-6.53906 C34.2161,-6.01302 33.9844,-5.21875 33.9844,-4.15625 M47.5,0 L47.5,-1.21875 C46.8542,-0.28125 45.974,0.1875 44.8594,0.1875 C44.3698,0.1875 43.9141,0.09375 43.4922,-0.09375 C43.0703,-0.28125 42.7552,-0.518229 42.5469,-0.804688 C42.3385,-1.09115 42.1927,-1.4375 42.1094,-1.84375 C42.0573,-2.125 42.0313,-2.5625 42.0313,-3.15625 L42.0313,-8.29688 L43.4375,-8.29688 L43.4375,-3.70313 C43.4375,-2.96354 43.4635,-2.46875 43.5156,-2.21875 C43.6094,-1.84375 43.7995,-1.55208 44.0859,-1.34375 C44.3724,-1.13542 44.724,-1.03125 45.1406,-1.03125 C45.5677,-1.03125 45.9661,-1.13802 46.3359,-1.35156 C46.7057,-1.5651 46.9661,-1.85938 47.1172,-2.23438 C47.2682,-2.60938 47.3438,-3.15104 47.3438,-3.85938 L47.3438,-8.29688 L48.75,-8.29688 L48.75,0 L47.5,0 M54.125,-1.26563 L54.3281,-0.015625 C53.9323,0.0677083 53.5781,0.109375 53.2656,0.109375 C52.7552,0.109375 52.3594,0.0286458 52.0781,-0.132813 C51.7969,-0.294271 51.599,-0.507813 51.4844,-0.773438 C51.3698,-1.03906 51.3125,-1.59375 51.3125,-2.4375 L51.3125,-7.20313 L50.2813,-7.20313 L50.2813,-8.29688 L51.3125,-8.29688 L51.3125,-10.3594 L52.7188,-11.2031 L52.7188,-8.29688 L54.125,-8.29688 L54.125,-7.20313 L52.7188,-7.20313 L52.7188,-2.35938 C52.7188,-1.95313 52.7422,-1.69271 52.7891,-1.57813 C52.8359,-1.46354 52.9167,-1.3724 53.0313,-1.30469 C53.1458,-1.23698 53.3073,-1.20313 53.5156,-1.20313 C53.6719,-1.20313 53.875,-1.22396 54.125,-1.26563 M58.5,-2.48438 L59.8906,-2.70313 C59.9635,-2.14063 60.1797,-1.71094 60.5391,-1.41406 C60.8984,-1.11719 61.3958,-0.96875 62.0313,-0.96875 C62.6771,-0.96875 63.1563,-1.10156 63.4688,-1.36719 C63.7813,-1.63281 63.9375,-1.94271 63.9375,-2.29688 C63.9375,-2.60938 63.8021,-2.85938 63.5313,-3.04688 C63.3333,-3.17188 62.8542,-3.32813 62.0938,-3.51563 C61.0625,-3.77604 60.3464,-4.0026 59.9453,-4.19531 C59.5443,-4.38802 59.2422,-4.65104 59.0391,-4.98438 C58.8359,-5.31771 58.7344,-5.6875 58.7344,-6.09375 C58.7344,-6.46875 58.8177,-6.8125 58.9844,-7.125 C59.151,-7.4375 59.3802,-7.69792 59.6719,-7.90625 C59.8906,-8.07292 60.1901,-8.21094 60.5703,-8.32031 C60.9505,-8.42969 61.3542,-8.48438 61.7813,-8.48438 C62.4375,-8.48438 63.0104,-8.39063 63.5,-8.20313 C63.9896,-8.01563 64.3516,-7.76302 64.5859,-7.44531 C64.8203,-7.1276 64.9844,-6.69792 65.0781,-6.15625 L63.7031,-5.96875 C63.6406,-6.39583 63.4583,-6.72917 63.1563,-6.96875 C62.8542,-7.20833 62.4323,-7.32813 61.8906,-7.32813 C61.2448,-7.32813 60.7839,-7.22135 60.5078,-7.00781 C60.2318,-6.79427 60.0938,-6.54688 60.0938,-6.26563 C60.0938,-6.07813 60.151,-5.91146 60.2656,-5.76563 C60.3802,-5.61979 60.5573,-5.49479 60.7969,-5.39063 C60.9427,-5.33854 61.3594,-5.21875 62.0469,-5.03125 C63.0365,-4.77083 63.7292,-4.55469 64.125,-4.38281 C64.5208,-4.21094 64.8307,-3.96354 65.0547,-3.64063 C65.2786,-3.31771 65.3906,-2.91667 65.3906,-2.4375 C65.3906,-1.96875 65.2526,-1.52865 64.9766,-1.11719 C64.7005,-0.705729 64.3047,-0.385417 63.7891,-0.15625 C63.2734,0.0729167 62.6927,0.1875 62.0469,0.1875 C60.9635,0.1875 60.1406,-0.0364583 59.5781,-0.484375 C59.0156,-0.932292 58.6563,-1.59896 58.5,-2.48438 M67.0625,0 L67.0625,-11.4531 L68.4688,-11.4531 L68.4688,-7.34375 C69.125,-8.10417 69.9531,-8.48438 70.9531,-8.48438 C71.5677,-8.48438 72.1016,-8.36458 72.5547,-8.125 C73.0078,-7.88542 73.3307,-7.55208 73.5234,-7.125 C73.7161,-6.69792 73.8125,-6.07813 73.8125,-5.26563 L73.8125,0 L72.4063,0 L72.4063,-5.26563 C72.4063,-5.96354 72.2552,-6.47396 71.9531,-6.79688 C71.651,-7.11979 71.2188,-7.28125 70.6563,-7.28125 C70.2396,-7.28125 69.849,-7.17188 69.4844,-6.95313 C69.1198,-6.73438 68.8594,-6.4401 68.7031,-6.07031 C68.5469,-5.70052 68.4688,-5.19271 68.4688,-4.54688 L68.4688,0 L67.0625,0 M81.4688,-1.03125 C80.9479,-0.583333 80.4479,-0.268229 79.9688,-0.0859375 C79.4896,0.0963542 78.974,0.1875 78.4219,0.1875 C77.5052,0.1875 76.8021,-0.0364583 76.3125,-0.484375 C75.8229,-0.932292 75.5781,-1.5 75.5781,-2.1875 C75.5781,-2.59375 75.6719,-2.96615 75.8594,-3.30469 C76.0469,-3.64323 76.2891,-3.91406 76.5859,-4.11719 C76.8828,-4.32031 77.2188,-4.47396 77.5938,-4.57813 C77.875,-4.65104 78.2917,-4.71875 78.8438,-4.78125 C79.9792,-4.91667 80.8177,-5.07813 81.3594,-5.26563 C81.3594,-5.46354 81.3594,-5.58854 81.3594,-5.64063 C81.3594,-6.21354 81.2292,-6.61458 80.9688,-6.84375 C80.6042,-7.16667 80.0677,-7.32813 79.3594,-7.32813 C78.7031,-7.32813 78.2161,-7.21094 77.8984,-6.97656 C77.5807,-6.74219 77.349,-6.33333 77.2031,-5.75 L75.8281,-5.9375 C75.9531,-6.52083 76.1589,-6.99479 76.4453,-7.35938 C76.7318,-7.72396 77.1458,-8.0026 77.6875,-8.19531 C78.2292,-8.38802 78.8542,-8.48438 79.5625,-8.48438 C80.2708,-8.48438 80.8464,-8.40104 81.2891,-8.23438 C81.7318,-8.06771 82.0573,-7.85938 82.2656,-7.60938 C82.474,-7.35938 82.6198,-7.04167 82.7031,-6.65625 C82.7552,-6.41667 82.7813,-5.98438 82.7813,-5.35938 L82.7813,-3.48438 C82.7813,-2.17188 82.8099,-1.34375 82.8672,-1 C82.9245,-0.65625 83.0417,-0.322917 83.2188,0 L81.75,0 C81.6042,-0.291667 81.5104,-0.635417 81.4688,-1.03125 M81.3594,-4.17188 C80.849,-3.96354 80.0833,-3.78646 79.0625,-3.64063 C78.4792,-3.55729 78.0677,-3.46354 77.8281,-3.35938 C77.5885,-3.25521 77.4036,-3.10156 77.2734,-2.89844 C77.1432,-2.69531 77.0781,-2.47396 77.0781,-2.23438 C77.0781,-1.85938 77.2214,-1.54688 77.5078,-1.29688 C77.7943,-1.04688 78.2083,-0.921875 78.75,-0.921875 C79.2917,-0.921875 79.7734,-1.03906 80.1953,-1.27344 C80.6172,-1.50781 80.9271,-1.83333 81.125,-2.25 C81.2813,-2.5625 81.3594,-3.03125 81.3594,-3.65625 L81.3594,-4.17188 M85.0469,0 L85.0469,-8.29688 L86.3125,-8.29688 L86.3125,-7.04688 C86.6354,-7.63021 86.9323,-8.01563 87.2031,-8.20313 C87.474,-8.39063 87.776,-8.48438 88.1094,-8.48438 C88.5781,-8.48438 89.0573,-8.33333 89.5469,-8.03125 L89.0625,-6.73438 C88.7188,-6.93229 88.375,-7.03125 88.0313,-7.03125 C87.7292,-7.03125 87.4557,-6.9401 87.2109,-6.75781 C86.9661,-6.57552 86.7917,-6.31771 86.6875,-5.98438 C86.5313,-5.48438 86.4531,-4.9375 86.4531,-4.34375 L86.4531,0 L85.0469,0 M95.7344,-2.67188 L97.1875,-2.5 C96.9583,-1.64583 96.5339,-0.984375 95.9141,-0.515625 C95.2943,-0.046875 94.5052,0.1875 93.5469,0.1875 C92.3281,0.1875 91.3646,-0.1875 90.6563,-0.9375 C89.9479,-1.6875 89.5938,-2.73438 89.5938,-4.07813 C89.5938,-5.47396 89.9531,-6.55729 90.6719,-7.32813 C91.3906,-8.09896 92.3229,-8.48438 93.4688,-8.48438 C94.5729,-8.48438 95.4766,-8.10677 96.1797,-7.35156 C96.8828,-6.59635 97.2344,-5.53646 97.2344,-4.17188 C97.2344,-4.08854 97.2344,-3.96354 97.2344,-3.79688 L91.0469,-3.79688 C91.099,-2.88021 91.3568,-2.17969 91.8203,-1.69531 C92.2839,-1.21094 92.8594,-0.96875 93.5469,-0.96875 C94.0677,-0.96875 94.5104,-1.10417 94.875,-1.375 C95.2396,-1.64583 95.526,-2.07813 95.7344,-2.67188 M91.125,-4.95313 L95.75,-4.95313 C95.6875,-5.65104 95.5104,-6.17188 95.2188,-6.51563 C94.7708,-7.05729 94.1927,-7.32813 93.4844,-7.32813 C92.8385,-7.32813 92.2943,-7.11198 91.8516,-6.67969 C91.4089,-6.2474 91.1667,-5.67188 91.125,-4.95313 M104.594,0 L102.047,-8.29688 L103.5,-8.29688 L104.828,-3.51563 L105.313,-1.73438 C105.333,-1.81771 105.479,-2.38542 105.75,-3.4375 L107.063,-8.29688 L108.516,-8.29688 L109.75,-3.48438 L110.172,-1.90625 L110.641,-3.5 L112.063,-8.29688 L113.438,-8.29688 L110.844,0 L109.375,0 L108.063,-4.96875 L107.734,-6.39063 L106.063,0 L104.594,0 M120.734,-2.67188 L122.188,-2.5 C121.958,-1.64583 121.534,-0.984375 120.914,-0.515625 C120.294,-0.046875 119.505,0.1875 118.547,0.1875 C117.328,0.1875 116.365,-0.1875 115.656,-0.9375 C114.948,-1.6875 114.594,-2.73438 114.594,-4.07813 C114.594,-5.47396 114.953,-6.55729 115.672,-7.32813 C116.391,-8.09896 117.323,-8.48438 118.469,-8.48438 C119.573,-8.48438 120.477,-8.10677 121.18,-7.35156 C121.883,-6.59635 122.234,-5.53646 122.234,-4.17188 C122.234,-4.08854 122.234,-3.96354 122.234,-3.79688 L116.047,-3.79688 C116.099,-2.88021 116.357,-2.17969 116.82,-1.69531 C117.284,-1.21094 117.859,-0.96875 118.547,-0.96875 C119.068,-0.96875 119.51,-1.10417 119.875,-1.375 C120.24,-1.64583 120.526,-2.07813 120.734,-2.67188 M116.125,-4.95313 L120.75,-4.95313 C120.688,-5.65104 120.51,-6.17188 120.219,-6.51563 C119.771,-7.05729 119.193,-7.32813 118.484,-7.32813 C117.839,-7.32813 117.294,-7.11198 116.852,-6.67969 C116.409,-6.2474 116.167,-5.67188 116.125,-4.95313 M124.063,-9.84375 L124.063,-11.4531 L125.469,-11.4531 L125.469,-9.84375 L124.063,-9.84375 M124.063,0 L124.063,-8.29688 L125.469,-8.29688 L125.469,0 L124.063,0 M127.797,0.6875 L129.172,0.890625 C129.224,1.31771 129.38,1.625 129.641,1.8125 C129.995,2.07292 130.474,2.20313 131.078,2.20313 C131.724,2.20313 132.224,2.07292 132.578,1.8125 C132.932,1.55208 133.172,1.1875 133.297,0.71875 C133.37,0.4375 133.406,-0.166667 133.406,-1.09375 C132.792,-0.364583 132.026,0 131.109,0 C129.964,0 129.078,-0.411458 128.453,-1.23438 C127.828,-2.05729 127.516,-3.04688 127.516,-4.20313 C127.516,-4.99479 127.659,-5.72396 127.945,-6.39063 C128.232,-7.05729 128.648,-7.57292 129.195,-7.9375 C129.742,-8.30208 130.38,-8.48438 131.109,-8.48438 C132.089,-8.48438 132.896,-8.08854 133.531,-7.29688 L133.531,-8.29688 L134.828,-8.29688 L134.828,-1.125 C134.828,0.166667 134.698,1.08333 134.438,1.625 C134.177,2.16667 133.76,2.59375 133.188,2.90625 C132.615,3.21875 131.911,3.375 131.078,3.375 C130.089,3.375 129.289,3.15104 128.68,2.70313 C128.07,2.25521 127.776,1.58333 127.797,0.6875 M128.969,-4.29688 C128.969,-3.21354 129.185,-2.42188 129.617,-1.92188 C130.049,-1.42188 130.589,-1.17188 131.234,-1.17188 C131.88,-1.17188 132.422,-1.41927 132.859,-1.91406 C133.297,-2.40885 133.516,-3.1875 133.516,-4.25 C133.516,-5.27083 133.292,-6.03906 132.844,-6.55469 C132.396,-7.07031 131.854,-7.32813 131.219,-7.32813 C130.594,-7.32813 130.063,-7.07292 129.625,-6.5625 C129.188,-6.05208 128.969,-5.29688 128.969,-4.29688 M137.063,0 L137.063,-11.4531 L138.469,-11.4531 L138.469,-7.34375 C139.125,-8.10417 139.953,-8.48438 140.953,-8.48438 C141.568,-8.48438 142.102,-8.36458 142.555,-8.125 C143.008,-7.88542 143.331,-7.55208 143.523,-7.125 C143.716,-6.69792 143.813,-6.07813 143.813,-5.26563 L143.813,0 L142.406,0 L142.406,-5.26563 C142.406,-5.96354 142.255,-6.47396 141.953,-6.79688 C141.651,-7.11979 141.219,-7.28125 140.656,-7.28125 C140.24,-7.28125 139.849,-7.17188 139.484,-6.95313 C139.12,-6.73438 138.859,-6.4401 138.703,-6.07031 C138.547,-5.70052 138.469,-5.19271 138.469,-4.54688 L138.469,0 L137.063,0 M149.125,-1.26563 L149.328,-0.015625 C148.932,0.0677083 148.578,0.109375 148.266,0.109375 C147.755,0.109375 147.359,0.0286458 147.078,-0.132813 C146.797,-0.294271 146.599,-0.507813 146.484,-0.773438 C146.37,-1.03906 146.313,-1.59375 146.313,-2.4375 L146.313,-7.20313 L145.281,-7.20313 L145.281,-8.29688 L146.313,-8.29688 L146.313,-10.3594 L147.719,-11.2031 L147.719,-8.29688 L149.125,-8.29688 L149.125,-7.20313 L147.719,-7.20313 L147.719,-2.35938 C147.719,-1.95313 147.742,-1.69271 147.789,-1.57813 C147.836,-1.46354 147.917,-1.3724 148.031,-1.30469 C148.146,-1.23698 148.307,-1.20313 148.516,-1.20313 C148.672,-1.20313 148.875,-1.22396 149.125,-1.26563 M150.063,-9.84375 L150.063,-11.4531 L151.469,-11.4531 L151.469,-9.84375 L150.063,-9.84375 M150.063,0 L150.063,-8.29688 L151.469,-8.29688 L151.469,0 L150.063,0 M154.063,0 L154.063,-8.29688 L155.328,-8.29688 L155.328,-7.125 C155.932,-8.03125 156.813,-8.48438 157.969,-8.48438 C158.469,-8.48438 158.927,-8.39583 159.344,-8.21875 C159.76,-8.04167 160.073,-7.80729 160.281,-7.51563 C160.49,-7.22396 160.635,-6.875 160.719,-6.46875 C160.771,-6.20833 160.797,-5.75521 160.797,-5.10938 L160.797,0 L159.391,0 L159.391,-5.04688 C159.391,-5.61979 159.336,-6.04948 159.227,-6.33594 C159.117,-6.6224 158.924,-6.84896 158.648,-7.01563 C158.372,-7.18229 158.047,-7.26563 157.672,-7.26563 C157.068,-7.26563 156.549,-7.07552 156.117,-6.69531 C155.685,-6.3151 155.469,-5.59375 155.469,-4.53125 L155.469,0 L154.063,0 M162.797,0.6875 L164.172,0.890625 C164.224,1.31771 164.38,1.625 164.641,1.8125 C164.995,2.07292 165.474,2.20313 166.078,2.20313 C166.724,2.20313 167.224,2.07292 167.578,1.8125 C167.932,1.55208 168.172,1.1875 168.297,0.71875 C168.37,0.4375 168.406,-0.166667 168.406,-1.09375 C167.792,-0.364583 167.026,0 166.109,0 C164.964,0 164.078,-0.411458 163.453,-1.23438 C162.828,-2.05729 162.516,-3.04688 162.516,-4.20313 C162.516,-4.99479 162.659,-5.72396 162.945,-6.39063 C163.232,-7.05729 163.648,-7.57292 164.195,-7.9375 C164.742,-8.30208 165.38,-8.48438 166.109,-8.48438 C167.089,-8.48438 167.896,-8.08854 168.531,-7.29688 L168.531,-8.29688 L169.828,-8.29688 L169.828,-1.125 C169.828,0.166667 169.698,1.08333 169.438,1.625 C169.177,2.16667 168.76,2.59375 168.188,2.90625 C167.615,3.21875 166.911,3.375 166.078,3.375 C165.089,3.375 164.289,3.15104 163.68,2.70313 C163.07,2.25521 162.776,1.58333 162.797,0.6875 M163.969,-4.29688 C163.969,-3.21354 164.185,-2.42188 164.617,-1.92188 C165.049,-1.42188 165.589,-1.17188 166.234,-1.17188 C166.88,-1.17188 167.422,-1.41927 167.859,-1.91406 C168.297,-2.40885 168.516,-3.1875 168.516,-4.25 C168.516,-5.27083 168.292,-6.03906 167.844,-6.55469 C167.396,-7.07031 166.854,-7.32813 166.219,-7.32813 C165.594,-7.32813 165.063,-7.07292 164.625,-6.5625 C164.188,-6.05208 163.969,-5.29688 163.969,-4.29688 "/>
</g>

<g fill="#212121" fill-opacity="1" stroke="none" transform="matrix(0,-0.75,0.75,0,72.85,217.875)"
font-family="SimSun" font-size="9" font-weight="400" font-style="normal" 
>
<path vector-effect="none" fill-rule="evenodd" d="M6.64063,-11.3594 L13.6875,-11.3594 L14.4063,-12.0938 L15.5469,-10.9531 L8.70313,-10.9531 C8.13021,-10.9531 7.64063,-10.8906 7.23438,-10.7656 L6.64063,-11.3594 M8.23438,-10.6875 C9.21354,-10.0313 9.75781,-9.59115 9.86719,-9.36719 C9.97656,-9.14323 10.0313,-8.98958 10.0313,-8.90625 C10.0313,-8.72917 9.94271,-8.53906 9.76563,-8.33594 C9.58854,-8.13281 9.45313,-8.03125 9.35938,-8.03125 C9.23438,-8.03125 9.125,-8.23438 9.03125,-8.64063 C8.89583,-9.17188 8.5625,-9.8125 8.03125,-10.5625 L8.23438,-10.6875 M10.5625,-6.51563 L9.625,-4.78125 L14.4063,-4.78125 L15.2031,-5.57813 L16.3438,-4.39063 L13.5469,-4.39063 C12.8802,-2.97396 12.3281,-2 11.8906,-1.46875 C12.776,-1.15625 13.5286,-0.833333 14.1484,-0.5 C14.7682,-0.166667 15.1328,0.122396 15.2422,0.367188 C15.3516,0.611979 15.4063,0.822917 15.4063,1 C15.4063,1.13542 15.3724,1.25781 15.3047,1.36719 C15.237,1.47656 15.1615,1.53125 15.0781,1.53125 C14.9427,1.53125 14.7448,1.39583 14.4844,1.125 C14.0781,0.6875 13.6667,0.335938 13.25,0.0703125 C12.8333,-0.195313 12.224,-0.505208 11.4219,-0.859375 C10.7135,-0.244792 9.86198,0.283854 8.86719,0.726563 C7.8724,1.16927 6.51042,1.45833 4.78125,1.59375 L4.78125,1.32813 C5.70833,1.19271 6.67188,0.9375 7.67188,0.5625 C8.67188,0.1875 9.63542,-0.401042 10.5625,-1.20313 C9.54167,-1.59896 8.43229,-1.90625 7.23438,-2.125 C7.68229,-2.875 8.125,-3.63021 8.5625,-4.39063 L6.17188,-4.39063 L5.57813,-4.25 L5.04688,-4.78125 L8.70313,-4.78125 C9.14063,-5.80208 9.49479,-6.70833 9.76563,-7.5 L6.84375,-7.5 L6.25,-7.375 L5.71875,-7.90625 L11.2969,-7.90625 C11.474,-8.30208 11.6615,-8.74479 11.8594,-9.23438 C12.0573,-9.72396 12.2448,-10.276 12.4219,-10.8906 L13.75,-9.96875 L13.1563,-9.82813 C12.5313,-8.94271 12.0417,-8.30208 11.6875,-7.90625 L14.1406,-7.90625 L14.9375,-8.70313 L16.1406,-7.5 L9.89063,-7.5 L11.0938,-6.78125 L10.5625,-6.51563 M8.23438,-2.32813 C9.21354,-2.15104 10.1458,-1.95313 11.0313,-1.73438 C11.6042,-2.48438 12.0885,-3.36979 12.4844,-4.39063 L9.5,-4.39063 C9.10417,-3.72396 8.68229,-3.03646 8.23438,-2.32813 M9.5625,-13.875 C10.3646,-13.4375 10.875,-13.1068 11.0938,-12.8828 C11.3125,-12.6589 11.4219,-12.4844 11.4219,-12.3594 C11.4219,-12.1823 11.3333,-11.9818 11.1563,-11.7578 C10.9792,-11.5339 10.8698,-11.4219 10.8281,-11.4219 C10.6927,-11.4219 10.5833,-11.599 10.5,-11.9531 C10.3229,-12.4844 9.94271,-13.0833 9.35938,-13.75 L9.5625,-13.875 M4.39063,-6.375 L6.25,-7.17188 L6.375,-6.96875 L4.39063,-5.78125 L4.39063,-0.140625 C4.39063,0.578125 3.94792,1.13542 3.0625,1.53125 C3.14583,1.04167 2.58854,0.552083 1.39063,0.0625 L1.39063,-0.203125 C2.36979,-0.0260417 2.96875,0.0520833 3.1875,0.03125 C3.40625,0.0104167 3.51563,-0.177083 3.51563,-0.53125 L3.51563,-5.3125 C2.32813,-4.60417 1.64583,-4.11979 1.46875,-3.85938 L0.59375,-4.98438 C1.39583,-5.20313 2.36979,-5.55729 3.51563,-6.04688 L3.51563,-9.76563 L2.125,-9.76563 L1.32813,-9.625 L0.796875,-10.1563 L3.51563,-10.1563 C3.51563,-11.9792 3.49479,-13.2656 3.45313,-14.0156 L4.92188,-13.2813 L4.39063,-12.8125 L4.39063,-10.1563 L5.25,-10.1563 L5.98438,-10.8906 L7.10938,-9.76563 L4.39063,-9.76563 L4.39063,-6.375 M19.5938,-11.9531 C21.5833,-12.0885 23.6406,-12.3229 25.7656,-12.6563 C27.8906,-12.9896 29.3542,-13.375 30.1563,-13.8125 L31.2188,-12.4844 C29.1771,-12.3073 27.3385,-12.151 25.7031,-12.0156 C24.0156,-11.8385 21.9792,-11.7292 19.5938,-11.6875 L19.5938,-11.9531 M27.6875,-8.23438 C28.2708,-9.25521 28.7813,-10.474 29.2188,-11.8906 L30.75,-10.8906 L30.0156,-10.625 C29.2656,-9.69792 28.6458,-8.90104 28.1563,-8.23438 L31.1406,-8.23438 L31.75,-8.96875 L33.0781,-7.64063 C32.276,-7.54688 31.4323,-6.90625 30.5469,-5.71875 L30.3438,-5.84375 L31.2188,-7.84375 L19.9844,-7.84375 C20.0781,-6.90625 19.9922,-6.30469 19.7266,-6.03906 C19.4609,-5.77344 19.1615,-5.67448 18.8281,-5.74219 C18.4948,-5.8099 18.3281,-5.91146 18.3281,-6.04688 C18.3281,-6.18229 18.4635,-6.40104 18.7344,-6.70313 C19.1719,-7.23438 19.4792,-8.03125 19.6563,-9.09375 L19.9219,-9.09375 L19.9844,-8.23438 L21.5156,-8.23438 C21.474,-8.50521 21.3854,-8.8724 21.25,-9.33594 C21.1146,-9.79948 20.8073,-10.3646 20.3281,-11.0313 L20.5156,-11.1563 C21.1823,-10.8021 21.6823,-10.4479 22.0156,-10.0938 C22.349,-9.73958 22.5156,-9.45313 22.5156,-9.23438 C22.5156,-8.92188 22.3385,-8.58854 21.9844,-8.23438 L25.0313,-8.23438 C24.9479,-8.85938 24.8385,-9.36979 24.7031,-9.76563 C24.5677,-10.1615 24.3229,-10.6719 23.9688,-11.2969 L24.1719,-11.4219 C24.7448,-11.0677 25.1979,-10.6927 25.5313,-10.2969 C25.8646,-9.90104 26.0313,-9.56771 26.0313,-9.29688 C26.0313,-8.94271 25.8333,-8.58854 25.4375,-8.23438 L27.6875,-8.23438 M20.3906,-5.78125 L27.9531,-5.78125 L28.625,-6.4375 L29.8125,-5.3125 L29.0156,-4.98438 C28.224,-3.74479 27.276,-2.61458 26.1719,-1.59375 C28.0677,-0.354167 30.4323,0.177083 33.2656,0 L33.2656,0.265625 C32.3802,0.484375 31.8958,0.838542 31.8125,1.32813 C29.4688,1.06771 27.3438,0.25 25.4375,-1.125 C23.3125,0.291667 20.8542,1.17708 18.0625,1.53125 L18,1.26563 C20.7917,0.640625 23.0469,-0.333333 24.7656,-1.65625 C23.7552,-2.77083 22.9844,-4.01042 22.4531,-5.375 L21.5156,-5.375 L20.9219,-5.25 L20.3906,-5.78125 M22.7813,-5.375 C23.4896,-4.13542 24.375,-3.05208 25.4375,-2.125 C26.5417,-3.10417 27.4063,-4.1875 28.0313,-5.375 L22.7813,-5.375 M36.3281,-9.89063 L36.4531,-10.0938 C37.2552,-9.83333 37.8099,-9.59115 38.1172,-9.36719 C38.4245,-9.14323 38.5781,-8.90104 38.5781,-8.64063 C38.5781,-8.50521 38.5234,-8.30469 38.4141,-8.03906 C38.3047,-7.77344 38.2083,-7.64063 38.125,-7.64063 C38.0313,-7.64063 37.9167,-7.79688 37.7813,-8.10938 C37.5208,-8.58854 37.0365,-9.18229 36.3281,-9.89063 M35.4688,-4.92188 C36.0417,-5.04688 37.3229,-5.6875 39.3125,-6.84375 L39.4531,-6.64063 C38.7865,-6.15104 38.1536,-5.65365 37.5547,-5.14844 C36.9557,-4.64323 36.5469,-4.1875 36.3281,-3.78125 L35.4688,-4.92188 M47.8125,-9.17188 C47.1042,-8.64063 46.2865,-8.0625 45.3594,-7.4375 L45.2188,-7.64063 C46.1979,-8.56771 46.9323,-9.49479 47.4219,-10.4219 L48.4844,-9.35938 L47.8125,-9.17188 M45.4844,-6.64063 L45.5625,-6.84375 C47.1042,-6.44792 48.0078,-6.1276 48.2734,-5.88281 C48.5391,-5.63802 48.6719,-5.35938 48.6719,-5.04688 C48.6719,-4.82813 48.6406,-4.61979 48.5781,-4.42188 C48.5156,-4.22396 48.4375,-4.125 48.3438,-4.125 C48.2083,-4.125 48.0313,-4.34375 47.8125,-4.78125 C47.4167,-5.40625 46.6406,-6.02604 45.4844,-6.64063 M42.375,-10.3594 C41.2188,-9.29688 40.4635,-8.63542 40.1094,-8.375 C40.9948,-8.375 41.9688,-8.39583 43.0313,-8.4375 C43.5625,-9.01042 43.9635,-9.58333 44.2344,-10.1563 L45.2969,-9.17188 C44.9427,-9.07813 44.2344,-8.52083 43.1719,-7.5 C42.1094,-6.48958 41.2448,-5.71875 40.5781,-5.1875 C41.776,-5.22917 42.9948,-5.27083 44.2344,-5.3125 C44.0573,-5.625 43.7917,-6.02604 43.4375,-6.51563 L43.5625,-6.64063 C44.3646,-6.20313 44.8984,-5.85156 45.1641,-5.58594 C45.4297,-5.32031 45.5625,-5.09896 45.5625,-4.92188 C45.5625,-4.78646 45.474,-4.58594 45.2969,-4.32031 C45.1198,-4.05469 44.9844,-3.92188 44.8906,-3.92188 C44.849,-3.92188 44.8073,-3.98958 44.7656,-4.125 C44.6719,-4.38542 44.5365,-4.69271 44.3594,-5.04688 C43.9219,-5.00521 43.1927,-4.91667 42.1719,-4.78125 L43.2969,-4.125 L42.8281,-3.78125 L42.8281,-2.59375 L48.1406,-2.59375 L49.0156,-3.45313 L50.2031,-2.1875 L42.8281,-2.1875 C42.8281,-0.239583 42.8542,0.953125 42.9063,1.39063 L41.9063,1.73438 C41.9479,0.578125 41.9688,-0.729167 41.9688,-2.1875 L36.9844,-2.1875 C36.4115,-2.1875 35.8802,-2.125 35.3906,-2 L34.7969,-2.59375 L41.9688,-2.59375 L41.9688,-4.71875 C41,-4.58333 40.2917,-4.35938 39.8438,-4.04688 L39.1875,-5.1875 C39.7604,-5.1875 40.401,-5.54167 41.1094,-6.25 C41.8177,-6.95833 42.3906,-7.57813 42.8281,-8.10938 C41.1927,-7.93229 40.1563,-7.6875 39.7188,-7.375 L39.1875,-8.4375 C39.5417,-8.39583 40.0052,-8.75 40.5781,-9.5 C41.151,-10.25 41.526,-10.8229 41.7031,-11.2188 L37.8594,-11.2188 C37.276,-11.2188 36.7448,-11.1563 36.2656,-11.0313 L35.6563,-11.625 L42.2344,-11.625 C42.151,-12.375 41.776,-13.1042 41.1094,-13.8125 L41.2344,-13.9531 C42.1198,-13.599 42.6641,-13.2995 42.8672,-13.0547 C43.0703,-12.8099 43.1719,-12.6198 43.1719,-12.4844 C43.1719,-12.224 42.9948,-11.9375 42.6406,-11.625 L47.3438,-11.625 L48.2188,-12.4219 L49.3438,-11.2188 L42.1094,-11.2188 L42.9688,-10.5 L42.375,-10.3594"/>
</g>

<g fill="#212121" fill-opacity="1" stroke="#212121" stroke-opacity="1" stroke-width="0.666667" stroke-linecap="square" stroke-linejoin="round" transform="matrix(0.75,0,0,0.75,0,0)"
font-family="SimSun" font-size="9" font-weight="400" font-style="normal" 
>
<polyline fill="none" vector-effect="none" points="134,489 134,41 " />
<polyline fill="none" vector-effect="none" points="932,489 932,41 " />
<polyline fill="none" vector-effect="none" points="134,489 141.98,489 " />
<polyline fill="none" vector-effect="none" points="924.02,489 932,489 " />
<polyline fill="none" vector-effect="none" points="134,439.222 141.98,439.222 " />
<polyline fill="none" vector-effect="none" points="924.02,439.222 932,439.222 " />
<polyline fill="none" vector-effect="none" points="134,389.444 141.98,389.444 " />
<polyline fill="none" vector-effect="none" points="924.02,389.444 932,389.444 " />
<polyline fill="none" vector-effect="none" points="134,339.667 141.98,339.667 " />
<polyline fill="none" vector-effect="none" points="924.02,339.667 932,339.667 " />
<polyline fill="none" vector-effect="none" points="134,289.889 141.98,289.889 " />
<polyline fill="none" vector-effect="none" points="924.02,289.889 932,289.889 " />
<polyline fill="none" vector-effect="none" points="134,240.111 141.98,240.111 " />
<polyline fill="none" vector-effect="none" points="924.02,240.111 932,240.111 " />
<polyline fill="none" vector-effect="none" points="134,190.333 141.98,190.333 " />
<polyline fill="none" vector-effect="none" points="924.02,190.333 932,190.333 " />
<polyline fill="none" vector-effect="none" points="134,140.556 141.98,140.556 " />
<polyline fill="none" vector-effect="none" points="924.02,140.556 932,140.556 " />
<polyline fill="none" vector-effect="none" points="134,90.7778 141.98,90.7778 " />
<polyline fill="none" vector-effect="none" points="924.02,90.7778 932,90.7778 " />
<polyline fill="none" vector-effect="none" points="134,41 141.98,41 " />
<polyline fill="none" vector-effect="none" points="924.02,41 932,41 " />
</g>

<g fill="#212121" fill-opacity="1" stroke="none" transform="matrix(0.75,0,0,0.75,89.35,370.875)"
font-family="SimSun" font-size="9" font-weight="400" font-style="normal" 
>
<path vector-effect="none" fill-rule="evenodd" d="M0.671875,-5.65625 C0.671875,-7.01042 0.809896,-8.09896 1.08594,-8.92188 C1.36198,-9.74479 1.77604,-10.3802 2.32813,-10.8281 C2.88021,-11.276 3.57292,-11.5 4.40625,-11.5 C5.02083,-11.5 5.5599,-11.3776 6.02344,-11.1328 C6.48698,-10.888 6.86979,-10.5313 7.17188,-10.0625 C7.47396,-9.59375 7.71094,-9.02604 7.88281,-8.35938 C8.05469,-7.69271 8.14063,-6.79167 8.14063,-5.65625 C8.14063,-4.3125 8.0026,-3.22656 7.72656,-2.39844 C7.45052,-1.57031 7.03646,-0.929688 6.48438,-0.476563 C5.93229,-0.0234375 5.23958,0.203125 4.40625,0.203125 C3.30208,0.203125 2.43229,-0.197917 1.79688,-1 C1.04688,-1.94792 0.671875,-3.5 0.671875,-5.65625 M2.10938,-5.65625 C2.10938,-3.77083 2.33073,-2.51823 2.77344,-1.89844 C3.21615,-1.27865 3.76042,-0.96875 4.40625,-0.96875 C5.05208,-0.96875 5.59375,-1.28125 6.03125,-1.90625 C6.46875,-2.53125 6.6875,-3.78125 6.6875,-5.65625 C6.6875,-7.54167 6.46875,-8.79427 6.03125,-9.41406 C5.59375,-10.0339 5.04688,-10.3438 4.39063,-10.3438 C3.74479,-10.3438 3.22917,-10.0677 2.84375,-9.51563 C2.35417,-8.81771 2.10938,-7.53125 2.10938,-5.65625 "/>
</g>

<g fill="#212121" fill-opacity="1" stroke="none" transform="matrix(0.75,0,0,0.75,79.6,333.542)"
font-family="SimSun" font-size="9" font-weight="400" font-style="normal" 
>
<path vector-effect="none" fill-rule="evenodd" d="M0.671875,-5.65625 C0.671875,-7.01042 0.809896,-8.09896 1.08594,-8.92188 C1.36198,-9.74479 1.77604,-10.3802 2.32813,-10.8281 C2.88021,-11.276 3.57292,-11.5 4.40625,-11.5 C5.02083,-11.5 5.5599,-11.3776 6.02344,-11.1328 C6.48698,-10.888 6.86979,-10.5313 7.17188,-10.0625 C7.47396,-9.59375 7.71094,-9.02604 7.88281,-8.35938 C8.05469,-7.69271 8.14063,-6.79167 8.14063,-5.65625 C8.14063,-4.3125 8.0026,-3.22656 7.72656,-2.39844 C7.45052,-1.57031 7.03646,-0.929688 6.48438,-0.476563 C5.93229,-0.0234375 5.23958,0.203125 4.40625,0.203125 C3.30208,0.203125 2.43229,-0.197917 1.79688,-1 C1.04688,-1.94792 0.671875,-3.5 0.671875,-5.65625 M2.10938,-5.65625 C2.10938,-3.77083 2.33073,-2.51823 2.77344,-1.89844 C3.21615,-1.27865 3.76042,-0.96875 4.40625,-0.96875 C5.05208,-0.96875 5.59375,-1.28125 6.03125,-1.90625 C6.46875,-2.53125 6.6875,-3.78125 6.6875,-5.65625 C6.6875,-7.54167 6.46875,-8.79427 6.03125,-9.41406 C5.59375,-10.0339 5.04688,-10.3438 4.39063,-10.3438 C3.74479,-10.3438 3.22917,-10.0677 2.84375,-9.51563 C2.35417,-8.81771 2.10938,-7.53125 2.10938,-5.65625 M10.4531,0 L10.4531,-1.60938 L12.0625,-1.60938 L12.0625,0 L10.4531,0 M18.9688,0 L17.5625,0 L17.5625,-8.96875 C17.2188,-8.64583 16.7734,-8.32292 16.2266,-8 C15.6797,-7.67708 15.1875,-7.43229 14.75,-7.26563 L14.75,-8.625 C15.5313,-9 16.2161,-9.45052 16.8047,-9.97656 C17.3932,-10.5026 17.8125,-11.0104 18.0625,-11.5 L18.9688,-11.5 L18.9688,0"/>
</g>

<g fill="#212121" fill-opacity="1" stroke="none" transform="matrix(0.75,0,0,0.75,79.6,296.208)"
font-family="SimSun" font-size="9" font-weight="400" font-style="normal" 
>
<path vector-effect="none" fill-rule="evenodd" d="M0.671875,-5.65625 C0.671875,-7.01042 0.809896,-8.09896 1.08594,-8.92188 C1.36198,-9.74479 1.77604,-10.3802 2.32813,-10.8281 C2.88021,-11.276 3.57292,-11.5 4.40625,-11.5 C5.02083,-11.5 5.5599,-11.3776 6.02344,-11.1328 C6.48698,-10.888 6.86979,-10.5313 7.17188,-10.0625 C7.47396,-9.59375 7.71094,-9.02604 7.88281,-8.35938 C8.05469,-7.69271 8.14063,-6.79167 8.14063,-5.65625 C8.14063,-4.3125 8.0026,-3.22656 7.72656,-2.39844 C7.45052,-1.57031 7.03646,-0.929688 6.48438,-0.476563 C5.93229,-0.0234375 5.23958,0.203125 4.40625,0.203125 C3.30208,0.203125 2.43229,-0.197917 1.79688,-1 C1.04688,-1.94792 0.671875,-3.5 0.671875,-5.65625 M2.10938,-5.65625 C2.10938,-3.77083 2.33073,-2.51823 2.77344,-1.89844 C3.21615,-1.27865 3.76042,-0.96875 4.40625,-0.96875 C5.05208,-0.96875 5.59375,-1.28125 6.03125,-1.90625 C6.46875,-2.53125 6.6875,-3.78125 6.6875,-5.65625 C6.6875,-7.54167 6.46875,-8.79427 6.03125,-9.41406 C5.59375,-10.0339 5.04688,-10.3438 4.39063,-10.3438 C3.74479,-10.3438 3.22917,-10.0677 2.84375,-9.51563 C2.35417,-8.81771 2.10938,-7.53125 2.10938,-5.65625 M10.4531,0 L10.4531,-1.60938 L12.0625,-1.60938 L12.0625,0 L10.4531,0 M21.0625,-1.35938 L21.0625,0 L13.4844,0 C13.474,-0.34375 13.5313,-0.671875 13.6563,-0.984375 C13.8438,-1.49479 14.151,-2 14.5781,-2.5 C15.0052,-3 15.6198,-3.57813 16.4219,-4.23438 C17.6615,-5.25521 18.5,-6.0651 18.9375,-6.66406 C19.375,-7.26302 19.5938,-7.82813 19.5938,-8.35938 C19.5938,-8.91146 19.3958,-9.38021 19,-9.76563 C18.6042,-10.151 18.0833,-10.3438 17.4375,-10.3438 C16.7604,-10.3438 16.2188,-10.1406 15.8125,-9.73438 C15.4063,-9.32813 15.2031,-8.76563 15.2031,-8.04688 L13.75,-8.1875 C13.8542,-9.27083 14.2292,-10.0938 14.875,-10.6563 C15.5208,-11.2188 16.3854,-11.5 17.4688,-11.5 C18.5729,-11.5 19.4453,-11.1953 20.0859,-10.5859 C20.7266,-9.97656 21.0469,-9.22396 21.0469,-8.32813 C21.0469,-7.86979 20.9531,-7.41927 20.7656,-6.97656 C20.5781,-6.53385 20.2656,-6.06771 19.8281,-5.57813 C19.3906,-5.08854 18.6667,-4.41667 17.6563,-3.5625 C16.8125,-2.85417 16.2708,-2.3724 16.0313,-2.11719 C15.7917,-1.86198 15.5938,-1.60938 15.4375,-1.35938 L21.0625,-1.35938"/>
</g>

<g fill="#212121" fill-opacity="1" stroke="none" transform="matrix(0.75,0,0,0.75,79.6,258.875)"
font-family="SimSun" font-size="9" font-weight="400" font-style="normal" 
>
<path vector-effect="none" fill-rule="evenodd" d="M0.671875,-5.65625 C0.671875,-7.01042 0.809896,-8.09896 1.08594,-8.92188 C1.36198,-9.74479 1.77604,-10.3802 2.32813,-10.8281 C2.88021,-11.276 3.57292,-11.5 4.40625,-11.5 C5.02083,-11.5 5.5599,-11.3776 6.02344,-11.1328 C6.48698,-10.888 6.86979,-10.5313 7.17188,-10.0625 C7.47396,-9.59375 7.71094,-9.02604 7.88281,-8.35938 C8.05469,-7.69271 8.14063,-6.79167 8.14063,-5.65625 C8.14063,-4.3125 8.0026,-3.22656 7.72656,-2.39844 C7.45052,-1.57031 7.03646,-0.929688 6.48438,-0.476563 C5.93229,-0.0234375 5.23958,0.203125 4.40625,0.203125 C3.30208,0.203125 2.43229,-0.197917 1.79688,-1 C1.04688,-1.94792 0.671875,-3.5 0.671875,-5.65625 M2.10938,-5.65625 C2.10938,-3.77083 2.33073,-2.51823 2.77344,-1.89844 C3.21615,-1.27865 3.76042,-0.96875 4.40625,-0.96875 C5.05208,-0.96875 5.59375,-1.28125 6.03125,-1.90625 C6.46875,-2.53125 6.6875,-3.78125 6.6875,-5.65625 C6.6875,-7.54167 6.46875,-8.79427 6.03125,-9.41406 C5.59375,-10.0339 5.04688,-10.3438 4.39063,-10.3438 C3.74479,-10.3438 3.22917,-10.0677 2.84375,-9.51563 C2.35417,-8.81771 2.10938,-7.53125 2.10938,-5.65625 M10.4531,0 L10.4531,-1.60938 L12.0625,-1.60938 L12.0625,0 L10.4531,0 M13.6719,-3.03125 L15.0781,-3.21875 C15.2448,-2.41667 15.5208,-1.84115 15.9063,-1.49219 C16.2917,-1.14323 16.7656,-0.96875 17.3281,-0.96875 C17.9844,-0.96875 18.5417,-1.19792 19,-1.65625 C19.4583,-2.11458 19.6875,-2.68229 19.6875,-3.35938 C19.6875,-4.00521 19.4766,-4.53646 19.0547,-4.95313 C18.6328,-5.36979 18.0938,-5.57813 17.4375,-5.57813 C17.1771,-5.57813 16.849,-5.52604 16.4531,-5.42188 L16.6094,-6.65625 C16.7031,-6.64583 16.776,-6.64063 16.8281,-6.64063 C17.4323,-6.64063 17.974,-6.79688 18.4531,-7.10938 C18.9323,-7.42188 19.1719,-7.90625 19.1719,-8.5625 C19.1719,-9.07292 18.9974,-9.4974 18.6484,-9.83594 C18.2995,-10.1745 17.849,-10.3438 17.2969,-10.3438 C16.7448,-10.3438 16.2865,-10.1719 15.9219,-9.82813 C15.5573,-9.48438 15.3229,-8.96875 15.2188,-8.28125 L13.8125,-8.53125 C13.9896,-9.47917 14.3828,-10.2109 14.9922,-10.7266 C15.6016,-11.2422 16.3594,-11.5 17.2656,-11.5 C17.8906,-11.5 18.4661,-11.3672 18.9922,-11.1016 C19.5182,-10.8359 19.9193,-10.4714 20.1953,-10.0078 C20.4714,-9.54427 20.6094,-9.05208 20.6094,-8.53125 C20.6094,-8.03125 20.4766,-7.57813 20.2109,-7.17188 C19.9453,-6.76563 19.5521,-6.44271 19.0313,-6.20313 C19.7083,-6.04688 20.2344,-5.72396 20.6094,-5.23438 C20.9844,-4.74479 21.1719,-4.13021 21.1719,-3.39063 C21.1719,-2.39063 20.8073,-1.54167 20.0781,-0.84375 C19.349,-0.145833 18.4271,0.203125 17.3125,0.203125 C16.3125,0.203125 15.4792,-0.0963542 14.8125,-0.695313 C14.1458,-1.29427 13.7656,-2.07292 13.6719,-3.03125 "/>
</g>

<g fill="#212121" fill-opacity="1" stroke="none" transform="matrix(0.75,0,0,0.75,79.6,221.542)"
font-family="SimSun" font-size="9" font-weight="400" font-style="normal" 
>
<path vector-effect="none" fill-rule="evenodd" d="M0.671875,-5.65625 C0.671875,-7.01042 0.809896,-8.09896 1.08594,-8.92188 C1.36198,-9.74479 1.77604,-10.3802 2.32813,-10.8281 C2.88021,-11.276 3.57292,-11.5 4.40625,-11.5 C5.02083,-11.5 5.5599,-11.3776 6.02344,-11.1328 C6.48698,-10.888 6.86979,-10.5313 7.17188,-10.0625 C7.47396,-9.59375 7.71094,-9.02604 7.88281,-8.35938 C8.05469,-7.69271 8.14063,-6.79167 8.14063,-5.65625 C8.14063,-4.3125 8.0026,-3.22656 7.72656,-2.39844 C7.45052,-1.57031 7.03646,-0.929688 6.48438,-0.476563 C5.93229,-0.0234375 5.23958,0.203125 4.40625,0.203125 C3.30208,0.203125 2.43229,-0.197917 1.79688,-1 C1.04688,-1.94792 0.671875,-3.5 0.671875,-5.65625 M2.10938,-5.65625 C2.10938,-3.77083 2.33073,-2.51823 2.77344,-1.89844 C3.21615,-1.27865 3.76042,-0.96875 4.40625,-0.96875 C5.05208,-0.96875 5.59375,-1.28125 6.03125,-1.90625 C6.46875,-2.53125 6.6875,-3.78125 6.6875,-5.65625 C6.6875,-7.54167 6.46875,-8.79427 6.03125,-9.41406 C5.59375,-10.0339 5.04688,-10.3438 4.39063,-10.3438 C3.74479,-10.3438 3.22917,-10.0677 2.84375,-9.51563 C2.35417,-8.81771 2.10938,-7.53125 2.10938,-5.65625 M10.4531,0 L10.4531,-1.60938 L12.0625,-1.60938 L12.0625,0 L10.4531,0 M18.1719,0 L18.1719,-2.75 L13.2031,-2.75 L13.2031,-4.03125 L18.4375,-11.4531 L19.5781,-11.4531 L19.5781,-4.03125 L21.125,-4.03125 L21.125,-2.75 L19.5781,-2.75 L19.5781,0 L18.1719,0 M18.1719,-4.03125 L18.1719,-9.20313 L14.5938,-4.03125 L18.1719,-4.03125"/>
</g>

<g fill="#212121" fill-opacity="1" stroke="none" transform="matrix(0.75,0,0,0.75,79.6,184.208)"
font-family="SimSun" font-size="9" font-weight="400" font-style="normal" 
>
<path vector-effect="none" fill-rule="evenodd" d="M0.671875,-5.65625 C0.671875,-7.01042 0.809896,-8.09896 1.08594,-8.92188 C1.36198,-9.74479 1.77604,-10.3802 2.32813,-10.8281 C2.88021,-11.276 3.57292,-11.5 4.40625,-11.5 C5.02083,-11.5 5.5599,-11.3776 6.02344,-11.1328 C6.48698,-10.888 6.86979,-10.5313 7.17188,-10.0625 C7.47396,-9.59375 7.71094,-9.02604 7.88281,-8.35938 C8.05469,-7.69271 8.14063,-6.79167 8.14063,-5.65625 C8.14063,-4.3125 8.0026,-3.22656 7.72656,-2.39844 C7.45052,-1.57031 7.03646,-0.929688 6.48438,-0.476563 C5.93229,-0.0234375 5.23958,0.203125 4.40625,0.203125 C3.30208,0.203125 2.43229,-0.197917 1.79688,-1 C1.04688,-1.94792 0.671875,-3.5 0.671875,-5.65625 M2.10938,-5.65625 C2.10938,-3.77083 2.33073,-2.51823 2.77344,-1.89844 C3.21615,-1.27865 3.76042,-0.96875 4.40625,-0.96875 C5.05208,-0.96875 5.59375,-1.28125 6.03125,-1.90625 C6.46875,-2.53125 6.6875,-3.78125 6.6875,-5.65625 C6.6875,-7.54167 6.46875,-8.79427 6.03125,-9.41406 C5.59375,-10.0339 5.04688,-10.3438 4.39063,-10.3438 C3.74479,-10.3438 3.22917,-10.0677 2.84375,-9.51563 C2.35417,-8.81771 2.10938,-7.53125 2.10938,-5.65625 M10.4531,0 L10.4531,-1.60938 L12.0625,-1.60938 L12.0625,0 L10.4531,0 M13.6719,-3 L15.1406,-3.125 C15.2552,-2.40625 15.5104,-1.86719 15.9063,-1.50781 C16.3021,-1.14844 16.7813,-0.96875 17.3438,-0.96875 C18.0208,-0.96875 18.5938,-1.22396 19.0625,-1.73438 C19.5313,-2.24479 19.7656,-2.92188 19.7656,-3.76563 C19.7656,-4.56771 19.5417,-5.20052 19.0938,-5.66406 C18.6458,-6.1276 18.0573,-6.35938 17.3281,-6.35938 C16.8698,-6.35938 16.4583,-6.25521 16.0938,-6.04688 C15.7292,-5.83854 15.4427,-5.57292 15.2344,-5.25 L13.9219,-5.42188 L15.0313,-11.2969 L20.7188,-11.2969 L20.7188,-9.95313 L16.1563,-9.95313 L15.5313,-6.875 C16.2188,-7.35417 16.9427,-7.59375 17.7031,-7.59375 C18.7031,-7.59375 19.5469,-7.2474 20.2344,-6.55469 C20.9219,-5.86198 21.2656,-4.97396 21.2656,-3.89063 C21.2656,-2.84896 20.9635,-1.95313 20.3594,-1.20313 C19.6198,-0.265625 18.6146,0.203125 17.3438,0.203125 C16.3021,0.203125 15.4531,-0.0911458 14.7969,-0.679688 C14.1406,-1.26823 13.7656,-2.04167 13.6719,-3 "/>
</g>

<g fill="#212121" fill-opacity="1" stroke="none" transform="matrix(0.75,0,0,0.75,79.6,146.875)"
font-family="SimSun" font-size="9" font-weight="400" font-style="normal" 
>
<path vector-effect="none" fill-rule="evenodd" d="M0.671875,-5.65625 C0.671875,-7.01042 0.809896,-8.09896 1.08594,-8.92188 C1.36198,-9.74479 1.77604,-10.3802 2.32813,-10.8281 C2.88021,-11.276 3.57292,-11.5 4.40625,-11.5 C5.02083,-11.5 5.5599,-11.3776 6.02344,-11.1328 C6.48698,-10.888 6.86979,-10.5313 7.17188,-10.0625 C7.47396,-9.59375 7.71094,-9.02604 7.88281,-8.35938 C8.05469,-7.69271 8.14063,-6.79167 8.14063,-5.65625 C8.14063,-4.3125 8.0026,-3.22656 7.72656,-2.39844 C7.45052,-1.57031 7.03646,-0.929688 6.48438,-0.476563 C5.93229,-0.0234375 5.23958,0.203125 4.40625,0.203125 C3.30208,0.203125 2.43229,-0.197917 1.79688,-1 C1.04688,-1.94792 0.671875,-3.5 0.671875,-5.65625 M2.10938,-5.65625 C2.10938,-3.77083 2.33073,-2.51823 2.77344,-1.89844 C3.21615,-1.27865 3.76042,-0.96875 4.40625,-0.96875 C5.05208,-0.96875 5.59375,-1.28125 6.03125,-1.90625 C6.46875,-2.53125 6.6875,-3.78125 6.6875,-5.65625 C6.6875,-7.54167 6.46875,-8.79427 6.03125,-9.41406 C5.59375,-10.0339 5.04688,-10.3438 4.39063,-10.3438 C3.74479,-10.3438 3.22917,-10.0677 2.84375,-9.51563 C2.35417,-8.81771 2.10938,-7.53125 2.10938,-5.65625 M10.4531,0 L10.4531,-1.60938 L12.0625,-1.60938 L12.0625,0 L10.4531,0 M20.9688,-8.65625 L19.5625,-8.54688 C19.4375,-9.09896 19.2604,-9.5 19.0313,-9.75 C18.6563,-10.1458 18.1875,-10.3438 17.625,-10.3438 C17.1771,-10.3438 16.7865,-10.2188 16.4531,-9.96875 C16.0052,-9.64583 15.6536,-9.17448 15.3984,-8.55469 C15.1432,-7.9349 15.0104,-7.05208 15,-5.90625 C15.3438,-6.42708 15.7604,-6.8125 16.25,-7.0625 C16.7396,-7.3125 17.25,-7.4375 17.7813,-7.4375 C18.7188,-7.4375 19.5182,-7.09115 20.1797,-6.39844 C20.8411,-5.70573 21.1719,-4.8125 21.1719,-3.71875 C21.1719,-3 21.0156,-2.33333 20.7031,-1.71875 C20.3906,-1.10417 19.9635,-0.630208 19.4219,-0.296875 C18.8802,0.0364583 18.2656,0.203125 17.5781,0.203125 C16.4115,0.203125 15.4583,-0.229167 14.7188,-1.09375 C13.9792,-1.95833 13.6094,-3.38021 13.6094,-5.35938 C13.6094,-7.57813 14.0156,-9.1875 14.8281,-10.1875 C15.5469,-11.0625 16.5104,-11.5 17.7188,-11.5 C18.6146,-11.5 19.3516,-11.2474 19.9297,-10.7422 C20.5078,-10.237 20.8542,-9.54167 20.9688,-8.65625 M15.2188,-3.71875 C15.2188,-3.22917 15.3229,-2.76302 15.5313,-2.32031 C15.7396,-1.8776 16.0286,-1.54167 16.3984,-1.3125 C16.7682,-1.08333 17.1563,-0.96875 17.5625,-0.96875 C18.1563,-0.96875 18.6667,-1.20833 19.0938,-1.6875 C19.5208,-2.16667 19.7344,-2.81771 19.7344,-3.64063 C19.7344,-4.43229 19.5234,-5.05469 19.1016,-5.50781 C18.6797,-5.96094 18.1458,-6.1875 17.5,-6.1875 C16.8646,-6.1875 16.3255,-5.96094 15.8828,-5.50781 C15.4401,-5.05469 15.2188,-4.45833 15.2188,-3.71875 "/>
</g>

<g fill="#212121" fill-opacity="1" stroke="none" transform="matrix(0.75,0,0,0.75,79.6,109.542)"
font-family="SimSun" font-size="9" font-weight="400" font-style="normal" 
>
<path vector-effect="none" fill-rule="evenodd" d="M0.671875,-5.65625 C0.671875,-7.01042 0.809896,-8.09896 1.08594,-8.92188 C1.36198,-9.74479 1.77604,-10.3802 2.32813,-10.8281 C2.88021,-11.276 3.57292,-11.5 4.40625,-11.5 C5.02083,-11.5 5.5599,-11.3776 6.02344,-11.1328 C6.48698,-10.888 6.86979,-10.5313 7.17188,-10.0625 C7.47396,-9.59375 7.71094,-9.02604 7.88281,-8.35938 C8.05469,-7.69271 8.14063,-6.79167 8.14063,-5.65625 C8.14063,-4.3125 8.0026,-3.22656 7.72656,-2.39844 C7.45052,-1.57031 7.03646,-0.929688 6.48438,-0.476563 C5.93229,-0.0234375 5.23958,0.203125 4.40625,0.203125 C3.30208,0.203125 2.43229,-0.197917 1.79688,-1 C1.04688,-1.94792 0.671875,-3.5 0.671875,-5.65625 M2.10938,-5.65625 C2.10938,-3.77083 2.33073,-2.51823 2.77344,-1.89844 C3.21615,-1.27865 3.76042,-0.96875 4.40625,-0.96875 C5.05208,-0.96875 5.59375,-1.28125 6.03125,-1.90625 C6.46875,-2.53125 6.6875,-3.78125 6.6875,-5.65625 C6.6875,-7.54167 6.46875,-8.79427 6.03125,-9.41406 C5.59375,-10.0339 5.04688,-10.3438 4.39063,-10.3438 C3.74479,-10.3438 3.22917,-10.0677 2.84375,-9.51563 C2.35417,-8.81771 2.10938,-7.53125 2.10938,-5.65625 M10.4531,0 L10.4531,-1.60938 L12.0625,-1.60938 L12.0625,0 L10.4531,0 M13.7656,-9.95313 L13.7656,-11.3125 L21.1719,-11.3125 L21.1719,-10.2188 C20.4427,-9.4375 19.7214,-8.40365 19.0078,-7.11719 C18.2943,-5.83073 17.7396,-4.51042 17.3438,-3.15625 C17.0625,-2.19792 16.8854,-1.14583 16.8125,0 L15.3594,0 C15.3802,-0.90625 15.5599,-1.9974 15.8984,-3.27344 C16.237,-4.54948 16.7214,-5.77865 17.3516,-6.96094 C17.9818,-8.14323 18.6563,-9.14063 19.375,-9.95313 L13.7656,-9.95313"/>
</g>

<g fill="#212121" fill-opacity="1" stroke="none" transform="matrix(0.75,0,0,0.75,79.6,72.2083)"
font-family="SimSun" font-size="9" font-weight="400" font-style="normal" 
>
<path vector-effect="none" fill-rule="evenodd" d="M0.671875,-5.65625 C0.671875,-7.01042 0.809896,-8.09896 1.08594,-8.92188 C1.36198,-9.74479 1.77604,-10.3802 2.32813,-10.8281 C2.88021,-11.276 3.57292,-11.5 4.40625,-11.5 C5.02083,-11.5 5.5599,-11.3776 6.02344,-11.1328 C6.48698,-10.888 6.86979,-10.5313 7.17188,-10.0625 C7.47396,-9.59375 7.71094,-9.02604 7.88281,-8.35938 C8.05469,-7.69271 8.14063,-6.79167 8.14063,-5.65625 C8.14063,-4.3125 8.0026,-3.22656 7.72656,-2.39844 C7.45052,-1.57031 7.03646,-0.929688 6.48438,-0.476563 C5.93229,-0.0234375 5.23958,0.203125 4.40625,0.203125 C3.30208,0.203125 2.43229,-0.197917 1.79688,-1 C1.04688,-1.94792 0.671875,-3.5 0.671875,-5.65625 M2.10938,-5.65625 C2.10938,-3.77083 2.33073,-2.51823 2.77344,-1.89844 C3.21615,-1.27865 3.76042,-0.96875 4.40625,-0.96875 C5.05208,-0.96875 5.59375,-1.28125 6.03125,-1.90625 C6.46875,-2.53125 6.6875,-3.78125 6.6875,-5.65625 C6.6875,-7.54167 6.46875,-8.79427 6.03125,-9.41406 C5.59375,-10.0339 5.04688,-10.3438 4.39063,-10.3438 C3.74479,-10.3438 3.22917,-10.0677 2.84375,-9.51563 C2.35417,-8.81771 2.10938,-7.53125 2.10938,-5.65625 M10.4531,0 L10.4531,-1.60938 L12.0625,-1.60938 L12.0625,0 L10.4531,0 M15.8281,-6.21875 C15.2448,-6.42708 14.8125,-6.72917 14.5313,-7.125 C14.25,-7.52083 14.1094,-7.99479 14.1094,-8.54688 C14.1094,-9.38021 14.4089,-10.0807 15.0078,-10.6484 C15.6068,-11.2161 16.4063,-11.5 17.4063,-11.5 C18.4063,-11.5 19.2109,-11.2109 19.8203,-10.6328 C20.4297,-10.0547 20.7344,-9.34896 20.7344,-8.51563 C20.7344,-7.98438 20.5938,-7.52083 20.3125,-7.125 C20.0313,-6.72917 19.6094,-6.42708 19.0469,-6.21875 C19.7448,-5.98958 20.2786,-5.61979 20.6484,-5.10938 C21.0182,-4.59896 21.2031,-3.98958 21.2031,-3.28125 C21.2031,-2.30208 20.8568,-1.47656 20.1641,-0.804688 C19.4714,-0.132813 18.5573,0.203125 17.4219,0.203125 C16.2969,0.203125 15.388,-0.132813 14.6953,-0.804688 C14.0026,-1.47656 13.6563,-2.3125 13.6563,-3.3125 C13.6563,-4.0625 13.8438,-4.6875 14.2188,-5.1875 C14.5938,-5.6875 15.1302,-6.03125 15.8281,-6.21875 M15.5469,-8.59375 C15.5469,-8.05208 15.7214,-7.60938 16.0703,-7.26563 C16.4193,-6.92188 16.875,-6.75 17.4375,-6.75 C17.9792,-6.75 18.4219,-6.92188 18.7656,-7.26563 C19.1094,-7.60938 19.2813,-8.02604 19.2813,-8.51563 C19.2813,-9.03646 19.1042,-9.47135 18.75,-9.82031 C18.3958,-10.1693 17.9531,-10.3438 17.4219,-10.3438 C16.8802,-10.3438 16.4323,-10.1719 16.0781,-9.82813 C15.724,-9.48438 15.5469,-9.07292 15.5469,-8.59375 M15.0938,-3.3125 C15.0938,-2.90625 15.1901,-2.51563 15.3828,-2.14063 C15.5755,-1.76563 15.8594,-1.47656 16.2344,-1.27344 C16.6094,-1.07031 17.0104,-0.96875 17.4375,-0.96875 C18.1146,-0.96875 18.6719,-1.1849 19.1094,-1.61719 C19.5469,-2.04948 19.7656,-2.59896 19.7656,-3.26563 C19.7656,-3.94271 19.5391,-4.5026 19.0859,-4.94531 C18.6328,-5.38802 18.0677,-5.60938 17.3906,-5.60938 C16.7344,-5.60938 16.1875,-5.39063 15.75,-4.95313 C15.3125,-4.51563 15.0938,-3.96875 15.0938,-3.3125 "/>
</g>

<g fill="#212121" fill-opacity="1" stroke="none" transform="matrix(0.75,0,0,0.75,79.6,34.875)"
font-family="SimSun" font-size="9" font-weight="400" font-style="normal" 
>
<path vector-effect="none" fill-rule="evenodd" d="M0.671875,-5.65625 C0.671875,-7.01042 0.809896,-8.09896 1.08594,-8.92188 C1.36198,-9.74479 1.77604,-10.3802 2.32813,-10.8281 C2.88021,-11.276 3.57292,-11.5 4.40625,-11.5 C5.02083,-11.5 5.5599,-11.3776 6.02344,-11.1328 C6.48698,-10.888 6.86979,-10.5313 7.17188,-10.0625 C7.47396,-9.59375 7.71094,-9.02604 7.88281,-8.35938 C8.05469,-7.69271 8.14063,-6.79167 8.14063,-5.65625 C8.14063,-4.3125 8.0026,-3.22656 7.72656,-2.39844 C7.45052,-1.57031 7.03646,-0.929688 6.48438,-0.476563 C5.93229,-0.0234375 5.23958,0.203125 4.40625,0.203125 C3.30208,0.203125 2.43229,-0.197917 1.79688,-1 C1.04688,-1.94792 0.671875,-3.5 0.671875,-5.65625 M2.10938,-5.65625 C2.10938,-3.77083 2.33073,-2.51823 2.77344,-1.89844 C3.21615,-1.27865 3.76042,-0.96875 4.40625,-0.96875 C5.05208,-0.96875 5.59375,-1.28125 6.03125,-1.90625 C6.46875,-2.53125 6.6875,-3.78125 6.6875,-5.65625 C6.6875,-7.54167 6.46875,-8.79427 6.03125,-9.41406 C5.59375,-10.0339 5.04688,-10.3438 4.39063,-10.3438 C3.74479,-10.3438 3.22917,-10.0677 2.84375,-9.51563 C2.35417,-8.81771 2.10938,-7.53125 2.10938,-5.65625 M10.4531,0 L10.4531,-1.60938 L12.0625,-1.60938 L12.0625,0 L10.4531,0 M13.875,-2.65625 L15.2344,-2.78125 C15.349,-2.14583 15.5677,-1.6849 15.8906,-1.39844 C16.2135,-1.11198 16.625,-0.96875 17.125,-0.96875 C17.5625,-0.96875 17.9427,-1.06771 18.2656,-1.26563 C18.5885,-1.46354 18.8542,-1.72656 19.0625,-2.05469 C19.2708,-2.38281 19.4453,-2.82813 19.5859,-3.39063 C19.7266,-3.95313 19.7969,-4.52604 19.7969,-5.10938 C19.7969,-5.17188 19.7969,-5.26563 19.7969,-5.39063 C19.5156,-4.94271 19.1302,-4.58073 18.6406,-4.30469 C18.151,-4.02865 17.625,-3.89063 17.0625,-3.89063 C16.1146,-3.89063 15.3125,-4.23438 14.6563,-4.92188 C14,-5.60938 13.6719,-6.51563 13.6719,-7.64063 C13.6719,-8.79688 14.013,-9.72917 14.6953,-10.4375 C15.3776,-11.1458 16.2344,-11.5 17.2656,-11.5 C18.0156,-11.5 18.6979,-11.2995 19.3125,-10.8984 C19.9271,-10.4974 20.3958,-9.92708 20.7188,-9.1875 C21.0417,-8.44792 21.2031,-7.375 21.2031,-5.96875 C21.2031,-4.5 21.0443,-3.33333 20.7266,-2.46875 C20.4089,-1.60417 19.9349,-0.942708 19.3047,-0.484375 C18.6745,-0.0260417 17.9375,0.203125 17.0938,0.203125 C16.1979,0.203125 15.4661,-0.046875 14.8984,-0.546875 C14.3307,-1.04688 13.9896,-1.75 13.875,-2.65625 M19.6406,-7.70313 C19.6406,-8.51563 19.4245,-9.15885 18.9922,-9.63281 C18.5599,-10.1068 18.0417,-10.3438 17.4375,-10.3438 C16.8125,-10.3438 16.2682,-10.0885 15.8047,-9.57813 C15.3411,-9.06771 15.1094,-8.40625 15.1094,-7.59375 C15.1094,-6.86458 15.3307,-6.27083 15.7734,-5.8125 C16.2161,-5.35417 16.7604,-5.125 17.4063,-5.125 C18.0521,-5.125 18.5859,-5.35417 19.0078,-5.8125 C19.4297,-6.27083 19.6406,-6.90104 19.6406,-7.70313 "/>
</g>
</g>
</svg>
