<?xml version="1.0" encoding="UTF-8" standalone="no"?>
<svg width="238.125mm" height="145.697mm"
 viewBox="0 0 675 413"
 xmlns="http://www.w3.org/2000/svg" xmlns:xlink="http://www.w3.org/1999/xlink"  version="1.2" baseProfile="tiny">
<title>Qt SVG Document</title>
<desc>MATLAB, The MathWorks, Inc. Version 25.2.0.2998904 R2025b</desc>
<defs>
</defs>
<g fill="none" stroke="black" stroke-width="1" fill-rule="evenodd" stroke-linecap="square" stroke-linejoin="bevel" >

<g fill="#ffffff" fill-opacity="1" stroke="none" transform="matrix(0.75,0,0,0.75,0,0)"
font-family="SimSun" font-size="9" font-weight="400" font-style="normal" 
>
<path vector-effect="none" fill-rule="evenodd" d="M0,0 L901,0 L901,551 L0,551 L0,0"/>
</g>

<g fill="#ffffff" fill-opacity="1" stroke="none" transform="matrix(7.5e-05,0,0,7.5e-05,0,0)"
font-family="SimSun" font-size="9" font-weight="400" font-style="normal" 
>
<path vector-effect="none" fill-rule="evenodd" d="M1.17e+06,410000 L1.17e+06,4.89e+06 L8.15e+06,4.89e+06 L8.15e+06,410000 L1.17e+06,410000"/>
</g>

<g fill="#212121" fill-opacity="0.14902" stroke="#212121" stroke-opacity="0.14902" stroke-width="0.666667" stroke-linecap="butt" stroke-linejoin="round" transform="matrix(0.75,0,0,0.75,0,0)"
font-family="SimSun" font-size="9" font-weight="400" font-style="normal" 
>
<polyline fill="none" vector-effect="none" points="272.111,41 272.111,489 " />
<polyline fill="none" vector-effect="none" points="401.37,41 401.37,489 " />
<polyline fill="none" vector-effect="none" points="530.63,41 530.63,489 " />
<polyline fill="none" vector-effect="none" points="659.889,41 659.889,489 " />
<polyline fill="none" vector-effect="none" points="117,489 815,489 " />
<polyline fill="none" vector-effect="none" points="117,444.2 815,444.2 " />
<polyline fill="none" vector-effect="none" points="117,399.4 815,399.4 " />
<polyline fill="none" vector-effect="none" points="117,354.6 815,354.6 " />
<polyline fill="none" vector-effect="none" points="117,309.8 815,309.8 " />
<polyline fill="none" vector-effect="none" points="117,265 815,265 " />
<polyline fill="none" vector-effect="none" points="117,220.2 815,220.2 " />
<polyline fill="none" vector-effect="none" points="117,175.4 815,175.4 " />
<polyline fill="none" vector-effect="none" points="117,130.6 815,130.6 " />
<polyline fill="none" vector-effect="none" points="117,85.8 815,85.8 " />
<polyline fill="none" vector-effect="none" points="117,41 815,41 " />
</g>

<g fill="#212121" fill-opacity="1" stroke="none" transform="matrix(0.75,0,0,0.75,304.875,25.275)"
font-family="SimSun" font-size="9" font-weight="400" font-style="normal" 
>
<path vector-effect="none" fill-rule="evenodd" d="M10.0938,-11.6875 C10.0938,-12.6146 10.0729,-13.3698 10.0313,-13.9531 L11.5625,-13.2813 L11.0313,-12.8125 L11.0313,-11.6875 L13.75,-11.6875 L14.6719,-12.5469 L15.8125,-11.2969 L11.0313,-11.2969 L11.0313,-9.89063 L12.9531,-9.89063 L13.8125,-10.6875 L14.875,-9.5 L11.0313,-9.5 L11.0313,-7.84375 L14.1406,-7.84375 L15.0781,-8.70313 L16.2031,-7.4375 L7.04688,-7.4375 C6.69271,-7.4375 6.27083,-7.36979 5.78125,-7.23438 L5.1875,-7.84375 L10.0938,-7.84375 L10.0938,-9.5 L8.5625,-9.5 C8.20833,-9.5 7.79167,-9.43229 7.3125,-9.29688 L6.70313,-9.89063 L10.0938,-9.89063 L10.0938,-11.2969 L7.57813,-11.2969 C7.22396,-11.2969 6.80208,-11.2292 6.3125,-11.0938 L5.71875,-11.6875 L10.0938,-11.6875 M8.17188,-5.71875 L8.17188,-4.39063 L13.2188,-4.39063 L13.2188,-5.71875 L8.17188,-5.71875 M8.17188,-3.98438 L8.17188,-2.45313 L13.2188,-2.45313 L13.2188,-3.98438 L8.17188,-3.98438 M7.23438,-6.64063 L8.10938,-6.10938 L13.0781,-6.10938 L13.4844,-6.70313 L14.5469,-5.90625 L14.0781,-5.51563 L14.0781,-0.140625 C14.1198,0.703125 13.6354,1.28125 12.625,1.59375 C12.625,1.02083 12.026,0.598958 10.8281,0.328125 L10.8281,0.0625 C11.5781,0.114583 12.1745,0.151042 12.6172,0.171875 C13.0599,0.192708 13.2604,-0.0208333 13.2188,-0.46875 L13.2188,-2.0625 L8.17188,-2.0625 L8.17188,1.20313 L7.23438,1.65625 C7.28646,0.333333 7.3125,-1.10417 7.3125,-2.65625 C7.3125,-4.20833 7.28646,-5.53646 7.23438,-6.64063 M2.26563,-13.2813 L2.45313,-13.4219 C3.25521,-12.8906 3.77865,-12.4583 4.02344,-12.125 C4.26823,-11.7917 4.34635,-11.4688 4.25781,-11.1563 C4.16927,-10.8438 4.03646,-10.625 3.85938,-10.5 L3.51563,-10.2969 C3.33854,-10.2969 3.22917,-10.5417 3.1875,-11.0313 C3.10417,-11.6458 2.79688,-12.3958 2.26563,-13.2813 M0.53125,-8.17188 L2.92188,-8.17188 L3.45313,-8.82813 L4.57813,-7.96875 L3.98438,-7.5 L3.98438,-1.59375 L6.375,-3.78125 L6.57813,-3.59375 C5.33854,-2.125 4.38542,-0.791667 3.71875,0.40625 L2.79688,-0.671875 C2.97396,-0.932292 3.0625,-1.23958 3.0625,-1.59375 L3.0625,-7.76563 L2.39063,-7.76563 C2.03646,-7.76563 1.61458,-7.70313 1.125,-7.57813 L0.53125,-8.17188 M27.5,-13.3438 C28.4688,-12.9896 29.1641,-12.6927 29.5859,-12.4531 C30.0078,-12.2135 30.2188,-11.9167 30.2188,-11.5625 C30.2188,-11.4688 30.1641,-11.2682 30.0547,-10.9609 C29.9453,-10.6536 29.8438,-10.5 29.75,-10.5 C29.6146,-10.5 29.4583,-10.6771 29.2813,-11.0313 C28.9271,-11.6042 28.2865,-12.3125 27.3594,-13.1563 L27.5,-13.3438 M24.7031,-13.875 L26.2969,-13.0156 L25.7656,-12.4844 L25.7656,-10.0313 L30.4219,-10.0313 L31.3438,-11.0313 L32.6719,-9.625 L25.8281,-9.625 C26.4115,-7.77083 27.0104,-6.33333 27.625,-5.3125 C28.9063,-6.33333 29.8802,-7.32813 30.5469,-8.29688 L31.6719,-7.04688 C31.1927,-6.95313 30.6875,-6.75 30.1563,-6.4375 C29.625,-6.08333 28.8281,-5.59896 27.7656,-4.98438 C29.2656,-2.81771 31.0781,-1.48958 33.2031,-1 L33.2031,-0.734375 C32.4531,-0.640625 31.9427,-0.328125 31.6719,0.203125 C28.5365,-1.52604 26.5677,-4.53646 25.7656,-8.82813 L25.7656,-0.46875 C25.8073,0.59375 25.2552,1.28125 24.1094,1.59375 C24.0677,0.979167 23.401,0.46875 22.1094,0.0625 L22.1094,-0.203125 C23.0885,-0.109375 23.7656,-0.0625 24.1406,-0.0625 C24.5156,-0.0625 24.724,-0.265625 24.7656,-0.671875 L24.7656,-4.51563 C23.0469,-3.41146 21.6875,-2.52604 20.6875,-1.85938 C19.6875,-1.19271 19.0781,-0.661458 18.8594,-0.265625 L17.7969,-1.59375 C18.2865,-1.6875 19.1068,-2.02083 20.2578,-2.59375 C21.4089,-3.16667 22.9115,-3.94271 24.7656,-4.92188 L24.7656,-9.625 L20.3906,-9.625 C19.8177,-9.625 19.2865,-9.5625 18.7969,-9.4375 L18.2031,-10.0313 L24.7656,-10.0313 C24.7656,-11.9375 24.7448,-13.2188 24.7031,-13.875 M19.7969,-8.4375 C21.0781,-7.94792 21.8958,-7.53646 22.25,-7.20313 C22.6042,-6.86979 22.7813,-6.55208 22.7813,-6.25 C22.7813,-6.07292 22.6927,-5.82813 22.5156,-5.51563 C22.3385,-5.20313 22.2031,-5.04688 22.1094,-5.04688 C21.9844,-5.04688 21.8333,-5.29167 21.6563,-5.78125 C21.3438,-6.48958 20.6771,-7.30729 19.6563,-8.23438 L19.7969,-8.4375 M40.6406,-11.3594 L47.6875,-11.3594 L48.4063,-12.0938 L49.5469,-10.9531 L42.7031,-10.9531 C42.1302,-10.9531 41.6406,-10.8906 41.2344,-10.7656 L40.6406,-11.3594 M42.2344,-10.6875 C43.2135,-10.0313 43.7578,-9.59115 43.8672,-9.36719 C43.9766,-9.14323 44.0313,-8.98958 44.0313,-8.90625 C44.0313,-8.72917 43.9427,-8.53906 43.7656,-8.33594 C43.5885,-8.13281 43.4531,-8.03125 43.3594,-8.03125 C43.2344,-8.03125 43.125,-8.23438 43.0313,-8.64063 C42.8958,-9.17188 42.5625,-9.8125 42.0313,-10.5625 L42.2344,-10.6875 M44.5625,-6.51563 L43.625,-4.78125 L48.4063,-4.78125 L49.2031,-5.57813 L50.3438,-4.39063 L47.5469,-4.39063 C46.8802,-2.97396 46.3281,-2 45.8906,-1.46875 C46.776,-1.15625 47.5286,-0.833333 48.1484,-0.5 C48.7682,-0.166667 49.1328,0.122396 49.2422,0.367188 C49.3516,0.611979 49.4063,0.822917 49.4063,1 C49.4063,1.13542 49.3724,1.25781 49.3047,1.36719 C49.237,1.47656 49.1615,1.53125 49.0781,1.53125 C48.9427,1.53125 48.7448,1.39583 48.4844,1.125 C48.0781,0.6875 47.6667,0.335938 47.25,0.0703125 C46.8333,-0.195313 46.224,-0.505208 45.4219,-0.859375 C44.7135,-0.244792 43.862,0.283854 42.8672,0.726563 C41.8724,1.16927 40.5104,1.45833 38.7813,1.59375 L38.7813,1.32813 C39.7083,1.19271 40.6719,0.9375 41.6719,0.5625 C42.6719,0.1875 43.6354,-0.401042 44.5625,-1.20313 C43.5417,-1.59896 42.4323,-1.90625 41.2344,-2.125 C41.6823,-2.875 42.125,-3.63021 42.5625,-4.39063 L40.1719,-4.39063 L39.5781,-4.25 L39.0469,-4.78125 L42.7031,-4.78125 C43.1406,-5.80208 43.4948,-6.70833 43.7656,-7.5 L40.8438,-7.5 L40.25,-7.375 L39.7188,-7.90625 L45.2969,-7.90625 C45.474,-8.30208 45.6615,-8.74479 45.8594,-9.23438 C46.0573,-9.72396 46.2448,-10.276 46.4219,-10.8906 L47.75,-9.96875 L47.1563,-9.82813 C46.5313,-8.94271 46.0417,-8.30208 45.6875,-7.90625 L48.1406,-7.90625 L48.9375,-8.70313 L50.1406,-7.5 L43.8906,-7.5 L45.0938,-6.78125 L44.5625,-6.51563 M42.2344,-2.32813 C43.2135,-2.15104 44.1458,-1.95313 45.0313,-1.73438 C45.6042,-2.48438 46.0885,-3.36979 46.4844,-4.39063 L43.5,-4.39063 C43.1042,-3.72396 42.6823,-3.03646 42.2344,-2.32813 M43.5625,-13.875 C44.3646,-13.4375 44.875,-13.1068 45.0938,-12.8828 C45.3125,-12.6589 45.4219,-12.4844 45.4219,-12.3594 C45.4219,-12.1823 45.3333,-11.9818 45.1563,-11.7578 C44.9792,-11.5339 44.8698,-11.4219 44.8281,-11.4219 C44.6927,-11.4219 44.5833,-11.599 44.5,-11.9531 C44.3229,-12.4844 43.9427,-13.0833 43.3594,-13.75 L43.5625,-13.875 M38.3906,-6.375 L40.25,-7.17188 L40.375,-6.96875 L38.3906,-5.78125 L38.3906,-0.140625 C38.3906,0.578125 37.9479,1.13542 37.0625,1.53125 C37.1458,1.04167 36.5885,0.552083 35.3906,0.0625 L35.3906,-0.203125 C36.3698,-0.0260417 36.9688,0.0520833 37.1875,0.03125 C37.4063,0.0104167 37.5156,-0.177083 37.5156,-0.53125 L37.5156,-5.3125 C36.3281,-4.60417 35.6458,-4.11979 35.4688,-3.85938 L34.5938,-4.98438 C35.3958,-5.20313 36.3698,-5.55729 37.5156,-6.04688 L37.5156,-9.76563 L36.125,-9.76563 L35.3281,-9.625 L34.7969,-10.1563 L37.5156,-10.1563 C37.5156,-11.9792 37.4948,-13.2656 37.4531,-14.0156 L38.9219,-13.2813 L38.3906,-12.8125 L38.3906,-10.1563 L39.25,-10.1563 L39.9844,-10.8906 L41.1094,-9.76563 L38.3906,-9.76563 L38.3906,-6.375 M53.5938,-11.9531 C55.5833,-12.0885 57.6406,-12.3229 59.7656,-12.6563 C61.8906,-12.9896 63.3542,-13.375 64.1563,-13.8125 L65.2188,-12.4844 C63.1771,-12.3073 61.3385,-12.151 59.7031,-12.0156 C58.0156,-11.8385 55.9792,-11.7292 53.5938,-11.6875 L53.5938,-11.9531 M61.6875,-8.23438 C62.2708,-9.25521 62.7813,-10.474 63.2188,-11.8906 L64.75,-10.8906 L64.0156,-10.625 C63.2656,-9.69792 62.6458,-8.90104 62.1563,-8.23438 L65.1406,-8.23438 L65.75,-8.96875 L67.0781,-7.64063 C66.276,-7.54688 65.4323,-6.90625 64.5469,-5.71875 L64.3438,-5.84375 L65.2188,-7.84375 L53.9844,-7.84375 C54.0781,-6.90625 53.9922,-6.30469 53.7266,-6.03906 C53.4609,-5.77344 53.1615,-5.67448 52.8281,-5.74219 C52.4948,-5.8099 52.3281,-5.91146 52.3281,-6.04688 C52.3281,-6.18229 52.4635,-6.40104 52.7344,-6.70313 C53.1719,-7.23438 53.4792,-8.03125 53.6563,-9.09375 L53.9219,-9.09375 L53.9844,-8.23438 L55.5156,-8.23438 C55.474,-8.50521 55.3854,-8.8724 55.25,-9.33594 C55.1146,-9.79948 54.8073,-10.3646 54.3281,-11.0313 L54.5156,-11.1563 C55.1823,-10.8021 55.6823,-10.4479 56.0156,-10.0938 C56.349,-9.73958 56.5156,-9.45313 56.5156,-9.23438 C56.5156,-8.92188 56.3385,-8.58854 55.9844,-8.23438 L59.0313,-8.23438 C58.9479,-8.85938 58.8385,-9.36979 58.7031,-9.76563 C58.5677,-10.1615 58.3229,-10.6719 57.9688,-11.2969 L58.1719,-11.4219 C58.7448,-11.0677 59.1979,-10.6927 59.5313,-10.2969 C59.8646,-9.90104 60.0313,-9.56771 60.0313,-9.29688 C60.0313,-8.94271 59.8333,-8.58854 59.4375,-8.23438 L61.6875,-8.23438 M54.3906,-5.78125 L61.9531,-5.78125 L62.625,-6.4375 L63.8125,-5.3125 L63.0156,-4.98438 C62.224,-3.74479 61.276,-2.61458 60.1719,-1.59375 C62.0677,-0.354167 64.4323,0.177083 67.2656,0 L67.2656,0.265625 C66.3802,0.484375 65.8958,0.838542 65.8125,1.32813 C63.4688,1.06771 61.3438,0.25 59.4375,-1.125 C57.3125,0.291667 54.8542,1.17708 52.0625,1.53125 L52,1.26563 C54.7917,0.640625 57.0469,-0.333333 58.7656,-1.65625 C57.7552,-2.77083 56.9844,-4.01042 56.4531,-5.375 L55.5156,-5.375 L54.9219,-5.25 L54.3906,-5.78125 M56.7813,-5.375 C57.4896,-4.13542 58.375,-3.05208 59.4375,-2.125 C60.5417,-3.10417 61.4063,-4.1875 62.0313,-5.375 L56.7813,-5.375 M70.3281,-9.89063 L70.4531,-10.0938 C71.2552,-9.83333 71.8099,-9.59115 72.1172,-9.36719 C72.4245,-9.14323 72.5781,-8.90104 72.5781,-8.64063 C72.5781,-8.50521 72.5234,-8.30469 72.4141,-8.03906 C72.3047,-7.77344 72.2083,-7.64063 72.125,-7.64063 C72.0313,-7.64063 71.9167,-7.79688 71.7813,-8.10938 C71.5208,-8.58854 71.0365,-9.18229 70.3281,-9.89063 M69.4688,-4.92188 C70.0417,-5.04688 71.3229,-5.6875 73.3125,-6.84375 L73.4531,-6.64063 C72.7865,-6.15104 72.1536,-5.65365 71.5547,-5.14844 C70.9557,-4.64323 70.5469,-4.1875 70.3281,-3.78125 L69.4688,-4.92188 M81.8125,-9.17188 C81.1042,-8.64063 80.2865,-8.0625 79.3594,-7.4375 L79.2188,-7.64063 C80.1979,-8.56771 80.9323,-9.49479 81.4219,-10.4219 L82.4844,-9.35938 L81.8125,-9.17188 M79.4844,-6.64063 L79.5625,-6.84375 C81.1042,-6.44792 82.0078,-6.1276 82.2734,-5.88281 C82.5391,-5.63802 82.6719,-5.35938 82.6719,-5.04688 C82.6719,-4.82813 82.6406,-4.61979 82.5781,-4.42188 C82.5156,-4.22396 82.4375,-4.125 82.3438,-4.125 C82.2083,-4.125 82.0313,-4.34375 81.8125,-4.78125 C81.4167,-5.40625 80.6406,-6.02604 79.4844,-6.64063 M76.375,-10.3594 C75.2188,-9.29688 74.4635,-8.63542 74.1094,-8.375 C74.9948,-8.375 75.9688,-8.39583 77.0313,-8.4375 C77.5625,-9.01042 77.9635,-9.58333 78.2344,-10.1563 L79.2969,-9.17188 C78.9427,-9.07813 78.2344,-8.52083 77.1719,-7.5 C76.1094,-6.48958 75.2448,-5.71875 74.5781,-5.1875 C75.776,-5.22917 76.9948,-5.27083 78.2344,-5.3125 C78.0573,-5.625 77.7917,-6.02604 77.4375,-6.51563 L77.5625,-6.64063 C78.3646,-6.20313 78.8984,-5.85156 79.1641,-5.58594 C79.4297,-5.32031 79.5625,-5.09896 79.5625,-4.92188 C79.5625,-4.78646 79.474,-4.58594 79.2969,-4.32031 C79.1198,-4.05469 78.9844,-3.92188 78.8906,-3.92188 C78.849,-3.92188 78.8073,-3.98958 78.7656,-4.125 C78.6719,-4.38542 78.5365,-4.69271 78.3594,-5.04688 C77.9219,-5.00521 77.1927,-4.91667 76.1719,-4.78125 L77.2969,-4.125 L76.8281,-3.78125 L76.8281,-2.59375 L82.1406,-2.59375 L83.0156,-3.45313 L84.2031,-2.1875 L76.8281,-2.1875 C76.8281,-0.239583 76.8542,0.953125 76.9063,1.39063 L75.9063,1.73438 C75.9479,0.578125 75.9688,-0.729167 75.9688,-2.1875 L70.9844,-2.1875 C70.4115,-2.1875 69.8802,-2.125 69.3906,-2 L68.7969,-2.59375 L75.9688,-2.59375 L75.9688,-4.71875 C75,-4.58333 74.2917,-4.35938 73.8438,-4.04688 L73.1875,-5.1875 C73.7604,-5.1875 74.401,-5.54167 75.1094,-6.25 C75.8177,-6.95833 76.3906,-7.57813 76.8281,-8.10938 C75.1927,-7.93229 74.1563,-7.6875 73.7188,-7.375 L73.1875,-8.4375 C73.5417,-8.39583 74.0052,-8.75 74.5781,-9.5 C75.151,-10.25 75.526,-10.8229 75.7031,-11.2188 L71.8594,-11.2188 C71.276,-11.2188 70.7448,-11.1563 70.2656,-11.0313 L69.6563,-11.625 L76.2344,-11.625 C76.151,-12.375 75.776,-13.1042 75.1094,-13.8125 L75.2344,-13.9531 C76.1198,-13.599 76.6641,-13.2995 76.8672,-13.0547 C77.0703,-12.8099 77.1719,-12.6198 77.1719,-12.4844 C77.1719,-12.224 76.9948,-11.9375 76.6406,-11.625 L81.3438,-11.625 L82.2188,-12.4219 L83.3438,-11.2188 L76.1094,-11.2188 L76.9688,-10.5 L76.375,-10.3594 M86.0625,-11.2969 L91.3125,-11.2969 L91.8438,-11.9531 L92.9688,-11.0313 L92.3125,-10.5 C91.6875,-8.55208 91.0885,-6.91146 90.5156,-5.57813 C91.401,-4.29688 91.9323,-3.38021 92.1094,-2.82813 C92.2865,-2.27604 92.3646,-1.8099 92.3438,-1.42969 C92.3229,-1.04948 92.2344,-0.783854 92.0781,-0.632813 C91.9219,-0.481771 91.8229,-0.40625 91.7813,-0.40625 C91.6042,-0.40625 91.4479,-0.78125 91.3125,-1.53125 C91.0938,-2.41667 90.6927,-3.5 90.1094,-4.78125 C89.6719,-3.98958 89.099,-3.17188 88.3906,-2.32813 C87.6823,-1.48438 86.776,-0.619792 85.6719,0.265625 L85.5938,-0.0625 C86.3958,-0.822917 87.1615,-1.72135 87.8906,-2.75781 C88.6198,-3.79427 89.1823,-4.73438 89.5781,-5.57813 C88.2969,-7.39063 87.3698,-8.67708 86.7969,-9.4375 L87,-9.625 C87.9688,-8.5625 88.9427,-7.47917 89.9219,-6.375 C90.3594,-7.53125 90.8229,-9.03646 91.3125,-10.8906 L88.25,-10.8906 C87.6771,-10.8906 87.1458,-10.8229 86.6563,-10.6875 L86.0625,-11.2969 M94.5625,-0.328125 C95.9375,-0.109375 96.7682,-0.0234375 97.0547,-0.0703125 C97.3411,-0.117188 97.4844,-0.291667 97.4844,-0.59375 L97.4844,-8.90625 L94.3594,-8.90625 C93.7865,-8.90625 93.2552,-8.83854 92.7656,-8.70313 L92.1719,-9.29688 L97.4844,-9.29688 L97.4844,-11.5625 C97.4844,-12.3542 97.4635,-13.0365 97.4219,-13.6094 L99.0156,-12.8125 L98.4219,-12.2813 L98.4219,-9.29688 L99.1406,-9.29688 L100.016,-10.1563 L101.266,-8.90625 L98.4219,-8.90625 L98.4219,-0.140625 C98.4219,0.619792 97.9323,1.19792 96.9531,1.59375 C96.9531,1.0625 96.1563,0.53125 94.5625,0 L94.5625,-0.328125 M93.2344,-7.375 L93.4375,-7.5 C94.3646,-6.75 94.9271,-6.17708 95.125,-5.78125 C95.3229,-5.38542 95.4219,-5.05208 95.4219,-4.78125 C95.4219,-4.46875 95.3125,-4.16927 95.0938,-3.88281 C94.875,-3.59635 94.7448,-3.45313 94.7031,-3.45313 C94.526,-3.45313 94.4115,-3.76563 94.3594,-4.39063 C94.2344,-5.22396 93.8594,-6.21875 93.2344,-7.375 M104.797,-9.03125 C104.797,-11.0208 104.771,-12.5052 104.719,-13.4844 L106.313,-12.75 L105.719,-12.2188 L105.719,-7.76563 L108.375,-7.76563 L109.172,-8.5625 L110.375,-7.375 L105.719,-7.375 L105.719,-0.9375 L110.109,-2.45313 L110.234,-2.1875 C107.62,-1 105.984,-0.046875 105.328,0.671875 L104.531,-0.46875 C104.708,-0.645833 104.797,-0.953125 104.797,-1.39063 L104.797,-9.03125 M111.094,-10.1563 C111.094,-11.4896 111.073,-12.6406 111.031,-13.6094 L112.688,-12.8125 L112.031,-12.2813 L112.031,-6.70313 C112.958,-7.41146 113.786,-8.1875 114.516,-9.03125 C115.245,-9.875 115.745,-10.5625 116.016,-11.0938 L117.344,-9.82813 C116.813,-9.74479 116.146,-9.34896 115.344,-8.64063 C114.51,-7.93229 113.406,-7.15625 112.031,-6.3125 L112.031,-1.125 C112.031,-0.59375 112.318,-0.328125 112.891,-0.328125 L115.609,-0.328125 C115.964,-0.328125 116.208,-0.528646 116.344,-0.929688 C116.479,-1.33073 116.568,-2.28125 116.609,-3.78125 L116.938,-3.78125 C116.938,-2.71875 117.016,-1.94531 117.172,-1.46094 C117.328,-0.976563 117.583,-0.645833 117.938,-0.46875 C117.719,-0.114583 117.466,0.140625 117.18,0.296875 C116.893,0.453125 116.505,0.53125 116.016,0.53125 L112.563,0.53125 C111.583,0.53125 111.094,0.109375 111.094,-0.734375 L111.094,-10.1563"/>
</g>

<g fill="#212121" fill-opacity="1" stroke="#212121" stroke-opacity="1" stroke-width="0.666667" stroke-linecap="butt" stroke-linejoin="round" transform="matrix(0.75,0,0,0.75,0,0)"
font-family="SimSun" font-size="9" font-weight="400" font-style="normal" 
>
<polyline fill="none" vector-effect="none" points="117,489 815,489 " />
</g>

<g fill="#1171be" fill-opacity="1" stroke="none" transform="matrix(7.5e-05,0,0,7.5e-05,0,0)"
font-family="SimSun" font-size="9" font-weight="400" font-style="normal" 
>
<path vector-effect="none" fill-rule="evenodd" d="M2.20407e+06,1.2388e+06 L2.20407e+06,4.89e+06 L3.23815e+06,4.89e+06 L3.23815e+06,1.2388e+06 L2.20407e+06,1.2388e+06"/>
</g>

<g fill="#dd5400" fill-opacity="1" stroke="none" transform="matrix(7.5e-05,0,0,7.5e-05,0,0)"
font-family="SimSun" font-size="9" font-weight="400" font-style="normal" 
>
<path vector-effect="none" fill-rule="evenodd" d="M3.49667e+06,678800 L3.49667e+06,4.89e+06 L4.53074e+06,4.89e+06 L4.53074e+06,678800 L3.49667e+06,678800"/>
</g>

<g fill="#edb120" fill-opacity="1" stroke="none" transform="matrix(7.5e-05,0,0,7.5e-05,0,0)"
font-family="SimSun" font-size="9" font-weight="400" font-style="normal" 
>
<path vector-effect="none" fill-rule="evenodd" d="M4.78926e+06,1.4628e+06 L4.78926e+06,4.89e+06 L5.82333e+06,4.89e+06 L5.82333e+06,1.4628e+06 L4.78926e+06,1.4628e+06"/>
</g>

<g fill="#8516d1" fill-opacity="1" stroke="none" transform="matrix(7.5e-05,0,0,7.5e-05,0,0)"
font-family="SimSun" font-size="9" font-weight="400" font-style="normal" 
>
<path vector-effect="none" fill-rule="evenodd" d="M6.08185e+06,1.4852e+06 L6.08185e+06,4.89e+06 L7.11593e+06,4.89e+06 L7.11593e+06,1.4852e+06 L6.08185e+06,1.4852e+06"/>
</g>

<g fill="none" stroke="#212121" stroke-opacity="1" stroke-width="0.666667" stroke-linecap="butt" stroke-linejoin="miter" stroke-miterlimit="2" transform="matrix(0.75,0,0,0.75,0,0)"
font-family="SimSun" font-size="9" font-weight="400" font-style="normal" 
>
<path vector-effect="none" fill-rule="evenodd" d="M220.407,489 L220.407,123.88 L323.815,123.88 L323.815,489 L220.407,489"/>
<path vector-effect="none" fill-rule="evenodd" d="M349.667,489 L349.667,67.88 L453.074,67.88 L453.074,489 L349.667,489"/>
<path vector-effect="none" fill-rule="evenodd" d="M478.926,489 L478.926,146.28 L582.333,146.28 L582.333,489 L478.926,489"/>
<path vector-effect="none" fill-rule="evenodd" d="M608.185,489 L608.185,148.52 L711.593,148.52 L711.593,489 L608.185,489"/>
</g>

<g fill="#000000" fill-opacity="1" stroke="#000000" stroke-opacity="1" stroke-width="1.6" stroke-linecap="butt" stroke-linejoin="round" transform="matrix(0.75,0,0,0.75,0,0)"
font-family="SimSun" font-size="9" font-weight="400" font-style="normal" 
>
<polyline fill="none" vector-effect="none" points="272.111,123.88 272.111,139.719 " />
<polyline fill="none" vector-effect="none" points="401.37,67.88 401.37,74.2157 " />
<polyline fill="none" vector-effect="none" points="530.63,146.28 530.63,183.313 " />
<polyline fill="none" vector-effect="none" points="659.889,148.52 659.889,160.087 " />
<polyline fill="none" vector-effect="none" points="272.111,123.88 272.111,108.041 " />
<polyline fill="none" vector-effect="none" points="401.37,67.88 401.37,61.5443 " />
<polyline fill="none" vector-effect="none" points="530.63,146.28 530.63,109.247 " />
<polyline fill="none" vector-effect="none" points="659.889,148.52 659.889,136.953 " />
</g>

<g fill="#000000" fill-opacity="1" stroke="#000000" stroke-opacity="1" stroke-width="1.6" stroke-linecap="butt" stroke-linejoin="miter" stroke-miterlimit="2" transform="matrix(0.75,0,0,0.75,0,0)"
font-family="SimSun" font-size="9" font-weight="400" font-style="normal" 
>
<polyline fill="none" vector-effect="none" points="268.111,139.719 276.111,139.719 " />
<polyline fill="none" vector-effect="none" points="397.37,74.2157 405.37,74.2157 " />
<polyline fill="none" vector-effect="none" points="526.63,183.313 534.63,183.313 " />
<polyline fill="none" vector-effect="none" points="655.889,160.087 663.889,160.087 " />
<polyline fill="none" vector-effect="none" points="268.111,108.041 276.111,108.041 " />
<polyline fill="none" vector-effect="none" points="397.37,61.5443 405.37,61.5443 " />
<polyline fill="none" vector-effect="none" points="526.63,109.247 534.63,109.247 " />
<polyline fill="none" vector-effect="none" points="655.889,136.953 663.889,136.953 " />
</g>

<g fill="#212121" fill-opacity="1" stroke="none" transform="matrix(0.75,0,0,0.75,190.583,81.4206)"
font-family="SimSun" font-size="9" font-weight="400" font-style="normal" 
>
<path vector-effect="none" fill-rule="evenodd" d="M0.578125,-4.9375 C0.578125,-6.125 0.700521,-7.08073 0.945313,-7.80469 C1.1901,-8.52865 1.55208,-9.08594 2.03125,-9.47656 C2.51042,-9.86719 3.11458,-10.0625 3.84375,-10.0625 C4.38542,-10.0625 4.85938,-9.95313 5.26563,-9.73438 C5.67188,-9.51563 6.00781,-9.20313 6.27344,-8.79688 C6.53906,-8.39063 6.74479,-7.89583 6.89063,-7.3125 C7.03646,-6.72917 7.10938,-5.9375 7.10938,-4.9375 C7.10938,-3.76042 6.98958,-2.8125 6.75,-2.09375 C6.51042,-1.375 6.15104,-0.817708 5.67188,-0.421875 C5.19271,-0.0260417 4.58333,0.171875 3.84375,0.171875 C2.88542,0.171875 2.13021,-0.177083 1.57813,-0.875 C0.911458,-1.70833 0.578125,-3.0625 0.578125,-4.9375 M1.84375,-4.9375 C1.84375,-3.29167 2.03646,-2.19792 2.42188,-1.65625 C2.80729,-1.11458 3.28125,-0.84375 3.84375,-0.84375 C4.41667,-0.84375 4.89583,-1.11719 5.28125,-1.66406 C5.66667,-2.21094 5.85938,-3.30208 5.85938,-4.9375 C5.85938,-6.59375 5.66667,-7.69271 5.28125,-8.23438 C4.89583,-8.77604 4.41146,-9.04688 3.82813,-9.04688 C3.26563,-9.04688 2.81771,-8.80729 2.48438,-8.32813 C2.05729,-7.71354 1.84375,-6.58333 1.84375,-4.9375 M9.26563,0 L9.26563,-1.40625 L10.6719,-1.40625 L10.6719,0 L9.26563,0 M14.4688,-5.4375 C13.9583,-5.625 13.5807,-5.89063 13.3359,-6.23438 C13.0911,-6.57813 12.9688,-6.99479 12.9688,-7.48438 C12.9688,-8.21354 13.2318,-8.82552 13.7578,-9.32031 C14.2839,-9.8151 14.9792,-10.0625 15.8438,-10.0625 C16.7188,-10.0625 17.4245,-9.80729 17.9609,-9.29688 C18.4974,-8.78646 18.7656,-8.16667 18.7656,-7.4375 C18.7656,-6.97917 18.6432,-6.57813 18.3984,-6.23438 C18.1536,-5.89063 17.7813,-5.625 17.2813,-5.4375 C17.8958,-5.23958 18.3646,-4.91667 18.6875,-4.46875 C19.0104,-4.02083 19.1719,-3.48438 19.1719,-2.85938 C19.1719,-2.00521 18.8698,-1.28646 18.2656,-0.703125 C17.6615,-0.119792 16.8646,0.171875 15.875,0.171875 C14.8854,0.171875 14.0859,-0.122396 13.4766,-0.710938 C12.8672,-1.29948 12.5625,-2.03125 12.5625,-2.90625 C12.5625,-3.55208 12.7292,-4.09635 13.0625,-4.53906 C13.3958,-4.98177 13.8646,-5.28125 14.4688,-5.4375 M14.2344,-7.51563 C14.2344,-7.04688 14.3854,-6.66146 14.6875,-6.35938 C14.9896,-6.05729 15.3854,-5.90625 15.875,-5.90625 C16.3542,-5.90625 16.7448,-6.05469 17.0469,-6.35156 C17.349,-6.64844 17.5,-7.01563 17.5,-7.45313 C17.5,-7.90104 17.3438,-8.27865 17.0313,-8.58594 C16.7188,-8.89323 16.3281,-9.04688 15.8594,-9.04688 C15.3906,-9.04688 15.0026,-8.89844 14.6953,-8.60156 C14.388,-8.30469 14.2344,-7.94271 14.2344,-7.51563 M13.8281,-2.89063 C13.8281,-2.53646 13.9115,-2.19531 14.0781,-1.86719 C14.2448,-1.53906 14.4922,-1.28646 14.8203,-1.10938 C15.1484,-0.932292 15.5052,-0.84375 15.8906,-0.84375 C16.474,-0.84375 16.9557,-1.03125 17.3359,-1.40625 C17.7161,-1.78125 17.9063,-2.26042 17.9063,-2.84375 C17.9063,-3.4375 17.7109,-3.92969 17.3203,-4.32031 C16.9297,-4.71094 16.4375,-4.90625 15.8438,-4.90625 C15.2604,-4.90625 14.7786,-4.71354 14.3984,-4.32813 C14.0182,-3.94271 13.8281,-3.46354 13.8281,-2.89063 M25.2188,0 L23.9844,0 L23.9844,-7.84375 C23.6927,-7.5625 23.3047,-7.27865 22.8203,-6.99219 C22.3359,-6.70573 21.9063,-6.49479 21.5313,-6.35938 L21.5313,-7.54688 C22.2188,-7.86979 22.8203,-8.26042 23.3359,-8.71875 C23.8516,-9.17708 24.2135,-9.625 24.4219,-10.0625 L25.2188,-10.0625 L25.2188,0 M28.5781,-2.625 L29.875,-2.73438 C29.9688,-2.10938 30.1901,-1.63802 30.5391,-1.32031 C30.888,-1.0026 31.3073,-0.84375 31.7969,-0.84375 C32.3906,-0.84375 32.8932,-1.06771 33.3047,-1.51563 C33.7161,-1.96354 33.9219,-2.55208 33.9219,-3.28125 C33.9219,-3.98958 33.724,-4.54688 33.3281,-4.95313 C32.9323,-5.35938 32.4167,-5.5625 31.7813,-5.5625 C31.3854,-5.5625 31.0286,-5.47135 30.7109,-5.28906 C30.3932,-5.10677 30.1406,-4.875 29.9531,-4.59375 L28.7969,-4.73438 L29.7656,-9.89063 L34.75,-9.89063 L34.75,-8.70313 L30.75,-8.70313 L30.2188,-6.01563 C30.8229,-6.43229 31.4531,-6.64063 32.1094,-6.64063 C32.9844,-6.64063 33.7214,-6.33854 34.3203,-5.73438 C34.9193,-5.13021 35.2188,-4.34896 35.2188,-3.39063 C35.2188,-2.48438 34.9583,-1.70313 34.4375,-1.04688 C33.7917,-0.234375 32.9115,0.171875 31.7969,0.171875 C30.8906,0.171875 30.1484,-0.0833333 29.5703,-0.59375 C28.9922,-1.10417 28.6615,-1.78125 28.5781,-2.625 "/>
</g>

<g fill="#212121" fill-opacity="1" stroke="none" transform="matrix(0.75,0,0,0.75,287.528,46.5482)"
font-family="SimSun" font-size="9" font-weight="400" font-style="normal" 
>
<path vector-effect="none" fill-rule="evenodd" d="M0.578125,-4.9375 C0.578125,-6.125 0.700521,-7.08073 0.945313,-7.80469 C1.1901,-8.52865 1.55208,-9.08594 2.03125,-9.47656 C2.51042,-9.86719 3.11458,-10.0625 3.84375,-10.0625 C4.38542,-10.0625 4.85938,-9.95313 5.26563,-9.73438 C5.67188,-9.51563 6.00781,-9.20313 6.27344,-8.79688 C6.53906,-8.39063 6.74479,-7.89583 6.89063,-7.3125 C7.03646,-6.72917 7.10938,-5.9375 7.10938,-4.9375 C7.10938,-3.76042 6.98958,-2.8125 6.75,-2.09375 C6.51042,-1.375 6.15104,-0.817708 5.67188,-0.421875 C5.19271,-0.0260417 4.58333,0.171875 3.84375,0.171875 C2.88542,0.171875 2.13021,-0.177083 1.57813,-0.875 C0.911458,-1.70833 0.578125,-3.0625 0.578125,-4.9375 M1.84375,-4.9375 C1.84375,-3.29167 2.03646,-2.19792 2.42188,-1.65625 C2.80729,-1.11458 3.28125,-0.84375 3.84375,-0.84375 C4.41667,-0.84375 4.89583,-1.11719 5.28125,-1.66406 C5.66667,-2.21094 5.85938,-3.30208 5.85938,-4.9375 C5.85938,-6.59375 5.66667,-7.69271 5.28125,-8.23438 C4.89583,-8.77604 4.41146,-9.04688 3.82813,-9.04688 C3.26563,-9.04688 2.81771,-8.80729 2.48438,-8.32813 C2.05729,-7.71354 1.84375,-6.58333 1.84375,-4.9375 M9.26563,0 L9.26563,-1.40625 L10.6719,-1.40625 L10.6719,0 L9.26563,0 M12.7656,-2.3125 L13.9531,-2.42188 C14.0469,-1.86979 14.237,-1.46875 14.5234,-1.21875 C14.8099,-0.96875 15.1719,-0.84375 15.6094,-0.84375 C15.9844,-0.84375 16.3151,-0.929688 16.6016,-1.10156 C16.888,-1.27344 17.1224,-1.50521 17.3047,-1.79688 C17.487,-2.08854 17.6406,-2.47917 17.7656,-2.96875 C17.8906,-3.45833 17.9531,-3.95833 17.9531,-4.46875 C17.9531,-4.52083 17.9479,-4.60417 17.9375,-4.71875 C17.6979,-4.32292 17.3646,-4.0026 16.9375,-3.75781 C16.5104,-3.51302 16.0469,-3.39063 15.5469,-3.39063 C14.7135,-3.39063 14.0104,-3.69271 13.4375,-4.29688 C12.8646,-4.90104 12.5781,-5.69271 12.5781,-6.67188 C12.5781,-7.69271 12.8776,-8.51302 13.4766,-9.13281 C14.0755,-9.7526 14.8281,-10.0625 15.7344,-10.0625 C16.3802,-10.0625 16.974,-9.88802 17.5156,-9.53906 C18.0573,-9.1901 18.4688,-8.6901 18.75,-8.03906 C19.0313,-7.38802 19.1719,-6.44792 19.1719,-5.21875 C19.1719,-3.9375 19.0339,-2.91667 18.7578,-2.15625 C18.4818,-1.39583 18.0677,-0.817708 17.5156,-0.421875 C16.9635,-0.0260417 16.3177,0.171875 15.5781,0.171875 C14.7969,0.171875 14.1589,-0.046875 13.6641,-0.484375 C13.1693,-0.921875 12.8698,-1.53125 12.7656,-2.3125 M17.7969,-6.73438 C17.7969,-7.44271 17.6094,-8.00521 17.2344,-8.42188 C16.8594,-8.83854 16.4115,-9.04688 15.8906,-9.04688 C15.3385,-9.04688 14.8594,-8.82292 14.4531,-8.375 C14.0469,-7.92708 13.8438,-7.34896 13.8438,-6.64063 C13.8438,-6.00521 14.0365,-5.48698 14.4219,-5.08594 C14.8073,-4.6849 15.2813,-4.48438 15.8438,-4.48438 C16.4167,-4.48438 16.8854,-4.6849 17.25,-5.08594 C17.6146,-5.48698 17.7969,-6.03646 17.7969,-6.73438 M24.5313,0 L24.5313,-2.40625 L20.1719,-2.40625 L20.1719,-3.53125 L24.75,-10.0156 L25.75,-10.0156 L25.75,-3.53125 L27.1094,-3.53125 L27.1094,-2.40625 L25.75,-2.40625 L25.75,0 L24.5313,0 M24.5313,-3.53125 L24.5313,-8.04688 L21.3906,-3.53125 L24.5313,-3.53125 M28.5781,-4.9375 C28.5781,-6.125 28.7005,-7.08073 28.9453,-7.80469 C29.1901,-8.52865 29.5521,-9.08594 30.0313,-9.47656 C30.5104,-9.86719 31.1146,-10.0625 31.8438,-10.0625 C32.3854,-10.0625 32.8594,-9.95313 33.2656,-9.73438 C33.6719,-9.51563 34.0078,-9.20313 34.2734,-8.79688 C34.5391,-8.39063 34.7448,-7.89583 34.8906,-7.3125 C35.0365,-6.72917 35.1094,-5.9375 35.1094,-4.9375 C35.1094,-3.76042 34.9896,-2.8125 34.75,-2.09375 C34.5104,-1.375 34.151,-0.817708 33.6719,-0.421875 C33.1927,-0.0260417 32.5833,0.171875 31.8438,0.171875 C30.8854,0.171875 30.1302,-0.177083 29.5781,-0.875 C28.9115,-1.70833 28.5781,-3.0625 28.5781,-4.9375 M29.8438,-4.9375 C29.8438,-3.29167 30.0365,-2.19792 30.4219,-1.65625 C30.8073,-1.11458 31.2813,-0.84375 31.8438,-0.84375 C32.4167,-0.84375 32.8958,-1.11719 33.2813,-1.66406 C33.6667,-2.21094 33.8594,-3.30208 33.8594,-4.9375 C33.8594,-6.59375 33.6667,-7.69271 33.2813,-8.23438 C32.8958,-8.77604 32.4115,-9.04688 31.8281,-9.04688 C31.2656,-9.04688 30.8177,-8.80729 30.4844,-8.32813 C30.0573,-7.71354 29.8438,-6.58333 29.8438,-4.9375 "/>
</g>

<g fill="#212121" fill-opacity="1" stroke="none" transform="matrix(0.75,0,0,0.75,384.472,82.3249)"
font-family="SimSun" font-size="9" font-weight="400" font-style="normal" 
>
<path vector-effect="none" fill-rule="evenodd" d="M0.578125,-4.9375 C0.578125,-6.125 0.700521,-7.08073 0.945313,-7.80469 C1.1901,-8.52865 1.55208,-9.08594 2.03125,-9.47656 C2.51042,-9.86719 3.11458,-10.0625 3.84375,-10.0625 C4.38542,-10.0625 4.85938,-9.95313 5.26563,-9.73438 C5.67188,-9.51563 6.00781,-9.20313 6.27344,-8.79688 C6.53906,-8.39063 6.74479,-7.89583 6.89063,-7.3125 C7.03646,-6.72917 7.10938,-5.9375 7.10938,-4.9375 C7.10938,-3.76042 6.98958,-2.8125 6.75,-2.09375 C6.51042,-1.375 6.15104,-0.817708 5.67188,-0.421875 C5.19271,-0.0260417 4.58333,0.171875 3.84375,0.171875 C2.88542,0.171875 2.13021,-0.177083 1.57813,-0.875 C0.911458,-1.70833 0.578125,-3.0625 0.578125,-4.9375 M1.84375,-4.9375 C1.84375,-3.29167 2.03646,-2.19792 2.42188,-1.65625 C2.80729,-1.11458 3.28125,-0.84375 3.84375,-0.84375 C4.41667,-0.84375 4.89583,-1.11719 5.28125,-1.66406 C5.66667,-2.21094 5.85938,-3.30208 5.85938,-4.9375 C5.85938,-6.59375 5.66667,-7.69271 5.28125,-8.23438 C4.89583,-8.77604 4.41146,-9.04688 3.82813,-9.04688 C3.26563,-9.04688 2.81771,-8.80729 2.48438,-8.32813 C2.05729,-7.71354 1.84375,-6.58333 1.84375,-4.9375 M9.26563,0 L9.26563,-1.40625 L10.6719,-1.40625 L10.6719,0 L9.26563,0 M12.6563,-8.70313 L12.6563,-9.89063 L19.1563,-9.89063 L19.1563,-8.9375 C18.5104,-8.26042 17.875,-7.35938 17.25,-6.23438 C16.625,-5.10938 16.1406,-3.94792 15.7969,-2.75 C15.5573,-1.91667 15.401,-1 15.3281,0 L14.0625,0 C14.0729,-0.791667 14.2266,-1.74479 14.5234,-2.85938 C14.8203,-3.97396 15.2474,-5.04948 15.8047,-6.08594 C16.362,-7.1224 16.9531,-7.99479 17.5781,-8.70313 L12.6563,-8.70313 M26.9688,-7.5625 L25.75,-7.46875 C25.6354,-7.95833 25.4792,-8.3125 25.2813,-8.53125 C24.9479,-8.875 24.5365,-9.04688 24.0469,-9.04688 C23.651,-9.04688 23.3073,-8.9375 23.0156,-8.71875 C22.6302,-8.4375 22.3255,-8.02604 22.1016,-7.48438 C21.8776,-6.94271 21.7604,-6.17188 21.75,-5.17188 C22.0417,-5.61979 22.4036,-5.95313 22.8359,-6.17188 C23.2682,-6.39063 23.7188,-6.5 24.1875,-6.5 C25.0104,-6.5 25.7083,-6.19792 26.2813,-5.59375 C26.8542,-4.98958 27.1406,-4.20833 27.1406,-3.25 C27.1406,-2.625 27.0052,-2.04167 26.7344,-1.5 C26.4635,-0.958333 26.0911,-0.544271 25.6172,-0.257813 C25.1432,0.0286458 24.6042,0.171875 24,0.171875 C22.9792,0.171875 22.1458,-0.205729 21.5,-0.960938 C20.8542,-1.71615 20.5313,-2.95833 20.5313,-4.6875 C20.5313,-6.625 20.8854,-8.03646 21.5938,-8.92188 C22.2188,-9.68229 23.0625,-10.0625 24.125,-10.0625 C24.9167,-10.0625 25.5625,-9.84115 26.0625,-9.39844 C26.5625,-8.95573 26.8646,-8.34375 26.9688,-7.5625 M21.9375,-3.25 C21.9375,-2.82292 22.0286,-2.41667 22.2109,-2.03125 C22.3932,-1.64583 22.6458,-1.35156 22.9688,-1.14844 C23.2917,-0.945313 23.6302,-0.84375 23.9844,-0.84375 C24.5052,-0.84375 24.9531,-1.05208 25.3281,-1.46875 C25.7031,-1.88542 25.8906,-2.45313 25.8906,-3.17188 C25.8906,-3.86979 25.7057,-4.41927 25.3359,-4.82031 C24.9661,-5.22135 24.5,-5.42188 23.9375,-5.42188 C23.3854,-5.42188 22.9141,-5.22135 22.5234,-4.82031 C22.1328,-4.41927 21.9375,-3.89583 21.9375,-3.25 M28.5781,-2.625 L29.875,-2.73438 C29.9688,-2.10938 30.1901,-1.63802 30.5391,-1.32031 C30.888,-1.0026 31.3073,-0.84375 31.7969,-0.84375 C32.3906,-0.84375 32.8932,-1.06771 33.3047,-1.51563 C33.7161,-1.96354 33.9219,-2.55208 33.9219,-3.28125 C33.9219,-3.98958 33.724,-4.54688 33.3281,-4.95313 C32.9323,-5.35938 32.4167,-5.5625 31.7813,-5.5625 C31.3854,-5.5625 31.0286,-5.47135 30.7109,-5.28906 C30.3932,-5.10677 30.1406,-4.875 29.9531,-4.59375 L28.7969,-4.73438 L29.7656,-9.89063 L34.75,-9.89063 L34.75,-8.70313 L30.75,-8.70313 L30.2188,-6.01563 C30.8229,-6.43229 31.4531,-6.64063 32.1094,-6.64063 C32.9844,-6.64063 33.7214,-6.33854 34.3203,-5.73438 C34.9193,-5.13021 35.2188,-4.34896 35.2188,-3.39063 C35.2188,-2.48438 34.9583,-1.70313 34.4375,-1.04688 C33.7917,-0.234375 32.9115,0.171875 31.7969,0.171875 C30.8906,0.171875 30.1484,-0.0833333 29.5703,-0.59375 C28.9922,-1.10417 28.6615,-1.78125 28.5781,-2.625 "/>
</g>

<g fill="#212121" fill-opacity="1" stroke="none" transform="matrix(0.75,0,0,0.75,481.417,103.105)"
font-family="SimSun" font-size="9" font-weight="400" font-style="normal" 
>
<path vector-effect="none" fill-rule="evenodd" d="M0.578125,-4.9375 C0.578125,-6.125 0.700521,-7.08073 0.945313,-7.80469 C1.1901,-8.52865 1.55208,-9.08594 2.03125,-9.47656 C2.51042,-9.86719 3.11458,-10.0625 3.84375,-10.0625 C4.38542,-10.0625 4.85938,-9.95313 5.26563,-9.73438 C5.67188,-9.51563 6.00781,-9.20313 6.27344,-8.79688 C6.53906,-8.39063 6.74479,-7.89583 6.89063,-7.3125 C7.03646,-6.72917 7.10938,-5.9375 7.10938,-4.9375 C7.10938,-3.76042 6.98958,-2.8125 6.75,-2.09375 C6.51042,-1.375 6.15104,-0.817708 5.67188,-0.421875 C5.19271,-0.0260417 4.58333,0.171875 3.84375,0.171875 C2.88542,0.171875 2.13021,-0.177083 1.57813,-0.875 C0.911458,-1.70833 0.578125,-3.0625 0.578125,-4.9375 M1.84375,-4.9375 C1.84375,-3.29167 2.03646,-2.19792 2.42188,-1.65625 C2.80729,-1.11458 3.28125,-0.84375 3.84375,-0.84375 C4.41667,-0.84375 4.89583,-1.11719 5.28125,-1.66406 C5.66667,-2.21094 5.85938,-3.30208 5.85938,-4.9375 C5.85938,-6.59375 5.66667,-7.69271 5.28125,-8.23438 C4.89583,-8.77604 4.41146,-9.04688 3.82813,-9.04688 C3.26563,-9.04688 2.81771,-8.80729 2.48438,-8.32813 C2.05729,-7.71354 1.84375,-6.58333 1.84375,-4.9375 M9.26563,0 L9.26563,-1.40625 L10.6719,-1.40625 L10.6719,0 L9.26563,0 M12.6563,-8.70313 L12.6563,-9.89063 L19.1563,-9.89063 L19.1563,-8.9375 C18.5104,-8.26042 17.875,-7.35938 17.25,-6.23438 C16.625,-5.10938 16.1406,-3.94792 15.7969,-2.75 C15.5573,-1.91667 15.401,-1 15.3281,0 L14.0625,0 C14.0729,-0.791667 14.2266,-1.74479 14.5234,-2.85938 C14.8203,-3.97396 15.2474,-5.04948 15.8047,-6.08594 C16.362,-7.1224 16.9531,-7.99479 17.5781,-8.70313 L12.6563,-8.70313 M26.9688,-7.5625 L25.75,-7.46875 C25.6354,-7.95833 25.4792,-8.3125 25.2813,-8.53125 C24.9479,-8.875 24.5365,-9.04688 24.0469,-9.04688 C23.651,-9.04688 23.3073,-8.9375 23.0156,-8.71875 C22.6302,-8.4375 22.3255,-8.02604 22.1016,-7.48438 C21.8776,-6.94271 21.7604,-6.17188 21.75,-5.17188 C22.0417,-5.61979 22.4036,-5.95313 22.8359,-6.17188 C23.2682,-6.39063 23.7188,-6.5 24.1875,-6.5 C25.0104,-6.5 25.7083,-6.19792 26.2813,-5.59375 C26.8542,-4.98958 27.1406,-4.20833 27.1406,-3.25 C27.1406,-2.625 27.0052,-2.04167 26.7344,-1.5 C26.4635,-0.958333 26.0911,-0.544271 25.6172,-0.257813 C25.1432,0.0286458 24.6042,0.171875 24,0.171875 C22.9792,0.171875 22.1458,-0.205729 21.5,-0.960938 C20.8542,-1.71615 20.5313,-2.95833 20.5313,-4.6875 C20.5313,-6.625 20.8854,-8.03646 21.5938,-8.92188 C22.2188,-9.68229 23.0625,-10.0625 24.125,-10.0625 C24.9167,-10.0625 25.5625,-9.84115 26.0625,-9.39844 C26.5625,-8.95573 26.8646,-8.34375 26.9688,-7.5625 M21.9375,-3.25 C21.9375,-2.82292 22.0286,-2.41667 22.2109,-2.03125 C22.3932,-1.64583 22.6458,-1.35156 22.9688,-1.14844 C23.2917,-0.945313 23.6302,-0.84375 23.9844,-0.84375 C24.5052,-0.84375 24.9531,-1.05208 25.3281,-1.46875 C25.7031,-1.88542 25.8906,-2.45313 25.8906,-3.17188 C25.8906,-3.86979 25.7057,-4.41927 25.3359,-4.82031 C24.9661,-5.22135 24.5,-5.42188 23.9375,-5.42188 C23.3854,-5.42188 22.9141,-5.22135 22.5234,-4.82031 C22.1328,-4.41927 21.9375,-3.89583 21.9375,-3.25 M28.5781,-4.9375 C28.5781,-6.125 28.7005,-7.08073 28.9453,-7.80469 C29.1901,-8.52865 29.5521,-9.08594 30.0313,-9.47656 C30.5104,-9.86719 31.1146,-10.0625 31.8438,-10.0625 C32.3854,-10.0625 32.8594,-9.95313 33.2656,-9.73438 C33.6719,-9.51563 34.0078,-9.20313 34.2734,-8.79688 C34.5391,-8.39063 34.7448,-7.89583 34.8906,-7.3125 C35.0365,-6.72917 35.1094,-5.9375 35.1094,-4.9375 C35.1094,-3.76042 34.9896,-2.8125 34.75,-2.09375 C34.5104,-1.375 34.151,-0.817708 33.6719,-0.421875 C33.1927,-0.0260417 32.5833,0.171875 31.8438,0.171875 C30.8854,0.171875 30.1302,-0.177083 29.5781,-0.875 C28.9115,-1.70833 28.5781,-3.0625 28.5781,-4.9375 M29.8438,-4.9375 C29.8438,-3.29167 30.0365,-2.19792 30.4219,-1.65625 C30.8073,-1.11458 31.2813,-0.84375 31.8438,-0.84375 C32.4167,-0.84375 32.8958,-1.11719 33.2813,-1.66406 C33.6667,-2.21094 33.8594,-3.30208 33.8594,-4.9375 C33.8594,-6.59375 33.6667,-7.69271 33.2813,-8.23438 C32.8958,-8.77604 32.4115,-9.04688 31.8281,-9.04688 C31.2656,-9.04688 30.8177,-8.80729 30.4844,-8.32813 C30.0573,-7.71354 29.8438,-6.58333 29.8438,-4.9375 "/>
</g>

<g fill="#212121" fill-opacity="1" stroke="#212121" stroke-opacity="1" stroke-width="0.666667" stroke-linecap="square" stroke-linejoin="round" transform="matrix(0.75,0,0,0.75,0,0)"
font-family="SimSun" font-size="9" font-weight="400" font-style="normal" 
>
<polyline fill="none" vector-effect="none" points="117,489 815,489 " />
<polyline fill="none" vector-effect="none" points="117,41 815,41 " />
<polyline fill="none" vector-effect="none" points="272.111,489 272.111,482.02 " />
<polyline fill="none" vector-effect="none" points="272.111,47.98 272.111,41 " />
<polyline fill="none" vector-effect="none" points="401.37,489 401.37,482.02 " />
<polyline fill="none" vector-effect="none" points="401.37,47.98 401.37,41 " />
<polyline fill="none" vector-effect="none" points="530.63,489 530.63,482.02 " />
<polyline fill="none" vector-effect="none" points="530.63,47.98 530.63,41 " />
<polyline fill="none" vector-effect="none" points="659.889,489 659.889,482.02 " />
<polyline fill="none" vector-effect="none" points="659.889,47.98 659.889,41 " />
</g>

<g fill="#212121" fill-opacity="1" stroke="none" transform="matrix(0.75,0,0,0.75,194.333,382.4)"
font-family="SimSun" font-size="9" font-weight="400" font-style="normal" 
>
<path vector-effect="none" fill-rule="evenodd" d="M1.21875,0 L1.21875,-11.4531 L2.78125,-11.4531 L8.79688,-2.46875 L8.79688,-11.4531 L10.25,-11.4531 L10.25,0 L8.6875,0 L2.67188,-9 L2.67188,0 L1.21875,0 M13.5,0 L13.5,-11.4531 L15.0156,-11.4531 L15.0156,0 L13.5,0 M17.3125,0 L17.3125,-11.4531 L25.0469,-11.4531 L25.0469,-10.1094 L18.8281,-10.1094 L18.8281,-6.5625 L24.2031,-6.5625 L24.2031,-5.20313 L18.8281,-5.20313 L18.8281,0 L17.3125,0"/>
</g>

<g fill="#212121" fill-opacity="1" stroke="none" transform="matrix(0.75,0,0,0.75,287.903,382.4)"
font-family="SimSun" font-size="9" font-weight="400" font-style="normal" 
>
<path vector-effect="none" fill-rule="evenodd" d="M1.26563,0 L1.26563,-11.4531 L6.34375,-11.4531 C7.36458,-11.4531 8.14063,-11.3516 8.67188,-11.1484 C9.20313,-10.9453 9.6276,-10.5833 9.94531,-10.0625 C10.263,-9.54167 10.4219,-8.96354 10.4219,-8.32813 C10.4219,-7.51563 10.1589,-6.83073 9.63281,-6.27344 C9.10677,-5.71615 8.29167,-5.36458 7.1875,-5.21875 C7.59375,-5.02083 7.90104,-4.82813 8.10938,-4.64063 C8.54688,-4.23438 8.96354,-3.72917 9.35938,-3.125 L11.3594,0 L9.45313,0 L7.9375,-2.39063 C7.48958,-3.07813 7.1224,-3.60417 6.83594,-3.96875 C6.54948,-4.33333 6.29427,-4.58854 6.07031,-4.73438 C5.84635,-4.88021 5.61458,-4.97917 5.375,-5.03125 C5.20833,-5.07292 4.92708,-5.09375 4.53125,-5.09375 L2.78125,-5.09375 L2.78125,0 L1.26563,0 M2.78125,-6.40625 L6.03125,-6.40625 C6.72917,-6.40625 7.27344,-6.47656 7.66406,-6.61719 C8.05469,-6.75781 8.35156,-6.98698 8.55469,-7.30469 C8.75781,-7.6224 8.85938,-7.96354 8.85938,-8.32813 C8.85938,-8.86979 8.66146,-9.3151 8.26563,-9.66406 C7.86979,-10.013 7.25,-10.1875 6.40625,-10.1875 L2.78125,-10.1875 L2.78125,-6.40625 M13.2344,0 L13.2344,-11.4531 L17.1875,-11.4531 C18.0729,-11.4531 18.75,-11.401 19.2188,-11.2969 C19.875,-11.1406 20.4375,-10.8646 20.9063,-10.4688 C21.5104,-9.95833 21.9609,-9.30729 22.2578,-8.51563 C22.5547,-7.72396 22.7031,-6.81771 22.7031,-5.79688 C22.7031,-4.92188 22.6016,-4.14844 22.3984,-3.47656 C22.1953,-2.80469 21.9349,-2.25 21.6172,-1.8125 C21.2995,-1.375 20.9531,-1.02865 20.5781,-0.773438 C20.2031,-0.518229 19.7474,-0.325521 19.2109,-0.195313 C18.6745,-0.0651042 18.0625,0 17.375,0 L13.2344,0 M14.75,-1.35938 L17.2031,-1.35938 C17.9531,-1.35938 18.5443,-1.42969 18.9766,-1.57031 C19.4089,-1.71094 19.75,-1.90625 20,-2.15625 C20.3646,-2.52083 20.6458,-3.00521 20.8438,-3.60938 C21.0417,-4.21354 21.1406,-4.94792 21.1406,-5.8125 C21.1406,-7.01042 20.9453,-7.93229 20.5547,-8.57813 C20.1641,-9.22396 19.6875,-9.65625 19.125,-9.875 C18.7188,-10.0313 18.0625,-10.1094 17.1563,-10.1094 L14.75,-10.1094 L14.75,-1.35938 M23.9688,0 L28.375,-11.4531 L30.0156,-11.4531 L34.7031,0 L32.9688,0 L31.6406,-3.46875 L26.8438,-3.46875 L25.5938,0 L23.9688,0 M27.2813,-4.70313 L31.1719,-4.70313 L29.9688,-7.875 C29.6042,-8.84375 29.3333,-9.63542 29.1563,-10.25 C29.0104,-9.52083 28.8073,-8.79167 28.5469,-8.0625 L27.2813,-4.70313"/>
</g>

<g fill="#212121" fill-opacity="1" stroke="none" transform="matrix(0.75,0,0,0.75,385.222,382.4)"
font-family="SimSun" font-size="9" font-weight="400" font-style="normal" 
>
<path vector-effect="none" fill-rule="evenodd" d="M1.26563,0 L1.26563,-11.4531 L6.34375,-11.4531 C7.36458,-11.4531 8.14063,-11.3516 8.67188,-11.1484 C9.20313,-10.9453 9.6276,-10.5833 9.94531,-10.0625 C10.263,-9.54167 10.4219,-8.96354 10.4219,-8.32813 C10.4219,-7.51563 10.1589,-6.83073 9.63281,-6.27344 C9.10677,-5.71615 8.29167,-5.36458 7.1875,-5.21875 C7.59375,-5.02083 7.90104,-4.82813 8.10938,-4.64063 C8.54688,-4.23438 8.96354,-3.72917 9.35938,-3.125 L11.3594,0 L9.45313,0 L7.9375,-2.39063 C7.48958,-3.07813 7.1224,-3.60417 6.83594,-3.96875 C6.54948,-4.33333 6.29427,-4.58854 6.07031,-4.73438 C5.84635,-4.88021 5.61458,-4.97917 5.375,-5.03125 C5.20833,-5.07292 4.92708,-5.09375 4.53125,-5.09375 L2.78125,-5.09375 L2.78125,0 L1.26563,0 M2.78125,-6.40625 L6.03125,-6.40625 C6.72917,-6.40625 7.27344,-6.47656 7.66406,-6.61719 C8.05469,-6.75781 8.35156,-6.98698 8.55469,-7.30469 C8.75781,-7.6224 8.85938,-7.96354 8.85938,-8.32813 C8.85938,-8.86979 8.66146,-9.3151 8.26563,-9.66406 C7.86979,-10.013 7.25,-10.1875 6.40625,-10.1875 L2.78125,-10.1875 L2.78125,-6.40625 M12.7188,-3.6875 L14.1563,-3.8125 C14.2188,-3.23958 14.375,-2.76823 14.625,-2.39844 C14.875,-2.02865 15.2604,-1.73177 15.7813,-1.50781 C16.3021,-1.28385 16.8854,-1.17188 17.5313,-1.17188 C18.1146,-1.17188 18.6276,-1.25781 19.0703,-1.42969 C19.513,-1.60156 19.8411,-1.83594 20.0547,-2.13281 C20.2682,-2.42969 20.375,-2.75521 20.375,-3.10938 C20.375,-3.47396 20.2708,-3.78906 20.0625,-4.05469 C19.8542,-4.32031 19.5104,-4.54688 19.0313,-4.73438 C18.7292,-4.84896 18.0521,-5.03385 17,-5.28906 C15.9479,-5.54427 15.2083,-5.78125 14.7813,-6 C14.2396,-6.29167 13.8333,-6.64844 13.5625,-7.07031 C13.2917,-7.49219 13.1563,-7.96875 13.1563,-8.5 C13.1563,-9.07292 13.3203,-9.61198 13.6484,-10.1172 C13.9766,-10.6224 14.4557,-11.0052 15.0859,-11.2656 C15.7161,-11.526 16.4167,-11.6563 17.1875,-11.6563 C18.0417,-11.6563 18.7917,-11.5182 19.4375,-11.2422 C20.0833,-10.9661 20.5807,-10.5625 20.9297,-10.0313 C21.2786,-9.5 21.4688,-8.90104 21.5,-8.23438 L20.0469,-8.125 C19.9635,-8.84375 19.6979,-9.38802 19.25,-9.75781 C18.8021,-10.1276 18.1354,-10.3125 17.25,-10.3125 C16.3333,-10.3125 15.6667,-10.1458 15.25,-9.8125 C14.8333,-9.47917 14.625,-9.07292 14.625,-8.59375 C14.625,-8.1875 14.7708,-7.84896 15.0625,-7.57813 C15.3542,-7.31771 16.1172,-7.04688 17.3516,-6.76563 C18.5859,-6.48438 19.4323,-6.23958 19.8906,-6.03125 C20.5573,-5.72917 21.0495,-5.34115 21.3672,-4.86719 C21.6849,-4.39323 21.8438,-3.84896 21.8438,-3.23438 C21.8438,-2.63021 21.6693,-2.05729 21.3203,-1.51563 C20.9714,-0.973958 20.4688,-0.552083 19.8125,-0.25 C19.1563,0.0520833 18.4219,0.203125 17.6094,0.203125 C16.5677,0.203125 15.6979,0.0494792 15,-0.257813 C14.3021,-0.565104 13.7526,-1.02083 13.3516,-1.625 C12.9505,-2.22917 12.7396,-2.91667 12.7188,-3.6875 M22.9688,0 L27.375,-11.4531 L29.0156,-11.4531 L33.7031,0 L31.9688,0 L30.6406,-3.46875 L25.8438,-3.46875 L24.5938,0 L22.9688,0 M26.2813,-4.70313 L30.1719,-4.70313 L28.9688,-7.875 C28.6042,-8.84375 28.3333,-9.63542 28.1563,-10.25 C28.0104,-9.52083 27.8073,-8.79167 27.5469,-8.0625 L26.2813,-4.70313"/>
</g>

<g fill="#212121" fill-opacity="1" stroke="none" transform="matrix(0.75,0,0,0.75,482.917,382.4)"
font-family="SimSun" font-size="9" font-weight="400" font-style="normal" 
>
<path vector-effect="none" fill-rule="evenodd" d="M0.71875,-3.6875 L2.15625,-3.8125 C2.21875,-3.23958 2.375,-2.76823 2.625,-2.39844 C2.875,-2.02865 3.26042,-1.73177 3.78125,-1.50781 C4.30208,-1.28385 4.88542,-1.17188 5.53125,-1.17188 C6.11458,-1.17188 6.6276,-1.25781 7.07031,-1.42969 C7.51302,-1.60156 7.84115,-1.83594 8.05469,-2.13281 C8.26823,-2.42969 8.375,-2.75521 8.375,-3.10938 C8.375,-3.47396 8.27083,-3.78906 8.0625,-4.05469 C7.85417,-4.32031 7.51042,-4.54688 7.03125,-4.73438 C6.72917,-4.84896 6.05208,-5.03385 5,-5.28906 C3.94792,-5.54427 3.20833,-5.78125 2.78125,-6 C2.23958,-6.29167 1.83333,-6.64844 1.5625,-7.07031 C1.29167,-7.49219 1.15625,-7.96875 1.15625,-8.5 C1.15625,-9.07292 1.32031,-9.61198 1.64844,-10.1172 C1.97656,-10.6224 2.45573,-11.0052 3.08594,-11.2656 C3.71615,-11.526 4.41667,-11.6563 5.1875,-11.6563 C6.04167,-11.6563 6.79167,-11.5182 7.4375,-11.2422 C8.08333,-10.9661 8.58073,-10.5625 8.92969,-10.0313 C9.27865,-9.5 9.46875,-8.90104 9.5,-8.23438 L8.04688,-8.125 C7.96354,-8.84375 7.69792,-9.38802 7.25,-9.75781 C6.80208,-10.1276 6.13542,-10.3125 5.25,-10.3125 C4.33333,-10.3125 3.66667,-10.1458 3.25,-9.8125 C2.83333,-9.47917 2.625,-9.07292 2.625,-8.59375 C2.625,-8.1875 2.77083,-7.84896 3.0625,-7.57813 C3.35417,-7.31771 4.11719,-7.04688 5.35156,-6.76563 C6.58594,-6.48438 7.43229,-6.23958 7.89063,-6.03125 C8.55729,-5.72917 9.04948,-5.34115 9.36719,-4.86719 C9.6849,-4.39323 9.84375,-3.84896 9.84375,-3.23438 C9.84375,-2.63021 9.66927,-2.05729 9.32031,-1.51563 C8.97135,-0.973958 8.46875,-0.552083 7.8125,-0.25 C7.15625,0.0520833 6.42188,0.203125 5.60938,0.203125 C4.56771,0.203125 3.69792,0.0494792 3,-0.257813 C2.30208,-0.565104 1.7526,-1.02083 1.35156,-1.625 C0.950521,-2.22917 0.739583,-2.91667 0.71875,-3.6875 M15.1563,0 L15.1563,-10.1094 L11.375,-10.1094 L11.375,-11.4531 L20.4531,-11.4531 L20.4531,-10.1094 L16.6719,-10.1094 L16.6719,0 L15.1563,0 M22.1719,0 L22.1719,-11.4531 L26.4688,-11.4531 C27.3438,-11.4531 28.0469,-11.3385 28.5781,-11.1094 C29.1094,-10.8802 29.5234,-10.5234 29.8203,-10.0391 C30.1172,-9.55469 30.2656,-9.05208 30.2656,-8.53125 C30.2656,-8.04167 30.1328,-7.58073 29.8672,-7.14844 C29.6016,-6.71615 29.2031,-6.36458 28.6719,-6.09375 C29.3594,-5.89583 29.8906,-5.55208 30.2656,-5.0625 C30.6406,-4.57292 30.8281,-3.99479 30.8281,-3.32813 C30.8281,-2.78646 30.7135,-2.28646 30.4844,-1.82813 C30.2552,-1.36979 29.974,-1.01563 29.6406,-0.765625 C29.3073,-0.515625 28.8906,-0.325521 28.3906,-0.195313 C27.8906,-0.0651042 27.276,0 26.5469,0 L22.1719,0 M23.6875,-6.64063 L26.1719,-6.64063 C26.8385,-6.64063 27.3177,-6.6875 27.6094,-6.78125 C27.9948,-6.89583 28.2865,-7.08594 28.4844,-7.35156 C28.6823,-7.61719 28.7813,-7.94792 28.7813,-8.34375 C28.7813,-8.72917 28.6901,-9.0651 28.5078,-9.35156 C28.3255,-9.63802 28.0651,-9.83594 27.7266,-9.94531 C27.388,-10.0547 26.8073,-10.1094 25.9844,-10.1094 L23.6875,-10.1094 L23.6875,-6.64063 M23.6875,-1.35938 L26.5469,-1.35938 C27.0365,-1.35938 27.3802,-1.375 27.5781,-1.40625 C27.9219,-1.46875 28.2109,-1.57292 28.4453,-1.71875 C28.6797,-1.86458 28.8724,-2.07813 29.0234,-2.35938 C29.1745,-2.64063 29.25,-2.96354 29.25,-3.32813 C29.25,-3.75521 29.1406,-4.125 28.9219,-4.4375 C28.7031,-4.75 28.401,-4.97135 28.0156,-5.10156 C27.6302,-5.23177 27.0729,-5.29688 26.3438,-5.29688 L23.6875,-5.29688 L23.6875,-1.35938"/>
</g>

<g fill="#212121" fill-opacity="1" stroke="none" transform="matrix(0,-0.75,0.75,0,60.1,217.875)"
font-family="SimSun" font-size="9" font-weight="400" font-style="normal" 
>
<path vector-effect="none" fill-rule="evenodd" d="M6.64063,-11.3594 L13.6875,-11.3594 L14.4063,-12.0938 L15.5469,-10.9531 L8.70313,-10.9531 C8.13021,-10.9531 7.64063,-10.8906 7.23438,-10.7656 L6.64063,-11.3594 M8.23438,-10.6875 C9.21354,-10.0313 9.75781,-9.59115 9.86719,-9.36719 C9.97656,-9.14323 10.0313,-8.98958 10.0313,-8.90625 C10.0313,-8.72917 9.94271,-8.53906 9.76563,-8.33594 C9.58854,-8.13281 9.45313,-8.03125 9.35938,-8.03125 C9.23438,-8.03125 9.125,-8.23438 9.03125,-8.64063 C8.89583,-9.17188 8.5625,-9.8125 8.03125,-10.5625 L8.23438,-10.6875 M10.5625,-6.51563 L9.625,-4.78125 L14.4063,-4.78125 L15.2031,-5.57813 L16.3438,-4.39063 L13.5469,-4.39063 C12.8802,-2.97396 12.3281,-2 11.8906,-1.46875 C12.776,-1.15625 13.5286,-0.833333 14.1484,-0.5 C14.7682,-0.166667 15.1328,0.122396 15.2422,0.367188 C15.3516,0.611979 15.4063,0.822917 15.4063,1 C15.4063,1.13542 15.3724,1.25781 15.3047,1.36719 C15.237,1.47656 15.1615,1.53125 15.0781,1.53125 C14.9427,1.53125 14.7448,1.39583 14.4844,1.125 C14.0781,0.6875 13.6667,0.335938 13.25,0.0703125 C12.8333,-0.195313 12.224,-0.505208 11.4219,-0.859375 C10.7135,-0.244792 9.86198,0.283854 8.86719,0.726563 C7.8724,1.16927 6.51042,1.45833 4.78125,1.59375 L4.78125,1.32813 C5.70833,1.19271 6.67188,0.9375 7.67188,0.5625 C8.67188,0.1875 9.63542,-0.401042 10.5625,-1.20313 C9.54167,-1.59896 8.43229,-1.90625 7.23438,-2.125 C7.68229,-2.875 8.125,-3.63021 8.5625,-4.39063 L6.17188,-4.39063 L5.57813,-4.25 L5.04688,-4.78125 L8.70313,-4.78125 C9.14063,-5.80208 9.49479,-6.70833 9.76563,-7.5 L6.84375,-7.5 L6.25,-7.375 L5.71875,-7.90625 L11.2969,-7.90625 C11.474,-8.30208 11.6615,-8.74479 11.8594,-9.23438 C12.0573,-9.72396 12.2448,-10.276 12.4219,-10.8906 L13.75,-9.96875 L13.1563,-9.82813 C12.5313,-8.94271 12.0417,-8.30208 11.6875,-7.90625 L14.1406,-7.90625 L14.9375,-8.70313 L16.1406,-7.5 L9.89063,-7.5 L11.0938,-6.78125 L10.5625,-6.51563 M8.23438,-2.32813 C9.21354,-2.15104 10.1458,-1.95313 11.0313,-1.73438 C11.6042,-2.48438 12.0885,-3.36979 12.4844,-4.39063 L9.5,-4.39063 C9.10417,-3.72396 8.68229,-3.03646 8.23438,-2.32813 M9.5625,-13.875 C10.3646,-13.4375 10.875,-13.1068 11.0938,-12.8828 C11.3125,-12.6589 11.4219,-12.4844 11.4219,-12.3594 C11.4219,-12.1823 11.3333,-11.9818 11.1563,-11.7578 C10.9792,-11.5339 10.8698,-11.4219 10.8281,-11.4219 C10.6927,-11.4219 10.5833,-11.599 10.5,-11.9531 C10.3229,-12.4844 9.94271,-13.0833 9.35938,-13.75 L9.5625,-13.875 M4.39063,-6.375 L6.25,-7.17188 L6.375,-6.96875 L4.39063,-5.78125 L4.39063,-0.140625 C4.39063,0.578125 3.94792,1.13542 3.0625,1.53125 C3.14583,1.04167 2.58854,0.552083 1.39063,0.0625 L1.39063,-0.203125 C2.36979,-0.0260417 2.96875,0.0520833 3.1875,0.03125 C3.40625,0.0104167 3.51563,-0.177083 3.51563,-0.53125 L3.51563,-5.3125 C2.32813,-4.60417 1.64583,-4.11979 1.46875,-3.85938 L0.59375,-4.98438 C1.39583,-5.20313 2.36979,-5.55729 3.51563,-6.04688 L3.51563,-9.76563 L2.125,-9.76563 L1.32813,-9.625 L0.796875,-10.1563 L3.51563,-10.1563 C3.51563,-11.9792 3.49479,-13.2656 3.45313,-14.0156 L4.92188,-13.2813 L4.39063,-12.8125 L4.39063,-10.1563 L5.25,-10.1563 L5.98438,-10.8906 L7.10938,-9.76563 L4.39063,-9.76563 L4.39063,-6.375 M19.5938,-11.9531 C21.5833,-12.0885 23.6406,-12.3229 25.7656,-12.6563 C27.8906,-12.9896 29.3542,-13.375 30.1563,-13.8125 L31.2188,-12.4844 C29.1771,-12.3073 27.3385,-12.151 25.7031,-12.0156 C24.0156,-11.8385 21.9792,-11.7292 19.5938,-11.6875 L19.5938,-11.9531 M27.6875,-8.23438 C28.2708,-9.25521 28.7813,-10.474 29.2188,-11.8906 L30.75,-10.8906 L30.0156,-10.625 C29.2656,-9.69792 28.6458,-8.90104 28.1563,-8.23438 L31.1406,-8.23438 L31.75,-8.96875 L33.0781,-7.64063 C32.276,-7.54688 31.4323,-6.90625 30.5469,-5.71875 L30.3438,-5.84375 L31.2188,-7.84375 L19.9844,-7.84375 C20.0781,-6.90625 19.9922,-6.30469 19.7266,-6.03906 C19.4609,-5.77344 19.1615,-5.67448 18.8281,-5.74219 C18.4948,-5.8099 18.3281,-5.91146 18.3281,-6.04688 C18.3281,-6.18229 18.4635,-6.40104 18.7344,-6.70313 C19.1719,-7.23438 19.4792,-8.03125 19.6563,-9.09375 L19.9219,-9.09375 L19.9844,-8.23438 L21.5156,-8.23438 C21.474,-8.50521 21.3854,-8.8724 21.25,-9.33594 C21.1146,-9.79948 20.8073,-10.3646 20.3281,-11.0313 L20.5156,-11.1563 C21.1823,-10.8021 21.6823,-10.4479 22.0156,-10.0938 C22.349,-9.73958 22.5156,-9.45313 22.5156,-9.23438 C22.5156,-8.92188 22.3385,-8.58854 21.9844,-8.23438 L25.0313,-8.23438 C24.9479,-8.85938 24.8385,-9.36979 24.7031,-9.76563 C24.5677,-10.1615 24.3229,-10.6719 23.9688,-11.2969 L24.1719,-11.4219 C24.7448,-11.0677 25.1979,-10.6927 25.5313,-10.2969 C25.8646,-9.90104 26.0313,-9.56771 26.0313,-9.29688 C26.0313,-8.94271 25.8333,-8.58854 25.4375,-8.23438 L27.6875,-8.23438 M20.3906,-5.78125 L27.9531,-5.78125 L28.625,-6.4375 L29.8125,-5.3125 L29.0156,-4.98438 C28.224,-3.74479 27.276,-2.61458 26.1719,-1.59375 C28.0677,-0.354167 30.4323,0.177083 33.2656,0 L33.2656,0.265625 C32.3802,0.484375 31.8958,0.838542 31.8125,1.32813 C29.4688,1.06771 27.3438,0.25 25.4375,-1.125 C23.3125,0.291667 20.8542,1.17708 18.0625,1.53125 L18,1.26563 C20.7917,0.640625 23.0469,-0.333333 24.7656,-1.65625 C23.7552,-2.77083 22.9844,-4.01042 22.4531,-5.375 L21.5156,-5.375 L20.9219,-5.25 L20.3906,-5.78125 M22.7813,-5.375 C23.4896,-4.13542 24.375,-3.05208 25.4375,-2.125 C26.5417,-3.10417 27.4063,-4.1875 28.0313,-5.375 L22.7813,-5.375 M36.3281,-9.89063 L36.4531,-10.0938 C37.2552,-9.83333 37.8099,-9.59115 38.1172,-9.36719 C38.4245,-9.14323 38.5781,-8.90104 38.5781,-8.64063 C38.5781,-8.50521 38.5234,-8.30469 38.4141,-8.03906 C38.3047,-7.77344 38.2083,-7.64063 38.125,-7.64063 C38.0313,-7.64063 37.9167,-7.79688 37.7813,-8.10938 C37.5208,-8.58854 37.0365,-9.18229 36.3281,-9.89063 M35.4688,-4.92188 C36.0417,-5.04688 37.3229,-5.6875 39.3125,-6.84375 L39.4531,-6.64063 C38.7865,-6.15104 38.1536,-5.65365 37.5547,-5.14844 C36.9557,-4.64323 36.5469,-4.1875 36.3281,-3.78125 L35.4688,-4.92188 M47.8125,-9.17188 C47.1042,-8.64063 46.2865,-8.0625 45.3594,-7.4375 L45.2188,-7.64063 C46.1979,-8.56771 46.9323,-9.49479 47.4219,-10.4219 L48.4844,-9.35938 L47.8125,-9.17188 M45.4844,-6.64063 L45.5625,-6.84375 C47.1042,-6.44792 48.0078,-6.1276 48.2734,-5.88281 C48.5391,-5.63802 48.6719,-5.35938 48.6719,-5.04688 C48.6719,-4.82813 48.6406,-4.61979 48.5781,-4.42188 C48.5156,-4.22396 48.4375,-4.125 48.3438,-4.125 C48.2083,-4.125 48.0313,-4.34375 47.8125,-4.78125 C47.4167,-5.40625 46.6406,-6.02604 45.4844,-6.64063 M42.375,-10.3594 C41.2188,-9.29688 40.4635,-8.63542 40.1094,-8.375 C40.9948,-8.375 41.9688,-8.39583 43.0313,-8.4375 C43.5625,-9.01042 43.9635,-9.58333 44.2344,-10.1563 L45.2969,-9.17188 C44.9427,-9.07813 44.2344,-8.52083 43.1719,-7.5 C42.1094,-6.48958 41.2448,-5.71875 40.5781,-5.1875 C41.776,-5.22917 42.9948,-5.27083 44.2344,-5.3125 C44.0573,-5.625 43.7917,-6.02604 43.4375,-6.51563 L43.5625,-6.64063 C44.3646,-6.20313 44.8984,-5.85156 45.1641,-5.58594 C45.4297,-5.32031 45.5625,-5.09896 45.5625,-4.92188 C45.5625,-4.78646 45.474,-4.58594 45.2969,-4.32031 C45.1198,-4.05469 44.9844,-3.92188 44.8906,-3.92188 C44.849,-3.92188 44.8073,-3.98958 44.7656,-4.125 C44.6719,-4.38542 44.5365,-4.69271 44.3594,-5.04688 C43.9219,-5.00521 43.1927,-4.91667 42.1719,-4.78125 L43.2969,-4.125 L42.8281,-3.78125 L42.8281,-2.59375 L48.1406,-2.59375 L49.0156,-3.45313 L50.2031,-2.1875 L42.8281,-2.1875 C42.8281,-0.239583 42.8542,0.953125 42.9063,1.39063 L41.9063,1.73438 C41.9479,0.578125 41.9688,-0.729167 41.9688,-2.1875 L36.9844,-2.1875 C36.4115,-2.1875 35.8802,-2.125 35.3906,-2 L34.7969,-2.59375 L41.9688,-2.59375 L41.9688,-4.71875 C41,-4.58333 40.2917,-4.35938 39.8438,-4.04688 L39.1875,-5.1875 C39.7604,-5.1875 40.401,-5.54167 41.1094,-6.25 C41.8177,-6.95833 42.3906,-7.57813 42.8281,-8.10938 C41.1927,-7.93229 40.1563,-7.6875 39.7188,-7.375 L39.1875,-8.4375 C39.5417,-8.39583 40.0052,-8.75 40.5781,-9.5 C41.151,-10.25 41.526,-10.8229 41.7031,-11.2188 L37.8594,-11.2188 C37.276,-11.2188 36.7448,-11.1563 36.2656,-11.0313 L35.6563,-11.625 L42.2344,-11.625 C42.151,-12.375 41.776,-13.1042 41.1094,-13.8125 L41.2344,-13.9531 C42.1198,-13.599 42.6641,-13.2995 42.8672,-13.0547 C43.0703,-12.8099 43.1719,-12.6198 43.1719,-12.4844 C43.1719,-12.224 42.9948,-11.9375 42.6406,-11.625 L47.3438,-11.625 L48.2188,-12.4219 L49.3438,-11.2188 L42.1094,-11.2188 L42.9688,-10.5 L42.375,-10.3594"/>
</g>

<g fill="#212121" fill-opacity="1" stroke="#212121" stroke-opacity="1" stroke-width="0.666667" stroke-linecap="square" stroke-linejoin="round" transform="matrix(0.75,0,0,0.75,0,0)"
font-family="SimSun" font-size="9" font-weight="400" font-style="normal" 
>
<polyline fill="none" vector-effect="none" points="117,489 117,41 " />
<polyline fill="none" vector-effect="none" points="815,489 815,41 " />
<polyline fill="none" vector-effect="none" points="117,489 123.98,489 " />
<polyline fill="none" vector-effect="none" points="808.02,489 815,489 " />
<polyline fill="none" vector-effect="none" points="117,444.2 123.98,444.2 " />
<polyline fill="none" vector-effect="none" points="808.02,444.2 815,444.2 " />
<polyline fill="none" vector-effect="none" points="117,399.4 123.98,399.4 " />
<polyline fill="none" vector-effect="none" points="808.02,399.4 815,399.4 " />
<polyline fill="none" vector-effect="none" points="117,354.6 123.98,354.6 " />
<polyline fill="none" vector-effect="none" points="808.02,354.6 815,354.6 " />
<polyline fill="none" vector-effect="none" points="117,309.8 123.98,309.8 " />
<polyline fill="none" vector-effect="none" points="808.02,309.8 815,309.8 " />
<polyline fill="none" vector-effect="none" points="117,265 123.98,265 " />
<polyline fill="none" vector-effect="none" points="808.02,265 815,265 " />
<polyline fill="none" vector-effect="none" points="117,220.2 123.98,220.2 " />
<polyline fill="none" vector-effect="none" points="808.02,220.2 815,220.2 " />
<polyline fill="none" vector-effect="none" points="117,175.4 123.98,175.4 " />
<polyline fill="none" vector-effect="none" points="808.02,175.4 815,175.4 " />
<polyline fill="none" vector-effect="none" points="117,130.6 123.98,130.6 " />
<polyline fill="none" vector-effect="none" points="808.02,130.6 815,130.6 " />
<polyline fill="none" vector-effect="none" points="117,85.8 123.98,85.8 " />
<polyline fill="none" vector-effect="none" points="808.02,85.8 815,85.8 " />
<polyline fill="none" vector-effect="none" points="117,41 123.98,41 " />
<polyline fill="none" vector-effect="none" points="808.02,41 815,41 " />
</g>

<g fill="#212121" fill-opacity="1" stroke="none" transform="matrix(0.75,0,0,0.75,76.6,370.875)"
font-family="SimSun" font-size="9" font-weight="400" font-style="normal" 
>
<path vector-effect="none" fill-rule="evenodd" d="M0.671875,-5.65625 C0.671875,-7.01042 0.809896,-8.09896 1.08594,-8.92188 C1.36198,-9.74479 1.77604,-10.3802 2.32813,-10.8281 C2.88021,-11.276 3.57292,-11.5 4.40625,-11.5 C5.02083,-11.5 5.5599,-11.3776 6.02344,-11.1328 C6.48698,-10.888 6.86979,-10.5313 7.17188,-10.0625 C7.47396,-9.59375 7.71094,-9.02604 7.88281,-8.35938 C8.05469,-7.69271 8.14063,-6.79167 8.14063,-5.65625 C8.14063,-4.3125 8.0026,-3.22656 7.72656,-2.39844 C7.45052,-1.57031 7.03646,-0.929688 6.48438,-0.476563 C5.93229,-0.0234375 5.23958,0.203125 4.40625,0.203125 C3.30208,0.203125 2.43229,-0.197917 1.79688,-1 C1.04688,-1.94792 0.671875,-3.5 0.671875,-5.65625 M2.10938,-5.65625 C2.10938,-3.77083 2.33073,-2.51823 2.77344,-1.89844 C3.21615,-1.27865 3.76042,-0.96875 4.40625,-0.96875 C5.05208,-0.96875 5.59375,-1.28125 6.03125,-1.90625 C6.46875,-2.53125 6.6875,-3.78125 6.6875,-5.65625 C6.6875,-7.54167 6.46875,-8.79427 6.03125,-9.41406 C5.59375,-10.0339 5.04688,-10.3438 4.39063,-10.3438 C3.74479,-10.3438 3.22917,-10.0677 2.84375,-9.51563 C2.35417,-8.81771 2.10938,-7.53125 2.10938,-5.65625 "/>
</g>

<g fill="#212121" fill-opacity="1" stroke="none" transform="matrix(0.75,0,0,0.75,66.85,337.275)"
font-family="SimSun" font-size="9" font-weight="400" font-style="normal" 
>
<path vector-effect="none" fill-rule="evenodd" d="M0.671875,-5.65625 C0.671875,-7.01042 0.809896,-8.09896 1.08594,-8.92188 C1.36198,-9.74479 1.77604,-10.3802 2.32813,-10.8281 C2.88021,-11.276 3.57292,-11.5 4.40625,-11.5 C5.02083,-11.5 5.5599,-11.3776 6.02344,-11.1328 C6.48698,-10.888 6.86979,-10.5313 7.17188,-10.0625 C7.47396,-9.59375 7.71094,-9.02604 7.88281,-8.35938 C8.05469,-7.69271 8.14063,-6.79167 8.14063,-5.65625 C8.14063,-4.3125 8.0026,-3.22656 7.72656,-2.39844 C7.45052,-1.57031 7.03646,-0.929688 6.48438,-0.476563 C5.93229,-0.0234375 5.23958,0.203125 4.40625,0.203125 C3.30208,0.203125 2.43229,-0.197917 1.79688,-1 C1.04688,-1.94792 0.671875,-3.5 0.671875,-5.65625 M2.10938,-5.65625 C2.10938,-3.77083 2.33073,-2.51823 2.77344,-1.89844 C3.21615,-1.27865 3.76042,-0.96875 4.40625,-0.96875 C5.05208,-0.96875 5.59375,-1.28125 6.03125,-1.90625 C6.46875,-2.53125 6.6875,-3.78125 6.6875,-5.65625 C6.6875,-7.54167 6.46875,-8.79427 6.03125,-9.41406 C5.59375,-10.0339 5.04688,-10.3438 4.39063,-10.3438 C3.74479,-10.3438 3.22917,-10.0677 2.84375,-9.51563 C2.35417,-8.81771 2.10938,-7.53125 2.10938,-5.65625 M10.4531,0 L10.4531,-1.60938 L12.0625,-1.60938 L12.0625,0 L10.4531,0 M18.9688,0 L17.5625,0 L17.5625,-8.96875 C17.2188,-8.64583 16.7734,-8.32292 16.2266,-8 C15.6797,-7.67708 15.1875,-7.43229 14.75,-7.26563 L14.75,-8.625 C15.5313,-9 16.2161,-9.45052 16.8047,-9.97656 C17.3932,-10.5026 17.8125,-11.0104 18.0625,-11.5 L18.9688,-11.5 L18.9688,0"/>
</g>

<g fill="#212121" fill-opacity="1" stroke="none" transform="matrix(0.75,0,0,0.75,66.85,303.675)"
font-family="SimSun" font-size="9" font-weight="400" font-style="normal" 
>
<path vector-effect="none" fill-rule="evenodd" d="M0.671875,-5.65625 C0.671875,-7.01042 0.809896,-8.09896 1.08594,-8.92188 C1.36198,-9.74479 1.77604,-10.3802 2.32813,-10.8281 C2.88021,-11.276 3.57292,-11.5 4.40625,-11.5 C5.02083,-11.5 5.5599,-11.3776 6.02344,-11.1328 C6.48698,-10.888 6.86979,-10.5313 7.17188,-10.0625 C7.47396,-9.59375 7.71094,-9.02604 7.88281,-8.35938 C8.05469,-7.69271 8.14063,-6.79167 8.14063,-5.65625 C8.14063,-4.3125 8.0026,-3.22656 7.72656,-2.39844 C7.45052,-1.57031 7.03646,-0.929688 6.48438,-0.476563 C5.93229,-0.0234375 5.23958,0.203125 4.40625,0.203125 C3.30208,0.203125 2.43229,-0.197917 1.79688,-1 C1.04688,-1.94792 0.671875,-3.5 0.671875,-5.65625 M2.10938,-5.65625 C2.10938,-3.77083 2.33073,-2.51823 2.77344,-1.89844 C3.21615,-1.27865 3.76042,-0.96875 4.40625,-0.96875 C5.05208,-0.96875 5.59375,-1.28125 6.03125,-1.90625 C6.46875,-2.53125 6.6875,-3.78125 6.6875,-5.65625 C6.6875,-7.54167 6.46875,-8.79427 6.03125,-9.41406 C5.59375,-10.0339 5.04688,-10.3438 4.39063,-10.3438 C3.74479,-10.3438 3.22917,-10.0677 2.84375,-9.51563 C2.35417,-8.81771 2.10938,-7.53125 2.10938,-5.65625 M10.4531,0 L10.4531,-1.60938 L12.0625,-1.60938 L12.0625,0 L10.4531,0 M21.0625,-1.35938 L21.0625,0 L13.4844,0 C13.474,-0.34375 13.5313,-0.671875 13.6563,-0.984375 C13.8438,-1.49479 14.151,-2 14.5781,-2.5 C15.0052,-3 15.6198,-3.57813 16.4219,-4.23438 C17.6615,-5.25521 18.5,-6.0651 18.9375,-6.66406 C19.375,-7.26302 19.5938,-7.82813 19.5938,-8.35938 C19.5938,-8.91146 19.3958,-9.38021 19,-9.76563 C18.6042,-10.151 18.0833,-10.3438 17.4375,-10.3438 C16.7604,-10.3438 16.2188,-10.1406 15.8125,-9.73438 C15.4063,-9.32813 15.2031,-8.76563 15.2031,-8.04688 L13.75,-8.1875 C13.8542,-9.27083 14.2292,-10.0938 14.875,-10.6563 C15.5208,-11.2188 16.3854,-11.5 17.4688,-11.5 C18.5729,-11.5 19.4453,-11.1953 20.0859,-10.5859 C20.7266,-9.97656 21.0469,-9.22396 21.0469,-8.32813 C21.0469,-7.86979 20.9531,-7.41927 20.7656,-6.97656 C20.5781,-6.53385 20.2656,-6.06771 19.8281,-5.57813 C19.3906,-5.08854 18.6667,-4.41667 17.6563,-3.5625 C16.8125,-2.85417 16.2708,-2.3724 16.0313,-2.11719 C15.7917,-1.86198 15.5938,-1.60938 15.4375,-1.35938 L21.0625,-1.35938"/>
</g>

<g fill="#212121" fill-opacity="1" stroke="none" transform="matrix(0.75,0,0,0.75,66.85,270.075)"
font-family="SimSun" font-size="9" font-weight="400" font-style="normal" 
>
<path vector-effect="none" fill-rule="evenodd" d="M0.671875,-5.65625 C0.671875,-7.01042 0.809896,-8.09896 1.08594,-8.92188 C1.36198,-9.74479 1.77604,-10.3802 2.32813,-10.8281 C2.88021,-11.276 3.57292,-11.5 4.40625,-11.5 C5.02083,-11.5 5.5599,-11.3776 6.02344,-11.1328 C6.48698,-10.888 6.86979,-10.5313 7.17188,-10.0625 C7.47396,-9.59375 7.71094,-9.02604 7.88281,-8.35938 C8.05469,-7.69271 8.14063,-6.79167 8.14063,-5.65625 C8.14063,-4.3125 8.0026,-3.22656 7.72656,-2.39844 C7.45052,-1.57031 7.03646,-0.929688 6.48438,-0.476563 C5.93229,-0.0234375 5.23958,0.203125 4.40625,0.203125 C3.30208,0.203125 2.43229,-0.197917 1.79688,-1 C1.04688,-1.94792 0.671875,-3.5 0.671875,-5.65625 M2.10938,-5.65625 C2.10938,-3.77083 2.33073,-2.51823 2.77344,-1.89844 C3.21615,-1.27865 3.76042,-0.96875 4.40625,-0.96875 C5.05208,-0.96875 5.59375,-1.28125 6.03125,-1.90625 C6.46875,-2.53125 6.6875,-3.78125 6.6875,-5.65625 C6.6875,-7.54167 6.46875,-8.79427 6.03125,-9.41406 C5.59375,-10.0339 5.04688,-10.3438 4.39063,-10.3438 C3.74479,-10.3438 3.22917,-10.0677 2.84375,-9.51563 C2.35417,-8.81771 2.10938,-7.53125 2.10938,-5.65625 M10.4531,0 L10.4531,-1.60938 L12.0625,-1.60938 L12.0625,0 L10.4531,0 M13.6719,-3.03125 L15.0781,-3.21875 C15.2448,-2.41667 15.5208,-1.84115 15.9063,-1.49219 C16.2917,-1.14323 16.7656,-0.96875 17.3281,-0.96875 C17.9844,-0.96875 18.5417,-1.19792 19,-1.65625 C19.4583,-2.11458 19.6875,-2.68229 19.6875,-3.35938 C19.6875,-4.00521 19.4766,-4.53646 19.0547,-4.95313 C18.6328,-5.36979 18.0938,-5.57813 17.4375,-5.57813 C17.1771,-5.57813 16.849,-5.52604 16.4531,-5.42188 L16.6094,-6.65625 C16.7031,-6.64583 16.776,-6.64063 16.8281,-6.64063 C17.4323,-6.64063 17.974,-6.79688 18.4531,-7.10938 C18.9323,-7.42188 19.1719,-7.90625 19.1719,-8.5625 C19.1719,-9.07292 18.9974,-9.4974 18.6484,-9.83594 C18.2995,-10.1745 17.849,-10.3438 17.2969,-10.3438 C16.7448,-10.3438 16.2865,-10.1719 15.9219,-9.82813 C15.5573,-9.48438 15.3229,-8.96875 15.2188,-8.28125 L13.8125,-8.53125 C13.9896,-9.47917 14.3828,-10.2109 14.9922,-10.7266 C15.6016,-11.2422 16.3594,-11.5 17.2656,-11.5 C17.8906,-11.5 18.4661,-11.3672 18.9922,-11.1016 C19.5182,-10.8359 19.9193,-10.4714 20.1953,-10.0078 C20.4714,-9.54427 20.6094,-9.05208 20.6094,-8.53125 C20.6094,-8.03125 20.4766,-7.57813 20.2109,-7.17188 C19.9453,-6.76563 19.5521,-6.44271 19.0313,-6.20313 C19.7083,-6.04688 20.2344,-5.72396 20.6094,-5.23438 C20.9844,-4.74479 21.1719,-4.13021 21.1719,-3.39063 C21.1719,-2.39063 20.8073,-1.54167 20.0781,-0.84375 C19.349,-0.145833 18.4271,0.203125 17.3125,0.203125 C16.3125,0.203125 15.4792,-0.0963542 14.8125,-0.695313 C14.1458,-1.29427 13.7656,-2.07292 13.6719,-3.03125 "/>
</g>

<g fill="#212121" fill-opacity="1" stroke="none" transform="matrix(0.75,0,0,0.75,66.85,236.475)"
font-family="SimSun" font-size="9" font-weight="400" font-style="normal" 
>
<path vector-effect="none" fill-rule="evenodd" d="M0.671875,-5.65625 C0.671875,-7.01042 0.809896,-8.09896 1.08594,-8.92188 C1.36198,-9.74479 1.77604,-10.3802 2.32813,-10.8281 C2.88021,-11.276 3.57292,-11.5 4.40625,-11.5 C5.02083,-11.5 5.5599,-11.3776 6.02344,-11.1328 C6.48698,-10.888 6.86979,-10.5313 7.17188,-10.0625 C7.47396,-9.59375 7.71094,-9.02604 7.88281,-8.35938 C8.05469,-7.69271 8.14063,-6.79167 8.14063,-5.65625 C8.14063,-4.3125 8.0026,-3.22656 7.72656,-2.39844 C7.45052,-1.57031 7.03646,-0.929688 6.48438,-0.476563 C5.93229,-0.0234375 5.23958,0.203125 4.40625,0.203125 C3.30208,0.203125 2.43229,-0.197917 1.79688,-1 C1.04688,-1.94792 0.671875,-3.5 0.671875,-5.65625 M2.10938,-5.65625 C2.10938,-3.77083 2.33073,-2.51823 2.77344,-1.89844 C3.21615,-1.27865 3.76042,-0.96875 4.40625,-0.96875 C5.05208,-0.96875 5.59375,-1.28125 6.03125,-1.90625 C6.46875,-2.53125 6.6875,-3.78125 6.6875,-5.65625 C6.6875,-7.54167 6.46875,-8.79427 6.03125,-9.41406 C5.59375,-10.0339 5.04688,-10.3438 4.39063,-10.3438 C3.74479,-10.3438 3.22917,-10.0677 2.84375,-9.51563 C2.35417,-8.81771 2.10938,-7.53125 2.10938,-5.65625 M10.4531,0 L10.4531,-1.60938 L12.0625,-1.60938 L12.0625,0 L10.4531,0 M18.1719,0 L18.1719,-2.75 L13.2031,-2.75 L13.2031,-4.03125 L18.4375,-11.4531 L19.5781,-11.4531 L19.5781,-4.03125 L21.125,-4.03125 L21.125,-2.75 L19.5781,-2.75 L19.5781,0 L18.1719,0 M18.1719,-4.03125 L18.1719,-9.20313 L14.5938,-4.03125 L18.1719,-4.03125"/>
</g>

<g fill="#212121" fill-opacity="1" stroke="none" transform="matrix(0.75,0,0,0.75,66.85,202.875)"
font-family="SimSun" font-size="9" font-weight="400" font-style="normal" 
>
<path vector-effect="none" fill-rule="evenodd" d="M0.671875,-5.65625 C0.671875,-7.01042 0.809896,-8.09896 1.08594,-8.92188 C1.36198,-9.74479 1.77604,-10.3802 2.32813,-10.8281 C2.88021,-11.276 3.57292,-11.5 4.40625,-11.5 C5.02083,-11.5 5.5599,-11.3776 6.02344,-11.1328 C6.48698,-10.888 6.86979,-10.5313 7.17188,-10.0625 C7.47396,-9.59375 7.71094,-9.02604 7.88281,-8.35938 C8.05469,-7.69271 8.14063,-6.79167 8.14063,-5.65625 C8.14063,-4.3125 8.0026,-3.22656 7.72656,-2.39844 C7.45052,-1.57031 7.03646,-0.929688 6.48438,-0.476563 C5.93229,-0.0234375 5.23958,0.203125 4.40625,0.203125 C3.30208,0.203125 2.43229,-0.197917 1.79688,-1 C1.04688,-1.94792 0.671875,-3.5 0.671875,-5.65625 M2.10938,-5.65625 C2.10938,-3.77083 2.33073,-2.51823 2.77344,-1.89844 C3.21615,-1.27865 3.76042,-0.96875 4.40625,-0.96875 C5.05208,-0.96875 5.59375,-1.28125 6.03125,-1.90625 C6.46875,-2.53125 6.6875,-3.78125 6.6875,-5.65625 C6.6875,-7.54167 6.46875,-8.79427 6.03125,-9.41406 C5.59375,-10.0339 5.04688,-10.3438 4.39063,-10.3438 C3.74479,-10.3438 3.22917,-10.0677 2.84375,-9.51563 C2.35417,-8.81771 2.10938,-7.53125 2.10938,-5.65625 M10.4531,0 L10.4531,-1.60938 L12.0625,-1.60938 L12.0625,0 L10.4531,0 M13.6719,-3 L15.1406,-3.125 C15.2552,-2.40625 15.5104,-1.86719 15.9063,-1.50781 C16.3021,-1.14844 16.7813,-0.96875 17.3438,-0.96875 C18.0208,-0.96875 18.5938,-1.22396 19.0625,-1.73438 C19.5313,-2.24479 19.7656,-2.92188 19.7656,-3.76563 C19.7656,-4.56771 19.5417,-5.20052 19.0938,-5.66406 C18.6458,-6.1276 18.0573,-6.35938 17.3281,-6.35938 C16.8698,-6.35938 16.4583,-6.25521 16.0938,-6.04688 C15.7292,-5.83854 15.4427,-5.57292 15.2344,-5.25 L13.9219,-5.42188 L15.0313,-11.2969 L20.7188,-11.2969 L20.7188,-9.95313 L16.1563,-9.95313 L15.5313,-6.875 C16.2188,-7.35417 16.9427,-7.59375 17.7031,-7.59375 C18.7031,-7.59375 19.5469,-7.2474 20.2344,-6.55469 C20.9219,-5.86198 21.2656,-4.97396 21.2656,-3.89063 C21.2656,-2.84896 20.9635,-1.95313 20.3594,-1.20313 C19.6198,-0.265625 18.6146,0.203125 17.3438,0.203125 C16.3021,0.203125 15.4531,-0.0911458 14.7969,-0.679688 C14.1406,-1.26823 13.7656,-2.04167 13.6719,-3 "/>
</g>

<g fill="#212121" fill-opacity="1" stroke="none" transform="matrix(0.75,0,0,0.75,66.85,169.275)"
font-family="SimSun" font-size="9" font-weight="400" font-style="normal" 
>
<path vector-effect="none" fill-rule="evenodd" d="M0.671875,-5.65625 C0.671875,-7.01042 0.809896,-8.09896 1.08594,-8.92188 C1.36198,-9.74479 1.77604,-10.3802 2.32813,-10.8281 C2.88021,-11.276 3.57292,-11.5 4.40625,-11.5 C5.02083,-11.5 5.5599,-11.3776 6.02344,-11.1328 C6.48698,-10.888 6.86979,-10.5313 7.17188,-10.0625 C7.47396,-9.59375 7.71094,-9.02604 7.88281,-8.35938 C8.05469,-7.69271 8.14063,-6.79167 8.14063,-5.65625 C8.14063,-4.3125 8.0026,-3.22656 7.72656,-2.39844 C7.45052,-1.57031 7.03646,-0.929688 6.48438,-0.476563 C5.93229,-0.0234375 5.23958,0.203125 4.40625,0.203125 C3.30208,0.203125 2.43229,-0.197917 1.79688,-1 C1.04688,-1.94792 0.671875,-3.5 0.671875,-5.65625 M2.10938,-5.65625 C2.10938,-3.77083 2.33073,-2.51823 2.77344,-1.89844 C3.21615,-1.27865 3.76042,-0.96875 4.40625,-0.96875 C5.05208,-0.96875 5.59375,-1.28125 6.03125,-1.90625 C6.46875,-2.53125 6.6875,-3.78125 6.6875,-5.65625 C6.6875,-7.54167 6.46875,-8.79427 6.03125,-9.41406 C5.59375,-10.0339 5.04688,-10.3438 4.39063,-10.3438 C3.74479,-10.3438 3.22917,-10.0677 2.84375,-9.51563 C2.35417,-8.81771 2.10938,-7.53125 2.10938,-5.65625 M10.4531,0 L10.4531,-1.60938 L12.0625,-1.60938 L12.0625,0 L10.4531,0 M20.9688,-8.65625 L19.5625,-8.54688 C19.4375,-9.09896 19.2604,-9.5 19.0313,-9.75 C18.6563,-10.1458 18.1875,-10.3438 17.625,-10.3438 C17.1771,-10.3438 16.7865,-10.2188 16.4531,-9.96875 C16.0052,-9.64583 15.6536,-9.17448 15.3984,-8.55469 C15.1432,-7.9349 15.0104,-7.05208 15,-5.90625 C15.3438,-6.42708 15.7604,-6.8125 16.25,-7.0625 C16.7396,-7.3125 17.25,-7.4375 17.7813,-7.4375 C18.7188,-7.4375 19.5182,-7.09115 20.1797,-6.39844 C20.8411,-5.70573 21.1719,-4.8125 21.1719,-3.71875 C21.1719,-3 21.0156,-2.33333 20.7031,-1.71875 C20.3906,-1.10417 19.9635,-0.630208 19.4219,-0.296875 C18.8802,0.0364583 18.2656,0.203125 17.5781,0.203125 C16.4115,0.203125 15.4583,-0.229167 14.7188,-1.09375 C13.9792,-1.95833 13.6094,-3.38021 13.6094,-5.35938 C13.6094,-7.57813 14.0156,-9.1875 14.8281,-10.1875 C15.5469,-11.0625 16.5104,-11.5 17.7188,-11.5 C18.6146,-11.5 19.3516,-11.2474 19.9297,-10.7422 C20.5078,-10.237 20.8542,-9.54167 20.9688,-8.65625 M15.2188,-3.71875 C15.2188,-3.22917 15.3229,-2.76302 15.5313,-2.32031 C15.7396,-1.8776 16.0286,-1.54167 16.3984,-1.3125 C16.7682,-1.08333 17.1563,-0.96875 17.5625,-0.96875 C18.1563,-0.96875 18.6667,-1.20833 19.0938,-1.6875 C19.5208,-2.16667 19.7344,-2.81771 19.7344,-3.64063 C19.7344,-4.43229 19.5234,-5.05469 19.1016,-5.50781 C18.6797,-5.96094 18.1458,-6.1875 17.5,-6.1875 C16.8646,-6.1875 16.3255,-5.96094 15.8828,-5.50781 C15.4401,-5.05469 15.2188,-4.45833 15.2188,-3.71875 "/>
</g>

<g fill="#212121" fill-opacity="1" stroke="none" transform="matrix(0.75,0,0,0.75,66.85,135.675)"
font-family="SimSun" font-size="9" font-weight="400" font-style="normal" 
>
<path vector-effect="none" fill-rule="evenodd" d="M0.671875,-5.65625 C0.671875,-7.01042 0.809896,-8.09896 1.08594,-8.92188 C1.36198,-9.74479 1.77604,-10.3802 2.32813,-10.8281 C2.88021,-11.276 3.57292,-11.5 4.40625,-11.5 C5.02083,-11.5 5.5599,-11.3776 6.02344,-11.1328 C6.48698,-10.888 6.86979,-10.5313 7.17188,-10.0625 C7.47396,-9.59375 7.71094,-9.02604 7.88281,-8.35938 C8.05469,-7.69271 8.14063,-6.79167 8.14063,-5.65625 C8.14063,-4.3125 8.0026,-3.22656 7.72656,-2.39844 C7.45052,-1.57031 7.03646,-0.929688 6.48438,-0.476563 C5.93229,-0.0234375 5.23958,0.203125 4.40625,0.203125 C3.30208,0.203125 2.43229,-0.197917 1.79688,-1 C1.04688,-1.94792 0.671875,-3.5 0.671875,-5.65625 M2.10938,-5.65625 C2.10938,-3.77083 2.33073,-2.51823 2.77344,-1.89844 C3.21615,-1.27865 3.76042,-0.96875 4.40625,-0.96875 C5.05208,-0.96875 5.59375,-1.28125 6.03125,-1.90625 C6.46875,-2.53125 6.6875,-3.78125 6.6875,-5.65625 C6.6875,-7.54167 6.46875,-8.79427 6.03125,-9.41406 C5.59375,-10.0339 5.04688,-10.3438 4.39063,-10.3438 C3.74479,-10.3438 3.22917,-10.0677 2.84375,-9.51563 C2.35417,-8.81771 2.10938,-7.53125 2.10938,-5.65625 M10.4531,0 L10.4531,-1.60938 L12.0625,-1.60938 L12.0625,0 L10.4531,0 M13.7656,-9.95313 L13.7656,-11.3125 L21.1719,-11.3125 L21.1719,-10.2188 C20.4427,-9.4375 19.7214,-8.40365 19.0078,-7.11719 C18.2943,-5.83073 17.7396,-4.51042 17.3438,-3.15625 C17.0625,-2.19792 16.8854,-1.14583 16.8125,0 L15.3594,0 C15.3802,-0.90625 15.5599,-1.9974 15.8984,-3.27344 C16.237,-4.54948 16.7214,-5.77865 17.3516,-6.96094 C17.9818,-8.14323 18.6563,-9.14063 19.375,-9.95313 L13.7656,-9.95313"/>
</g>

<g fill="#212121" fill-opacity="1" stroke="none" transform="matrix(0.75,0,0,0.75,66.85,102.075)"
font-family="SimSun" font-size="9" font-weight="400" font-style="normal" 
>
<path vector-effect="none" fill-rule="evenodd" d="M0.671875,-5.65625 C0.671875,-7.01042 0.809896,-8.09896 1.08594,-8.92188 C1.36198,-9.74479 1.77604,-10.3802 2.32813,-10.8281 C2.88021,-11.276 3.57292,-11.5 4.40625,-11.5 C5.02083,-11.5 5.5599,-11.3776 6.02344,-11.1328 C6.48698,-10.888 6.86979,-10.5313 7.17188,-10.0625 C7.47396,-9.59375 7.71094,-9.02604 7.88281,-8.35938 C8.05469,-7.69271 8.14063,-6.79167 8.14063,-5.65625 C8.14063,-4.3125 8.0026,-3.22656 7.72656,-2.39844 C7.45052,-1.57031 7.03646,-0.929688 6.48438,-0.476563 C5.93229,-0.0234375 5.23958,0.203125 4.40625,0.203125 C3.30208,0.203125 2.43229,-0.197917 1.79688,-1 C1.04688,-1.94792 0.671875,-3.5 0.671875,-5.65625 M2.10938,-5.65625 C2.10938,-3.77083 2.33073,-2.51823 2.77344,-1.89844 C3.21615,-1.27865 3.76042,-0.96875 4.40625,-0.96875 C5.05208,-0.96875 5.59375,-1.28125 6.03125,-1.90625 C6.46875,-2.53125 6.6875,-3.78125 6.6875,-5.65625 C6.6875,-7.54167 6.46875,-8.79427 6.03125,-9.41406 C5.59375,-10.0339 5.04688,-10.3438 4.39063,-10.3438 C3.74479,-10.3438 3.22917,-10.0677 2.84375,-9.51563 C2.35417,-8.81771 2.10938,-7.53125 2.10938,-5.65625 M10.4531,0 L10.4531,-1.60938 L12.0625,-1.60938 L12.0625,0 L10.4531,0 M15.8281,-6.21875 C15.2448,-6.42708 14.8125,-6.72917 14.5313,-7.125 C14.25,-7.52083 14.1094,-7.99479 14.1094,-8.54688 C14.1094,-9.38021 14.4089,-10.0807 15.0078,-10.6484 C15.6068,-11.2161 16.4063,-11.5 17.4063,-11.5 C18.4063,-11.5 19.2109,-11.2109 19.8203,-10.6328 C20.4297,-10.0547 20.7344,-9.34896 20.7344,-8.51563 C20.7344,-7.98438 20.5938,-7.52083 20.3125,-7.125 C20.0313,-6.72917 19.6094,-6.42708 19.0469,-6.21875 C19.7448,-5.98958 20.2786,-5.61979 20.6484,-5.10938 C21.0182,-4.59896 21.2031,-3.98958 21.2031,-3.28125 C21.2031,-2.30208 20.8568,-1.47656 20.1641,-0.804688 C19.4714,-0.132813 18.5573,0.203125 17.4219,0.203125 C16.2969,0.203125 15.388,-0.132813 14.6953,-0.804688 C14.0026,-1.47656 13.6563,-2.3125 13.6563,-3.3125 C13.6563,-4.0625 13.8438,-4.6875 14.2188,-5.1875 C14.5938,-5.6875 15.1302,-6.03125 15.8281,-6.21875 M15.5469,-8.59375 C15.5469,-8.05208 15.7214,-7.60938 16.0703,-7.26563 C16.4193,-6.92188 16.875,-6.75 17.4375,-6.75 C17.9792,-6.75 18.4219,-6.92188 18.7656,-7.26563 C19.1094,-7.60938 19.2813,-8.02604 19.2813,-8.51563 C19.2813,-9.03646 19.1042,-9.47135 18.75,-9.82031 C18.3958,-10.1693 17.9531,-10.3438 17.4219,-10.3438 C16.8802,-10.3438 16.4323,-10.1719 16.0781,-9.82813 C15.724,-9.48438 15.5469,-9.07292 15.5469,-8.59375 M15.0938,-3.3125 C15.0938,-2.90625 15.1901,-2.51563 15.3828,-2.14063 C15.5755,-1.76563 15.8594,-1.47656 16.2344,-1.27344 C16.6094,-1.07031 17.0104,-0.96875 17.4375,-0.96875 C18.1146,-0.96875 18.6719,-1.1849 19.1094,-1.61719 C19.5469,-2.04948 19.7656,-2.59896 19.7656,-3.26563 C19.7656,-3.94271 19.5391,-4.5026 19.0859,-4.94531 C18.6328,-5.38802 18.0677,-5.60938 17.3906,-5.60938 C16.7344,-5.60938 16.1875,-5.39063 15.75,-4.95313 C15.3125,-4.51563 15.0938,-3.96875 15.0938,-3.3125 "/>
</g>

<g fill="#212121" fill-opacity="1" stroke="none" transform="matrix(0.75,0,0,0.75,66.85,68.475)"
font-family="SimSun" font-size="9" font-weight="400" font-style="normal" 
>
<path vector-effect="none" fill-rule="evenodd" d="M0.671875,-5.65625 C0.671875,-7.01042 0.809896,-8.09896 1.08594,-8.92188 C1.36198,-9.74479 1.77604,-10.3802 2.32813,-10.8281 C2.88021,-11.276 3.57292,-11.5 4.40625,-11.5 C5.02083,-11.5 5.5599,-11.3776 6.02344,-11.1328 C6.48698,-10.888 6.86979,-10.5313 7.17188,-10.0625 C7.47396,-9.59375 7.71094,-9.02604 7.88281,-8.35938 C8.05469,-7.69271 8.14063,-6.79167 8.14063,-5.65625 C8.14063,-4.3125 8.0026,-3.22656 7.72656,-2.39844 C7.45052,-1.57031 7.03646,-0.929688 6.48438,-0.476563 C5.93229,-0.0234375 5.23958,0.203125 4.40625,0.203125 C3.30208,0.203125 2.43229,-0.197917 1.79688,-1 C1.04688,-1.94792 0.671875,-3.5 0.671875,-5.65625 M2.10938,-5.65625 C2.10938,-3.77083 2.33073,-2.51823 2.77344,-1.89844 C3.21615,-1.27865 3.76042,-0.96875 4.40625,-0.96875 C5.05208,-0.96875 5.59375,-1.28125 6.03125,-1.90625 C6.46875,-2.53125 6.6875,-3.78125 6.6875,-5.65625 C6.6875,-7.54167 6.46875,-8.79427 6.03125,-9.41406 C5.59375,-10.0339 5.04688,-10.3438 4.39063,-10.3438 C3.74479,-10.3438 3.22917,-10.0677 2.84375,-9.51563 C2.35417,-8.81771 2.10938,-7.53125 2.10938,-5.65625 M10.4531,0 L10.4531,-1.60938 L12.0625,-1.60938 L12.0625,0 L10.4531,0 M13.875,-2.65625 L15.2344,-2.78125 C15.349,-2.14583 15.5677,-1.6849 15.8906,-1.39844 C16.2135,-1.11198 16.625,-0.96875 17.125,-0.96875 C17.5625,-0.96875 17.9427,-1.06771 18.2656,-1.26563 C18.5885,-1.46354 18.8542,-1.72656 19.0625,-2.05469 C19.2708,-2.38281 19.4453,-2.82813 19.5859,-3.39063 C19.7266,-3.95313 19.7969,-4.52604 19.7969,-5.10938 C19.7969,-5.17188 19.7969,-5.26563 19.7969,-5.39063 C19.5156,-4.94271 19.1302,-4.58073 18.6406,-4.30469 C18.151,-4.02865 17.625,-3.89063 17.0625,-3.89063 C16.1146,-3.89063 15.3125,-4.23438 14.6563,-4.92188 C14,-5.60938 13.6719,-6.51563 13.6719,-7.64063 C13.6719,-8.79688 14.013,-9.72917 14.6953,-10.4375 C15.3776,-11.1458 16.2344,-11.5 17.2656,-11.5 C18.0156,-11.5 18.6979,-11.2995 19.3125,-10.8984 C19.9271,-10.4974 20.3958,-9.92708 20.7188,-9.1875 C21.0417,-8.44792 21.2031,-7.375 21.2031,-5.96875 C21.2031,-4.5 21.0443,-3.33333 20.7266,-2.46875 C20.4089,-1.60417 19.9349,-0.942708 19.3047,-0.484375 C18.6745,-0.0260417 17.9375,0.203125 17.0938,0.203125 C16.1979,0.203125 15.4661,-0.046875 14.8984,-0.546875 C14.3307,-1.04688 13.9896,-1.75 13.875,-2.65625 M19.6406,-7.70313 C19.6406,-8.51563 19.4245,-9.15885 18.9922,-9.63281 C18.5599,-10.1068 18.0417,-10.3438 17.4375,-10.3438 C16.8125,-10.3438 16.2682,-10.0885 15.8047,-9.57813 C15.3411,-9.06771 15.1094,-8.40625 15.1094,-7.59375 C15.1094,-6.86458 15.3307,-6.27083 15.7734,-5.8125 C16.2161,-5.35417 16.7604,-5.125 17.4063,-5.125 C18.0521,-5.125 18.5859,-5.35417 19.0078,-5.8125 C19.4297,-6.27083 19.6406,-6.90104 19.6406,-7.70313 "/>
</g>

<g fill="#212121" fill-opacity="1" stroke="none" transform="matrix(0.75,0,0,0.75,76.6,34.875)"
font-family="SimSun" font-size="9" font-weight="400" font-style="normal" 
>
<path vector-effect="none" fill-rule="evenodd" d="M5.96875,0 L4.5625,0 L4.5625,-8.96875 C4.21875,-8.64583 3.77344,-8.32292 3.22656,-8 C2.67969,-7.67708 2.1875,-7.43229 1.75,-7.26563 L1.75,-8.625 C2.53125,-9 3.21615,-9.45052 3.80469,-9.97656 C4.39323,-10.5026 4.8125,-11.0104 5.0625,-11.5 L5.96875,-11.5 L5.96875,0"/>
</g>
</g>
</svg>
