<?xml version="1.0" encoding="UTF-8" standalone="no"?>
<svg width="193.322mm" height="125.942mm"
 viewBox="0 0 548 357"
 xmlns="http://www.w3.org/2000/svg" xmlns:xlink="http://www.w3.org/1999/xlink"  version="1.2" baseProfile="tiny">
<title>Qt SVG Document</title>
<desc>MATLAB, The MathWorks, Inc. Version 25.2.0.2998904 R2025b</desc>
<defs>
</defs>
<g fill="none" stroke="black" stroke-width="1" fill-rule="evenodd" stroke-linecap="square" stroke-linejoin="bevel" >

<g fill="#ffffff" fill-opacity="1" stroke="none" transform="matrix(0.5,0,0,0.5,-167.5,-21.625)"
font-family="SimSun" font-size="9" font-weight="400" font-style="normal" 
>
<path vector-effect="none" fill-rule="evenodd" d="M334,42 L1430,42 L1430,757 L334,757 L334,42"/>
</g>

<g fill="#212121" fill-opacity="1" stroke="#212121" stroke-opacity="1" stroke-width="1" stroke-linecap="square" stroke-linejoin="bevel" transform="matrix(0.5,0,0,0.5,151.75,9.5)"
font-family="Helvetica" font-size="22" font-weight="400" font-style="normal" 
>
<text fill="#212121" fill-opacity="1" stroke="none" xml:space="preserve" x="0" y="0" font-family="Helvetica" font-size="22" font-weight="400" font-style="normal" 
 >Multicast Service Function Chain Tree (Req ID: 29)</text>
</g>

<g fill="#1171be" fill-opacity="0.501961" stroke="none" transform="matrix(5e-05,0,0,5e-05,-167.5,-21.625)"
font-family="Helvetica" font-size="22" font-weight="400" font-style="normal" 
>
<path vector-effect="none" fill-rule="evenodd" d="M3.82364e+06,6.86636e+06 L3.89864e+06,6.66636e+06 L3.82364e+06,6.73636e+06 L3.74864e+06,6.66636e+06 L3.82364e+06,6.86636e+06"/>
</g>

<g fill="#1171be" fill-opacity="0.501961" stroke="none" transform="matrix(5e-05,0,0,5e-05,-167.5,-21.625)"
font-family="Helvetica" font-size="22" font-weight="400" font-style="normal" 
>
<path vector-effect="none" fill-rule="evenodd" d="M3.82364e+06,5.91182e+06 L3.89864e+06,5.71182e+06 L3.82364e+06,5.78182e+06 L3.74864e+06,5.71182e+06 L3.82364e+06,5.91182e+06"/>
</g>

<g fill="#1171be" fill-opacity="0.501961" stroke="none" transform="matrix(5e-05,0,0,5e-05,-167.5,-21.625)"
font-family="Helvetica" font-size="22" font-weight="400" font-style="normal" 
>
<path vector-effect="none" fill-rule="evenodd" d="M3.82364e+06,4.95727e+06 L3.89864e+06,4.75727e+06 L3.82364e+06,4.82727e+06 L3.74864e+06,4.75727e+06 L3.82364e+06,4.95727e+06"/>
</g>

<g fill="#1171be" fill-opacity="0.501961" stroke="none" transform="matrix(5e-05,0,0,5e-05,-167.5,-21.625)"
font-family="Helvetica" font-size="22" font-weight="400" font-style="normal" 
>
<path vector-effect="none" fill-rule="evenodd" d="M5.82818e+06,4.00273e+06 L6.04011e+06,4.02936e+06 L5.95465e+06,3.97262e+06 L6.00537e+06,3.88344e+06 L5.82818e+06,4.00273e+06"/>
</g>

<g fill="#1171be" fill-opacity="0.501961" stroke="none" transform="matrix(5e-05,0,0,5e-05,-167.5,-21.625)"
font-family="Helvetica" font-size="22" font-weight="400" font-style="normal" 
>
<path vector-effect="none" fill-rule="evenodd" d="M8.835e+06,4.00273e+06 L8.68667e+06,3.84903e+06 L8.71763e+06,3.94684e+06 L8.62218e+06,3.98446e+06 L8.835e+06,4.00273e+06"/>
</g>

<g fill="#1171be" fill-opacity="0.501961" stroke="none" transform="matrix(5e-05,0,0,5e-05,-167.5,-21.625)"
font-family="Helvetica" font-size="22" font-weight="400" font-style="normal" 
>
<path vector-effect="none" fill-rule="evenodd" d="M8.835e+06,6.86636e+06 L9.04782e+06,6.84809e+06 L8.95237e+06,6.81047e+06 L8.98333e+06,6.71266e+06 L8.835e+06,6.86636e+06"/>
</g>

<g fill="#1171be" fill-opacity="0.501961" stroke="none" transform="matrix(5e-05,0,0,5e-05,-167.5,-21.625)"
font-family="Helvetica" font-size="22" font-weight="400" font-style="normal" 
>
<path vector-effect="none" fill-rule="evenodd" d="M1.08395e+07,6.86636e+06 L1.06912e+07,6.71266e+06 L1.07222e+07,6.81047e+06 L1.06267e+07,6.84809e+06 L1.08395e+07,6.86636e+06"/>
</g>

<g fill="#1171be" fill-opacity="0.501961" stroke="none" transform="matrix(5e-05,0,0,5e-05,-167.5,-21.625)"
font-family="Helvetica" font-size="22" font-weight="400" font-style="normal" 
>
<path vector-effect="none" fill-rule="evenodd" d="M9.83727e+06,4.95727e+06 L9.91227e+06,4.75727e+06 L9.83727e+06,4.82727e+06 L9.76227e+06,4.75727e+06 L9.83727e+06,4.95727e+06"/>
</g>

<g fill="#1171be" fill-opacity="0.501961" stroke="none" transform="matrix(5e-05,0,0,5e-05,-167.5,-21.625)"
font-family="Helvetica" font-size="22" font-weight="400" font-style="normal" 
>
<path vector-effect="none" fill-rule="evenodd" d="M9.83727e+06,5.91182e+06 L9.91227e+06,5.71182e+06 L9.83727e+06,5.78182e+06 L9.76227e+06,5.71182e+06 L9.83727e+06,5.91182e+06"/>
</g>

<g fill="#1171be" fill-opacity="0.501961" stroke="none" transform="matrix(5e-05,0,0,5e-05,-167.5,-21.625)"
font-family="Helvetica" font-size="22" font-weight="400" font-style="normal" 
>
<path vector-effect="none" fill-rule="evenodd" d="M8.835e+06,3.04818e+06 L9.04782e+06,3.02991e+06 L8.95237e+06,2.99229e+06 L8.98333e+06,2.89448e+06 L8.835e+06,3.04818e+06"/>
</g>

<g fill="#1171be" fill-opacity="0.501961" stroke="none" transform="matrix(5e-05,0,0,5e-05,-167.5,-21.625)"
font-family="Helvetica" font-size="22" font-weight="400" font-style="normal" 
>
<path vector-effect="none" fill-rule="evenodd" d="M1.18418e+07,3.04818e+06 L1.16646e+07,2.9289e+06 L1.17154e+07,3.01807e+06 L1.16299e+07,3.07482e+06 L1.18418e+07,3.04818e+06"/>
</g>

<g fill="#1171be" fill-opacity="0.501961" stroke="none" transform="matrix(5e-05,0,0,5e-05,-167.5,-21.625)"
font-family="Helvetica" font-size="22" font-weight="400" font-style="normal" 
>
<path vector-effect="none" fill-rule="evenodd" d="M1.38464e+07,4.95727e+06 L1.39214e+07,4.75727e+06 L1.38464e+07,4.82727e+06 L1.37714e+07,4.75727e+06 L1.38464e+07,4.95727e+06"/>
</g>

<g fill="#1171be" fill-opacity="0.501961" stroke="none" transform="matrix(5e-05,0,0,5e-05,-167.5,-21.625)"
font-family="Helvetica" font-size="22" font-weight="400" font-style="normal" 
>
<path vector-effect="none" fill-rule="evenodd" d="M1.08395e+07,2.09364e+06 L1.10524e+07,2.07536e+06 L1.09569e+07,2.03775e+06 L1.09879e+07,1.93994e+06 L1.08395e+07,2.09364e+06"/>
</g>

<g fill="#1171be" fill-opacity="0.501961" stroke="none" transform="matrix(5e-05,0,0,5e-05,-167.5,-21.625)"
font-family="Helvetica" font-size="22" font-weight="400" font-style="normal" 
>
<path vector-effect="none" fill-rule="evenodd" d="M1.28441e+07,2.09364e+06 L1.26958e+07,1.93994e+06 L1.27267e+07,2.03775e+06 L1.26313e+07,2.07536e+06 L1.28441e+07,2.09364e+06"/>
</g>

<g fill="#1171be" fill-opacity="0.501961" stroke="none" transform="matrix(5e-05,0,0,5e-05,-167.5,-21.625)"
font-family="Helvetica" font-size="22" font-weight="400" font-style="normal" 
>
<path vector-effect="none" fill-rule="evenodd" d="M1.38464e+07,4.00273e+06 L1.39214e+07,3.80273e+06 L1.38464e+07,3.87273e+06 L1.37714e+07,3.80273e+06 L1.38464e+07,4.00273e+06"/>
</g>

<g fill="#1171be" fill-opacity="0.501961" stroke="#1171be" stroke-opacity="0.501961" stroke-width="2.4" stroke-linecap="butt" stroke-linejoin="round" transform="matrix(0.5,0,0,0.5,-167.5,-21.625)"
font-family="Helvetica" font-size="22" font-weight="400" font-style="normal" 
>
<polyline fill="none" vector-effect="none" points="382.364,638.909 382.364,734.364 " />
<polyline fill="none" vector-effect="none" points="382.364,543.455 382.364,638.909 " />
<polyline fill="none" vector-effect="none" points="382.364,448 382.364,543.455 " />
<polyline fill="none" vector-effect="none" points="783.273,352.545 382.364,448 " />
<polyline fill="none" vector-effect="none" points="783.273,352.545 983.727,448 " />
<polyline fill="none" vector-effect="none" points="983.727,638.909 783.273,734.364 " />
<polyline fill="none" vector-effect="none" points="983.727,638.909 1184.18,734.364 " />
<polyline fill="none" vector-effect="none" points="983.727,448 983.727,543.455 " />
<polyline fill="none" vector-effect="none" points="983.727,543.455 983.727,638.909 " />
<polyline fill="none" vector-effect="none" points="983.727,257.091 783.273,352.545 " />
<polyline fill="none" vector-effect="none" points="983.727,257.091 1384.64,352.545 " />
<polyline fill="none" vector-effect="none" points="1384.64,448 1384.64,543.455 " />
<polyline fill="none" vector-effect="none" points="1184.18,161.636 983.727,257.091 " />
<polyline fill="none" vector-effect="none" points="1184.18,161.636 1384.64,257.091 " />
<polyline fill="none" vector-effect="none" points="1384.64,352.545 1384.64,448 " />
</g>

<g fill="#999999" fill-opacity="1" stroke="none" transform="matrix(0.5,0,0,0.5,-167.5,-21.625)"
font-family="Helvetica" font-size="22" font-weight="400" font-style="normal" 
>
<circle cx="382.364" cy="638.909" r="6"/>
</g>

<g fill="none" stroke="#999999" stroke-opacity="1" stroke-width="2" stroke-linecap="butt" stroke-linejoin="miter" stroke-miterlimit="2" transform="matrix(0.5,0,0,0.5,-167.5,-21.625)"
font-family="Helvetica" font-size="22" font-weight="400" font-style="normal" 
>
<path vector-effect="none" fill-rule="evenodd" d="M388.364,638.909 C388.364,635.595 385.677,632.909 382.364,632.909 C379.05,632.909 376.364,635.595 376.364,638.909 C376.364,642.223 379.05,644.909 382.364,644.909 C385.677,644.909 388.364,642.223 388.364,638.909 "/>
</g>

<g fill="#999999" fill-opacity="1" stroke="none" transform="matrix(0.5,0,0,0.5,-167.5,-21.625)"
font-family="Helvetica" font-size="22" font-weight="400" font-style="normal" 
>
<circle cx="382.364" cy="543.455" r="6"/>
</g>

<g fill="none" stroke="#999999" stroke-opacity="1" stroke-width="2" stroke-linecap="butt" stroke-linejoin="miter" stroke-miterlimit="2" transform="matrix(0.5,0,0,0.5,-167.5,-21.625)"
font-family="Helvetica" font-size="22" font-weight="400" font-style="normal" 
>
<path vector-effect="none" fill-rule="evenodd" d="M388.364,543.455 C388.364,540.141 385.677,537.455 382.364,537.455 C379.05,537.455 376.364,540.141 376.364,543.455 C376.364,546.768 379.05,549.455 382.364,549.455 C385.677,549.455 388.364,546.768 388.364,543.455 "/>
</g>

<g fill="#999999" fill-opacity="1" stroke="none" transform="matrix(0.5,0,0,0.5,-167.5,-21.625)"
font-family="Helvetica" font-size="22" font-weight="400" font-style="normal" 
>
<circle cx="382.364" cy="448" r="6"/>
</g>

<g fill="none" stroke="#999999" stroke-opacity="1" stroke-width="2" stroke-linecap="butt" stroke-linejoin="miter" stroke-miterlimit="2" transform="matrix(0.5,0,0,0.5,-167.5,-21.625)"
font-family="Helvetica" font-size="22" font-weight="400" font-style="normal" 
>
<path vector-effect="none" fill-rule="evenodd" d="M388.364,448 C388.364,444.686 385.677,442 382.364,442 C379.05,442 376.364,444.686 376.364,448 C376.364,451.314 379.05,454 382.364,454 C385.677,454 388.364,451.314 388.364,448 "/>
</g>

<g fill="#999999" fill-opacity="1" stroke="none" transform="matrix(0.5,0,0,0.5,-167.5,-21.625)"
font-family="Helvetica" font-size="22" font-weight="400" font-style="normal" 
>
<circle cx="783.273" cy="352.545" r="6"/>
</g>

<g fill="none" stroke="#999999" stroke-opacity="1" stroke-width="2" stroke-linecap="butt" stroke-linejoin="miter" stroke-miterlimit="2" transform="matrix(0.5,0,0,0.5,-167.5,-21.625)"
font-family="Helvetica" font-size="22" font-weight="400" font-style="normal" 
>
<path vector-effect="none" fill-rule="evenodd" d="M789.273,352.545 C789.273,349.232 786.586,346.545 783.273,346.545 C779.959,346.545 777.273,349.232 777.273,352.545 C777.273,355.859 779.959,358.545 783.273,358.545 C786.586,358.545 789.273,355.859 789.273,352.545 "/>
</g>

<g fill="#999999" fill-opacity="1" stroke="none" transform="matrix(0.5,0,0,0.5,-167.5,-21.625)"
font-family="Helvetica" font-size="22" font-weight="400" font-style="normal" 
>
<circle cx="983.727" cy="638.909" r="6"/>
</g>

<g fill="none" stroke="#999999" stroke-opacity="1" stroke-width="2" stroke-linecap="butt" stroke-linejoin="miter" stroke-miterlimit="2" transform="matrix(0.5,0,0,0.5,-167.5,-21.625)"
font-family="Helvetica" font-size="22" font-weight="400" font-style="normal" 
>
<path vector-effect="none" fill-rule="evenodd" d="M989.727,638.909 C989.727,635.595 987.041,632.909 983.727,632.909 C980.414,632.909 977.727,635.595 977.727,638.909 C977.727,642.223 980.414,644.909 983.727,644.909 C987.041,644.909 989.727,642.223 989.727,638.909 "/>
</g>

<g fill="#999999" fill-opacity="1" stroke="none" transform="matrix(0.5,0,0,0.5,-167.5,-21.625)"
font-family="Helvetica" font-size="22" font-weight="400" font-style="normal" 
>
<circle cx="983.727" cy="448" r="6"/>
</g>

<g fill="none" stroke="#999999" stroke-opacity="1" stroke-width="2" stroke-linecap="butt" stroke-linejoin="miter" stroke-miterlimit="2" transform="matrix(0.5,0,0,0.5,-167.5,-21.625)"
font-family="Helvetica" font-size="22" font-weight="400" font-style="normal" 
>
<path vector-effect="none" fill-rule="evenodd" d="M989.727,448 C989.727,444.686 987.041,442 983.727,442 C980.414,442 977.727,444.686 977.727,448 C977.727,451.314 980.414,454 983.727,454 C987.041,454 989.727,451.314 989.727,448 "/>
</g>

<g fill="#999999" fill-opacity="1" stroke="none" transform="matrix(0.5,0,0,0.5,-167.5,-21.625)"
font-family="Helvetica" font-size="22" font-weight="400" font-style="normal" 
>
<circle cx="983.727" cy="257.091" r="6"/>
</g>

<g fill="none" stroke="#999999" stroke-opacity="1" stroke-width="2" stroke-linecap="butt" stroke-linejoin="miter" stroke-miterlimit="2" transform="matrix(0.5,0,0,0.5,-167.5,-21.625)"
font-family="Helvetica" font-size="22" font-weight="400" font-style="normal" 
>
<path vector-effect="none" fill-rule="evenodd" d="M989.727,257.091 C989.727,253.777 987.041,251.091 983.727,251.091 C980.414,251.091 977.727,253.777 977.727,257.091 C977.727,260.405 980.414,263.091 983.727,263.091 C987.041,263.091 989.727,260.405 989.727,257.091 "/>
</g>

<g fill="#999999" fill-opacity="1" stroke="none" transform="matrix(0.5,0,0,0.5,-167.5,-21.625)"
font-family="Helvetica" font-size="22" font-weight="400" font-style="normal" 
>
<circle cx="1384.64" cy="448" r="6"/>
</g>

<g fill="none" stroke="#999999" stroke-opacity="1" stroke-width="2" stroke-linecap="butt" stroke-linejoin="miter" stroke-miterlimit="2" transform="matrix(0.5,0,0,0.5,-167.5,-21.625)"
font-family="Helvetica" font-size="22" font-weight="400" font-style="normal" 
>
<path vector-effect="none" fill-rule="evenodd" d="M1390.64,448 C1390.64,444.686 1387.95,442 1384.64,442 C1381.32,442 1378.64,444.686 1378.64,448 C1378.64,451.314 1381.32,454 1384.64,454 C1387.95,454 1390.64,451.314 1390.64,448 "/>
</g>

<g fill="#999999" fill-opacity="1" stroke="none" transform="matrix(0.5,0,0,0.5,-167.5,-21.625)"
font-family="Helvetica" font-size="22" font-weight="400" font-style="normal" 
>
<circle cx="983.727" cy="543.455" r="8"/>
</g>

<g fill="none" stroke="#999999" stroke-opacity="1" stroke-width="2" stroke-linecap="butt" stroke-linejoin="miter" stroke-miterlimit="2" transform="matrix(0.5,0,0,0.5,-167.5,-21.625)"
font-family="Helvetica" font-size="22" font-weight="400" font-style="normal" 
>
<path vector-effect="none" fill-rule="evenodd" d="M991.727,543.455 C991.727,539.036 988.146,535.455 983.727,535.455 C979.309,535.455 975.727,539.036 975.727,543.455 C975.727,547.873 979.309,551.455 983.727,551.455 C988.146,551.455 991.727,547.873 991.727,543.455 "/>
</g>

<g fill="#999999" fill-opacity="1" stroke="none" transform="matrix(0.5,0,0,0.5,-167.5,-21.625)"
font-family="Helvetica" font-size="22" font-weight="400" font-style="normal" 
>
<circle cx="1384.64" cy="352.545" r="8"/>
</g>

<g fill="none" stroke="#999999" stroke-opacity="1" stroke-width="2" stroke-linecap="butt" stroke-linejoin="miter" stroke-miterlimit="2" transform="matrix(0.5,0,0,0.5,-167.5,-21.625)"
font-family="Helvetica" font-size="22" font-weight="400" font-style="normal" 
>
<path vector-effect="none" fill-rule="evenodd" d="M1392.64,352.545 C1392.64,348.127 1389.05,344.545 1384.64,344.545 C1380.22,344.545 1376.64,348.127 1376.64,352.545 C1376.64,356.964 1380.22,360.545 1384.64,360.545 C1389.05,360.545 1392.64,356.964 1392.64,352.545 "/>
</g>

<g fill="#ff0000" fill-opacity="1" stroke="none" transform="matrix(5e-05,0,0,5e-05,-167.5,-21.625)"
font-family="Helvetica" font-size="22" font-weight="400" font-style="normal" 
>
<path vector-effect="none" fill-rule="evenodd" d="M3.74755e+06,7.31892e+06 L3.80483e+06,7.31892e+06 L3.82364e+06,7.26364e+06 L3.84245e+06,7.31892e+06 L3.89972e+06,7.31892e+06 L3.85407e+06,7.35353e+06 L3.87066e+06,7.40836e+06 L3.82364e+06,7.37564e+06 L3.77661e+06,7.40836e+06 L3.7932e+06,7.35353e+06 L3.74755e+06,7.31892e+06"/>
</g>

<g fill="none" stroke="#ff0000" stroke-opacity="1" stroke-width="2" stroke-linecap="butt" stroke-linejoin="miter" stroke-miterlimit="2" transform="matrix(0.5,0,0,0.5,-167.5,-21.625)"
font-family="Helvetica" font-size="22" font-weight="400" font-style="normal" 
>
<path vector-effect="none" fill-rule="evenodd" d="M374.755,731.891 L380.483,731.891 L382.364,726.364 L384.245,731.891 L389.972,731.891 L385.407,735.353 L387.066,740.836 L382.364,737.564 L377.661,740.836 L379.32,735.353 L374.755,731.891"/>
</g>

<g fill="#ff0000" fill-opacity="1" stroke="none" transform="matrix(5e-05,0,0,5e-05,-167.5,-21.625)"
font-family="Helvetica" font-size="22" font-weight="400" font-style="normal" 
>
<path vector-effect="none" fill-rule="evenodd" d="M1.37703e+07,2.54619e+06 L1.38276e+07,2.54619e+06 L1.38464e+07,2.49091e+06 L1.38652e+07,2.54619e+06 L1.39224e+07,2.54619e+06 L1.38768e+07,2.5808e+06 L1.38934e+07,2.63563e+06 L1.38464e+07,2.60291e+06 L1.37993e+07,2.63563e+06 L1.38159e+07,2.5808e+06 L1.37703e+07,2.54619e+06"/>
</g>

<g fill="none" stroke="#ff0000" stroke-opacity="1" stroke-width="2" stroke-linecap="butt" stroke-linejoin="miter" stroke-miterlimit="2" transform="matrix(0.5,0,0,0.5,-167.5,-21.625)"
font-family="Helvetica" font-size="22" font-weight="400" font-style="normal" 
>
<path vector-effect="none" fill-rule="evenodd" d="M1377.03,254.619 L1382.76,254.619 L1384.64,249.091 L1386.52,254.619 L1392.24,254.619 L1387.68,258.08 L1389.34,263.563 L1384.64,260.291 L1379.93,263.563 L1381.59,258.08 L1377.03,254.619"/>
</g>

<g fill="#ff0000" fill-opacity="1" stroke="none" transform="matrix(5e-05,0,0,5e-05,-167.5,-21.625)"
font-family="Helvetica" font-size="22" font-weight="400" font-style="normal" 
>
<path vector-effect="none" fill-rule="evenodd" d="M7.73762e+06,7.31273e+06 L7.80922e+06,7.31273e+06 L7.83273e+06,7.24364e+06 L7.85624e+06,7.31273e+06 L7.92783e+06,7.31273e+06 L7.87077e+06,7.356e+06 L7.89151e+06,7.42454e+06 L7.83273e+06,7.38364e+06 L7.77395e+06,7.42454e+06 L7.79468e+06,7.356e+06 L7.73762e+06,7.31273e+06"/>
</g>

<g fill="none" stroke="#ff0000" stroke-opacity="1" stroke-width="2" stroke-linecap="butt" stroke-linejoin="miter" stroke-miterlimit="2" transform="matrix(0.5,0,0,0.5,-167.5,-21.625)"
font-family="Helvetica" font-size="22" font-weight="400" font-style="normal" 
>
<path vector-effect="none" fill-rule="evenodd" d="M773.762,731.273 L780.922,731.273 L783.273,724.364 L785.624,731.273 L792.783,731.273 L787.077,735.6 L789.151,742.454 L783.273,738.364 L777.395,742.454 L779.468,735.6 L773.762,731.273"/>
</g>

<g fill="#ff0000" fill-opacity="1" stroke="none" transform="matrix(5e-05,0,0,5e-05,-167.5,-21.625)"
font-family="Helvetica" font-size="22" font-weight="400" font-style="normal" 
>
<path vector-effect="none" fill-rule="evenodd" d="M1.17467e+07,7.31273e+06 L1.18183e+07,7.31273e+06 L1.18418e+07,7.24364e+06 L1.18653e+07,7.31273e+06 L1.19369e+07,7.31273e+06 L1.18799e+07,7.356e+06 L1.19006e+07,7.42454e+06 L1.18418e+07,7.38364e+06 L1.1783e+07,7.42454e+06 L1.18038e+07,7.356e+06 L1.17467e+07,7.31273e+06"/>
</g>

<g fill="none" stroke="#ff0000" stroke-opacity="1" stroke-width="2" stroke-linecap="butt" stroke-linejoin="miter" stroke-miterlimit="2" transform="matrix(0.5,0,0,0.5,-167.5,-21.625)"
font-family="Helvetica" font-size="22" font-weight="400" font-style="normal" 
>
<path vector-effect="none" fill-rule="evenodd" d="M1174.67,731.273 L1181.83,731.273 L1184.18,724.364 L1186.53,731.273 L1193.69,731.273 L1187.99,735.6 L1190.06,742.454 L1184.18,738.364 L1178.3,742.454 L1180.38,735.6 L1174.67,731.273"/>
</g>

<g fill="#ff0000" fill-opacity="1" stroke="none" transform="matrix(5e-05,0,0,5e-05,-167.5,-21.625)"
font-family="Helvetica" font-size="22" font-weight="400" font-style="normal" 
>
<path vector-effect="none" fill-rule="evenodd" d="M1.37513e+07,5.40364e+06 L1.38229e+07,5.40364e+06 L1.38464e+07,5.33455e+06 L1.38699e+07,5.40364e+06 L1.39415e+07,5.40364e+06 L1.38844e+07,5.44691e+06 L1.39051e+07,5.51545e+06 L1.38464e+07,5.47455e+06 L1.37876e+07,5.51545e+06 L1.38083e+07,5.44691e+06 L1.37513e+07,5.40364e+06"/>
</g>

<g fill="none" stroke="#ff0000" stroke-opacity="1" stroke-width="2" stroke-linecap="butt" stroke-linejoin="miter" stroke-miterlimit="2" transform="matrix(0.5,0,0,0.5,-167.5,-21.625)"
font-family="Helvetica" font-size="22" font-weight="400" font-style="normal" 
>
<path vector-effect="none" fill-rule="evenodd" d="M1375.13,540.364 L1382.29,540.364 L1384.64,533.455 L1386.99,540.364 L1394.15,540.364 L1388.44,544.691 L1390.51,551.545 L1384.64,547.455 L1378.76,551.545 L1380.83,544.691 L1375.13,540.364"/>
</g>

<g fill="#ff0000" fill-opacity="1" stroke="none" transform="matrix(5e-05,0,0,5e-05,-167.5,-21.625)"
font-family="Helvetica" font-size="22" font-weight="400" font-style="normal" 
>
<path vector-effect="none" fill-rule="evenodd" d="M1.17638e+07,1.53836e+06 L1.17638e+07,1.69436e+06 L1.19198e+07,1.69436e+06 L1.19198e+07,1.53836e+06 L1.17638e+07,1.53836e+06"/>
</g>

<g fill="none" stroke="#ff0000" stroke-opacity="1" stroke-width="2" stroke-linecap="butt" stroke-linejoin="miter" stroke-miterlimit="2" transform="matrix(0.5,0,0,0.5,-167.5,-21.625)"
font-family="Helvetica" font-size="22" font-weight="400" font-style="normal" 
>
<path vector-effect="none" fill-rule="evenodd" d="M1176.38,153.836 L1176.38,169.436 L1191.98,169.436 L1191.98,153.836 L1176.38,153.836"/>
</g>

<g fill="#212121" fill-opacity="1" stroke="#212121" stroke-opacity="1" stroke-width="1" stroke-linecap="square" stroke-linejoin="bevel" transform="matrix(0.469846,0.17101,-0.17101,0.469846,26.7134,350.385)"
font-family="Helvetica" font-size="20" font-weight="400" font-style="normal" 
>
<text fill="#212121" fill-opacity="1" stroke="none" xml:space="preserve" x="0" y="0" font-family="Helvetica" font-size="20" font-weight="400" font-style="normal" 
 >6</text>
</g>

<g fill="#212121" fill-opacity="1" stroke="#212121" stroke-opacity="1" stroke-width="1" stroke-linecap="square" stroke-linejoin="bevel" transform="matrix(0.469846,0.17101,-0.17101,0.469846,26.7134,302.658)"
font-family="Helvetica" font-size="20" font-weight="400" font-style="normal" 
>
<text fill="#212121" fill-opacity="1" stroke="none" xml:space="preserve" x="0" y="0" font-family="Helvetica" font-size="20" font-weight="400" font-style="normal" 
 >9</text>
</g>

<g fill="#212121" fill-opacity="1" stroke="#212121" stroke-opacity="1" stroke-width="1" stroke-linecap="square" stroke-linejoin="bevel" transform="matrix(0.469846,0.17101,-0.17101,0.469846,26.7134,254.93)"
font-family="Helvetica" font-size="20" font-weight="400" font-style="normal" 
>
<text fill="#212121" fill-opacity="1" stroke="none" xml:space="preserve" x="0" y="0" font-family="Helvetica" font-size="20" font-weight="400" font-style="normal" 
 >10</text>
</g>

<g fill="#212121" fill-opacity="1" stroke="#212121" stroke-opacity="1" stroke-width="1" stroke-linecap="square" stroke-linejoin="bevel" transform="matrix(0.469846,0.17101,-0.17101,0.469846,26.7134,207.203)"
font-family="Helvetica" font-size="20" font-weight="400" font-style="normal" 
>
<text fill="#212121" fill-opacity="1" stroke="none" xml:space="preserve" x="0" y="0" font-family="Helvetica" font-size="20" font-weight="400" font-style="normal" 
 >14</text>
</g>

<g fill="#212121" fill-opacity="1" stroke="#212121" stroke-opacity="1" stroke-width="1" stroke-linecap="square" stroke-linejoin="bevel" transform="matrix(0.469846,0.17101,-0.17101,0.469846,227.168,350.385)"
font-family="Helvetica" font-size="20" font-weight="400" font-style="normal" 
>
<text fill="#212121" fill-opacity="1" stroke="none" xml:space="preserve" x="0" y="0" font-family="Helvetica" font-size="20" font-weight="400" font-style="normal" 
 >16</text>
</g>

<g fill="#212121" fill-opacity="1" stroke="#212121" stroke-opacity="1" stroke-width="1" stroke-linecap="square" stroke-linejoin="bevel" transform="matrix(0.469846,0.17101,-0.17101,0.469846,227.168,159.476)"
font-family="Helvetica" font-size="20" font-weight="400" font-style="normal" 
>
<text fill="#212121" fill-opacity="1" stroke="none" xml:space="preserve" x="0" y="0" font-family="Helvetica" font-size="20" font-weight="400" font-style="normal" 
 >17</text>
</g>

<g fill="#212121" fill-opacity="1" stroke="#212121" stroke-opacity="1" stroke-width="1" stroke-linecap="square" stroke-linejoin="bevel" transform="matrix(0.469846,0.17101,-0.17101,0.469846,327.395,302.658)"
font-family="Helvetica" font-size="20" font-weight="400" font-style="normal" 
>
<text fill="#212121" fill-opacity="1" stroke="none" xml:space="preserve" x="0" y="0" font-family="Helvetica" font-size="20" font-weight="400" font-style="normal" 
 >19</text>
</g>

<g fill="#212121" fill-opacity="1" stroke="#212121" stroke-opacity="1" stroke-width="1" stroke-linecap="square" stroke-linejoin="bevel" transform="matrix(0.469846,0.17101,-0.17101,0.469846,327.395,207.203)"
font-family="Helvetica" font-size="20" font-weight="400" font-style="normal" 
>
<text fill="#212121" fill-opacity="1" stroke="none" xml:space="preserve" x="0" y="0" font-family="Helvetica" font-size="20" font-weight="400" font-style="normal" 
 >20</text>
</g>

<g fill="#212121" fill-opacity="1" stroke="#212121" stroke-opacity="1" stroke-width="1" stroke-linecap="square" stroke-linejoin="bevel" transform="matrix(0.469846,0.17101,-0.17101,0.469846,327.395,254.93)"
font-family="Helvetica" font-size="20" font-weight="400" font-style="normal" 
>
<text fill="#212121" fill-opacity="1" stroke="none" xml:space="preserve" x="0" y="0" font-family="Helvetica" font-size="20" font-weight="400" font-style="normal" 
 >21</text>
</g>

<g fill="#212121" fill-opacity="1" stroke="#212121" stroke-opacity="1" stroke-width="1" stroke-linecap="square" stroke-linejoin="bevel" transform="matrix(0.469846,0.17101,-0.17101,0.469846,427.622,350.385)"
font-family="Helvetica" font-size="20" font-weight="400" font-style="normal" 
>
<text fill="#212121" fill-opacity="1" stroke="none" xml:space="preserve" x="0" y="0" font-family="Helvetica" font-size="20" font-weight="400" font-style="normal" 
 >22</text>
</g>

<g fill="#212121" fill-opacity="1" stroke="#212121" stroke-opacity="1" stroke-width="1" stroke-linecap="square" stroke-linejoin="bevel" transform="matrix(0.469846,0.17101,-0.17101,0.469846,327.395,111.748)"
font-family="Helvetica" font-size="20" font-weight="400" font-style="normal" 
>
<text fill="#212121" fill-opacity="1" stroke="none" xml:space="preserve" x="0" y="0" font-family="Helvetica" font-size="20" font-weight="400" font-style="normal" 
 >23</text>
</g>

<g fill="#212121" fill-opacity="1" stroke="#212121" stroke-opacity="1" stroke-width="1" stroke-linecap="square" stroke-linejoin="bevel" transform="matrix(0.469846,0.17101,-0.17101,0.469846,527.85,207.203)"
font-family="Helvetica" font-size="20" font-weight="400" font-style="normal" 
>
<text fill="#212121" fill-opacity="1" stroke="none" xml:space="preserve" x="0" y="0" font-family="Helvetica" font-size="20" font-weight="400" font-style="normal" 
 >24</text>
</g>

<g fill="#212121" fill-opacity="1" stroke="#212121" stroke-opacity="1" stroke-width="1" stroke-linecap="square" stroke-linejoin="bevel" transform="matrix(0.469846,0.17101,-0.17101,0.469846,527.85,254.93)"
font-family="Helvetica" font-size="20" font-weight="400" font-style="normal" 
>
<text fill="#212121" fill-opacity="1" stroke="none" xml:space="preserve" x="0" y="0" font-family="Helvetica" font-size="20" font-weight="400" font-style="normal" 
 >25</text>
</g>

<g fill="#212121" fill-opacity="1" stroke="#212121" stroke-opacity="1" stroke-width="1" stroke-linecap="square" stroke-linejoin="bevel" transform="matrix(0.469846,0.17101,-0.17101,0.469846,427.622,64.0212)"
font-family="Helvetica" font-size="20" font-weight="400" font-style="normal" 
>
<text fill="#212121" fill-opacity="1" stroke="none" xml:space="preserve" x="0" y="0" font-family="Helvetica" font-size="20" font-weight="400" font-style="normal" 
 >26</text>
</g>

<g fill="#212121" fill-opacity="1" stroke="#212121" stroke-opacity="1" stroke-width="1" stroke-linecap="square" stroke-linejoin="bevel" transform="matrix(0.469846,0.17101,-0.17101,0.469846,527.85,111.748)"
font-family="Helvetica" font-size="20" font-weight="400" font-style="normal" 
>
<text fill="#212121" fill-opacity="1" stroke="none" xml:space="preserve" x="0" y="0" font-family="Helvetica" font-size="20" font-weight="400" font-style="normal" 
 >27</text>
</g>

<g fill="#212121" fill-opacity="1" stroke="#212121" stroke-opacity="1" stroke-width="1" stroke-linecap="square" stroke-linejoin="bevel" transform="matrix(0.469846,0.17101,-0.17101,0.469846,527.85,159.476)"
font-family="Helvetica" font-size="20" font-weight="400" font-style="normal" 
>
<text fill="#212121" fill-opacity="1" stroke="none" xml:space="preserve" x="0" y="0" font-family="Helvetica" font-size="20" font-weight="400" font-style="normal" 
 >28</text>
</g>

<g fill="#212121" fill-opacity="1" stroke="#212121" stroke-opacity="1" stroke-width="1" stroke-linecap="square" stroke-linejoin="bevel" transform="matrix(0,0.5,-0.5,0,26.1818,316.193)"
font-family="Helvetica" font-size="20" font-weight="400" font-style="italic" 
>
<text fill="#212121" fill-opacity="1" stroke="none" xml:space="preserve" x="0" y="0" font-family="Helvetica" font-size="20" font-weight="400" font-style="italic" 
 >24</text>
</g>

<g fill="#212121" fill-opacity="1" stroke="#212121" stroke-opacity="1" stroke-width="1" stroke-linecap="square" stroke-linejoin="bevel" transform="matrix(0,0.5,-0.5,0,26.1818,268.466)"
font-family="Helvetica" font-size="20" font-weight="400" font-style="italic" 
>
<text fill="#212121" fill-opacity="1" stroke="none" xml:space="preserve" x="0" y="0" font-family="Helvetica" font-size="20" font-weight="400" font-style="italic" 
 >27</text>
</g>

<g fill="#212121" fill-opacity="1" stroke="#212121" stroke-opacity="1" stroke-width="1" stroke-linecap="square" stroke-linejoin="bevel" transform="matrix(0,0.5,-0.5,0,26.1818,220.739)"
font-family="Helvetica" font-size="20" font-weight="400" font-style="italic" 
>
<text fill="#212121" fill-opacity="1" stroke="none" xml:space="preserve" x="0" y="0" font-family="Helvetica" font-size="20" font-weight="400" font-style="italic" 
 >40</text>
</g>

<g fill="#212121" fill-opacity="1" stroke="#212121" stroke-opacity="1" stroke-width="1" stroke-linecap="square" stroke-linejoin="bevel" transform="matrix(0.486403,-0.11581,0.11581,0.486403,117.98,177.353)"
font-family="Helvetica" font-size="20" font-weight="400" font-style="italic" 
>
<text fill="#212121" fill-opacity="1" stroke="none" xml:space="preserve" x="0" y="0" font-family="Helvetica" font-size="20" font-weight="400" font-style="italic" 
 >50</text>
</g>

<g fill="#212121" fill-opacity="1" stroke="#212121" stroke-opacity="1" stroke-width="1" stroke-linecap="square" stroke-linejoin="bevel" transform="matrix(0.45143,0.214967,-0.214967,0.45143,270.359,173.89)"
font-family="Helvetica" font-size="20" font-weight="400" font-style="italic" 
>
<text fill="#212121" fill-opacity="1" stroke="none" xml:space="preserve" x="0" y="0" font-family="Helvetica" font-size="20" font-weight="400" font-style="italic" 
 >53</text>
</g>

<g fill="#212121" fill-opacity="1" stroke="#212121" stroke-opacity="1" stroke-width="1" stroke-linecap="square" stroke-linejoin="bevel" transform="matrix(0.45143,-0.214967,0.214967,0.45143,268.209,321.801)"
font-family="Helvetica" font-size="20" font-weight="400" font-style="italic" 
>
<text fill="#212121" fill-opacity="1" stroke="none" xml:space="preserve" x="0" y="0" font-family="Helvetica" font-size="20" font-weight="400" font-style="italic" 
 >59</text>
</g>

<g fill="#212121" fill-opacity="1" stroke="#212121" stroke-opacity="1" stroke-width="1" stroke-linecap="square" stroke-linejoin="bevel" transform="matrix(0.45143,0.214967,-0.214967,0.45143,370.586,317.071)"
font-family="Helvetica" font-size="20" font-weight="400" font-style="italic" 
>
<text fill="#212121" fill-opacity="1" stroke="none" xml:space="preserve" x="0" y="0" font-family="Helvetica" font-size="20" font-weight="400" font-style="italic" 
 >62</text>
</g>

<g fill="#212121" fill-opacity="1" stroke="#212121" stroke-opacity="1" stroke-width="1" stroke-linecap="square" stroke-linejoin="bevel" transform="matrix(0,0.5,-0.5,0,326.864,220.739)"
font-family="Helvetica" font-size="20" font-weight="400" font-style="italic" 
>
<text fill="#212121" fill-opacity="1" stroke="none" xml:space="preserve" x="0" y="0" font-family="Helvetica" font-size="20" font-weight="400" font-style="italic" 
 >65</text>
</g>

<g fill="#212121" fill-opacity="1" stroke="#212121" stroke-opacity="1" stroke-width="1" stroke-linecap="square" stroke-linejoin="bevel" transform="matrix(0,0.5,-0.5,0,326.864,268.466)"
font-family="Helvetica" font-size="20" font-weight="400" font-style="italic" 
>
<text fill="#212121" fill-opacity="1" stroke="none" xml:space="preserve" x="0" y="0" font-family="Helvetica" font-size="20" font-weight="400" font-style="italic" 
 >67</text>
</g>

<g fill="#212121" fill-opacity="1" stroke="#212121" stroke-opacity="1" stroke-width="1" stroke-linecap="square" stroke-linejoin="bevel" transform="matrix(0.45143,-0.214967,0.214967,0.45143,268.209,130.892)"
font-family="Helvetica" font-size="20" font-weight="400" font-style="italic" 
>
<text fill="#212121" fill-opacity="1" stroke="none" xml:space="preserve" x="0" y="0" font-family="Helvetica" font-size="20" font-weight="400" font-style="italic" 
 >73</text>
</g>

<g fill="#212121" fill-opacity="1" stroke="#212121" stroke-opacity="1" stroke-width="1" stroke-linecap="square" stroke-linejoin="bevel" transform="matrix(0.486403,0.11581,-0.11581,0.486403,419.82,127.078)"
font-family="Helvetica" font-size="20" font-weight="400" font-style="italic" 
>
<text fill="#212121" fill-opacity="1" stroke="none" xml:space="preserve" x="0" y="0" font-family="Helvetica" font-size="20" font-weight="400" font-style="italic" 
 >76</text>
</g>

<g fill="#212121" fill-opacity="1" stroke="#212121" stroke-opacity="1" stroke-width="1" stroke-linecap="square" stroke-linejoin="bevel" transform="matrix(0,0.5,-0.5,0,527.318,220.739)"
font-family="Helvetica" font-size="20" font-weight="400" font-style="italic" 
>
<text fill="#212121" fill-opacity="1" stroke="none" xml:space="preserve" x="0" y="0" font-family="Helvetica" font-size="20" font-weight="400" font-style="italic" 
 >78</text>
</g>

<g fill="#212121" fill-opacity="1" stroke="#212121" stroke-opacity="1" stroke-width="1" stroke-linecap="square" stroke-linejoin="bevel" transform="matrix(0.45143,-0.214967,0.214967,0.45143,368.437,83.1643)"
font-family="Helvetica" font-size="20" font-weight="400" font-style="italic" 
>
<text fill="#212121" fill-opacity="1" stroke="none" xml:space="preserve" x="0" y="0" font-family="Helvetica" font-size="20" font-weight="400" font-style="italic" 
 >83</text>
</g>

<g fill="#212121" fill-opacity="1" stroke="#212121" stroke-opacity="1" stroke-width="1" stroke-linecap="square" stroke-linejoin="bevel" transform="matrix(0.45143,0.214967,-0.214967,0.45143,470.814,78.435)"
font-family="Helvetica" font-size="20" font-weight="400" font-style="italic" 
>
<text fill="#212121" fill-opacity="1" stroke="none" xml:space="preserve" x="0" y="0" font-family="Helvetica" font-size="20" font-weight="400" font-style="italic" 
 >84</text>
</g>

<g fill="#212121" fill-opacity="1" stroke="#212121" stroke-opacity="1" stroke-width="1" stroke-linecap="square" stroke-linejoin="bevel" transform="matrix(0,0.5,-0.5,0,527.318,173.011)"
font-family="Helvetica" font-size="20" font-weight="400" font-style="italic" 
>
<text fill="#212121" fill-opacity="1" stroke="none" xml:space="preserve" x="0" y="0" font-family="Helvetica" font-size="20" font-weight="400" font-style="italic" 
 >89</text>
</g>

<g fill="#ff0000" fill-opacity="1" stroke="#ff0000" stroke-opacity="1" stroke-width="1" stroke-linecap="square" stroke-linejoin="bevel" transform="matrix(0.5,0,0,0.5,407.841,55.5341)"
font-family="Helvetica" font-size="20" font-weight="700" font-style="normal" 
>
<text fill="#ff0000" fill-opacity="1" stroke="none" xml:space="preserve" x="0" y="0" font-family="Helvetica" font-size="20" font-weight="700" font-style="normal" 
 >Source</text>
</g>

<g fill="#ff0000" fill-opacity="1" stroke="#ff0000" stroke-opacity="1" stroke-width="1" stroke-linecap="square" stroke-linejoin="bevel" transform="matrix(0.5,0,0,0.5,519.568,116.83)"
font-family="Helvetica" font-size="16" font-weight="400" font-style="normal" 
>
<text fill="#ff0000" fill-opacity="1" stroke="none" xml:space="preserve" x="0" y="0" font-family="Helvetica" font-size="16" font-weight="400" font-style="normal" 
 >D1</text>
</g>

<g fill="#ff0000" fill-opacity="1" stroke="#ff0000" stroke-opacity="1" stroke-width="1" stroke-linecap="square" stroke-linejoin="bevel" transform="matrix(0.5,0,0,0.5,419.341,355.466)"
font-family="Helvetica" font-size="16" font-weight="400" font-style="normal" 
>
<text fill="#ff0000" fill-opacity="1" stroke="none" xml:space="preserve" x="0" y="0" font-family="Helvetica" font-size="16" font-weight="400" font-style="normal" 
 >D2</text>
</g>

<g fill="#ff0000" fill-opacity="1" stroke="#ff0000" stroke-opacity="1" stroke-width="1" stroke-linecap="square" stroke-linejoin="bevel" transform="matrix(0.5,0,0,0.5,218.886,355.466)"
font-family="Helvetica" font-size="16" font-weight="400" font-style="normal" 
>
<text fill="#ff0000" fill-opacity="1" stroke="none" xml:space="preserve" x="0" y="0" font-family="Helvetica" font-size="16" font-weight="400" font-style="normal" 
 >D3</text>
</g>

<g fill="#ff0000" fill-opacity="1" stroke="#ff0000" stroke-opacity="1" stroke-width="1" stroke-linecap="square" stroke-linejoin="bevel" transform="matrix(0.5,0,0,0.5,519.568,260.011)"
font-family="Helvetica" font-size="16" font-weight="400" font-style="normal" 
>
<text fill="#ff0000" fill-opacity="1" stroke="none" xml:space="preserve" x="0" y="0" font-family="Helvetica" font-size="16" font-weight="400" font-style="normal" 
 >D4</text>
</g>

<g fill="#ff0000" fill-opacity="1" stroke="#ff0000" stroke-opacity="1" stroke-width="1" stroke-linecap="square" stroke-linejoin="bevel" transform="matrix(0.5,0,0,0.5,18.4318,355.466)"
font-family="Helvetica" font-size="16" font-weight="400" font-style="normal" 
>
<text fill="#ff0000" fill-opacity="1" stroke="none" xml:space="preserve" x="0" y="0" font-family="Helvetica" font-size="16" font-weight="400" font-style="normal" 
 >D5</text>
</g>

<g fill="#0000ff" fill-opacity="1" stroke="#0000ff" stroke-opacity="1" stroke-width="1" stroke-linecap="square" stroke-linejoin="bevel" transform="matrix(0.5,0,0,0.5,1.5,339.375)"
font-family="Helvetica" font-size="18" font-weight="700" font-style="normal" 
>
<text fill="#0000ff" fill-opacity="1" stroke="none" xml:space="preserve" x="0" y="0" font-family="Helvetica" font-size="18" font-weight="700" font-style="normal" 
 >VNF: 4,5,8</text>
</g>

<g fill="#0000ff" fill-opacity="1" stroke="#0000ff" stroke-opacity="1" stroke-width="1" stroke-linecap="square" stroke-linejoin="bevel" transform="matrix(0.5,0,0,0.5,302.5,243.875)"
font-family="Helvetica" font-size="18" font-weight="700" font-style="normal" 
>
<text fill="#0000ff" fill-opacity="1" stroke="none" xml:space="preserve" x="0" y="0" font-family="Helvetica" font-size="18" font-weight="700" font-style="normal" 
 >VNF: 4,5,8</text>
</g>

<g fill="#0000ff" fill-opacity="1" stroke="#0000ff" stroke-opacity="1" stroke-width="1" stroke-linecap="square" stroke-linejoin="bevel" transform="matrix(0.5,0,0,0.5,503,100.875)"
font-family="Helvetica" font-size="18" font-weight="700" font-style="normal" 
>
<text fill="#0000ff" fill-opacity="1" stroke="none" xml:space="preserve" x="0" y="0" font-family="Helvetica" font-size="18" font-weight="700" font-style="normal" 
 >VNF: 4,5,8</text>
</g>

<g fill="#0000ff" fill-opacity="1" stroke="#0000ff" stroke-opacity="1" stroke-width="1" stroke-linecap="square" stroke-linejoin="bevel" transform="matrix(0.5,0,0,0.5,503,148.375)"
font-family="Helvetica" font-size="18" font-weight="700" font-style="normal" 
>
<text fill="#0000ff" fill-opacity="1" stroke="none" xml:space="preserve" x="0" y="0" font-family="Helvetica" font-size="18" font-weight="700" font-style="normal" 
 >VNF: 4,5,8</text>
</g>
</g>
</svg>
