<?xml version="1.0" encoding="UTF-8" standalone="no"?>
<svg width="407.458mm" height="201.083mm"
 viewBox="0 0 1155 570"
 xmlns="http://www.w3.org/2000/svg" xmlns:xlink="http://www.w3.org/1999/xlink"  version="1.2" baseProfile="tiny">
<title>Qt SVG Document</title>
<desc>MATLAB, The MathWorks, Inc. Version 25.2.0.2998904 R2025b</desc>
<defs>
</defs>
<g fill="none" stroke="black" stroke-width="1" fill-rule="evenodd" stroke-linecap="square" stroke-linejoin="bevel" >

<g fill="#ffffff" fill-opacity="1" stroke="none" transform="matrix(1.22534,0,0,0.990826,-396.734,-39.3716)"
font-family="SimSun" font-size="9" font-weight="400" font-style="normal" 
>
<path vector-effect="none" fill-rule="evenodd" d="M323,39 L1267,39 L1267,616 L323,616 L323,39"/>
</g>

<g fill="#212121" fill-opacity="1" stroke="#212121" stroke-opacity="1" stroke-width="1" stroke-linecap="square" stroke-linejoin="bevel" transform="matrix(1.22534,0,0,0.990826,380.13,11.4083)"
font-family="Helvetica" font-size="14" font-weight="400" font-style="normal" 
>
<text fill="#212121" fill-opacity="1" stroke="none" xml:space="preserve" x="0" y="0" font-family="Helvetica" font-size="14" font-weight="400" font-style="normal" 
 >Multicast Service Function Chain Tree (Req ID: 28)</text>
</g>

<g fill="#1171be" fill-opacity="0.501961" stroke="none" transform="matrix(0.000122534,0,0,9.90826e-05,-396.734,-39.3716)"
font-family="Helvetica" font-size="14" font-weight="400" font-style="normal" 
>
<path vector-effect="none" fill-rule="evenodd" d="M6.44748e+06,1.70556e+06 L6.49748e+06,1.57222e+06 L6.44748e+06,1.61889e+06 L6.39748e+06,1.57222e+06 L6.44748e+06,1.70556e+06"/>
</g>

<g fill="#1171be" fill-opacity="0.501961" stroke="none" transform="matrix(0.000122534,0,0,9.90826e-05,-396.734,-39.3716)"
font-family="Helvetica" font-size="14" font-weight="400" font-style="normal" 
>
<path vector-effect="none" fill-rule="evenodd" d="M6.44748e+06,2.48333e+06 L6.49748e+06,2.35e+06 L6.44748e+06,2.39667e+06 L6.39748e+06,2.35e+06 L6.44748e+06,2.48333e+06"/>
</g>

<g fill="#1171be" fill-opacity="0.501961" stroke="none" transform="matrix(0.000122534,0,0,9.90826e-05,-396.734,-39.3716)"
font-family="Helvetica" font-size="14" font-weight="400" font-style="normal" 
>
<path vector-effect="none" fill-rule="evenodd" d="M6.44748e+06,3.26111e+06 L6.49748e+06,3.12778e+06 L6.44748e+06,3.17444e+06 L6.39748e+06,3.12778e+06 L6.44748e+06,3.26111e+06"/>
</g>

<g fill="#1171be" fill-opacity="0.501961" stroke="none" transform="matrix(0.000122534,0,0,9.90826e-05,-396.734,-39.3716)"
font-family="Helvetica" font-size="14" font-weight="400" font-style="normal" 
>
<path vector-effect="none" fill-rule="evenodd" d="M4.94495e+06,4.03889e+06 L5.08656e+06,4.05389e+06 L5.02885e+06,4.01717e+06 L5.0615e+06,3.95708e+06 L4.94495e+06,4.03889e+06"/>
</g>

<g fill="#1171be" fill-opacity="0.501961" stroke="none" transform="matrix(0.000122534,0,0,9.90826e-05,-396.734,-39.3716)"
font-family="Helvetica" font-size="14" font-weight="400" font-style="normal" 
>
<path vector-effect="none" fill-rule="evenodd" d="M6.44748e+06,4.03889e+06 L6.49748e+06,3.90556e+06 L6.44748e+06,3.95222e+06 L6.39748e+06,3.90556e+06 L6.44748e+06,4.03889e+06"/>
</g>

<g fill="#1171be" fill-opacity="0.501961" stroke="none" transform="matrix(0.000122534,0,0,9.90826e-05,-396.734,-39.3716)"
font-family="Helvetica" font-size="14" font-weight="400" font-style="normal" 
>
<path vector-effect="none" fill-rule="evenodd" d="M8.70126e+06,4.03889e+06 L8.57837e+06,3.96695e+06 L8.61586e+06,4.02415e+06 L8.56137e+06,4.06549e+06 L8.70126e+06,4.03889e+06"/>
</g>

<g fill="#1171be" fill-opacity="0.501961" stroke="none" transform="matrix(0.000122534,0,0,9.90826e-05,-396.734,-39.3716)"
font-family="Helvetica" font-size="14" font-weight="400" font-style="normal" 
>
<path vector-effect="none" fill-rule="evenodd" d="M6.44748e+06,4.81667e+06 L6.49748e+06,4.68333e+06 L6.44748e+06,4.73e+06 L6.39748e+06,4.68333e+06 L6.44748e+06,4.81667e+06"/>
</g>

<g fill="#1171be" fill-opacity="0.501961" stroke="none" transform="matrix(0.000122534,0,0,9.90826e-05,-396.734,-39.3716)"
font-family="Helvetica" font-size="14" font-weight="400" font-style="normal" 
>
<path vector-effect="none" fill-rule="evenodd" d="M6.44748e+06,5.59444e+06 L6.49748e+06,5.46111e+06 L6.44748e+06,5.50778e+06 L6.39748e+06,5.46111e+06 L6.44748e+06,5.59444e+06"/>
</g>

<g fill="#1171be" fill-opacity="0.501961" stroke="none" transform="matrix(0.000122534,0,0,9.90826e-05,-396.734,-39.3716)"
font-family="Helvetica" font-size="14" font-weight="400" font-style="normal" 
>
<path vector-effect="none" fill-rule="evenodd" d="M1.02038e+07,4.81667e+06 L1.03452e+07,4.79978e+06 L1.02808e+07,4.77683e+06 L1.02992e+07,4.71097e+06 L1.02038e+07,4.81667e+06"/>
</g>

<g fill="#1171be" fill-opacity="0.501961" stroke="none" transform="matrix(0.000122534,0,0,9.90826e-05,-396.734,-39.3716)"
font-family="Helvetica" font-size="14" font-weight="400" font-style="normal" 
>
<path vector-effect="none" fill-rule="evenodd" d="M1.17063e+07,4.81667e+06 L1.16109e+07,4.71097e+06 L1.16293e+07,4.77683e+06 L1.15649e+07,4.79978e+06 L1.17063e+07,4.81667e+06"/>
</g>

<g fill="#1171be" fill-opacity="0.501961" stroke="#1171be" stroke-opacity="0.501961" stroke-width="1.6" stroke-linecap="butt" stroke-linejoin="round" transform="matrix(1.22534,0,0,0.990826,-396.734,-39.3716)"
font-family="Helvetica" font-size="14" font-weight="400" font-style="normal" 
>
<polyline fill="none" vector-effect="none" points="644.747,131.667 644.747,209.444 " />
<polyline fill="none" vector-effect="none" points="644.747,209.444 644.747,287.222 " />
<polyline fill="none" vector-effect="none" points="644.747,287.222 644.747,365 " />
<polyline fill="none" vector-effect="none" points="644.747,365 344.242,442.778 " />
<polyline fill="none" vector-effect="none" points="644.747,365 644.747,442.778 " />
<polyline fill="none" vector-effect="none" points="644.747,365 1095.51,442.778 " />
<polyline fill="none" vector-effect="none" points="644.747,442.778 644.747,520.556 " />
<polyline fill="none" vector-effect="none" points="644.747,520.556 644.747,598.333 " />
<polyline fill="none" vector-effect="none" points="1095.51,442.778 945.253,520.556 " />
<polyline fill="none" vector-effect="none" points="1095.51,442.778 1245.76,520.556 " />
</g>

<g fill="#999999" fill-opacity="1" stroke="none" transform="matrix(1.22534,0,0,0.990826,-396.734,-39.3716)"
font-family="Helvetica" font-size="14" font-weight="400" font-style="normal" 
>
<circle cx="644.747" cy="209.444" r="4"/>
</g>

<g fill="none" stroke="#999999" stroke-opacity="1" stroke-width="1.33333" stroke-linecap="butt" stroke-linejoin="miter" stroke-miterlimit="2" transform="matrix(1.22534,0,0,0.990826,-396.734,-39.3716)"
font-family="Helvetica" font-size="14" font-weight="400" font-style="normal" 
>
<path vector-effect="none" fill-rule="evenodd" d="M648.747,209.444 C648.747,207.235 646.957,205.444 644.747,205.444 C642.538,205.444 640.747,207.235 640.747,209.444 C640.747,211.654 642.538,213.444 644.747,213.444 C646.957,213.444 648.747,211.654 648.747,209.444 "/>
</g>

<g fill="#999999" fill-opacity="1" stroke="none" transform="matrix(1.22534,0,0,0.990826,-396.734,-39.3716)"
font-family="Helvetica" font-size="14" font-weight="400" font-style="normal" 
>
<circle cx="644.747" cy="442.778" r="4"/>
</g>

<g fill="none" stroke="#999999" stroke-opacity="1" stroke-width="1.33333" stroke-linecap="butt" stroke-linejoin="miter" stroke-miterlimit="2" transform="matrix(1.22534,0,0,0.990826,-396.734,-39.3716)"
font-family="Helvetica" font-size="14" font-weight="400" font-style="normal" 
>
<path vector-effect="none" fill-rule="evenodd" d="M648.747,442.778 C648.747,440.569 646.957,438.778 644.747,438.778 C642.538,438.778 640.747,440.569 640.747,442.778 C640.747,444.987 642.538,446.778 644.747,446.778 C646.957,446.778 648.747,444.987 648.747,442.778 "/>
</g>

<g fill="#999999" fill-opacity="1" stroke="none" transform="matrix(1.22534,0,0,0.990826,-396.734,-39.3716)"
font-family="Helvetica" font-size="14" font-weight="400" font-style="normal" 
>
<circle cx="644.747" cy="520.556" r="4"/>
</g>

<g fill="none" stroke="#999999" stroke-opacity="1" stroke-width="1.33333" stroke-linecap="butt" stroke-linejoin="miter" stroke-miterlimit="2" transform="matrix(1.22534,0,0,0.990826,-396.734,-39.3716)"
font-family="Helvetica" font-size="14" font-weight="400" font-style="normal" 
>
<path vector-effect="none" fill-rule="evenodd" d="M648.747,520.556 C648.747,518.346 646.957,516.556 644.747,516.556 C642.538,516.556 640.747,518.346 640.747,520.556 C640.747,522.765 642.538,524.556 644.747,524.556 C646.957,524.556 648.747,522.765 648.747,520.556 "/>
</g>

<g fill="#999999" fill-opacity="1" stroke="none" transform="matrix(1.22534,0,0,0.990826,-396.734,-39.3716)"
font-family="Helvetica" font-size="14" font-weight="400" font-style="normal" 
>
<circle cx="644.748" cy="287.222" r="5.33333"/>
</g>

<g fill="none" stroke="#999999" stroke-opacity="1" stroke-width="1.33333" stroke-linecap="butt" stroke-linejoin="miter" stroke-miterlimit="2" transform="matrix(1.22534,0,0,0.990826,-396.734,-39.3716)"
font-family="Helvetica" font-size="14" font-weight="400" font-style="normal" 
>
<path vector-effect="none" fill-rule="evenodd" d="M650.081,287.222 C650.081,284.277 647.693,281.889 644.748,281.889 C641.802,281.889 639.414,284.277 639.414,287.222 C639.414,290.168 641.802,292.556 644.748,292.556 C647.693,292.556 650.081,290.168 650.081,287.222 "/>
</g>

<g fill="#999999" fill-opacity="1" stroke="none" transform="matrix(1.22534,0,0,0.990826,-396.734,-39.3716)"
font-family="Helvetica" font-size="14" font-weight="400" font-style="normal" 
>
<circle cx="644.748" cy="365" r="5.33333"/>
</g>

<g fill="none" stroke="#999999" stroke-opacity="1" stroke-width="1.33333" stroke-linecap="butt" stroke-linejoin="miter" stroke-miterlimit="2" transform="matrix(1.22534,0,0,0.990826,-396.734,-39.3716)"
font-family="Helvetica" font-size="14" font-weight="400" font-style="normal" 
>
<path vector-effect="none" fill-rule="evenodd" d="M650.081,365 C650.081,362.054 647.693,359.667 644.748,359.667 C641.802,359.667 639.414,362.054 639.414,365 C639.414,367.946 641.802,370.333 644.748,370.333 C647.693,370.333 650.081,367.946 650.081,365 "/>
</g>

<g fill="#ff0000" fill-opacity="1" stroke="none" transform="matrix(0.000122534,0,0,9.90826e-05,-396.734,-39.3716)"
font-family="Helvetica" font-size="14" font-weight="400" font-style="normal" 
>
<path vector-effect="none" fill-rule="evenodd" d="M3.3917e+06,4.4113e+06 L3.42988e+06,4.4113e+06 L3.44242e+06,4.37444e+06 L3.45496e+06,4.4113e+06 L3.49315e+06,4.4113e+06 L3.46271e+06,4.43437e+06 L3.47377e+06,4.47093e+06 L3.44242e+06,4.44911e+06 L3.41108e+06,4.47093e+06 L3.42214e+06,4.43437e+06 L3.3917e+06,4.4113e+06"/>
</g>

<g fill="none" stroke="#ff0000" stroke-opacity="1" stroke-width="1.33333" stroke-linecap="butt" stroke-linejoin="miter" stroke-miterlimit="2" transform="matrix(1.22534,0,0,0.990826,-396.734,-39.3716)"
font-family="Helvetica" font-size="14" font-weight="400" font-style="normal" 
>
<path vector-effect="none" fill-rule="evenodd" d="M339.17,441.13 L342.988,441.13 L344.242,437.444 L345.496,441.13 L349.315,441.13 L346.271,443.437 L347.377,447.093 L344.242,444.911 L341.108,447.093 L342.214,443.437 L339.17,441.13"/>
</g>

<g fill="#ff0000" fill-opacity="1" stroke="none" transform="matrix(0.000122534,0,0,9.90826e-05,-396.734,-39.3716)"
font-family="Helvetica" font-size="14" font-weight="400" font-style="normal" 
>
<path vector-effect="none" fill-rule="evenodd" d="M6.39675e+06,5.96685e+06 L6.43494e+06,5.96685e+06 L6.44748e+06,5.93e+06 L6.46001e+06,5.96685e+06 L6.4982e+06,5.96685e+06 L6.46776e+06,5.98993e+06 L6.47882e+06,6.02648e+06 L6.44748e+06,6.00467e+06 L6.41613e+06,6.02648e+06 L6.42719e+06,5.98993e+06 L6.39675e+06,5.96685e+06"/>
</g>

<g fill="none" stroke="#ff0000" stroke-opacity="1" stroke-width="1.33333" stroke-linecap="butt" stroke-linejoin="miter" stroke-miterlimit="2" transform="matrix(1.22534,0,0,0.990826,-396.734,-39.3716)"
font-family="Helvetica" font-size="14" font-weight="400" font-style="normal" 
>
<path vector-effect="none" fill-rule="evenodd" d="M639.675,596.685 L643.494,596.685 L644.747,593 L646.001,596.685 L649.82,596.685 L646.776,598.993 L647.882,602.648 L644.747,600.467 L641.613,602.648 L642.719,598.993 L639.675,596.685"/>
</g>

<g fill="#ff0000" fill-opacity="1" stroke="none" transform="matrix(0.000122534,0,0,9.90826e-05,-396.734,-39.3716)"
font-family="Helvetica" font-size="14" font-weight="400" font-style="normal" 
>
<path vector-effect="none" fill-rule="evenodd" d="M1.09043e+07,4.4113e+06 L1.09425e+07,4.4113e+06 L1.09551e+07,4.37444e+06 L1.09676e+07,4.4113e+06 L1.10058e+07,4.4113e+06 L1.09753e+07,4.43437e+06 L1.09864e+07,4.47093e+06 L1.09551e+07,4.44911e+06 L1.09237e+07,4.47093e+06 L1.09348e+07,4.43437e+06 L1.09043e+07,4.4113e+06"/>
</g>

<g fill="none" stroke="#ff0000" stroke-opacity="1" stroke-width="1.33333" stroke-linecap="butt" stroke-linejoin="miter" stroke-miterlimit="2" transform="matrix(1.22534,0,0,0.990826,-396.734,-39.3716)"
font-family="Helvetica" font-size="14" font-weight="400" font-style="normal" 
>
<path vector-effect="none" fill-rule="evenodd" d="M1090.43,441.13 L1094.25,441.13 L1095.51,437.444 L1096.76,441.13 L1100.58,441.13 L1097.53,443.437 L1098.64,447.093 L1095.51,444.911 L1092.37,447.093 L1093.48,443.437 L1090.43,441.13"/>
</g>

<g fill="#ff0000" fill-opacity="1" stroke="none" transform="matrix(0.000122534,0,0,9.90826e-05,-396.734,-39.3716)"
font-family="Helvetica" font-size="14" font-weight="400" font-style="normal" 
>
<path vector-effect="none" fill-rule="evenodd" d="M9.38912e+06,5.18495e+06 L9.43685e+06,5.18495e+06 L9.45253e+06,5.13889e+06 L9.4682e+06,5.18495e+06 L9.51593e+06,5.18495e+06 L9.47789e+06,5.2138e+06 L9.49171e+06,5.25949e+06 L9.45253e+06,5.23222e+06 L9.41334e+06,5.25949e+06 L9.42716e+06,5.2138e+06 L9.38912e+06,5.18495e+06"/>
</g>

<g fill="none" stroke="#ff0000" stroke-opacity="1" stroke-width="1.33333" stroke-linecap="butt" stroke-linejoin="miter" stroke-miterlimit="2" transform="matrix(1.22534,0,0,0.990826,-396.734,-39.3716)"
font-family="Helvetica" font-size="14" font-weight="400" font-style="normal" 
>
<path vector-effect="none" fill-rule="evenodd" d="M938.912,518.495 L943.685,518.495 L945.253,513.889 L946.82,518.495 L951.593,518.495 L947.789,521.38 L949.171,525.949 L945.253,523.222 L941.334,525.949 L942.716,521.38 L938.912,518.495"/>
</g>

<g fill="#ff0000" fill-opacity="1" stroke="none" transform="matrix(0.000122534,0,0,9.90826e-05,-396.734,-39.3716)"
font-family="Helvetica" font-size="14" font-weight="400" font-style="normal" 
>
<path vector-effect="none" fill-rule="evenodd" d="M1.23942e+07,5.18495e+06 L1.24419e+07,5.18495e+06 L1.24576e+07,5.13889e+06 L1.24733e+07,5.18495e+06 L1.2521e+07,5.18495e+06 L1.24829e+07,5.2138e+06 L1.24968e+07,5.25949e+06 L1.24576e+07,5.23222e+06 L1.24184e+07,5.25949e+06 L1.24322e+07,5.2138e+06 L1.23942e+07,5.18495e+06"/>
</g>

<g fill="none" stroke="#ff0000" stroke-opacity="1" stroke-width="1.33333" stroke-linecap="butt" stroke-linejoin="miter" stroke-miterlimit="2" transform="matrix(1.22534,0,0,0.990826,-396.734,-39.3716)"
font-family="Helvetica" font-size="14" font-weight="400" font-style="normal" 
>
<path vector-effect="none" fill-rule="evenodd" d="M1239.42,518.495 L1244.19,518.495 L1245.76,513.889 L1247.32,518.495 L1252.1,518.495 L1248.29,521.38 L1249.68,525.949 L1245.76,523.222 L1241.84,525.949 L1243.22,521.38 L1239.42,518.495"/>
</g>

<g fill="#ff0000" fill-opacity="1" stroke="none" transform="matrix(0.000122534,0,0,9.90826e-05,-396.734,-39.3716)"
font-family="Helvetica" font-size="14" font-weight="400" font-style="normal" 
>
<path vector-effect="none" fill-rule="evenodd" d="M6.39548e+06,1.26467e+06 L6.39548e+06,1.36867e+06 L6.49948e+06,1.36867e+06 L6.49948e+06,1.26467e+06 L6.39548e+06,1.26467e+06"/>
</g>

<g fill="none" stroke="#ff0000" stroke-opacity="1" stroke-width="1.33333" stroke-linecap="butt" stroke-linejoin="miter" stroke-miterlimit="2" transform="matrix(1.22534,0,0,0.990826,-396.734,-39.3716)"
font-family="Helvetica" font-size="14" font-weight="400" font-style="normal" 
>
<path vector-effect="none" fill-rule="evenodd" d="M639.547,126.467 L639.547,136.867 L649.948,136.867 L649.948,126.467 L639.547,126.467"/>
</g>

<g fill="#212121" fill-opacity="1" stroke="#212121" stroke-opacity="1" stroke-width="1" stroke-linecap="square" stroke-linejoin="bevel" transform="matrix(1.15144,0.338882,-0.419089,0.931072,398.321,97.3103)"
font-family="Helvetica" font-size="13" font-weight="400" font-style="normal" 
>
<text fill="#212121" fill-opacity="1" stroke="none" xml:space="preserve" x="0" y="0" font-family="Helvetica" font-size="13" font-weight="400" font-style="normal" 
 >9</text>
</g>

<g fill="#212121" fill-opacity="1" stroke="#212121" stroke-opacity="1" stroke-width="1" stroke-linecap="square" stroke-linejoin="bevel" transform="matrix(1.15144,0.338882,-0.419089,0.931072,398.321,174.374)"
font-family="Helvetica" font-size="13" font-weight="400" font-style="normal" 
>
<text fill="#212121" fill-opacity="1" stroke="none" xml:space="preserve" x="0" y="0" font-family="Helvetica" font-size="13" font-weight="400" font-style="normal" 
 >11</text>
</g>

<g fill="#212121" fill-opacity="1" stroke="#212121" stroke-opacity="1" stroke-width="1" stroke-linecap="square" stroke-linejoin="bevel" transform="matrix(1.15144,0.338882,-0.419089,0.931072,398.321,251.439)"
font-family="Helvetica" font-size="13" font-weight="400" font-style="normal" 
>
<text fill="#212121" fill-opacity="1" stroke="none" xml:space="preserve" x="0" y="0" font-family="Helvetica" font-size="13" font-weight="400" font-style="normal" 
 >14</text>
</g>

<g fill="#212121" fill-opacity="1" stroke="#212121" stroke-opacity="1" stroke-width="1" stroke-linecap="square" stroke-linejoin="bevel" transform="matrix(1.15144,0.338882,-0.419089,0.931072,30.1011,405.567)"
font-family="Helvetica" font-size="13" font-weight="400" font-style="normal" 
>
<text fill="#212121" fill-opacity="1" stroke="none" xml:space="preserve" x="0" y="0" font-family="Helvetica" font-size="13" font-weight="400" font-style="normal" 
 >15</text>
</g>

<g fill="#212121" fill-opacity="1" stroke="#212121" stroke-opacity="1" stroke-width="1" stroke-linecap="square" stroke-linejoin="bevel" transform="matrix(1.15144,0.338882,-0.419089,0.931072,398.321,328.503)"
font-family="Helvetica" font-size="13" font-weight="400" font-style="normal" 
>
<text fill="#212121" fill-opacity="1" stroke="none" xml:space="preserve" x="0" y="0" font-family="Helvetica" font-size="13" font-weight="400" font-style="normal" 
 >17</text>
</g>

<g fill="#212121" fill-opacity="1" stroke="#212121" stroke-opacity="1" stroke-width="1" stroke-linecap="square" stroke-linejoin="bevel" transform="matrix(1.15144,0.338882,-0.419089,0.931072,398.321,405.567)"
font-family="Helvetica" font-size="13" font-weight="400" font-style="normal" 
>
<text fill="#212121" fill-opacity="1" stroke="none" xml:space="preserve" x="0" y="0" font-family="Helvetica" font-size="13" font-weight="400" font-style="normal" 
 >18</text>
</g>

<g fill="#212121" fill-opacity="1" stroke="#212121" stroke-opacity="1" stroke-width="1" stroke-linecap="square" stroke-linejoin="bevel" transform="matrix(1.15144,0.338882,-0.419089,0.931072,398.321,482.631)"
font-family="Helvetica" font-size="13" font-weight="400" font-style="normal" 
>
<text fill="#212121" fill-opacity="1" stroke="none" xml:space="preserve" x="0" y="0" font-family="Helvetica" font-size="13" font-weight="400" font-style="normal" 
 >19</text>
</g>

<g fill="#212121" fill-opacity="1" stroke="#212121" stroke-opacity="1" stroke-width="1" stroke-linecap="square" stroke-linejoin="bevel" transform="matrix(1.15144,0.338882,-0.419089,0.931072,398.321,559.696)"
font-family="Helvetica" font-size="13" font-weight="400" font-style="normal" 
>
<text fill="#212121" fill-opacity="1" stroke="none" xml:space="preserve" x="0" y="0" font-family="Helvetica" font-size="13" font-weight="400" font-style="normal" 
 >22</text>
</g>

<g fill="#212121" fill-opacity="1" stroke="#212121" stroke-opacity="1" stroke-width="1" stroke-linecap="square" stroke-linejoin="bevel" transform="matrix(1.15144,0.338882,-0.419089,0.931072,950.65,405.567)"
font-family="Helvetica" font-size="13" font-weight="400" font-style="normal" 
>
<text fill="#212121" fill-opacity="1" stroke="none" xml:space="preserve" x="0" y="0" font-family="Helvetica" font-size="13" font-weight="400" font-style="normal" 
 >23</text>
</g>

<g fill="#212121" fill-opacity="1" stroke="#212121" stroke-opacity="1" stroke-width="1" stroke-linecap="square" stroke-linejoin="bevel" transform="matrix(1.15144,0.338882,-0.419089,0.931072,766.54,482.631)"
font-family="Helvetica" font-size="13" font-weight="400" font-style="normal" 
>
<text fill="#212121" fill-opacity="1" stroke="none" xml:space="preserve" x="0" y="0" font-family="Helvetica" font-size="13" font-weight="400" font-style="normal" 
 >24</text>
</g>

<g fill="#212121" fill-opacity="1" stroke="#212121" stroke-opacity="1" stroke-width="1" stroke-linecap="square" stroke-linejoin="bevel" transform="matrix(1.15144,0.338882,-0.419089,0.931072,1134.76,482.631)"
font-family="Helvetica" font-size="13" font-weight="400" font-style="normal" 
>
<text fill="#212121" fill-opacity="1" stroke="none" xml:space="preserve" x="0" y="0" font-family="Helvetica" font-size="13" font-weight="400" font-style="normal" 
 >28</text>
</g>

<g fill="#212121" fill-opacity="1" stroke="#212121" stroke-opacity="1" stroke-width="1" stroke-linecap="square" stroke-linejoin="bevel" transform="matrix(0,0.990826,-1.22534,0,396.974,122.683)"
font-family="Helvetica" font-size="13" font-weight="400" font-style="italic" 
>
<text fill="#212121" fill-opacity="1" stroke="none" xml:space="preserve" x="0" y="0" font-family="Helvetica" font-size="13" font-weight="400" font-style="italic" 
 >26</text>
</g>

<g fill="#212121" fill-opacity="1" stroke="#212121" stroke-opacity="1" stroke-width="1" stroke-linecap="square" stroke-linejoin="bevel" transform="matrix(0,0.990826,-1.22534,0,396.974,199.748)"
font-family="Helvetica" font-size="13" font-weight="400" font-style="italic" 
>
<text fill="#212121" fill-opacity="1" stroke="none" xml:space="preserve" x="0" y="0" font-family="Helvetica" font-size="13" font-weight="400" font-style="italic" 
 >32</text>
</g>

<g fill="#212121" fill-opacity="1" stroke="#212121" stroke-opacity="1" stroke-width="1" stroke-linecap="square" stroke-linejoin="bevel" transform="matrix(0,0.990826,-1.22534,0,396.974,276.812)"
font-family="Helvetica" font-size="13" font-weight="400" font-style="italic" 
>
<text fill="#212121" fill-opacity="1" stroke="none" xml:space="preserve" x="0" y="0" font-family="Helvetica" font-size="13" font-weight="400" font-style="italic" 
 >43</text>
</g>

<g fill="#212121" fill-opacity="1" stroke="#212121" stroke-opacity="1" stroke-width="1" stroke-linecap="square" stroke-linejoin="bevel" transform="matrix(1.18625,-0.248268,0.307028,0.959218,199.963,359.672)"
font-family="Helvetica" font-size="13" font-weight="400" font-style="italic" 
>
<text fill="#212121" fill-opacity="1" stroke="none" xml:space="preserve" x="0" y="0" font-family="Helvetica" font-size="13" font-weight="400" font-style="italic" 
 >51</text>
</g>

<g fill="#212121" fill-opacity="1" stroke="#212121" stroke-opacity="1" stroke-width="1" stroke-linecap="square" stroke-linejoin="bevel" transform="matrix(0,0.990826,-1.22534,0,396.974,353.876)"
font-family="Helvetica" font-size="13" font-weight="400" font-style="italic" 
>
<text fill="#212121" fill-opacity="1" stroke="none" xml:space="preserve" x="0" y="0" font-family="Helvetica" font-size="13" font-weight="400" font-style="italic" 
 >52</text>
</g>

<g fill="#212121" fill-opacity="1" stroke="#212121" stroke-opacity="1" stroke-width="1" stroke-linecap="square" stroke-linejoin="bevel" transform="matrix(1.20749,0.168476,-0.208352,0.976397,661.635,356.703)"
font-family="Helvetica" font-size="13" font-weight="400" font-style="italic" 
>
<text fill="#212121" fill-opacity="1" stroke="none" xml:space="preserve" x="0" y="0" font-family="Helvetica" font-size="13" font-weight="400" font-style="italic" 
 >54</text>
</g>

<g fill="#212121" fill-opacity="1" stroke="#212121" stroke-opacity="1" stroke-width="1" stroke-linecap="square" stroke-linejoin="bevel" transform="matrix(0,0.990826,-1.22534,0,396.974,430.94)"
font-family="Helvetica" font-size="13" font-weight="400" font-style="italic" 
>
<text fill="#212121" fill-opacity="1" stroke="none" xml:space="preserve" x="0" y="0" font-family="Helvetica" font-size="13" font-weight="400" font-style="italic" 
 >57</text>
</g>

<g fill="#212121" fill-opacity="1" stroke="#212121" stroke-opacity="1" stroke-width="1" stroke-linecap="square" stroke-linejoin="bevel" transform="matrix(0,0.990826,-1.22534,0,396.974,508.005)"
font-family="Helvetica" font-size="13" font-weight="400" font-style="italic" 
>
<text fill="#212121" fill-opacity="1" stroke="none" xml:space="preserve" x="0" y="0" font-family="Helvetica" font-size="13" font-weight="400" font-style="italic" 
 >62</text>
</g>

<g fill="#212121" fill-opacity="1" stroke="#212121" stroke-opacity="1" stroke-width="1" stroke-linecap="square" stroke-linejoin="bevel" transform="matrix(1.08818,-0.45549,0.563295,0.879923,844.265,438.425)"
font-family="Helvetica" font-size="13" font-weight="400" font-style="italic" 
>
<text fill="#212121" fill-opacity="1" stroke="none" xml:space="preserve" x="0" y="0" font-family="Helvetica" font-size="13" font-weight="400" font-style="italic" 
 >74</text>
</g>

<g fill="#212121" fill-opacity="1" stroke="#212121" stroke-opacity="1" stroke-width="1" stroke-linecap="square" stroke-linejoin="bevel" transform="matrix(1.08818,0.45549,-0.563295,0.879923,1031.75,432.048)"
font-family="Helvetica" font-size="13" font-weight="400" font-style="italic" 
>
<text fill="#212121" fill-opacity="1" stroke="none" xml:space="preserve" x="0" y="0" font-family="Helvetica" font-size="13" font-weight="400" font-style="italic" 
 >76</text>
</g>

<g fill="#ff0000" fill-opacity="1" stroke="#ff0000" stroke-opacity="1" stroke-width="1" stroke-linecap="square" stroke-linejoin="bevel" transform="matrix(1.22534,0,0,0.990826,366.341,83.9862)"
font-family="Helvetica" font-size="13" font-weight="700" font-style="normal" 
>
<text fill="#ff0000" fill-opacity="1" stroke="none" xml:space="preserve" x="0" y="0" font-family="Helvetica" font-size="13" font-weight="700" font-style="normal" 
 >Source</text>
</g>

<g fill="#ff0000" fill-opacity="1" stroke="#ff0000" stroke-opacity="1" stroke-width="1" stroke-linecap="square" stroke-linejoin="bevel" transform="matrix(1.22534,0,0,0.990826,753.553,491.436)"
font-family="Helvetica" font-size="10" font-weight="400" font-style="normal" 
>
<text fill="#ff0000" fill-opacity="1" stroke="none" xml:space="preserve" x="0" y="0" font-family="Helvetica" font-size="10" font-weight="400" font-style="normal" 
 >D1</text>
</g>

<g fill="#ff0000" fill-opacity="1" stroke="#ff0000" stroke-opacity="1" stroke-width="1" stroke-linecap="square" stroke-linejoin="bevel" transform="matrix(1.22534,0,0,0.990826,1121.77,491.436)"
font-family="Helvetica" font-size="10" font-weight="400" font-style="normal" 
>
<text fill="#ff0000" fill-opacity="1" stroke="none" xml:space="preserve" x="0" y="0" font-family="Helvetica" font-size="10" font-weight="400" font-style="normal" 
 >D2</text>
</g>

<g fill="#ff0000" fill-opacity="1" stroke="#ff0000" stroke-opacity="1" stroke-width="1" stroke-linecap="square" stroke-linejoin="bevel" transform="matrix(1.22534,0,0,0.990826,385.333,568.5)"
font-family="Helvetica" font-size="10" font-weight="400" font-style="normal" 
>
<text fill="#ff0000" fill-opacity="1" stroke="none" xml:space="preserve" x="0" y="0" font-family="Helvetica" font-size="10" font-weight="400" font-style="normal" 
 >D3</text>
</g>

<g fill="#ff0000" fill-opacity="1" stroke="#ff0000" stroke-opacity="1" stroke-width="1" stroke-linecap="square" stroke-linejoin="bevel" transform="matrix(1.22534,0,0,0.990826,937.662,414.372)"
font-family="Helvetica" font-size="10" font-weight="400" font-style="normal" 
>
<text fill="#ff0000" fill-opacity="1" stroke="none" xml:space="preserve" x="0" y="0" font-family="Helvetica" font-size="10" font-weight="400" font-style="normal" 
 >D4</text>
</g>

<g fill="#ff0000" fill-opacity="1" stroke="#ff0000" stroke-opacity="1" stroke-width="1" stroke-linecap="square" stroke-linejoin="bevel" transform="matrix(1.22534,0,0,0.990826,17.1138,414.372)"
font-family="Helvetica" font-size="10" font-weight="400" font-style="normal" 
>
<text fill="#ff0000" fill-opacity="1" stroke="none" xml:space="preserve" x="0" y="0" font-family="Helvetica" font-size="10" font-weight="400" font-style="normal" 
 >D5</text>
</g>

<g fill="#0000ff" fill-opacity="1" stroke="#0000ff" stroke-opacity="1" stroke-width="1" stroke-linecap="square" stroke-linejoin="bevel" transform="matrix(1.22534,0,0,0.990826,370.326,234.096)"
font-family="Helvetica" font-size="12" font-weight="700" font-style="normal" 
>
<text fill="#0000ff" fill-opacity="1" stroke="none" xml:space="preserve" x="0" y="0" font-family="Helvetica" font-size="12" font-weight="700" font-style="normal" 
 >VNF: 6</text>
</g>

<g fill="#0000ff" fill-opacity="1" stroke="#0000ff" stroke-opacity="1" stroke-width="1" stroke-linecap="square" stroke-linejoin="bevel" transform="matrix(1.22534,0,0,0.990826,1.5,387.674)"
font-family="Helvetica" font-size="12" font-weight="700" font-style="normal" 
>
<text fill="#0000ff" fill-opacity="1" stroke="none" xml:space="preserve" x="0" y="0" font-family="Helvetica" font-size="12" font-weight="700" font-style="normal" 
 >VNF: 2</text>
</g>

<g fill="#0000ff" fill-opacity="1" stroke="#0000ff" stroke-opacity="1" stroke-width="1" stroke-linecap="square" stroke-linejoin="bevel" transform="matrix(1.22534,0,0,0.990826,370.326,310.39)"
font-family="Helvetica" font-size="12" font-weight="700" font-style="normal" 
>
<text fill="#0000ff" fill-opacity="1" stroke="none" xml:space="preserve" x="0" y="0" font-family="Helvetica" font-size="12" font-weight="700" font-style="normal" 
 >VNF: 8</text>
</g>

<g fill="#0000ff" fill-opacity="1" stroke="#0000ff" stroke-opacity="1" stroke-width="1" stroke-linecap="square" stroke-linejoin="bevel" transform="matrix(1.22534,0,0,0.990826,370.326,542.243)"
font-family="Helvetica" font-size="12" font-weight="700" font-style="normal" 
>
<text fill="#0000ff" fill-opacity="1" stroke="none" xml:space="preserve" x="0" y="0" font-family="Helvetica" font-size="12" font-weight="700" font-style="normal" 
 >VNF: 2</text>
</g>

<g fill="#0000ff" fill-opacity="1" stroke="#0000ff" stroke-opacity="1" stroke-width="1" stroke-linecap="square" stroke-linejoin="bevel" transform="matrix(1.22534,0,0,0.990826,922.952,387.674)"
font-family="Helvetica" font-size="12" font-weight="700" font-style="normal" 
>
<text fill="#0000ff" fill-opacity="1" stroke="none" xml:space="preserve" x="0" y="0" font-family="Helvetica" font-size="12" font-weight="700" font-style="normal" 
 >VNF: 2</text>
</g>
</g>
</svg>
