<?xml version="1.0" encoding="UTF-8" standalone="no"?>
<svg width="246.944mm" height="153.106mm"
 viewBox="0 0 700 434"
 xmlns="http://www.w3.org/2000/svg" xmlns:xlink="http://www.w3.org/1999/xlink"  version="1.2" baseProfile="tiny">
<title>Qt SVG Document</title>
<desc>MATLAB, The MathWorks, Inc. Version 25.2.0.2998904 R2025b</desc>
<defs>
</defs>
<g fill="none" stroke="black" stroke-width="1" fill-rule="evenodd" stroke-linecap="square" stroke-linejoin="bevel" >

<g fill="#ffffff" fill-opacity="1" stroke="none" transform="matrix(0.75,0,0,0.75,-251.427,-29.4375)"
font-family="SimSun" font-size="9" font-weight="400" font-style="normal" 
>
<path vector-effect="none" fill-rule="evenodd" d="M334,38 L1268,38 L1268,618 L334,618 L334,38"/>
</g>

<g fill="#212121" fill-opacity="1" stroke="#212121" stroke-opacity="1" stroke-width="1" stroke-linecap="square" stroke-linejoin="bevel" transform="matrix(0.75,0,0,0.75,227.074,9)"
font-family="Helvetica" font-size="14" font-weight="400" font-style="normal" 
>
<text fill="#212121" fill-opacity="1" stroke="none" xml:space="preserve" x="0" y="0" font-family="Helvetica" font-size="14" font-weight="400" font-style="normal" 
 >Multicast Service Function Chain Tree (Req ID: 3)</text>
</g>

<g fill="#1171be" fill-opacity="0.501961" stroke="none" transform="matrix(7.5e-05,0,0,7.5e-05,-251.427,-29.4375)"
font-family="Helvetica" font-size="14" font-weight="400" font-style="normal" 
>
<path vector-effect="none" fill-rule="evenodd" d="M9.07689e+06,1.78333e+06 L8.97284e+06,1.68612e+06 L8.99682e+06,1.75017e+06 L8.93458e+06,1.77851e+06 L9.07689e+06,1.78333e+06"/>
</g>

<g fill="#1171be" fill-opacity="0.501961" stroke="none" transform="matrix(7.5e-05,0,0,7.5e-05,-251.427,-29.4375)"
font-family="Helvetica" font-size="14" font-weight="400" font-style="normal" 
>
<path vector-effect="none" fill-rule="evenodd" d="M6.82311e+06,1.78333e+06 L6.96543e+06,1.77851e+06 L6.90318e+06,1.75017e+06 L6.92716e+06,1.68612e+06 L6.82311e+06,1.78333e+06"/>
</g>

<g fill="#1171be" fill-opacity="0.501961" stroke="none" transform="matrix(7.5e-05,0,0,7.5e-05,-251.427,-29.4375)"
font-family="Helvetica" font-size="14" font-weight="400" font-style="normal" 
>
<path vector-effect="none" fill-rule="evenodd" d="M4.56932e+06,2.71667e+06 L4.71164e+06,2.71185e+06 L4.64939e+06,2.68351e+06 L4.67338e+06,2.61946e+06 L4.56932e+06,2.71667e+06"/>
</g>

<g fill="#1171be" fill-opacity="0.501961" stroke="none" transform="matrix(7.5e-05,0,0,7.5e-05,-251.427,-29.4375)"
font-family="Helvetica" font-size="14" font-weight="400" font-style="normal" 
>
<path vector-effect="none" fill-rule="evenodd" d="M6.82311e+06,2.71667e+06 L6.71905e+06,2.61946e+06 L6.74303e+06,2.68351e+06 L6.68079e+06,2.71185e+06 L6.82311e+06,2.71667e+06"/>
</g>

<g fill="#1171be" fill-opacity="0.501961" stroke="none" transform="matrix(7.5e-05,0,0,7.5e-05,-251.427,-29.4375)"
font-family="Helvetica" font-size="14" font-weight="400" font-style="normal" 
>
<path vector-effect="none" fill-rule="evenodd" d="M6.82311e+06,3.65e+06 L6.96543e+06,3.64518e+06 L6.90318e+06,3.61684e+06 L6.92716e+06,3.55279e+06 L6.82311e+06,3.65e+06"/>
</g>

<g fill="#1171be" fill-opacity="0.501961" stroke="none" transform="matrix(7.5e-05,0,0,7.5e-05,-251.427,-29.4375)"
font-family="Helvetica" font-size="14" font-weight="400" font-style="normal" 
>
<path vector-effect="none" fill-rule="evenodd" d="M9.07689e+06,3.65e+06 L8.97284e+06,3.55279e+06 L8.99682e+06,3.61684e+06 L8.93458e+06,3.64518e+06 L9.07689e+06,3.65e+06"/>
</g>

<g fill="#1171be" fill-opacity="0.501961" stroke="none" transform="matrix(7.5e-05,0,0,7.5e-05,-251.427,-29.4375)"
font-family="Helvetica" font-size="14" font-weight="400" font-style="normal" 
>
<path vector-effect="none" fill-rule="evenodd" d="M9.07689e+06,4.58333e+06 L9.21921e+06,4.57851e+06 L9.15697e+06,4.55017e+06 L9.18095e+06,4.48612e+06 L9.07689e+06,4.58333e+06"/>
</g>

<g fill="#1171be" fill-opacity="0.501961" stroke="none" transform="matrix(7.5e-05,0,0,7.5e-05,-251.427,-29.4375)"
font-family="Helvetica" font-size="14" font-weight="400" font-style="normal" 
>
<path vector-effect="none" fill-rule="evenodd" d="M1.13307e+07,4.58333e+06 L1.12266e+07,4.48612e+06 L1.12506e+07,4.55017e+06 L1.11884e+07,4.57851e+06 L1.13307e+07,4.58333e+06"/>
</g>

<g fill="#1171be" fill-opacity="0.501961" stroke="none" transform="matrix(7.5e-05,0,0,7.5e-05,-251.427,-29.4375)"
font-family="Helvetica" font-size="14" font-weight="400" font-style="normal" 
>
<path vector-effect="none" fill-rule="evenodd" d="M1.24576e+07,5.51667e+06 L1.25076e+07,5.38333e+06 L1.24576e+07,5.43e+06 L1.24076e+07,5.38333e+06 L1.24576e+07,5.51667e+06"/>
</g>

<g fill="#1171be" fill-opacity="0.501961" stroke="#1171be" stroke-opacity="0.501961" stroke-width="1.6" stroke-linecap="butt" stroke-linejoin="round" transform="matrix(0.75,0,0,0.75,-251.427,-29.4375)"
font-family="Helvetica" font-size="14" font-weight="400" font-style="normal" 
>
<polyline fill="none" vector-effect="none" points="795,131.667 1020.38,225 " />
<polyline fill="none" vector-effect="none" points="795,131.667 569.621,225 " />
<polyline fill="none" vector-effect="none" points="569.621,225 344.242,318.333 " />
<polyline fill="none" vector-effect="none" points="569.621,225 795,318.333 " />
<polyline fill="none" vector-effect="none" points="795,318.333 569.621,411.667 " />
<polyline fill="none" vector-effect="none" points="795,318.333 1020.38,411.667 " />
<polyline fill="none" vector-effect="none" points="1020.38,411.667 795,505 " />
<polyline fill="none" vector-effect="none" points="1020.38,411.667 1245.76,505 " />
<polyline fill="none" vector-effect="none" points="1245.76,505 1245.76,598.333 " />
</g>

<g fill="#999999" fill-opacity="1" stroke="none" transform="matrix(0.75,0,0,0.75,-251.427,-29.4375)"
font-family="Helvetica" font-size="14" font-weight="400" font-style="normal" 
>
<circle cx="795" cy="318.333" r="4"/>
</g>

<g fill="none" stroke="#999999" stroke-opacity="1" stroke-width="1.33333" stroke-linecap="butt" stroke-linejoin="miter" stroke-miterlimit="2" transform="matrix(0.75,0,0,0.75,-251.427,-29.4375)"
font-family="Helvetica" font-size="14" font-weight="400" font-style="normal" 
>
<path vector-effect="none" fill-rule="evenodd" d="M799,318.333 C799,316.124 797.209,314.333 795,314.333 C792.791,314.333 791,316.124 791,318.333 C791,320.542 792.791,322.333 795,322.333 C797.209,322.333 799,320.542 799,318.333 "/>
</g>

<g fill="#999999" fill-opacity="1" stroke="none" transform="matrix(0.75,0,0,0.75,-251.427,-29.4375)"
font-family="Helvetica" font-size="14" font-weight="400" font-style="normal" 
>
<circle cx="1020.38" cy="411.667" r="4"/>
</g>

<g fill="none" stroke="#999999" stroke-opacity="1" stroke-width="1.33333" stroke-linecap="butt" stroke-linejoin="miter" stroke-miterlimit="2" transform="matrix(0.75,0,0,0.75,-251.427,-29.4375)"
font-family="Helvetica" font-size="14" font-weight="400" font-style="normal" 
>
<path vector-effect="none" fill-rule="evenodd" d="M1024.38,411.667 C1024.38,409.458 1022.59,407.667 1020.38,407.667 C1018.17,407.667 1016.38,409.458 1016.38,411.667 C1016.38,413.876 1018.17,415.667 1020.38,415.667 C1022.59,415.667 1024.38,413.876 1024.38,411.667 "/>
</g>

<g fill="#999999" fill-opacity="1" stroke="none" transform="matrix(0.75,0,0,0.75,-251.427,-29.4375)"
font-family="Helvetica" font-size="14" font-weight="400" font-style="normal" 
>
<circle cx="1245.76" cy="505" r="4"/>
</g>

<g fill="none" stroke="#999999" stroke-opacity="1" stroke-width="1.33333" stroke-linecap="butt" stroke-linejoin="miter" stroke-miterlimit="2" transform="matrix(0.75,0,0,0.75,-251.427,-29.4375)"
font-family="Helvetica" font-size="14" font-weight="400" font-style="normal" 
>
<path vector-effect="none" fill-rule="evenodd" d="M1249.76,505 C1249.76,502.791 1247.97,501 1245.76,501 C1243.55,501 1241.76,502.791 1241.76,505 C1241.76,507.209 1243.55,509 1245.76,509 C1247.97,509 1249.76,507.209 1249.76,505 "/>
</g>

<g fill="#999999" fill-opacity="1" stroke="none" transform="matrix(0.75,0,0,0.75,-251.427,-29.4375)"
font-family="Helvetica" font-size="14" font-weight="400" font-style="normal" 
>
<circle cx="569.621" cy="225" r="5.33333"/>
</g>

<g fill="none" stroke="#999999" stroke-opacity="1" stroke-width="1.33333" stroke-linecap="butt" stroke-linejoin="miter" stroke-miterlimit="2" transform="matrix(0.75,0,0,0.75,-251.427,-29.4375)"
font-family="Helvetica" font-size="14" font-weight="400" font-style="normal" 
>
<path vector-effect="none" fill-rule="evenodd" d="M574.955,225 C574.955,222.054 572.567,219.667 569.621,219.667 C566.676,219.667 564.288,222.054 564.288,225 C564.288,227.946 566.676,230.333 569.621,230.333 C572.567,230.333 574.955,227.946 574.955,225 "/>
</g>

<g fill="#ff0000" fill-opacity="1" stroke="none" transform="matrix(7.5e-05,0,0,7.5e-05,-251.427,-29.4375)"
font-family="Helvetica" font-size="14" font-weight="400" font-style="normal" 
>
<path vector-effect="none" fill-rule="evenodd" d="M1.01531e+07,2.23352e+06 L1.01912e+07,2.23352e+06 L1.02038e+07,2.19667e+06 L1.02163e+07,2.23352e+06 L1.02545e+07,2.23352e+06 L1.02241e+07,2.25659e+06 L1.02351e+07,2.29315e+06 L1.02038e+07,2.27133e+06 L1.01724e+07,2.29315e+06 L1.01835e+07,2.25659e+06 L1.01531e+07,2.23352e+06"/>
</g>

<g fill="none" stroke="#ff0000" stroke-opacity="1" stroke-width="1.33333" stroke-linecap="butt" stroke-linejoin="miter" stroke-miterlimit="2" transform="matrix(0.75,0,0,0.75,-251.427,-29.4375)"
font-family="Helvetica" font-size="14" font-weight="400" font-style="normal" 
>
<path vector-effect="none" fill-rule="evenodd" d="M1015.31,223.352 L1019.12,223.352 L1020.38,219.667 L1021.63,223.352 L1025.45,223.352 L1022.41,225.659 L1023.51,229.315 L1020.38,227.133 L1017.24,229.315 L1018.35,225.659 L1015.31,223.352"/>
</g>

<g fill="#ff0000" fill-opacity="1" stroke="none" transform="matrix(7.5e-05,0,0,7.5e-05,-251.427,-29.4375)"
font-family="Helvetica" font-size="14" font-weight="400" font-style="normal" 
>
<path vector-effect="none" fill-rule="evenodd" d="M3.37902e+06,3.16273e+06 L3.42675e+06,3.16273e+06 L3.44242e+06,3.11667e+06 L3.4581e+06,3.16273e+06 L3.50583e+06,3.16273e+06 L3.46779e+06,3.19157e+06 L3.48161e+06,3.23727e+06 L3.44242e+06,3.21e+06 L3.40324e+06,3.23727e+06 L3.41706e+06,3.19157e+06 L3.37902e+06,3.16273e+06"/>
</g>

<g fill="none" stroke="#ff0000" stroke-opacity="1" stroke-width="1.33333" stroke-linecap="butt" stroke-linejoin="miter" stroke-miterlimit="2" transform="matrix(0.75,0,0,0.75,-251.427,-29.4375)"
font-family="Helvetica" font-size="14" font-weight="400" font-style="normal" 
>
<path vector-effect="none" fill-rule="evenodd" d="M337.902,316.273 L342.675,316.273 L344.242,311.667 L345.81,316.273 L350.583,316.273 L346.779,319.157 L348.161,323.727 L344.242,321 L340.324,323.727 L341.706,319.157 L337.902,316.273"/>
</g>

<g fill="#ff0000" fill-opacity="1" stroke="none" transform="matrix(7.5e-05,0,0,7.5e-05,-251.427,-29.4375)"
font-family="Helvetica" font-size="14" font-weight="400" font-style="normal" 
>
<path vector-effect="none" fill-rule="evenodd" d="M5.63281e+06,4.09607e+06 L5.68054e+06,4.09607e+06 L5.69621e+06,4.05e+06 L5.71189e+06,4.09607e+06 L5.75962e+06,4.09607e+06 L5.72157e+06,4.12491e+06 L5.7354e+06,4.1706e+06 L5.69621e+06,4.14333e+06 L5.65703e+06,4.1706e+06 L5.67085e+06,4.12491e+06 L5.63281e+06,4.09607e+06"/>
</g>

<g fill="none" stroke="#ff0000" stroke-opacity="1" stroke-width="1.33333" stroke-linecap="butt" stroke-linejoin="miter" stroke-miterlimit="2" transform="matrix(0.75,0,0,0.75,-251.427,-29.4375)"
font-family="Helvetica" font-size="14" font-weight="400" font-style="normal" 
>
<path vector-effect="none" fill-rule="evenodd" d="M563.281,409.607 L568.054,409.607 L569.621,405 L571.189,409.607 L575.962,409.607 L572.157,412.491 L573.54,417.06 L569.621,414.333 L565.703,417.06 L567.085,412.491 L563.281,409.607"/>
</g>

<g fill="#ff0000" fill-opacity="1" stroke="none" transform="matrix(7.5e-05,0,0,7.5e-05,-251.427,-29.4375)"
font-family="Helvetica" font-size="14" font-weight="400" font-style="normal" 
>
<path vector-effect="none" fill-rule="evenodd" d="M7.8866e+06,5.0294e+06 L7.93433e+06,5.0294e+06 L7.95e+06,4.98333e+06 L7.96567e+06,5.0294e+06 L8.0134e+06,5.0294e+06 L7.97536e+06,5.05824e+06 L7.98919e+06,5.10393e+06 L7.95e+06,5.07667e+06 L7.91081e+06,5.10393e+06 L7.92464e+06,5.05824e+06 L7.8866e+06,5.0294e+06"/>
</g>

<g fill="none" stroke="#ff0000" stroke-opacity="1" stroke-width="1.33333" stroke-linecap="butt" stroke-linejoin="miter" stroke-miterlimit="2" transform="matrix(0.75,0,0,0.75,-251.427,-29.4375)"
font-family="Helvetica" font-size="14" font-weight="400" font-style="normal" 
>
<path vector-effect="none" fill-rule="evenodd" d="M788.66,502.94 L793.433,502.94 L795,498.333 L796.567,502.94 L801.34,502.94 L797.536,505.824 L798.919,510.393 L795,507.667 L791.081,510.393 L792.464,505.824 L788.66,502.94"/>
</g>

<g fill="#ff0000" fill-opacity="1" stroke="none" transform="matrix(7.5e-05,0,0,7.5e-05,-251.427,-29.4375)"
font-family="Helvetica" font-size="14" font-weight="400" font-style="normal" 
>
<path vector-effect="none" fill-rule="evenodd" d="M1.23942e+07,5.96273e+06 L1.24419e+07,5.96273e+06 L1.24576e+07,5.91667e+06 L1.24733e+07,5.96273e+06 L1.2521e+07,5.96273e+06 L1.24829e+07,5.99157e+06 L1.24968e+07,6.03727e+06 L1.24576e+07,6.01e+06 L1.24184e+07,6.03727e+06 L1.24322e+07,5.99157e+06 L1.23942e+07,5.96273e+06"/>
</g>

<g fill="none" stroke="#ff0000" stroke-opacity="1" stroke-width="1.33333" stroke-linecap="butt" stroke-linejoin="miter" stroke-miterlimit="2" transform="matrix(0.75,0,0,0.75,-251.427,-29.4375)"
font-family="Helvetica" font-size="14" font-weight="400" font-style="normal" 
>
<path vector-effect="none" fill-rule="evenodd" d="M1239.42,596.273 L1244.19,596.273 L1245.76,591.667 L1247.32,596.273 L1252.1,596.273 L1248.29,599.157 L1249.68,603.727 L1245.76,601 L1241.84,603.727 L1243.22,599.157 L1239.42,596.273"/>
</g>

<g fill="#ff0000" fill-opacity="1" stroke="none" transform="matrix(7.5e-05,0,0,7.5e-05,-251.427,-29.4375)"
font-family="Helvetica" font-size="14" font-weight="400" font-style="normal" 
>
<path vector-effect="none" fill-rule="evenodd" d="M7.898e+06,1.26467e+06 L7.898e+06,1.36867e+06 L8.002e+06,1.36867e+06 L8.002e+06,1.26467e+06 L7.898e+06,1.26467e+06"/>
</g>

<g fill="none" stroke="#ff0000" stroke-opacity="1" stroke-width="1.33333" stroke-linecap="butt" stroke-linejoin="miter" stroke-miterlimit="2" transform="matrix(0.75,0,0,0.75,-251.427,-29.4375)"
font-family="Helvetica" font-size="14" font-weight="400" font-style="normal" 
>
<path vector-effect="none" fill-rule="evenodd" d="M789.8,126.467 L789.8,136.867 L800.2,136.867 L800.2,126.467 L789.8,126.467"/>
</g>

<g fill="#212121" fill-opacity="1" stroke="#212121" stroke-opacity="1" stroke-width="1" stroke-linecap="square" stroke-linejoin="bevel" transform="matrix(0.704769,0.256515,-0.256515,0.704769,9.82956,214.023)"
font-family="Helvetica" font-size="13" font-weight="400" font-style="normal" 
>
<text fill="#212121" fill-opacity="1" stroke="none" xml:space="preserve" x="0" y="0" font-family="Helvetica" font-size="13" font-weight="400" font-style="normal" 
 >10</text>
</g>

<g fill="#212121" fill-opacity="1" stroke="#212121" stroke-opacity="1" stroke-width="1" stroke-linecap="square" stroke-linejoin="bevel" transform="matrix(0.704769,0.256515,-0.256515,0.704769,347.898,74.0231)"
font-family="Helvetica" font-size="13" font-weight="400" font-style="normal" 
>
<text fill="#212121" fill-opacity="1" stroke="none" xml:space="preserve" x="0" y="0" font-family="Helvetica" font-size="13" font-weight="400" font-style="normal" 
 >11</text>
</g>

<g fill="#212121" fill-opacity="1" stroke="#212121" stroke-opacity="1" stroke-width="1" stroke-linecap="square" stroke-linejoin="bevel" transform="matrix(0.704769,0.256515,-0.256515,0.704769,516.932,144.023)"
font-family="Helvetica" font-size="13" font-weight="400" font-style="normal" 
>
<text fill="#212121" fill-opacity="1" stroke="none" xml:space="preserve" x="0" y="0" font-family="Helvetica" font-size="13" font-weight="400" font-style="normal" 
 >12</text>
</g>

<g fill="#212121" fill-opacity="1" stroke="#212121" stroke-opacity="1" stroke-width="1" stroke-linecap="square" stroke-linejoin="bevel" transform="matrix(0.704769,0.256515,-0.256515,0.704769,178.864,144.023)"
font-family="Helvetica" font-size="13" font-weight="400" font-style="normal" 
>
<text fill="#212121" fill-opacity="1" stroke="none" xml:space="preserve" x="0" y="0" font-family="Helvetica" font-size="13" font-weight="400" font-style="normal" 
 >14</text>
</g>

<g fill="#212121" fill-opacity="1" stroke="#212121" stroke-opacity="1" stroke-width="1" stroke-linecap="square" stroke-linejoin="bevel" transform="matrix(0.704769,0.256515,-0.256515,0.704769,347.898,214.023)"
font-family="Helvetica" font-size="13" font-weight="400" font-style="normal" 
>
<text fill="#212121" fill-opacity="1" stroke="none" xml:space="preserve" x="0" y="0" font-family="Helvetica" font-size="13" font-weight="400" font-style="normal" 
 >17</text>
</g>

<g fill="#212121" fill-opacity="1" stroke="#212121" stroke-opacity="1" stroke-width="1" stroke-linecap="square" stroke-linejoin="bevel" transform="matrix(0.704769,0.256515,-0.256515,0.704769,178.864,284.023)"
font-family="Helvetica" font-size="13" font-weight="400" font-style="normal" 
>
<text fill="#212121" fill-opacity="1" stroke="none" xml:space="preserve" x="0" y="0" font-family="Helvetica" font-size="13" font-weight="400" font-style="normal" 
 >18</text>
</g>

<g fill="#212121" fill-opacity="1" stroke="#212121" stroke-opacity="1" stroke-width="1" stroke-linecap="square" stroke-linejoin="bevel" transform="matrix(0.704769,0.256515,-0.256515,0.704769,516.932,284.023)"
font-family="Helvetica" font-size="13" font-weight="400" font-style="normal" 
>
<text fill="#212121" fill-opacity="1" stroke="none" xml:space="preserve" x="0" y="0" font-family="Helvetica" font-size="13" font-weight="400" font-style="normal" 
 >23</text>
</g>

<g fill="#212121" fill-opacity="1" stroke="#212121" stroke-opacity="1" stroke-width="1" stroke-linecap="square" stroke-linejoin="bevel" transform="matrix(0.704769,0.256515,-0.256515,0.704769,347.898,354.023)"
font-family="Helvetica" font-size="13" font-weight="400" font-style="normal" 
>
<text fill="#212121" fill-opacity="1" stroke="none" xml:space="preserve" x="0" y="0" font-family="Helvetica" font-size="13" font-weight="400" font-style="normal" 
 >26</text>
</g>

<g fill="#212121" fill-opacity="1" stroke="#212121" stroke-opacity="1" stroke-width="1" stroke-linecap="square" stroke-linejoin="bevel" transform="matrix(0.704769,0.256515,-0.256515,0.704769,685.966,424.023)"
font-family="Helvetica" font-size="13" font-weight="400" font-style="normal" 
>
<text fill="#212121" fill-opacity="1" stroke="none" xml:space="preserve" x="0" y="0" font-family="Helvetica" font-size="13" font-weight="400" font-style="normal" 
 >27</text>
</g>

<g fill="#212121" fill-opacity="1" stroke="#212121" stroke-opacity="1" stroke-width="1" stroke-linecap="square" stroke-linejoin="bevel" transform="matrix(0.704769,0.256515,-0.256515,0.704769,685.966,354.023)"
font-family="Helvetica" font-size="13" font-weight="400" font-style="normal" 
>
<text fill="#212121" fill-opacity="1" stroke="none" xml:space="preserve" x="0" y="0" font-family="Helvetica" font-size="13" font-weight="400" font-style="normal" 
 >28</text>
</g>

<g fill="#212121" fill-opacity="1" stroke="#212121" stroke-opacity="1" stroke-width="1" stroke-linecap="square" stroke-linejoin="bevel" transform="matrix(0.692933,0.286956,-0.286956,0.692933,425.351,100.225)"
font-family="Helvetica" font-size="13" font-weight="400" font-style="italic" 
>
<text fill="#212121" fill-opacity="1" stroke="none" xml:space="preserve" x="0" y="0" font-family="Helvetica" font-size="13" font-weight="400" font-style="italic" 
 >31</text>
</g>

<g fill="#212121" fill-opacity="1" stroke="#212121" stroke-opacity="1" stroke-width="1" stroke-linecap="square" stroke-linejoin="bevel" transform="matrix(0.692933,-0.286956,0.286956,0.692933,254.595,104.242)"
font-family="Helvetica" font-size="13" font-weight="400" font-style="italic" 
>
<text fill="#212121" fill-opacity="1" stroke="none" xml:space="preserve" x="0" y="0" font-family="Helvetica" font-size="13" font-weight="400" font-style="italic" 
 >32</text>
</g>

<g fill="#212121" fill-opacity="1" stroke="#212121" stroke-opacity="1" stroke-width="1" stroke-linecap="square" stroke-linejoin="bevel" transform="matrix(0.692933,-0.286956,0.286956,0.692933,85.5609,174.242)"
font-family="Helvetica" font-size="13" font-weight="400" font-style="italic" 
>
<text fill="#212121" fill-opacity="1" stroke="none" xml:space="preserve" x="0" y="0" font-family="Helvetica" font-size="13" font-weight="400" font-style="italic" 
 >40</text>
</g>

<g fill="#212121" fill-opacity="1" stroke="#212121" stroke-opacity="1" stroke-width="1" stroke-linecap="square" stroke-linejoin="bevel" transform="matrix(0.692933,0.286956,-0.286956,0.692933,256.317,170.225)"
font-family="Helvetica" font-size="13" font-weight="400" font-style="italic" 
>
<text fill="#212121" fill-opacity="1" stroke="none" xml:space="preserve" x="0" y="0" font-family="Helvetica" font-size="13" font-weight="400" font-style="italic" 
 >43</text>
</g>

<g fill="#212121" fill-opacity="1" stroke="#212121" stroke-opacity="1" stroke-width="1" stroke-linecap="square" stroke-linejoin="bevel" transform="matrix(0.692933,-0.286956,0.286956,0.692933,254.595,244.242)"
font-family="Helvetica" font-size="13" font-weight="400" font-style="italic" 
>
<text fill="#212121" fill-opacity="1" stroke="none" xml:space="preserve" x="0" y="0" font-family="Helvetica" font-size="13" font-weight="400" font-style="italic" 
 >52</text>
</g>

<g fill="#212121" fill-opacity="1" stroke="#212121" stroke-opacity="1" stroke-width="1" stroke-linecap="square" stroke-linejoin="bevel" transform="matrix(0.692933,0.286956,-0.286956,0.692933,425.351,240.225)"
font-family="Helvetica" font-size="13" font-weight="400" font-style="italic" 
>
<text fill="#212121" fill-opacity="1" stroke="none" xml:space="preserve" x="0" y="0" font-family="Helvetica" font-size="13" font-weight="400" font-style="italic" 
 >54</text>
</g>

<g fill="#212121" fill-opacity="1" stroke="#212121" stroke-opacity="1" stroke-width="1" stroke-linecap="square" stroke-linejoin="bevel" transform="matrix(0.692933,-0.286956,0.286956,0.692933,423.629,314.242)"
font-family="Helvetica" font-size="13" font-weight="400" font-style="italic" 
>
<text fill="#212121" fill-opacity="1" stroke="none" xml:space="preserve" x="0" y="0" font-family="Helvetica" font-size="13" font-weight="400" font-style="italic" 
 >75</text>
</g>

<g fill="#212121" fill-opacity="1" stroke="#212121" stroke-opacity="1" stroke-width="1" stroke-linecap="square" stroke-linejoin="bevel" transform="matrix(0.692933,0.286956,-0.286956,0.692933,594.385,310.225)"
font-family="Helvetica" font-size="13" font-weight="400" font-style="italic" 
>
<text fill="#212121" fill-opacity="1" stroke="none" xml:space="preserve" x="0" y="0" font-family="Helvetica" font-size="13" font-weight="400" font-style="italic" 
 >76</text>
</g>

<g fill="#212121" fill-opacity="1" stroke="#212121" stroke-opacity="1" stroke-width="1" stroke-linecap="square" stroke-linejoin="bevel" transform="matrix(0,0.75,-0.75,0,685.142,379.063)"
font-family="Helvetica" font-size="13" font-weight="400" font-style="italic" 
>
<text fill="#212121" fill-opacity="1" stroke="none" xml:space="preserve" x="0" y="0" font-family="Helvetica" font-size="13" font-weight="400" font-style="italic" 
 >90</text>
</g>

<g fill="#ff0000" fill-opacity="1" stroke="#ff0000" stroke-opacity="1" stroke-width="1" stroke-linecap="square" stroke-linejoin="bevel" transform="matrix(0.75,0,0,0.75,328.323,62.1875)"
font-family="Helvetica" font-size="13" font-weight="700" font-style="normal" 
>
<text fill="#ff0000" fill-opacity="1" stroke="none" xml:space="preserve" x="0" y="0" font-family="Helvetica" font-size="13" font-weight="700" font-style="normal" 
 >Source</text>
</g>

<g fill="#ff0000" fill-opacity="1" stroke="#ff0000" stroke-opacity="1" stroke-width="1" stroke-linecap="square" stroke-linejoin="bevel" transform="matrix(0.75,0,0,0.75,1.88029,222.438)"
font-family="Helvetica" font-size="10" font-weight="400" font-style="normal" 
>
<text fill="#ff0000" fill-opacity="1" stroke="none" xml:space="preserve" x="0" y="0" font-family="Helvetica" font-size="10" font-weight="400" font-style="normal" 
 >D1</text>
</g>

<g fill="#ff0000" fill-opacity="1" stroke="#ff0000" stroke-opacity="1" stroke-width="1" stroke-linecap="square" stroke-linejoin="bevel" transform="matrix(0.75,0,0,0.75,508.983,152.438)"
font-family="Helvetica" font-size="10" font-weight="400" font-style="normal" 
>
<text fill="#ff0000" fill-opacity="1" stroke="none" xml:space="preserve" x="0" y="0" font-family="Helvetica" font-size="10" font-weight="400" font-style="normal" 
 >D2</text>
</g>

<g fill="#ff0000" fill-opacity="1" stroke="#ff0000" stroke-opacity="1" stroke-width="1" stroke-linecap="square" stroke-linejoin="bevel" transform="matrix(0.75,0,0,0.75,170.914,292.438)"
font-family="Helvetica" font-size="10" font-weight="400" font-style="normal" 
>
<text fill="#ff0000" fill-opacity="1" stroke="none" xml:space="preserve" x="0" y="0" font-family="Helvetica" font-size="10" font-weight="400" font-style="normal" 
 >D3</text>
</g>

<g fill="#ff0000" fill-opacity="1" stroke="#ff0000" stroke-opacity="1" stroke-width="1" stroke-linecap="square" stroke-linejoin="bevel" transform="matrix(0.75,0,0,0.75,678.017,432.437)"
font-family="Helvetica" font-size="10" font-weight="400" font-style="normal" 
>
<text fill="#ff0000" fill-opacity="1" stroke="none" xml:space="preserve" x="0" y="0" font-family="Helvetica" font-size="10" font-weight="400" font-style="normal" 
 >D4</text>
</g>

<g fill="#ff0000" fill-opacity="1" stroke="#ff0000" stroke-opacity="1" stroke-width="1" stroke-linecap="square" stroke-linejoin="bevel" transform="matrix(0.75,0,0,0.75,339.948,362.438)"
font-family="Helvetica" font-size="10" font-weight="400" font-style="normal" 
>
<text fill="#ff0000" fill-opacity="1" stroke="none" xml:space="preserve" x="0" y="0" font-family="Helvetica" font-size="10" font-weight="400" font-style="normal" 
 >D5</text>
</g>

<g fill="#0000ff" fill-opacity="1" stroke="#0000ff" stroke-opacity="1" stroke-width="1" stroke-linecap="square" stroke-linejoin="bevel" transform="matrix(0.75,0,0,0.75,491.823,128.063)"
font-family="Helvetica" font-size="12" font-weight="700" font-style="normal" 
>
<text fill="#0000ff" fill-opacity="1" stroke="none" xml:space="preserve" x="0" y="0" font-family="Helvetica" font-size="12" font-weight="700" font-style="normal" 
 >VNF: 1,2,6</text>
</g>

<g fill="#0000ff" fill-opacity="1" stroke="#0000ff" stroke-opacity="1" stroke-width="1" stroke-linecap="square" stroke-linejoin="bevel" transform="matrix(0.75,0,0,0.75,154.323,128.063)"
font-family="Helvetica" font-size="12" font-weight="700" font-style="normal" 
>
<text fill="#0000ff" fill-opacity="1" stroke="none" xml:space="preserve" x="0" y="0" font-family="Helvetica" font-size="12" font-weight="700" font-style="normal" 
 >VNF: 1,2,6</text>
</g>
</g>
</svg>
