<?xml version="1.0" encoding="UTF-8" standalone="no"?>
<svg width="246.944mm" height="152.047mm"
 viewBox="0 0 700 431"
 xmlns="http://www.w3.org/2000/svg" xmlns:xlink="http://www.w3.org/1999/xlink"  version="1.2" baseProfile="tiny">
<title>Qt SVG Document</title>
<desc>MATLAB, The MathWorks, Inc. Version 25.2.0.2998904 R2025b</desc>
<defs>
</defs>
<g fill="none" stroke="black" stroke-width="1" fill-rule="evenodd" stroke-linecap="square" stroke-linejoin="bevel" >

<g fill="#ffffff" fill-opacity="1" stroke="none" transform="matrix(0.75,0,0,0.75,-251.427,-29.4375)"
font-family="SimSun" font-size="9" font-weight="400" font-style="normal" 
>
<path vector-effect="none" fill-rule="evenodd" d="M334,38 L1268,38 L1268,614 L334,614 L334,38"/>
</g>

<g fill="#212121" fill-opacity="1" stroke="#212121" stroke-opacity="1" stroke-width="1" stroke-linecap="square" stroke-linejoin="bevel" transform="matrix(0.75,0,0,0.75,227.074,9)"
font-family="Helvetica" font-size="14" font-weight="400" font-style="normal" 
>
<text fill="#212121" fill-opacity="1" stroke="none" xml:space="preserve" x="0" y="0" font-family="Helvetica" font-size="14" font-weight="400" font-style="normal" 
 >Multicast Service Function Chain Tree (Req ID: 6)</text>
</g>

<g fill="#1171be" fill-opacity="0.501961" stroke="none" transform="matrix(7.5e-05,0,0,7.5e-05,-251.427,-29.4375)"
font-family="Helvetica" font-size="14" font-weight="400" font-style="normal" 
>
<path vector-effect="none" fill-rule="evenodd" d="M7.95e+06,1.65e+06 L8e+06,1.51667e+06 L7.95e+06,1.56333e+06 L7.9e+06,1.51667e+06 L7.95e+06,1.65e+06"/>
</g>

<g fill="#1171be" fill-opacity="0.501961" stroke="none" transform="matrix(7.5e-05,0,0,7.5e-05,-251.427,-29.4375)"
font-family="Helvetica" font-size="14" font-weight="400" font-style="normal" 
>
<path vector-effect="none" fill-rule="evenodd" d="M7.95e+06,2.31667e+06 L8e+06,2.18333e+06 L7.95e+06,2.23e+06 L7.9e+06,2.18333e+06 L7.95e+06,2.31667e+06"/>
</g>

<g fill="#1171be" fill-opacity="0.501961" stroke="none" transform="matrix(7.5e-05,0,0,7.5e-05,-251.427,-29.4375)"
font-family="Helvetica" font-size="14" font-weight="400" font-style="normal" 
>
<path vector-effect="none" fill-rule="evenodd" d="M5.69621e+06,2.98333e+06 L5.83543e+06,3.01329e+06 L5.78195e+06,2.97065e+06 L5.8208e+06,2.91436e+06 L5.69621e+06,2.98333e+06"/>
</g>

<g fill="#1171be" fill-opacity="0.501961" stroke="none" transform="matrix(7.5e-05,0,0,7.5e-05,-251.427,-29.4375)"
font-family="Helvetica" font-size="14" font-weight="400" font-style="normal" 
>
<path vector-effect="none" fill-rule="evenodd" d="M7.95e+06,2.98333e+06 L8e+06,2.85e+06 L7.95e+06,2.89667e+06 L7.9e+06,2.85e+06 L7.95e+06,2.98333e+06"/>
</g>

<g fill="#1171be" fill-opacity="0.501961" stroke="none" transform="matrix(7.5e-05,0,0,7.5e-05,-251.427,-29.4375)"
font-family="Helvetica" font-size="14" font-weight="400" font-style="normal" 
>
<path vector-effect="none" fill-rule="evenodd" d="M1.02038e+07,2.98333e+06 L1.00792e+07,2.91436e+06 L1.01181e+07,2.97065e+06 L1.00646e+07,3.01329e+06 L1.02038e+07,2.98333e+06"/>
</g>

<g fill="#1171be" fill-opacity="0.501961" stroke="none" transform="matrix(7.5e-05,0,0,7.5e-05,-251.427,-29.4375)"
font-family="Helvetica" font-size="14" font-weight="400" font-style="normal" 
>
<path vector-effect="none" fill-rule="evenodd" d="M7.95e+06,3.65e+06 L8e+06,3.51667e+06 L7.95e+06,3.56333e+06 L7.9e+06,3.51667e+06 L7.95e+06,3.65e+06"/>
</g>

<g fill="#1171be" fill-opacity="0.501961" stroke="none" transform="matrix(7.5e-05,0,0,7.5e-05,-251.427,-29.4375)"
font-family="Helvetica" font-size="14" font-weight="400" font-style="normal" 
>
<path vector-effect="none" fill-rule="evenodd" d="M1.24576e+07,3.65e+06 L1.25076e+07,3.51667e+06 L1.24576e+07,3.56333e+06 L1.24076e+07,3.51667e+06 L1.24576e+07,3.65e+06"/>
</g>

<g fill="#1171be" fill-opacity="0.501961" stroke="none" transform="matrix(7.5e-05,0,0,7.5e-05,-251.427,-29.4375)"
font-family="Helvetica" font-size="14" font-weight="400" font-style="normal" 
>
<path vector-effect="none" fill-rule="evenodd" d="M7.95e+06,4.31667e+06 L8e+06,4.18333e+06 L7.95e+06,4.23e+06 L7.9e+06,4.18333e+06 L7.95e+06,4.31667e+06"/>
</g>

<g fill="#1171be" fill-opacity="0.501961" stroke="none" transform="matrix(7.5e-05,0,0,7.5e-05,-251.427,-29.4375)"
font-family="Helvetica" font-size="14" font-weight="400" font-style="normal" 
>
<path vector-effect="none" fill-rule="evenodd" d="M1.24576e+07,4.31667e+06 L1.25076e+07,4.18333e+06 L1.24576e+07,4.23e+06 L1.24076e+07,4.18333e+06 L1.24576e+07,4.31667e+06"/>
</g>

<g fill="#1171be" fill-opacity="0.501961" stroke="none" transform="matrix(7.5e-05,0,0,7.5e-05,-251.427,-29.4375)"
font-family="Helvetica" font-size="14" font-weight="400" font-style="normal" 
>
<path vector-effect="none" fill-rule="evenodd" d="M1.24576e+07,4.98333e+06 L1.25076e+07,4.85e+06 L1.24576e+07,4.89667e+06 L1.24076e+07,4.85e+06 L1.24576e+07,4.98333e+06"/>
</g>

<g fill="#1171be" fill-opacity="0.501961" stroke="none" transform="matrix(7.5e-05,0,0,7.5e-05,-251.427,-29.4375)"
font-family="Helvetica" font-size="14" font-weight="400" font-style="normal" 
>
<path vector-effect="none" fill-rule="evenodd" d="M7.95e+06,4.98333e+06 L8e+06,4.85e+06 L7.95e+06,4.89667e+06 L7.9e+06,4.85e+06 L7.95e+06,4.98333e+06"/>
</g>

<g fill="#1171be" fill-opacity="0.501961" stroke="none" transform="matrix(7.5e-05,0,0,7.5e-05,-251.427,-29.4375)"
font-family="Helvetica" font-size="14" font-weight="400" font-style="normal" 
>
<path vector-effect="none" fill-rule="evenodd" d="M7.95e+06,5.65e+06 L8e+06,5.51667e+06 L7.95e+06,5.56333e+06 L7.9e+06,5.51667e+06 L7.95e+06,5.65e+06"/>
</g>

<g fill="#1171be" fill-opacity="0.501961" stroke="#1171be" stroke-opacity="0.501961" stroke-width="1.6" stroke-linecap="butt" stroke-linejoin="round" transform="matrix(0.75,0,0,0.75,-251.427,-29.4375)"
font-family="Helvetica" font-size="14" font-weight="400" font-style="normal" 
>
<polyline fill="none" vector-effect="none" points="795,131.667 795,198.333 " />
<polyline fill="none" vector-effect="none" points="795,198.333 795,265 " />
<polyline fill="none" vector-effect="none" points="795,265 344.242,331.667 " />
<polyline fill="none" vector-effect="none" points="795,265 795,331.667 " />
<polyline fill="none" vector-effect="none" points="795,265 1245.76,331.667 " />
<polyline fill="none" vector-effect="none" points="795,331.667 795,398.333 " />
<polyline fill="none" vector-effect="none" points="1245.76,331.667 1245.76,398.333 " />
<polyline fill="none" vector-effect="none" points="795,398.333 795,465 " />
<polyline fill="none" vector-effect="none" points="1245.76,398.333 1245.76,465 " />
<polyline fill="none" vector-effect="none" points="1245.76,465 1245.76,531.667 " />
<polyline fill="none" vector-effect="none" points="795,465 795,531.667 " />
<polyline fill="none" vector-effect="none" points="795,531.667 795,598.333 " />
</g>

<g fill="#999999" fill-opacity="1" stroke="none" transform="matrix(0.75,0,0,0.75,-251.427,-29.4375)"
font-family="Helvetica" font-size="14" font-weight="400" font-style="normal" 
>
<circle cx="795" cy="265" r="4"/>
</g>

<g fill="none" stroke="#999999" stroke-opacity="1" stroke-width="1.33333" stroke-linecap="butt" stroke-linejoin="miter" stroke-miterlimit="2" transform="matrix(0.75,0,0,0.75,-251.427,-29.4375)"
font-family="Helvetica" font-size="14" font-weight="400" font-style="normal" 
>
<path vector-effect="none" fill-rule="evenodd" d="M799,265 C799,262.791 797.209,261 795,261 C792.791,261 791,262.791 791,265 C791,267.209 792.791,269 795,269 C797.209,269 799,267.209 799,265 "/>
</g>

<g fill="#999999" fill-opacity="1" stroke="none" transform="matrix(0.75,0,0,0.75,-251.427,-29.4375)"
font-family="Helvetica" font-size="14" font-weight="400" font-style="normal" 
>
<circle cx="795" cy="331.667" r="4"/>
</g>

<g fill="none" stroke="#999999" stroke-opacity="1" stroke-width="1.33333" stroke-linecap="butt" stroke-linejoin="miter" stroke-miterlimit="2" transform="matrix(0.75,0,0,0.75,-251.427,-29.4375)"
font-family="Helvetica" font-size="14" font-weight="400" font-style="normal" 
>
<path vector-effect="none" fill-rule="evenodd" d="M799,331.667 C799,329.458 797.209,327.667 795,327.667 C792.791,327.667 791,329.458 791,331.667 C791,333.876 792.791,335.667 795,335.667 C797.209,335.667 799,333.876 799,331.667 "/>
</g>

<g fill="#999999" fill-opacity="1" stroke="none" transform="matrix(0.75,0,0,0.75,-251.427,-29.4375)"
font-family="Helvetica" font-size="14" font-weight="400" font-style="normal" 
>
<circle cx="1245.76" cy="331.667" r="4"/>
</g>

<g fill="none" stroke="#999999" stroke-opacity="1" stroke-width="1.33333" stroke-linecap="butt" stroke-linejoin="miter" stroke-miterlimit="2" transform="matrix(0.75,0,0,0.75,-251.427,-29.4375)"
font-family="Helvetica" font-size="14" font-weight="400" font-style="normal" 
>
<path vector-effect="none" fill-rule="evenodd" d="M1249.76,331.667 C1249.76,329.458 1247.97,327.667 1245.76,327.667 C1243.55,327.667 1241.76,329.458 1241.76,331.667 C1241.76,333.876 1243.55,335.667 1245.76,335.667 C1247.97,335.667 1249.76,333.876 1249.76,331.667 "/>
</g>

<g fill="#999999" fill-opacity="1" stroke="none" transform="matrix(0.75,0,0,0.75,-251.427,-29.4375)"
font-family="Helvetica" font-size="14" font-weight="400" font-style="normal" 
>
<circle cx="1245.76" cy="398.333" r="4"/>
</g>

<g fill="none" stroke="#999999" stroke-opacity="1" stroke-width="1.33333" stroke-linecap="butt" stroke-linejoin="miter" stroke-miterlimit="2" transform="matrix(0.75,0,0,0.75,-251.427,-29.4375)"
font-family="Helvetica" font-size="14" font-weight="400" font-style="normal" 
>
<path vector-effect="none" fill-rule="evenodd" d="M1249.76,398.333 C1249.76,396.124 1247.97,394.333 1245.76,394.333 C1243.55,394.333 1241.76,396.124 1241.76,398.333 C1241.76,400.542 1243.55,402.333 1245.76,402.333 C1247.97,402.333 1249.76,400.542 1249.76,398.333 "/>
</g>

<g fill="#999999" fill-opacity="1" stroke="none" transform="matrix(0.75,0,0,0.75,-251.427,-29.4375)"
font-family="Helvetica" font-size="14" font-weight="400" font-style="normal" 
>
<circle cx="1245.76" cy="465" r="4"/>
</g>

<g fill="none" stroke="#999999" stroke-opacity="1" stroke-width="1.33333" stroke-linecap="butt" stroke-linejoin="miter" stroke-miterlimit="2" transform="matrix(0.75,0,0,0.75,-251.427,-29.4375)"
font-family="Helvetica" font-size="14" font-weight="400" font-style="normal" 
>
<path vector-effect="none" fill-rule="evenodd" d="M1249.76,465 C1249.76,462.791 1247.97,461 1245.76,461 C1243.55,461 1241.76,462.791 1241.76,465 C1241.76,467.209 1243.55,469 1245.76,469 C1247.97,469 1249.76,467.209 1249.76,465 "/>
</g>

<g fill="#999999" fill-opacity="1" stroke="none" transform="matrix(0.75,0,0,0.75,-251.427,-29.4375)"
font-family="Helvetica" font-size="14" font-weight="400" font-style="normal" 
>
<circle cx="795" cy="465" r="4"/>
</g>

<g fill="none" stroke="#999999" stroke-opacity="1" stroke-width="1.33333" stroke-linecap="butt" stroke-linejoin="miter" stroke-miterlimit="2" transform="matrix(0.75,0,0,0.75,-251.427,-29.4375)"
font-family="Helvetica" font-size="14" font-weight="400" font-style="normal" 
>
<path vector-effect="none" fill-rule="evenodd" d="M799,465 C799,462.791 797.209,461 795,461 C792.791,461 791,462.791 791,465 C791,467.209 792.791,469 795,469 C797.209,469 799,467.209 799,465 "/>
</g>

<g fill="#999999" fill-opacity="1" stroke="none" transform="matrix(0.75,0,0,0.75,-251.427,-29.4375)"
font-family="Helvetica" font-size="14" font-weight="400" font-style="normal" 
>
<circle cx="795" cy="198.333" r="5.33333"/>
</g>

<g fill="none" stroke="#999999" stroke-opacity="1" stroke-width="1.33333" stroke-linecap="butt" stroke-linejoin="miter" stroke-miterlimit="2" transform="matrix(0.75,0,0,0.75,-251.427,-29.4375)"
font-family="Helvetica" font-size="14" font-weight="400" font-style="normal" 
>
<path vector-effect="none" fill-rule="evenodd" d="M800.333,198.333 C800.333,195.388 797.946,193 795,193 C792.055,193 789.667,195.388 789.667,198.333 C789.667,201.279 792.055,203.667 795,203.667 C797.946,203.667 800.333,201.279 800.333,198.333 "/>
</g>

<g fill="#ff0000" fill-opacity="1" stroke="none" transform="matrix(7.5e-05,0,0,7.5e-05,-251.427,-29.4375)"
font-family="Helvetica" font-size="14" font-weight="400" font-style="normal" 
>
<path vector-effect="none" fill-rule="evenodd" d="M3.37902e+06,3.29607e+06 L3.42675e+06,3.29607e+06 L3.44242e+06,3.25e+06 L3.4581e+06,3.29607e+06 L3.50583e+06,3.29607e+06 L3.46779e+06,3.32491e+06 L3.48161e+06,3.3706e+06 L3.44242e+06,3.34333e+06 L3.40324e+06,3.3706e+06 L3.41706e+06,3.32491e+06 L3.37902e+06,3.29607e+06"/>
</g>

<g fill="none" stroke="#ff0000" stroke-opacity="1" stroke-width="1.33333" stroke-linecap="butt" stroke-linejoin="miter" stroke-miterlimit="2" transform="matrix(0.75,0,0,0.75,-251.427,-29.4375)"
font-family="Helvetica" font-size="14" font-weight="400" font-style="normal" 
>
<path vector-effect="none" fill-rule="evenodd" d="M337.902,329.607 L342.675,329.607 L344.242,325 L345.81,329.607 L350.583,329.607 L346.779,332.491 L348.161,337.06 L344.242,334.333 L340.324,337.06 L341.706,332.491 L337.902,329.607"/>
</g>

<g fill="#ff0000" fill-opacity="1" stroke="none" transform="matrix(7.5e-05,0,0,7.5e-05,-251.427,-29.4375)"
font-family="Helvetica" font-size="14" font-weight="400" font-style="normal" 
>
<path vector-effect="none" fill-rule="evenodd" d="M7.8866e+06,3.96273e+06 L7.93433e+06,3.96273e+06 L7.95e+06,3.91667e+06 L7.96567e+06,3.96273e+06 L8.0134e+06,3.96273e+06 L7.97536e+06,3.99157e+06 L7.98919e+06,4.03727e+06 L7.95e+06,4.01e+06 L7.91081e+06,4.03727e+06 L7.92464e+06,3.99157e+06 L7.8866e+06,3.96273e+06"/>
</g>

<g fill="none" stroke="#ff0000" stroke-opacity="1" stroke-width="1.33333" stroke-linecap="butt" stroke-linejoin="miter" stroke-miterlimit="2" transform="matrix(0.75,0,0,0.75,-251.427,-29.4375)"
font-family="Helvetica" font-size="14" font-weight="400" font-style="normal" 
>
<path vector-effect="none" fill-rule="evenodd" d="M788.66,396.273 L793.433,396.273 L795,391.667 L796.567,396.273 L801.34,396.273 L797.536,399.157 L798.919,403.727 L795,401 L791.081,403.727 L792.464,399.157 L788.66,396.273"/>
</g>

<g fill="#ff0000" fill-opacity="1" stroke="none" transform="matrix(7.5e-05,0,0,7.5e-05,-251.427,-29.4375)"
font-family="Helvetica" font-size="14" font-weight="400" font-style="normal" 
>
<path vector-effect="none" fill-rule="evenodd" d="M7.8866e+06,5.29607e+06 L7.93433e+06,5.29607e+06 L7.95e+06,5.25e+06 L7.96567e+06,5.29607e+06 L8.0134e+06,5.29607e+06 L7.97536e+06,5.32491e+06 L7.98919e+06,5.3706e+06 L7.95e+06,5.34333e+06 L7.91081e+06,5.3706e+06 L7.92464e+06,5.32491e+06 L7.8866e+06,5.29607e+06"/>
</g>

<g fill="none" stroke="#ff0000" stroke-opacity="1" stroke-width="1.33333" stroke-linecap="butt" stroke-linejoin="miter" stroke-miterlimit="2" transform="matrix(0.75,0,0,0.75,-251.427,-29.4375)"
font-family="Helvetica" font-size="14" font-weight="400" font-style="normal" 
>
<path vector-effect="none" fill-rule="evenodd" d="M788.66,529.607 L793.433,529.607 L795,525 L796.567,529.607 L801.34,529.607 L797.536,532.491 L798.919,537.06 L795,534.333 L791.081,537.06 L792.464,532.491 L788.66,529.607"/>
</g>

<g fill="#ff0000" fill-opacity="1" stroke="none" transform="matrix(7.5e-05,0,0,7.5e-05,-251.427,-29.4375)"
font-family="Helvetica" font-size="14" font-weight="400" font-style="normal" 
>
<path vector-effect="none" fill-rule="evenodd" d="M7.8866e+06,5.96273e+06 L7.93433e+06,5.96273e+06 L7.95e+06,5.91667e+06 L7.96567e+06,5.96273e+06 L8.0134e+06,5.96273e+06 L7.97536e+06,5.99157e+06 L7.98919e+06,6.03727e+06 L7.95e+06,6.01e+06 L7.91081e+06,6.03727e+06 L7.92464e+06,5.99157e+06 L7.8866e+06,5.96273e+06"/>
</g>

<g fill="none" stroke="#ff0000" stroke-opacity="1" stroke-width="1.33333" stroke-linecap="butt" stroke-linejoin="miter" stroke-miterlimit="2" transform="matrix(0.75,0,0,0.75,-251.427,-29.4375)"
font-family="Helvetica" font-size="14" font-weight="400" font-style="normal" 
>
<path vector-effect="none" fill-rule="evenodd" d="M788.66,596.273 L793.433,596.273 L795,591.667 L796.567,596.273 L801.34,596.273 L797.536,599.157 L798.919,603.727 L795,601 L791.081,603.727 L792.464,599.157 L788.66,596.273"/>
</g>

<g fill="#ff0000" fill-opacity="1" stroke="none" transform="matrix(7.5e-05,0,0,7.5e-05,-251.427,-29.4375)"
font-family="Helvetica" font-size="14" font-weight="400" font-style="normal" 
>
<path vector-effect="none" fill-rule="evenodd" d="M1.23942e+07,5.29607e+06 L1.24419e+07,5.29607e+06 L1.24576e+07,5.25e+06 L1.24733e+07,5.29607e+06 L1.2521e+07,5.29607e+06 L1.24829e+07,5.32491e+06 L1.24968e+07,5.3706e+06 L1.24576e+07,5.34333e+06 L1.24184e+07,5.3706e+06 L1.24322e+07,5.32491e+06 L1.23942e+07,5.29607e+06"/>
</g>

<g fill="none" stroke="#ff0000" stroke-opacity="1" stroke-width="1.33333" stroke-linecap="butt" stroke-linejoin="miter" stroke-miterlimit="2" transform="matrix(0.75,0,0,0.75,-251.427,-29.4375)"
font-family="Helvetica" font-size="14" font-weight="400" font-style="normal" 
>
<path vector-effect="none" fill-rule="evenodd" d="M1239.42,529.607 L1244.19,529.607 L1245.76,525 L1247.32,529.607 L1252.1,529.607 L1248.29,532.491 L1249.68,537.06 L1245.76,534.333 L1241.84,537.06 L1243.22,532.491 L1239.42,529.607"/>
</g>

<g fill="#ff0000" fill-opacity="1" stroke="none" transform="matrix(7.5e-05,0,0,7.5e-05,-251.427,-29.4375)"
font-family="Helvetica" font-size="14" font-weight="400" font-style="normal" 
>
<path vector-effect="none" fill-rule="evenodd" d="M7.898e+06,1.26467e+06 L7.898e+06,1.36867e+06 L8.002e+06,1.36867e+06 L8.002e+06,1.26467e+06 L7.898e+06,1.26467e+06"/>
</g>

<g fill="none" stroke="#ff0000" stroke-opacity="1" stroke-width="1.33333" stroke-linecap="butt" stroke-linejoin="miter" stroke-miterlimit="2" transform="matrix(0.75,0,0,0.75,-251.427,-29.4375)"
font-family="Helvetica" font-size="14" font-weight="400" font-style="normal" 
>
<path vector-effect="none" fill-rule="evenodd" d="M789.8,126.467 L789.8,136.867 L800.2,136.867 L800.2,126.467 L789.8,126.467"/>
</g>

<g fill="#212121" fill-opacity="1" stroke="#212121" stroke-opacity="1" stroke-width="1" stroke-linecap="square" stroke-linejoin="bevel" transform="matrix(0.704769,0.256515,-0.256515,0.704769,347.898,74.0231)"
font-family="Helvetica" font-size="13" font-weight="400" font-style="normal" 
>
<text fill="#212121" fill-opacity="1" stroke="none" xml:space="preserve" x="0" y="0" font-family="Helvetica" font-size="13" font-weight="400" font-style="normal" 
 >2</text>
</g>

<g fill="#212121" fill-opacity="1" stroke="#212121" stroke-opacity="1" stroke-width="1" stroke-linecap="square" stroke-linejoin="bevel" transform="matrix(0.704769,0.256515,-0.256515,0.704769,9.82956,224.023)"
font-family="Helvetica" font-size="13" font-weight="400" font-style="normal" 
>
<text fill="#212121" fill-opacity="1" stroke="none" xml:space="preserve" x="0" y="0" font-family="Helvetica" font-size="13" font-weight="400" font-style="normal" 
 >4</text>
</g>

<g fill="#212121" fill-opacity="1" stroke="#212121" stroke-opacity="1" stroke-width="1" stroke-linecap="square" stroke-linejoin="bevel" transform="matrix(0.704769,0.256515,-0.256515,0.704769,347.898,124.023)"
font-family="Helvetica" font-size="13" font-weight="400" font-style="normal" 
>
<text fill="#212121" fill-opacity="1" stroke="none" xml:space="preserve" x="0" y="0" font-family="Helvetica" font-size="13" font-weight="400" font-style="normal" 
 >5</text>
</g>

<g fill="#212121" fill-opacity="1" stroke="#212121" stroke-opacity="1" stroke-width="1" stroke-linecap="square" stroke-linejoin="bevel" transform="matrix(0.704769,0.256515,-0.256515,0.704769,347.898,174.023)"
font-family="Helvetica" font-size="13" font-weight="400" font-style="normal" 
>
<text fill="#212121" fill-opacity="1" stroke="none" xml:space="preserve" x="0" y="0" font-family="Helvetica" font-size="13" font-weight="400" font-style="normal" 
 >7</text>
</g>

<g fill="#212121" fill-opacity="1" stroke="#212121" stroke-opacity="1" stroke-width="1" stroke-linecap="square" stroke-linejoin="bevel" transform="matrix(0.704769,0.256515,-0.256515,0.704769,347.898,224.023)"
font-family="Helvetica" font-size="13" font-weight="400" font-style="normal" 
>
<text fill="#212121" fill-opacity="1" stroke="none" xml:space="preserve" x="0" y="0" font-family="Helvetica" font-size="13" font-weight="400" font-style="normal" 
 >8</text>
</g>

<g fill="#212121" fill-opacity="1" stroke="#212121" stroke-opacity="1" stroke-width="1" stroke-linecap="square" stroke-linejoin="bevel" transform="matrix(0.704769,0.256515,-0.256515,0.704769,685.966,224.023)"
font-family="Helvetica" font-size="13" font-weight="400" font-style="normal" 
>
<text fill="#212121" fill-opacity="1" stroke="none" xml:space="preserve" x="0" y="0" font-family="Helvetica" font-size="13" font-weight="400" font-style="normal" 
 >11</text>
</g>

<g fill="#212121" fill-opacity="1" stroke="#212121" stroke-opacity="1" stroke-width="1" stroke-linecap="square" stroke-linejoin="bevel" transform="matrix(0.704769,0.256515,-0.256515,0.704769,347.898,274.023)"
font-family="Helvetica" font-size="13" font-weight="400" font-style="normal" 
>
<text fill="#212121" fill-opacity="1" stroke="none" xml:space="preserve" x="0" y="0" font-family="Helvetica" font-size="13" font-weight="400" font-style="normal" 
 >13</text>
</g>

<g fill="#212121" fill-opacity="1" stroke="#212121" stroke-opacity="1" stroke-width="1" stroke-linecap="square" stroke-linejoin="bevel" transform="matrix(0.704769,0.256515,-0.256515,0.704769,685.966,274.023)"
font-family="Helvetica" font-size="13" font-weight="400" font-style="normal" 
>
<text fill="#212121" fill-opacity="1" stroke="none" xml:space="preserve" x="0" y="0" font-family="Helvetica" font-size="13" font-weight="400" font-style="normal" 
 >14</text>
</g>

<g fill="#212121" fill-opacity="1" stroke="#212121" stroke-opacity="1" stroke-width="1" stroke-linecap="square" stroke-linejoin="bevel" transform="matrix(0.704769,0.256515,-0.256515,0.704769,685.966,324.023)"
font-family="Helvetica" font-size="13" font-weight="400" font-style="normal" 
>
<text fill="#212121" fill-opacity="1" stroke="none" xml:space="preserve" x="0" y="0" font-family="Helvetica" font-size="13" font-weight="400" font-style="normal" 
 >17</text>
</g>

<g fill="#212121" fill-opacity="1" stroke="#212121" stroke-opacity="1" stroke-width="1" stroke-linecap="square" stroke-linejoin="bevel" transform="matrix(0.704769,0.256515,-0.256515,0.704769,347.898,324.023)"
font-family="Helvetica" font-size="13" font-weight="400" font-style="normal" 
>
<text fill="#212121" fill-opacity="1" stroke="none" xml:space="preserve" x="0" y="0" font-family="Helvetica" font-size="13" font-weight="400" font-style="normal" 
 >18</text>
</g>

<g fill="#212121" fill-opacity="1" stroke="#212121" stroke-opacity="1" stroke-width="1" stroke-linecap="square" stroke-linejoin="bevel" transform="matrix(0.704769,0.256515,-0.256515,0.704769,347.898,374.023)"
font-family="Helvetica" font-size="13" font-weight="400" font-style="normal" 
>
<text fill="#212121" fill-opacity="1" stroke="none" xml:space="preserve" x="0" y="0" font-family="Helvetica" font-size="13" font-weight="400" font-style="normal" 
 >19</text>
</g>

<g fill="#212121" fill-opacity="1" stroke="#212121" stroke-opacity="1" stroke-width="1" stroke-linecap="square" stroke-linejoin="bevel" transform="matrix(0.704769,0.256515,-0.256515,0.704769,347.898,424.023)"
font-family="Helvetica" font-size="13" font-weight="400" font-style="normal" 
>
<text fill="#212121" fill-opacity="1" stroke="none" xml:space="preserve" x="0" y="0" font-family="Helvetica" font-size="13" font-weight="400" font-style="normal" 
 >22</text>
</g>

<g fill="#212121" fill-opacity="1" stroke="#212121" stroke-opacity="1" stroke-width="1" stroke-linecap="square" stroke-linejoin="bevel" transform="matrix(0.704769,0.256515,-0.256515,0.704769,685.966,374.023)"
font-family="Helvetica" font-size="13" font-weight="400" font-style="normal" 
>
<text fill="#212121" fill-opacity="1" stroke="none" xml:space="preserve" x="0" y="0" font-family="Helvetica" font-size="13" font-weight="400" font-style="normal" 
 >23</text>
</g>

<g fill="#212121" fill-opacity="1" stroke="#212121" stroke-opacity="1" stroke-width="1" stroke-linecap="square" stroke-linejoin="bevel" transform="matrix(0,0.75,-0.75,0,347.073,91.6875)"
font-family="Helvetica" font-size="13" font-weight="400" font-style="italic" 
>
<text fill="#212121" fill-opacity="1" stroke="none" xml:space="preserve" x="0" y="0" font-family="Helvetica" font-size="13" font-weight="400" font-style="italic" 
 >5</text>
</g>

<g fill="#212121" fill-opacity="1" stroke="#212121" stroke-opacity="1" stroke-width="1" stroke-linecap="square" stroke-linejoin="bevel" transform="matrix(0,0.75,-0.75,0,347.073,139.063)"
font-family="Helvetica" font-size="13" font-weight="400" font-style="italic" 
>
<text fill="#212121" fill-opacity="1" stroke="none" xml:space="preserve" x="0" y="0" font-family="Helvetica" font-size="13" font-weight="400" font-style="italic" 
 >14</text>
</g>

<g fill="#212121" fill-opacity="1" stroke="#212121" stroke-opacity="1" stroke-width="1" stroke-linecap="square" stroke-linejoin="bevel" transform="matrix(0.741929,-0.109731,0.109731,0.741929,170.267,192.855)"
font-family="Helvetica" font-size="13" font-weight="400" font-style="italic" 
>
<text fill="#212121" fill-opacity="1" stroke="none" xml:space="preserve" x="0" y="0" font-family="Helvetica" font-size="13" font-weight="400" font-style="italic" 
 >17</text>
</g>

<g fill="#212121" fill-opacity="1" stroke="#212121" stroke-opacity="1" stroke-width="1" stroke-linecap="square" stroke-linejoin="bevel" transform="matrix(0,0.75,-0.75,0,347.073,189.063)"
font-family="Helvetica" font-size="13" font-weight="400" font-style="italic" 
>
<text fill="#212121" fill-opacity="1" stroke="none" xml:space="preserve" x="0" y="0" font-family="Helvetica" font-size="13" font-weight="400" font-style="italic" 
 >19</text>
</g>

<g fill="#212121" fill-opacity="1" stroke="#212121" stroke-opacity="1" stroke-width="1" stroke-linecap="square" stroke-linejoin="bevel" transform="matrix(0.741929,0.109731,-0.109731,0.741929,508.993,191.319)"
font-family="Helvetica" font-size="13" font-weight="400" font-style="italic" 
>
<text fill="#212121" fill-opacity="1" stroke="none" xml:space="preserve" x="0" y="0" font-family="Helvetica" font-size="13" font-weight="400" font-style="italic" 
 >20</text>
</g>

<g fill="#212121" fill-opacity="1" stroke="#212121" stroke-opacity="1" stroke-width="1" stroke-linecap="square" stroke-linejoin="bevel" transform="matrix(0,0.75,-0.75,0,347.073,239.063)"
font-family="Helvetica" font-size="13" font-weight="400" font-style="italic" 
>
<text fill="#212121" fill-opacity="1" stroke="none" xml:space="preserve" x="0" y="0" font-family="Helvetica" font-size="13" font-weight="400" font-style="italic" 
 >23</text>
</g>

<g fill="#212121" fill-opacity="1" stroke="#212121" stroke-opacity="1" stroke-width="1" stroke-linecap="square" stroke-linejoin="bevel" transform="matrix(0,0.75,-0.75,0,685.142,239.063)"
font-family="Helvetica" font-size="13" font-weight="400" font-style="italic" 
>
<text fill="#212121" fill-opacity="1" stroke="none" xml:space="preserve" x="0" y="0" font-family="Helvetica" font-size="13" font-weight="400" font-style="italic" 
 >32</text>
</g>

<g fill="#212121" fill-opacity="1" stroke="#212121" stroke-opacity="1" stroke-width="1" stroke-linecap="square" stroke-linejoin="bevel" transform="matrix(0,0.75,-0.75,0,347.073,289.062)"
font-family="Helvetica" font-size="13" font-weight="400" font-style="italic" 
>
<text fill="#212121" fill-opacity="1" stroke="none" xml:space="preserve" x="0" y="0" font-family="Helvetica" font-size="13" font-weight="400" font-style="italic" 
 >39</text>
</g>

<g fill="#212121" fill-opacity="1" stroke="#212121" stroke-opacity="1" stroke-width="1" stroke-linecap="square" stroke-linejoin="bevel" transform="matrix(0,0.75,-0.75,0,685.142,289.062)"
font-family="Helvetica" font-size="13" font-weight="400" font-style="italic" 
>
<text fill="#212121" fill-opacity="1" stroke="none" xml:space="preserve" x="0" y="0" font-family="Helvetica" font-size="13" font-weight="400" font-style="italic" 
 >43</text>
</g>

<g fill="#212121" fill-opacity="1" stroke="#212121" stroke-opacity="1" stroke-width="1" stroke-linecap="square" stroke-linejoin="bevel" transform="matrix(0,0.75,-0.75,0,685.142,339.063)"
font-family="Helvetica" font-size="13" font-weight="400" font-style="italic" 
>
<text fill="#212121" fill-opacity="1" stroke="none" xml:space="preserve" x="0" y="0" font-family="Helvetica" font-size="13" font-weight="400" font-style="italic" 
 >54</text>
</g>

<g fill="#212121" fill-opacity="1" stroke="#212121" stroke-opacity="1" stroke-width="1" stroke-linecap="square" stroke-linejoin="bevel" transform="matrix(0,0.75,-0.75,0,347.073,339.063)"
font-family="Helvetica" font-size="13" font-weight="400" font-style="italic" 
>
<text fill="#212121" fill-opacity="1" stroke="none" xml:space="preserve" x="0" y="0" font-family="Helvetica" font-size="13" font-weight="400" font-style="italic" 
 >57</text>
</g>

<g fill="#212121" fill-opacity="1" stroke="#212121" stroke-opacity="1" stroke-width="1" stroke-linecap="square" stroke-linejoin="bevel" transform="matrix(0,0.75,-0.75,0,347.073,389.063)"
font-family="Helvetica" font-size="13" font-weight="400" font-style="italic" 
>
<text fill="#212121" fill-opacity="1" stroke="none" xml:space="preserve" x="0" y="0" font-family="Helvetica" font-size="13" font-weight="400" font-style="italic" 
 >62</text>
</g>

<g fill="#ff0000" fill-opacity="1" stroke="#ff0000" stroke-opacity="1" stroke-width="1" stroke-linecap="square" stroke-linejoin="bevel" transform="matrix(0.75,0,0,0.75,328.323,65.1875)"
font-family="Helvetica" font-size="13" font-weight="700" font-style="normal" 
>
<text fill="#ff0000" fill-opacity="1" stroke="none" xml:space="preserve" x="0" y="0" font-family="Helvetica" font-size="13" font-weight="700" font-style="normal" 
 >Source</text>
</g>

<g fill="#ff0000" fill-opacity="1" stroke="#ff0000" stroke-opacity="1" stroke-width="1" stroke-linecap="square" stroke-linejoin="bevel" transform="matrix(0.75,0,0,0.75,339.948,429.437)"
font-family="Helvetica" font-size="10" font-weight="400" font-style="normal" 
>
<text fill="#ff0000" fill-opacity="1" stroke="none" xml:space="preserve" x="0" y="0" font-family="Helvetica" font-size="10" font-weight="400" font-style="normal" 
 >D1</text>
</g>

<g fill="#ff0000" fill-opacity="1" stroke="#ff0000" stroke-opacity="1" stroke-width="1" stroke-linecap="square" stroke-linejoin="bevel" transform="matrix(0.75,0,0,0.75,678.017,379.438)"
font-family="Helvetica" font-size="10" font-weight="400" font-style="normal" 
>
<text fill="#ff0000" fill-opacity="1" stroke="none" xml:space="preserve" x="0" y="0" font-family="Helvetica" font-size="10" font-weight="400" font-style="normal" 
 >D2</text>
</g>

<g fill="#ff0000" fill-opacity="1" stroke="#ff0000" stroke-opacity="1" stroke-width="1" stroke-linecap="square" stroke-linejoin="bevel" transform="matrix(0.75,0,0,0.75,339.948,279.438)"
font-family="Helvetica" font-size="10" font-weight="400" font-style="normal" 
>
<text fill="#ff0000" fill-opacity="1" stroke="none" xml:space="preserve" x="0" y="0" font-family="Helvetica" font-size="10" font-weight="400" font-style="normal" 
 >D3</text>
</g>

<g fill="#ff0000" fill-opacity="1" stroke="#ff0000" stroke-opacity="1" stroke-width="1" stroke-linecap="square" stroke-linejoin="bevel" transform="matrix(0.75,0,0,0.75,339.948,379.438)"
font-family="Helvetica" font-size="10" font-weight="400" font-style="normal" 
>
<text fill="#ff0000" fill-opacity="1" stroke="none" xml:space="preserve" x="0" y="0" font-family="Helvetica" font-size="10" font-weight="400" font-style="normal" 
 >D4</text>
</g>

<g fill="#ff0000" fill-opacity="1" stroke="#ff0000" stroke-opacity="1" stroke-width="1" stroke-linecap="square" stroke-linejoin="bevel" transform="matrix(0.75,0,0,0.75,1.88029,229.438)"
font-family="Helvetica" font-size="10" font-weight="400" font-style="normal" 
>
<text fill="#ff0000" fill-opacity="1" stroke="none" xml:space="preserve" x="0" y="0" font-family="Helvetica" font-size="10" font-weight="400" font-style="normal" 
 >D5</text>
</g>

<g fill="#0000ff" fill-opacity="1" stroke="#0000ff" stroke-opacity="1" stroke-width="1" stroke-linecap="square" stroke-linejoin="bevel" transform="matrix(0.75,0,0,0.75,323.073,112.313)"
font-family="Helvetica" font-size="12" font-weight="700" font-style="normal" 
>
<text fill="#0000ff" fill-opacity="1" stroke="none" xml:space="preserve" x="0" y="0" font-family="Helvetica" font-size="12" font-weight="700" font-style="normal" 
 >VNF: 2,4,5</text>
</g>
</g>
</svg>
