<?xml version="1.0" encoding="UTF-8" standalone="no"?>
<svg width="246.592mm" height="153.106mm"
 viewBox="0 0 699 434"
 xmlns="http://www.w3.org/2000/svg" xmlns:xlink="http://www.w3.org/1999/xlink"  version="1.2" baseProfile="tiny">
<title>Qt SVG Document</title>
<desc>MATLAB, The MathWorks, Inc. Version 25.2.0.2998904 R2025b</desc>
<defs>
</defs>
<g fill="none" stroke="black" stroke-width="1" fill-rule="evenodd" stroke-linecap="square" stroke-linejoin="bevel" >

<g fill="#ffffff" fill-opacity="1" stroke="none" transform="matrix(0.75,0,0,0.75,-251.427,-29.4375)"
font-family="SimSun" font-size="9" font-weight="400" font-style="normal" 
>
<path vector-effect="none" fill-rule="evenodd" d="M334,38 L1267,38 L1267,618 L334,618 L334,38"/>
</g>

<g fill="#212121" fill-opacity="1" stroke="#212121" stroke-opacity="1" stroke-width="1" stroke-linecap="square" stroke-linejoin="bevel" transform="matrix(0.75,0,0,0.75,224.074,9)"
font-family="Helvetica" font-size="14" font-weight="400" font-style="normal" 
>
<text fill="#212121" fill-opacity="1" stroke="none" xml:space="preserve" x="0" y="0" font-family="Helvetica" font-size="14" font-weight="400" font-style="normal" 
 >Multicast Service Function Chain Tree (Req ID: 10)</text>
</g>

<g fill="#1171be" fill-opacity="0.501961" stroke="none" transform="matrix(7.5e-05,0,0,7.5e-05,-251.427,-29.4375)"
font-family="Helvetica" font-size="14" font-weight="400" font-style="normal" 
>
<path vector-effect="none" fill-rule="evenodd" d="M7.95e+06,1.78333e+06 L8e+06,1.65e+06 L7.95e+06,1.69667e+06 L7.9e+06,1.65e+06 L7.95e+06,1.78333e+06"/>
</g>

<g fill="#1171be" fill-opacity="0.501961" stroke="none" transform="matrix(7.5e-05,0,0,7.5e-05,-251.427,-29.4375)"
font-family="Helvetica" font-size="14" font-weight="400" font-style="normal" 
>
<path vector-effect="none" fill-rule="evenodd" d="M7.95e+06,2.71667e+06 L8e+06,2.58333e+06 L7.95e+06,2.63e+06 L7.9e+06,2.58333e+06 L7.95e+06,2.71667e+06"/>
</g>

<g fill="#1171be" fill-opacity="0.501961" stroke="none" transform="matrix(7.5e-05,0,0,7.5e-05,-251.427,-29.4375)"
font-family="Helvetica" font-size="14" font-weight="400" font-style="normal" 
>
<path vector-effect="none" fill-rule="evenodd" d="M5.69621e+06,3.65e+06 L5.83691e+06,3.67193e+06 L5.78108e+06,3.63243e+06 L5.81664e+06,3.574e+06 L5.69621e+06,3.65e+06"/>
</g>

<g fill="#1171be" fill-opacity="0.501961" stroke="none" transform="matrix(7.5e-05,0,0,7.5e-05,-251.427,-29.4375)"
font-family="Helvetica" font-size="14" font-weight="400" font-style="normal" 
>
<path vector-effect="none" fill-rule="evenodd" d="M1.02038e+07,3.65e+06 L1.00834e+07,3.574e+06 L1.01189e+07,3.63243e+06 L1.00631e+07,3.67193e+06 L1.02038e+07,3.65e+06"/>
</g>

<g fill="#1171be" fill-opacity="0.501961" stroke="none" transform="matrix(7.5e-05,0,0,7.5e-05,-251.427,-29.4375)"
font-family="Helvetica" font-size="14" font-weight="400" font-style="normal" 
>
<path vector-effect="none" fill-rule="evenodd" d="M3.44242e+06,4.58333e+06 L3.49242e+06,4.45e+06 L3.44242e+06,4.49667e+06 L3.39242e+06,4.45e+06 L3.44242e+06,4.58333e+06"/>
</g>

<g fill="#1171be" fill-opacity="0.501961" stroke="none" transform="matrix(7.5e-05,0,0,7.5e-05,-251.427,-29.4375)"
font-family="Helvetica" font-size="14" font-weight="400" font-style="normal" 
>
<path vector-effect="none" fill-rule="evenodd" d="M1.24576e+07,4.58333e+06 L1.25076e+07,4.45e+06 L1.24576e+07,4.49667e+06 L1.24076e+07,4.45e+06 L1.24576e+07,4.58333e+06"/>
</g>

<g fill="#1171be" fill-opacity="0.501961" stroke="none" transform="matrix(7.5e-05,0,0,7.5e-05,-251.427,-29.4375)"
font-family="Helvetica" font-size="14" font-weight="400" font-style="normal" 
>
<path vector-effect="none" fill-rule="evenodd" d="M3.44242e+06,5.51667e+06 L3.49242e+06,5.38333e+06 L3.44242e+06,5.43e+06 L3.39242e+06,5.38333e+06 L3.44242e+06,5.51667e+06"/>
</g>

<g fill="#1171be" fill-opacity="0.501961" stroke="none" transform="matrix(7.5e-05,0,0,7.5e-05,-251.427,-29.4375)"
font-family="Helvetica" font-size="14" font-weight="400" font-style="normal" 
>
<path vector-effect="none" fill-rule="evenodd" d="M1.24576e+07,5.51667e+06 L1.25076e+07,5.38333e+06 L1.24576e+07,5.43e+06 L1.24076e+07,5.38333e+06 L1.24576e+07,5.51667e+06"/>
</g>

<g fill="#1171be" fill-opacity="0.501961" stroke="#1171be" stroke-opacity="0.501961" stroke-width="1.6" stroke-linecap="butt" stroke-linejoin="round" transform="matrix(0.75,0,0,0.75,-251.427,-29.4375)"
font-family="Helvetica" font-size="14" font-weight="400" font-style="normal" 
>
<polyline fill="none" vector-effect="none" points="795,131.667 795,225 " />
<polyline fill="none" vector-effect="none" points="795,225 795,318.333 " />
<polyline fill="none" vector-effect="none" points="795,318.333 344.242,411.667 " />
<polyline fill="none" vector-effect="none" points="795,318.333 1245.76,411.667 " />
<polyline fill="none" vector-effect="none" points="344.242,411.667 344.242,505 " />
<polyline fill="none" vector-effect="none" points="1245.76,411.667 1245.76,505 " />
<polyline fill="none" vector-effect="none" points="344.242,505 344.242,598.333 " />
<polyline fill="none" vector-effect="none" points="1245.76,505 1245.76,598.333 " />
</g>

<g fill="#999999" fill-opacity="1" stroke="none" transform="matrix(0.75,0,0,0.75,-251.427,-29.4375)"
font-family="Helvetica" font-size="14" font-weight="400" font-style="normal" 
>
<circle cx="795" cy="318.333" r="4"/>
</g>

<g fill="none" stroke="#999999" stroke-opacity="1" stroke-width="1.33333" stroke-linecap="butt" stroke-linejoin="miter" stroke-miterlimit="2" transform="matrix(0.75,0,0,0.75,-251.427,-29.4375)"
font-family="Helvetica" font-size="14" font-weight="400" font-style="normal" 
>
<path vector-effect="none" fill-rule="evenodd" d="M799,318.333 C799,316.124 797.209,314.333 795,314.333 C792.791,314.333 791,316.124 791,318.333 C791,320.542 792.791,322.333 795,322.333 C797.209,322.333 799,320.542 799,318.333 "/>
</g>

<g fill="#999999" fill-opacity="1" stroke="none" transform="matrix(0.75,0,0,0.75,-251.427,-29.4375)"
font-family="Helvetica" font-size="14" font-weight="400" font-style="normal" 
>
<circle cx="1245.76" cy="411.667" r="4"/>
</g>

<g fill="none" stroke="#999999" stroke-opacity="1" stroke-width="1.33333" stroke-linecap="butt" stroke-linejoin="miter" stroke-miterlimit="2" transform="matrix(0.75,0,0,0.75,-251.427,-29.4375)"
font-family="Helvetica" font-size="14" font-weight="400" font-style="normal" 
>
<path vector-effect="none" fill-rule="evenodd" d="M1249.76,411.667 C1249.76,409.458 1247.97,407.667 1245.76,407.667 C1243.55,407.667 1241.76,409.458 1241.76,411.667 C1241.76,413.876 1243.55,415.667 1245.76,415.667 C1247.97,415.667 1249.76,413.876 1249.76,411.667 "/>
</g>

<g fill="#999999" fill-opacity="1" stroke="none" transform="matrix(0.75,0,0,0.75,-251.427,-29.4375)"
font-family="Helvetica" font-size="14" font-weight="400" font-style="normal" 
>
<circle cx="1245.76" cy="505" r="4"/>
</g>

<g fill="none" stroke="#999999" stroke-opacity="1" stroke-width="1.33333" stroke-linecap="butt" stroke-linejoin="miter" stroke-miterlimit="2" transform="matrix(0.75,0,0,0.75,-251.427,-29.4375)"
font-family="Helvetica" font-size="14" font-weight="400" font-style="normal" 
>
<path vector-effect="none" fill-rule="evenodd" d="M1249.76,505 C1249.76,502.791 1247.97,501 1245.76,501 C1243.55,501 1241.76,502.791 1241.76,505 C1241.76,507.209 1243.55,509 1245.76,509 C1247.97,509 1249.76,507.209 1249.76,505 "/>
</g>

<g fill="#ff0000" fill-opacity="1" stroke="none" transform="matrix(7.5e-05,0,0,7.5e-05,-251.427,-29.4375)"
font-family="Helvetica" font-size="14" font-weight="400" font-style="normal" 
>
<path vector-effect="none" fill-rule="evenodd" d="M7.89928e+06,2.23352e+06 L7.93746e+06,2.23352e+06 L7.95e+06,2.19667e+06 L7.96254e+06,2.23352e+06 L8.00072e+06,2.23352e+06 L7.97029e+06,2.25659e+06 L7.98135e+06,2.29315e+06 L7.95e+06,2.27133e+06 L7.91865e+06,2.29315e+06 L7.92971e+06,2.25659e+06 L7.89928e+06,2.23352e+06"/>
</g>

<g fill="none" stroke="#ff0000" stroke-opacity="1" stroke-width="1.33333" stroke-linecap="butt" stroke-linejoin="miter" stroke-miterlimit="2" transform="matrix(0.75,0,0,0.75,-251.427,-29.4375)"
font-family="Helvetica" font-size="14" font-weight="400" font-style="normal" 
>
<path vector-effect="none" fill-rule="evenodd" d="M789.928,223.352 L793.746,223.352 L795,219.667 L796.254,223.352 L800.072,223.352 L797.029,225.659 L798.135,229.315 L795,227.133 L791.865,229.315 L792.971,225.659 L789.928,223.352"/>
</g>

<g fill="#ff0000" fill-opacity="1" stroke="none" transform="matrix(7.5e-05,0,0,7.5e-05,-251.427,-29.4375)"
font-family="Helvetica" font-size="14" font-weight="400" font-style="normal" 
>
<path vector-effect="none" fill-rule="evenodd" d="M3.37902e+06,4.09607e+06 L3.42675e+06,4.09607e+06 L3.44242e+06,4.05e+06 L3.4581e+06,4.09607e+06 L3.50583e+06,4.09607e+06 L3.46779e+06,4.12491e+06 L3.48161e+06,4.1706e+06 L3.44242e+06,4.14333e+06 L3.40324e+06,4.1706e+06 L3.41706e+06,4.12491e+06 L3.37902e+06,4.09607e+06"/>
</g>

<g fill="none" stroke="#ff0000" stroke-opacity="1" stroke-width="1.33333" stroke-linecap="butt" stroke-linejoin="miter" stroke-miterlimit="2" transform="matrix(0.75,0,0,0.75,-251.427,-29.4375)"
font-family="Helvetica" font-size="14" font-weight="400" font-style="normal" 
>
<path vector-effect="none" fill-rule="evenodd" d="M337.902,409.607 L342.675,409.607 L344.242,405 L345.81,409.607 L350.583,409.607 L346.779,412.491 L348.161,417.06 L344.242,414.333 L340.324,417.06 L341.706,412.491 L337.902,409.607"/>
</g>

<g fill="#ff0000" fill-opacity="1" stroke="none" transform="matrix(7.5e-05,0,0,7.5e-05,-251.427,-29.4375)"
font-family="Helvetica" font-size="14" font-weight="400" font-style="normal" 
>
<path vector-effect="none" fill-rule="evenodd" d="M3.37902e+06,5.0294e+06 L3.42675e+06,5.0294e+06 L3.44242e+06,4.98333e+06 L3.4581e+06,5.0294e+06 L3.50583e+06,5.0294e+06 L3.46779e+06,5.05824e+06 L3.48161e+06,5.10393e+06 L3.44242e+06,5.07667e+06 L3.40324e+06,5.10393e+06 L3.41706e+06,5.05824e+06 L3.37902e+06,5.0294e+06"/>
</g>

<g fill="none" stroke="#ff0000" stroke-opacity="1" stroke-width="1.33333" stroke-linecap="butt" stroke-linejoin="miter" stroke-miterlimit="2" transform="matrix(0.75,0,0,0.75,-251.427,-29.4375)"
font-family="Helvetica" font-size="14" font-weight="400" font-style="normal" 
>
<path vector-effect="none" fill-rule="evenodd" d="M337.902,502.94 L342.675,502.94 L344.242,498.333 L345.81,502.94 L350.583,502.94 L346.779,505.824 L348.161,510.393 L344.242,507.667 L340.324,510.393 L341.706,505.824 L337.902,502.94"/>
</g>

<g fill="#ff0000" fill-opacity="1" stroke="none" transform="matrix(7.5e-05,0,0,7.5e-05,-251.427,-29.4375)"
font-family="Helvetica" font-size="14" font-weight="400" font-style="normal" 
>
<path vector-effect="none" fill-rule="evenodd" d="M3.37902e+06,5.96273e+06 L3.42675e+06,5.96273e+06 L3.44242e+06,5.91667e+06 L3.4581e+06,5.96273e+06 L3.50583e+06,5.96273e+06 L3.46779e+06,5.99157e+06 L3.48161e+06,6.03727e+06 L3.44242e+06,6.01e+06 L3.40324e+06,6.03727e+06 L3.41706e+06,5.99157e+06 L3.37902e+06,5.96273e+06"/>
</g>

<g fill="none" stroke="#ff0000" stroke-opacity="1" stroke-width="1.33333" stroke-linecap="butt" stroke-linejoin="miter" stroke-miterlimit="2" transform="matrix(0.75,0,0,0.75,-251.427,-29.4375)"
font-family="Helvetica" font-size="14" font-weight="400" font-style="normal" 
>
<path vector-effect="none" fill-rule="evenodd" d="M337.902,596.273 L342.675,596.273 L344.242,591.667 L345.81,596.273 L350.583,596.273 L346.779,599.157 L348.161,603.727 L344.242,601 L340.324,603.727 L341.706,599.157 L337.902,596.273"/>
</g>

<g fill="#ff0000" fill-opacity="1" stroke="none" transform="matrix(7.5e-05,0,0,7.5e-05,-251.427,-29.4375)"
font-family="Helvetica" font-size="14" font-weight="400" font-style="normal" 
>
<path vector-effect="none" fill-rule="evenodd" d="M1.23942e+07,5.96273e+06 L1.24419e+07,5.96273e+06 L1.24576e+07,5.91667e+06 L1.24733e+07,5.96273e+06 L1.2521e+07,5.96273e+06 L1.24829e+07,5.99157e+06 L1.24968e+07,6.03727e+06 L1.24576e+07,6.01e+06 L1.24184e+07,6.03727e+06 L1.24322e+07,5.99157e+06 L1.23942e+07,5.96273e+06"/>
</g>

<g fill="none" stroke="#ff0000" stroke-opacity="1" stroke-width="1.33333" stroke-linecap="butt" stroke-linejoin="miter" stroke-miterlimit="2" transform="matrix(0.75,0,0,0.75,-251.427,-29.4375)"
font-family="Helvetica" font-size="14" font-weight="400" font-style="normal" 
>
<path vector-effect="none" fill-rule="evenodd" d="M1239.42,596.273 L1244.19,596.273 L1245.76,591.667 L1247.32,596.273 L1252.1,596.273 L1248.29,599.157 L1249.68,603.727 L1245.76,601 L1241.84,603.727 L1243.22,599.157 L1239.42,596.273"/>
</g>

<g fill="#ff0000" fill-opacity="1" stroke="none" transform="matrix(7.5e-05,0,0,7.5e-05,-251.427,-29.4375)"
font-family="Helvetica" font-size="14" font-weight="400" font-style="normal" 
>
<path vector-effect="none" fill-rule="evenodd" d="M7.898e+06,1.26467e+06 L7.898e+06,1.36867e+06 L8.002e+06,1.36867e+06 L8.002e+06,1.26467e+06 L7.898e+06,1.26467e+06"/>
</g>

<g fill="none" stroke="#ff0000" stroke-opacity="1" stroke-width="1.33333" stroke-linecap="butt" stroke-linejoin="miter" stroke-miterlimit="2" transform="matrix(0.75,0,0,0.75,-251.427,-29.4375)"
font-family="Helvetica" font-size="14" font-weight="400" font-style="normal" 
>
<path vector-effect="none" fill-rule="evenodd" d="M789.8,126.467 L789.8,136.867 L800.2,136.867 L800.2,126.467 L789.8,126.467"/>
</g>

<g fill="#212121" fill-opacity="1" stroke="#212121" stroke-opacity="1" stroke-width="1" stroke-linecap="square" stroke-linejoin="bevel" transform="matrix(0.704769,0.256515,-0.256515,0.704769,347.898,74.0231)"
font-family="Helvetica" font-size="13" font-weight="400" font-style="normal" 
>
<text fill="#212121" fill-opacity="1" stroke="none" xml:space="preserve" x="0" y="0" font-family="Helvetica" font-size="13" font-weight="400" font-style="normal" 
 >3</text>
</g>

<g fill="#212121" fill-opacity="1" stroke="#212121" stroke-opacity="1" stroke-width="1" stroke-linecap="square" stroke-linejoin="bevel" transform="matrix(0.704769,0.256515,-0.256515,0.704769,347.898,144.023)"
font-family="Helvetica" font-size="13" font-weight="400" font-style="normal" 
>
<text fill="#212121" fill-opacity="1" stroke="none" xml:space="preserve" x="0" y="0" font-family="Helvetica" font-size="13" font-weight="400" font-style="normal" 
 >8</text>
</g>

<g fill="#212121" fill-opacity="1" stroke="#212121" stroke-opacity="1" stroke-width="1" stroke-linecap="square" stroke-linejoin="bevel" transform="matrix(0.704769,0.256515,-0.256515,0.704769,347.898,214.023)"
font-family="Helvetica" font-size="13" font-weight="400" font-style="normal" 
>
<text fill="#212121" fill-opacity="1" stroke="none" xml:space="preserve" x="0" y="0" font-family="Helvetica" font-size="13" font-weight="400" font-style="normal" 
 >13</text>
</g>

<g fill="#212121" fill-opacity="1" stroke="#212121" stroke-opacity="1" stroke-width="1" stroke-linecap="square" stroke-linejoin="bevel" transform="matrix(0.704769,0.256515,-0.256515,0.704769,9.82956,284.023)"
font-family="Helvetica" font-size="13" font-weight="400" font-style="normal" 
>
<text fill="#212121" fill-opacity="1" stroke="none" xml:space="preserve" x="0" y="0" font-family="Helvetica" font-size="13" font-weight="400" font-style="normal" 
 >16</text>
</g>

<g fill="#212121" fill-opacity="1" stroke="#212121" stroke-opacity="1" stroke-width="1" stroke-linecap="square" stroke-linejoin="bevel" transform="matrix(0.704769,0.256515,-0.256515,0.704769,685.966,284.023)"
font-family="Helvetica" font-size="13" font-weight="400" font-style="normal" 
>
<text fill="#212121" fill-opacity="1" stroke="none" xml:space="preserve" x="0" y="0" font-family="Helvetica" font-size="13" font-weight="400" font-style="normal" 
 >18</text>
</g>

<g fill="#212121" fill-opacity="1" stroke="#212121" stroke-opacity="1" stroke-width="1" stroke-linecap="square" stroke-linejoin="bevel" transform="matrix(0.704769,0.256515,-0.256515,0.704769,9.82956,354.023)"
font-family="Helvetica" font-size="13" font-weight="400" font-style="normal" 
>
<text fill="#212121" fill-opacity="1" stroke="none" xml:space="preserve" x="0" y="0" font-family="Helvetica" font-size="13" font-weight="400" font-style="normal" 
 >19</text>
</g>

<g fill="#212121" fill-opacity="1" stroke="#212121" stroke-opacity="1" stroke-width="1" stroke-linecap="square" stroke-linejoin="bevel" transform="matrix(0.704769,0.256515,-0.256515,0.704769,685.966,354.023)"
font-family="Helvetica" font-size="13" font-weight="400" font-style="normal" 
>
<text fill="#212121" fill-opacity="1" stroke="none" xml:space="preserve" x="0" y="0" font-family="Helvetica" font-size="13" font-weight="400" font-style="normal" 
 >20</text>
</g>

<g fill="#212121" fill-opacity="1" stroke="#212121" stroke-opacity="1" stroke-width="1" stroke-linecap="square" stroke-linejoin="bevel" transform="matrix(0.704769,0.256515,-0.256515,0.704769,9.82956,424.023)"
font-family="Helvetica" font-size="13" font-weight="400" font-style="normal" 
>
<text fill="#212121" fill-opacity="1" stroke="none" xml:space="preserve" x="0" y="0" font-family="Helvetica" font-size="13" font-weight="400" font-style="normal" 
 >21</text>
</g>

<g fill="#212121" fill-opacity="1" stroke="#212121" stroke-opacity="1" stroke-width="1" stroke-linecap="square" stroke-linejoin="bevel" transform="matrix(0.704769,0.256515,-0.256515,0.704769,685.966,424.023)"
font-family="Helvetica" font-size="13" font-weight="400" font-style="normal" 
>
<text fill="#212121" fill-opacity="1" stroke="none" xml:space="preserve" x="0" y="0" font-family="Helvetica" font-size="13" font-weight="400" font-style="normal" 
 >25</text>
</g>

<g fill="#212121" fill-opacity="1" stroke="#212121" stroke-opacity="1" stroke-width="1" stroke-linecap="square" stroke-linejoin="bevel" transform="matrix(0,0.75,-0.75,0,347.073,101.688)"
font-family="Helvetica" font-size="13" font-weight="400" font-style="italic" 
>
<text fill="#212121" fill-opacity="1" stroke="none" xml:space="preserve" x="0" y="0" font-family="Helvetica" font-size="13" font-weight="400" font-style="italic" 
 >8</text>
</g>

<g fill="#212121" fill-opacity="1" stroke="#212121" stroke-opacity="1" stroke-width="1" stroke-linecap="square" stroke-linejoin="bevel" transform="matrix(0,0.75,-0.75,0,347.073,169.063)"
font-family="Helvetica" font-size="13" font-weight="400" font-style="italic" 
>
<text fill="#212121" fill-opacity="1" stroke="none" xml:space="preserve" x="0" y="0" font-family="Helvetica" font-size="13" font-weight="400" font-style="italic" 
 >23</text>
</g>

<g fill="#212121" fill-opacity="1" stroke="#212121" stroke-opacity="1" stroke-width="1" stroke-linecap="square" stroke-linejoin="bevel" transform="matrix(0.734422,-0.152068,0.152068,0.734422,170.192,243.174)"
font-family="Helvetica" font-size="13" font-weight="400" font-style="italic" 
>
<text fill="#212121" fill-opacity="1" stroke="none" xml:space="preserve" x="0" y="0" font-family="Helvetica" font-size="13" font-weight="400" font-style="italic" 
 >38</text>
</g>

<g fill="#212121" fill-opacity="1" stroke="#212121" stroke-opacity="1" stroke-width="1" stroke-linecap="square" stroke-linejoin="bevel" transform="matrix(0.734422,0.152068,-0.152068,0.734422,509.173,241.045)"
font-family="Helvetica" font-size="13" font-weight="400" font-style="italic" 
>
<text fill="#212121" fill-opacity="1" stroke="none" xml:space="preserve" x="0" y="0" font-family="Helvetica" font-size="13" font-weight="400" font-style="italic" 
 >39</text>
</g>

<g fill="#212121" fill-opacity="1" stroke="#212121" stroke-opacity="1" stroke-width="1" stroke-linecap="square" stroke-linejoin="bevel" transform="matrix(0,0.75,-0.75,0,9.00529,309.063)"
font-family="Helvetica" font-size="13" font-weight="400" font-style="italic" 
>
<text fill="#212121" fill-opacity="1" stroke="none" xml:space="preserve" x="0" y="0" font-family="Helvetica" font-size="13" font-weight="400" font-style="italic" 
 >49</text>
</g>

<g fill="#212121" fill-opacity="1" stroke="#212121" stroke-opacity="1" stroke-width="1" stroke-linecap="square" stroke-linejoin="bevel" transform="matrix(0,0.75,-0.75,0,685.142,309.063)"
font-family="Helvetica" font-size="13" font-weight="400" font-style="italic" 
>
<text fill="#212121" fill-opacity="1" stroke="none" xml:space="preserve" x="0" y="0" font-family="Helvetica" font-size="13" font-weight="400" font-style="italic" 
 >58</text>
</g>

<g fill="#212121" fill-opacity="1" stroke="#212121" stroke-opacity="1" stroke-width="1" stroke-linecap="square" stroke-linejoin="bevel" transform="matrix(0,0.75,-0.75,0,9.00529,379.063)"
font-family="Helvetica" font-size="13" font-weight="400" font-style="italic" 
>
<text fill="#212121" fill-opacity="1" stroke="none" xml:space="preserve" x="0" y="0" font-family="Helvetica" font-size="13" font-weight="400" font-style="italic" 
 >61</text>
</g>

<g fill="#212121" fill-opacity="1" stroke="#212121" stroke-opacity="1" stroke-width="1" stroke-linecap="square" stroke-linejoin="bevel" transform="matrix(0,0.75,-0.75,0,685.142,379.063)"
font-family="Helvetica" font-size="13" font-weight="400" font-style="italic" 
>
<text fill="#212121" fill-opacity="1" stroke="none" xml:space="preserve" x="0" y="0" font-family="Helvetica" font-size="13" font-weight="400" font-style="italic" 
 >66</text>
</g>

<g fill="#ff0000" fill-opacity="1" stroke="#ff0000" stroke-opacity="1" stroke-width="1" stroke-linecap="square" stroke-linejoin="bevel" transform="matrix(0.75,0,0,0.75,328.323,62.1875)"
font-family="Helvetica" font-size="13" font-weight="700" font-style="normal" 
>
<text fill="#ff0000" fill-opacity="1" stroke="none" xml:space="preserve" x="0" y="0" font-family="Helvetica" font-size="13" font-weight="700" font-style="normal" 
 >Source</text>
</g>

<g fill="#ff0000" fill-opacity="1" stroke="#ff0000" stroke-opacity="1" stroke-width="1" stroke-linecap="square" stroke-linejoin="bevel" transform="matrix(0.75,0,0,0.75,339.948,152.438)"
font-family="Helvetica" font-size="10" font-weight="400" font-style="normal" 
>
<text fill="#ff0000" fill-opacity="1" stroke="none" xml:space="preserve" x="0" y="0" font-family="Helvetica" font-size="10" font-weight="400" font-style="normal" 
 >D1</text>
</g>

<g fill="#ff0000" fill-opacity="1" stroke="#ff0000" stroke-opacity="1" stroke-width="1" stroke-linecap="square" stroke-linejoin="bevel" transform="matrix(0.75,0,0,0.75,1.88029,362.438)"
font-family="Helvetica" font-size="10" font-weight="400" font-style="normal" 
>
<text fill="#ff0000" fill-opacity="1" stroke="none" xml:space="preserve" x="0" y="0" font-family="Helvetica" font-size="10" font-weight="400" font-style="normal" 
 >D2</text>
</g>

<g fill="#ff0000" fill-opacity="1" stroke="#ff0000" stroke-opacity="1" stroke-width="1" stroke-linecap="square" stroke-linejoin="bevel" transform="matrix(0.75,0,0,0.75,1.88029,292.438)"
font-family="Helvetica" font-size="10" font-weight="400" font-style="normal" 
>
<text fill="#ff0000" fill-opacity="1" stroke="none" xml:space="preserve" x="0" y="0" font-family="Helvetica" font-size="10" font-weight="400" font-style="normal" 
 >D3</text>
</g>

<g fill="#ff0000" fill-opacity="1" stroke="#ff0000" stroke-opacity="1" stroke-width="1" stroke-linecap="square" stroke-linejoin="bevel" transform="matrix(0.75,0,0,0.75,1.88029,432.437)"
font-family="Helvetica" font-size="10" font-weight="400" font-style="normal" 
>
<text fill="#ff0000" fill-opacity="1" stroke="none" xml:space="preserve" x="0" y="0" font-family="Helvetica" font-size="10" font-weight="400" font-style="normal" 
 >D4</text>
</g>

<g fill="#ff0000" fill-opacity="1" stroke="#ff0000" stroke-opacity="1" stroke-width="1" stroke-linecap="square" stroke-linejoin="bevel" transform="matrix(0.75,0,0,0.75,678.017,432.437)"
font-family="Helvetica" font-size="10" font-weight="400" font-style="normal" 
>
<text fill="#ff0000" fill-opacity="1" stroke="none" xml:space="preserve" x="0" y="0" font-family="Helvetica" font-size="10" font-weight="400" font-style="normal" 
 >D5</text>
</g>

<g fill="#0000ff" fill-opacity="1" stroke="#0000ff" stroke-opacity="1" stroke-width="1" stroke-linecap="square" stroke-linejoin="bevel" transform="matrix(0.75,0,0,0.75,323.073,128.063)"
font-family="Helvetica" font-size="12" font-weight="700" font-style="normal" 
>
<text fill="#0000ff" fill-opacity="1" stroke="none" xml:space="preserve" x="0" y="0" font-family="Helvetica" font-size="12" font-weight="700" font-style="normal" 
 >VNF: 1,6,8</text>
</g>
</g>
</svg>
