<?xml version="1.0" encoding="UTF-8" standalone="no"?>
<svg width="407.458mm" height="201.083mm"
 viewBox="0 0 1155 570"
 xmlns="http://www.w3.org/2000/svg" xmlns:xlink="http://www.w3.org/1999/xlink"  version="1.2" baseProfile="tiny">
<title>Qt SVG Document</title>
<desc>MATLAB, The MathWorks, Inc. Version 25.2.0.2998904 R2025b</desc>
<defs>
</defs>
<g fill="none" stroke="black" stroke-width="1" fill-rule="evenodd" stroke-linecap="square" stroke-linejoin="bevel" >

<g fill="#ffffff" fill-opacity="1" stroke="none" transform="matrix(1.20125,0,0,0.980828,-376.894,-38.9591)"
font-family="SimSun" font-size="9" font-weight="400" font-style="normal" 
>
<path vector-effect="none" fill-rule="evenodd" d="M313,39 L1275,39 L1275,622 L313,622 L313,39"/>
</g>

<g fill="#212121" fill-opacity="1" stroke="#212121" stroke-opacity="1" stroke-width="1" stroke-linecap="square" stroke-linejoin="bevel" transform="matrix(1.20125,0,0,0.980828,389.505,11.3083)"
font-family="Helvetica" font-size="14" font-weight="400" font-style="normal" 
>
<text fill="#212121" fill-opacity="1" stroke="none" xml:space="preserve" x="0" y="0" font-family="Helvetica" font-size="14" font-weight="400" font-style="normal" 
 >Multicast Service Function Chain Tree (Req ID: 1)</text>
</g>

<g fill="#1171be" fill-opacity="0.501961" stroke="none" transform="matrix(0.000120125,0,0,9.80827e-05,-376.894,-38.9591)"
font-family="Helvetica" font-size="14" font-weight="400" font-style="normal" 
>
<path vector-effect="none" fill-rule="evenodd" d="M3.44242e+06,5.4e+06 L3.49242e+06,5.26667e+06 L3.44242e+06,5.31333e+06 L3.39242e+06,5.26667e+06 L3.44242e+06,5.4e+06"/>
</g>

<g fill="#1171be" fill-opacity="0.501961" stroke="none" transform="matrix(0.000120125,0,0,9.80827e-05,-376.894,-38.9591)"
font-family="Helvetica" font-size="14" font-weight="400" font-style="normal" 
>
<path vector-effect="none" fill-rule="evenodd" d="M3.44242e+06,4.23333e+06 L3.49242e+06,4.1e+06 L3.44242e+06,4.14667e+06 L3.39242e+06,4.1e+06 L3.44242e+06,4.23333e+06"/>
</g>

<g fill="#1171be" fill-opacity="0.501961" stroke="none" transform="matrix(0.000120125,0,0,9.80827e-05,-376.894,-38.9591)"
font-family="Helvetica" font-size="14" font-weight="400" font-style="normal" 
>
<path vector-effect="none" fill-rule="evenodd" d="M3.44242e+06,3.06667e+06 L3.49242e+06,2.93333e+06 L3.44242e+06,2.98e+06 L3.39242e+06,2.93333e+06 L3.44242e+06,3.06667e+06"/>
</g>

<g fill="#1171be" fill-opacity="0.501961" stroke="none" transform="matrix(0.000120125,0,0,9.80827e-05,-376.894,-38.9591)"
font-family="Helvetica" font-size="14" font-weight="400" font-style="normal" 
>
<path vector-effect="none" fill-rule="evenodd" d="M6.44748e+06,5.4e+06 L6.49748e+06,5.26667e+06 L6.44748e+06,5.31333e+06 L6.39748e+06,5.26667e+06 L6.44748e+06,5.4e+06"/>
</g>

<g fill="#1171be" fill-opacity="0.501961" stroke="none" transform="matrix(0.000120125,0,0,9.80827e-05,-376.894,-38.9591)"
font-family="Helvetica" font-size="14" font-weight="400" font-style="normal" 
>
<path vector-effect="none" fill-rule="evenodd" d="M4.94495e+06,1.9e+06 L5.08734e+06,1.89836e+06 L5.02574e+06,1.86863e+06 L5.05115e+06,1.80513e+06 L4.94495e+06,1.9e+06"/>
</g>

<g fill="#1171be" fill-opacity="0.501961" stroke="none" transform="matrix(0.000120125,0,0,9.80827e-05,-376.894,-38.9591)"
font-family="Helvetica" font-size="14" font-weight="400" font-style="normal" 
>
<path vector-effect="none" fill-rule="evenodd" d="M7.95e+06,1.9e+06 L7.8438e+06,1.80513e+06 L7.86921e+06,1.86863e+06 L7.80761e+06,1.89836e+06 L7.95e+06,1.9e+06"/>
</g>

<g fill="#1171be" fill-opacity="0.501961" stroke="none" transform="matrix(0.000120125,0,0,9.80827e-05,-376.894,-38.9591)"
font-family="Helvetica" font-size="14" font-weight="400" font-style="normal" 
>
<path vector-effect="none" fill-rule="evenodd" d="M7.95e+06,3.06667e+06 L8.09239e+06,3.06502e+06 L8.03079e+06,3.0353e+06 L8.0562e+06,2.9718e+06 L7.95e+06,3.06667e+06"/>
</g>

<g fill="#1171be" fill-opacity="0.501961" stroke="none" transform="matrix(0.000120125,0,0,9.80827e-05,-376.894,-38.9591)"
font-family="Helvetica" font-size="14" font-weight="400" font-style="normal" 
>
<path vector-effect="none" fill-rule="evenodd" d="M9.45253e+06,3.06667e+06 L9.50253e+06,2.93333e+06 L9.45253e+06,2.98e+06 L9.40253e+06,2.93333e+06 L9.45253e+06,3.06667e+06"/>
</g>

<g fill="#1171be" fill-opacity="0.501961" stroke="none" transform="matrix(0.000120125,0,0,9.80827e-05,-376.894,-38.9591)"
font-family="Helvetica" font-size="14" font-weight="400" font-style="normal" 
>
<path vector-effect="none" fill-rule="evenodd" d="M1.09551e+07,3.06667e+06 L1.08489e+07,2.9718e+06 L1.08743e+07,3.0353e+06 L1.08127e+07,3.06502e+06 L1.09551e+07,3.06667e+06"/>
</g>

<g fill="#1171be" fill-opacity="0.501961" stroke="none" transform="matrix(0.000120125,0,0,9.80827e-05,-376.894,-38.9591)"
font-family="Helvetica" font-size="14" font-weight="400" font-style="normal" 
>
<path vector-effect="none" fill-rule="evenodd" d="M6.44748e+06,4.23333e+06 L6.49748e+06,4.1e+06 L6.44748e+06,4.14667e+06 L6.39748e+06,4.1e+06 L6.44748e+06,4.23333e+06"/>
</g>

<g fill="#1171be" fill-opacity="0.501961" stroke="none" transform="matrix(0.000120125,0,0,9.80827e-05,-376.894,-38.9591)"
font-family="Helvetica" font-size="14" font-weight="400" font-style="normal" 
>
<path vector-effect="none" fill-rule="evenodd" d="M9.45253e+06,4.23333e+06 L9.50253e+06,4.1e+06 L9.45253e+06,4.14667e+06 L9.40253e+06,4.1e+06 L9.45253e+06,4.23333e+06"/>
</g>

<g fill="#1171be" fill-opacity="0.501961" stroke="none" transform="matrix(0.000120125,0,0,9.80827e-05,-376.894,-38.9591)"
font-family="Helvetica" font-size="14" font-weight="400" font-style="normal" 
>
<path vector-effect="none" fill-rule="evenodd" d="M9.45253e+06,5.4e+06 L9.50253e+06,5.26667e+06 L9.45253e+06,5.31333e+06 L9.40253e+06,5.26667e+06 L9.45253e+06,5.4e+06"/>
</g>

<g fill="#1171be" fill-opacity="0.501961" stroke="none" transform="matrix(0.000120125,0,0,9.80827e-05,-376.894,-38.9591)"
font-family="Helvetica" font-size="14" font-weight="400" font-style="normal" 
>
<path vector-effect="none" fill-rule="evenodd" d="M1.24576e+07,4.23333e+06 L1.25076e+07,4.1e+06 L1.24576e+07,4.14667e+06 L1.24076e+07,4.1e+06 L1.24576e+07,4.23333e+06"/>
</g>

<g fill="#1171be" fill-opacity="0.501961" stroke="#1171be" stroke-opacity="0.501961" stroke-width="1.6" stroke-linecap="butt" stroke-linejoin="round" transform="matrix(1.20125,0,0,0.980828,-376.894,-38.9591)"
font-family="Helvetica" font-size="14" font-weight="400" font-style="normal" 
>
<polyline fill="none" vector-effect="none" points="344.242,481.667 344.242,598.333 " />
<polyline fill="none" vector-effect="none" points="344.242,365 344.242,481.667 " />
<polyline fill="none" vector-effect="none" points="344.242,248.333 344.242,365 " />
<polyline fill="none" vector-effect="none" points="644.747,481.667 644.747,598.333 " />
<polyline fill="none" vector-effect="none" points="644.747,131.667 344.242,248.333 " />
<polyline fill="none" vector-effect="none" points="644.747,131.667 945.253,248.333 " />
<polyline fill="none" vector-effect="none" points="945.253,248.333 644.747,365 " />
<polyline fill="none" vector-effect="none" points="945.253,248.333 945.253,365 " />
<polyline fill="none" vector-effect="none" points="945.253,248.333 1245.76,365 " />
<polyline fill="none" vector-effect="none" points="644.747,365 644.747,481.667 " />
<polyline fill="none" vector-effect="none" points="945.253,365 945.253,481.667 " />
<polyline fill="none" vector-effect="none" points="945.253,481.667 945.253,598.333 " />
<polyline fill="none" vector-effect="none" points="1245.76,365 1245.76,481.667 " />
</g>

<g fill="#999999" fill-opacity="1" stroke="none" transform="matrix(1.20125,0,0,0.980828,-376.894,-38.9591)"
font-family="Helvetica" font-size="14" font-weight="400" font-style="normal" 
>
<circle cx="344.242" cy="481.667" r="4"/>
</g>

<g fill="none" stroke="#999999" stroke-opacity="1" stroke-width="1.33333" stroke-linecap="butt" stroke-linejoin="miter" stroke-miterlimit="2" transform="matrix(1.20125,0,0,0.980828,-376.894,-38.9591)"
font-family="Helvetica" font-size="14" font-weight="400" font-style="normal" 
>
<path vector-effect="none" fill-rule="evenodd" d="M348.242,481.667 C348.242,479.458 346.452,477.667 344.242,477.667 C342.033,477.667 340.242,479.458 340.242,481.667 C340.242,483.876 342.033,485.667 344.242,485.667 C346.452,485.667 348.242,483.876 348.242,481.667 "/>
</g>

<g fill="#999999" fill-opacity="1" stroke="none" transform="matrix(1.20125,0,0,0.980828,-376.894,-38.9591)"
font-family="Helvetica" font-size="14" font-weight="400" font-style="normal" 
>
<circle cx="344.242" cy="365" r="4"/>
</g>

<g fill="none" stroke="#999999" stroke-opacity="1" stroke-width="1.33333" stroke-linecap="butt" stroke-linejoin="miter" stroke-miterlimit="2" transform="matrix(1.20125,0,0,0.980828,-376.894,-38.9591)"
font-family="Helvetica" font-size="14" font-weight="400" font-style="normal" 
>
<path vector-effect="none" fill-rule="evenodd" d="M348.242,365 C348.242,362.791 346.452,361 344.242,361 C342.033,361 340.242,362.791 340.242,365 C340.242,367.209 342.033,369 344.242,369 C346.452,369 348.242,367.209 348.242,365 "/>
</g>

<g fill="#999999" fill-opacity="1" stroke="none" transform="matrix(1.20125,0,0,0.980828,-376.894,-38.9591)"
font-family="Helvetica" font-size="14" font-weight="400" font-style="normal" 
>
<circle cx="344.242" cy="248.333" r="4"/>
</g>

<g fill="none" stroke="#999999" stroke-opacity="1" stroke-width="1.33333" stroke-linecap="butt" stroke-linejoin="miter" stroke-miterlimit="2" transform="matrix(1.20125,0,0,0.980828,-376.894,-38.9591)"
font-family="Helvetica" font-size="14" font-weight="400" font-style="normal" 
>
<path vector-effect="none" fill-rule="evenodd" d="M348.242,248.333 C348.242,246.124 346.452,244.333 344.242,244.333 C342.033,244.333 340.242,246.124 340.242,248.333 C340.242,250.542 342.033,252.333 344.242,252.333 C346.452,252.333 348.242,250.542 348.242,248.333 "/>
</g>

<g fill="#999999" fill-opacity="1" stroke="none" transform="matrix(1.20125,0,0,0.980828,-376.894,-38.9591)"
font-family="Helvetica" font-size="14" font-weight="400" font-style="normal" 
>
<circle cx="644.747" cy="481.667" r="4"/>
</g>

<g fill="none" stroke="#999999" stroke-opacity="1" stroke-width="1.33333" stroke-linecap="butt" stroke-linejoin="miter" stroke-miterlimit="2" transform="matrix(1.20125,0,0,0.980828,-376.894,-38.9591)"
font-family="Helvetica" font-size="14" font-weight="400" font-style="normal" 
>
<path vector-effect="none" fill-rule="evenodd" d="M648.747,481.667 C648.747,479.458 646.957,477.667 644.747,477.667 C642.538,477.667 640.747,479.458 640.747,481.667 C640.747,483.876 642.538,485.667 644.747,485.667 C646.957,485.667 648.747,483.876 648.747,481.667 "/>
</g>

<g fill="#999999" fill-opacity="1" stroke="none" transform="matrix(1.20125,0,0,0.980828,-376.894,-38.9591)"
font-family="Helvetica" font-size="14" font-weight="400" font-style="normal" 
>
<circle cx="945.253" cy="248.333" r="4"/>
</g>

<g fill="none" stroke="#999999" stroke-opacity="1" stroke-width="1.33333" stroke-linecap="butt" stroke-linejoin="miter" stroke-miterlimit="2" transform="matrix(1.20125,0,0,0.980828,-376.894,-38.9591)"
font-family="Helvetica" font-size="14" font-weight="400" font-style="normal" 
>
<path vector-effect="none" fill-rule="evenodd" d="M949.253,248.333 C949.253,246.124 947.462,244.333 945.253,244.333 C943.043,244.333 941.253,246.124 941.253,248.333 C941.253,250.542 943.043,252.333 945.253,252.333 C947.462,252.333 949.253,250.542 949.253,248.333 "/>
</g>

<g fill="#999999" fill-opacity="1" stroke="none" transform="matrix(1.20125,0,0,0.980828,-376.894,-38.9591)"
font-family="Helvetica" font-size="14" font-weight="400" font-style="normal" 
>
<circle cx="644.747" cy="365" r="4"/>
</g>

<g fill="none" stroke="#999999" stroke-opacity="1" stroke-width="1.33333" stroke-linecap="butt" stroke-linejoin="miter" stroke-miterlimit="2" transform="matrix(1.20125,0,0,0.980828,-376.894,-38.9591)"
font-family="Helvetica" font-size="14" font-weight="400" font-style="normal" 
>
<path vector-effect="none" fill-rule="evenodd" d="M648.747,365 C648.747,362.791 646.957,361 644.747,361 C642.538,361 640.747,362.791 640.747,365 C640.747,367.209 642.538,369 644.747,369 C646.957,369 648.747,367.209 648.747,365 "/>
</g>

<g fill="#999999" fill-opacity="1" stroke="none" transform="matrix(1.20125,0,0,0.980828,-376.894,-38.9591)"
font-family="Helvetica" font-size="14" font-weight="400" font-style="normal" 
>
<circle cx="945.253" cy="365" r="4"/>
</g>

<g fill="none" stroke="#999999" stroke-opacity="1" stroke-width="1.33333" stroke-linecap="butt" stroke-linejoin="miter" stroke-miterlimit="2" transform="matrix(1.20125,0,0,0.980828,-376.894,-38.9591)"
font-family="Helvetica" font-size="14" font-weight="400" font-style="normal" 
>
<path vector-effect="none" fill-rule="evenodd" d="M949.253,365 C949.253,362.791 947.462,361 945.253,361 C943.043,361 941.253,362.791 941.253,365 C941.253,367.209 943.043,369 945.253,369 C947.462,369 949.253,367.209 949.253,365 "/>
</g>

<g fill="#999999" fill-opacity="1" stroke="none" transform="matrix(1.20125,0,0,0.980828,-376.894,-38.9591)"
font-family="Helvetica" font-size="14" font-weight="400" font-style="normal" 
>
<circle cx="1245.76" cy="365" r="4"/>
</g>

<g fill="none" stroke="#999999" stroke-opacity="1" stroke-width="1.33333" stroke-linecap="butt" stroke-linejoin="miter" stroke-miterlimit="2" transform="matrix(1.20125,0,0,0.980828,-376.894,-38.9591)"
font-family="Helvetica" font-size="14" font-weight="400" font-style="normal" 
>
<path vector-effect="none" fill-rule="evenodd" d="M1249.76,365 C1249.76,362.791 1247.97,361 1245.76,361 C1243.55,361 1241.76,362.791 1241.76,365 C1241.76,367.209 1243.55,369 1245.76,369 C1247.97,369 1249.76,367.209 1249.76,365 "/>
</g>

<g fill="#ff0000" fill-opacity="1" stroke="none" transform="matrix(0.000120125,0,0,9.80827e-05,-376.894,-38.9591)"
font-family="Helvetica" font-size="14" font-weight="400" font-style="normal" 
>
<path vector-effect="none" fill-rule="evenodd" d="M3.3917e+06,5.96685e+06 L3.42988e+06,5.96685e+06 L3.44242e+06,5.93e+06 L3.45496e+06,5.96685e+06 L3.49315e+06,5.96685e+06 L3.46271e+06,5.98993e+06 L3.47377e+06,6.02648e+06 L3.44242e+06,6.00467e+06 L3.41108e+06,6.02648e+06 L3.42214e+06,5.98993e+06 L3.3917e+06,5.96685e+06"/>
</g>

<g fill="none" stroke="#ff0000" stroke-opacity="1" stroke-width="1.33333" stroke-linecap="butt" stroke-linejoin="miter" stroke-miterlimit="2" transform="matrix(1.20125,0,0,0.980828,-376.894,-38.9591)"
font-family="Helvetica" font-size="14" font-weight="400" font-style="normal" 
>
<path vector-effect="none" fill-rule="evenodd" d="M339.17,596.685 L342.988,596.685 L344.242,593 L345.496,596.685 L349.315,596.685 L346.271,598.993 L347.377,602.648 L344.242,600.467 L341.108,602.648 L342.214,598.993 L339.17,596.685"/>
</g>

<g fill="#ff0000" fill-opacity="1" stroke="none" transform="matrix(0.000120125,0,0,9.80827e-05,-376.894,-38.9591)"
font-family="Helvetica" font-size="14" font-weight="400" font-style="normal" 
>
<path vector-effect="none" fill-rule="evenodd" d="M6.39675e+06,5.96685e+06 L6.43494e+06,5.96685e+06 L6.44748e+06,5.93e+06 L6.46001e+06,5.96685e+06 L6.4982e+06,5.96685e+06 L6.46776e+06,5.98993e+06 L6.47882e+06,6.02648e+06 L6.44748e+06,6.00467e+06 L6.41613e+06,6.02648e+06 L6.42719e+06,5.98993e+06 L6.39675e+06,5.96685e+06"/>
</g>

<g fill="none" stroke="#ff0000" stroke-opacity="1" stroke-width="1.33333" stroke-linecap="butt" stroke-linejoin="miter" stroke-miterlimit="2" transform="matrix(1.20125,0,0,0.980828,-376.894,-38.9591)"
font-family="Helvetica" font-size="14" font-weight="400" font-style="normal" 
>
<path vector-effect="none" fill-rule="evenodd" d="M639.675,596.685 L643.494,596.685 L644.747,593 L646.001,596.685 L649.82,596.685 L646.776,598.993 L647.882,602.648 L644.747,600.467 L641.613,602.648 L642.719,598.993 L639.675,596.685"/>
</g>

<g fill="#ff0000" fill-opacity="1" stroke="none" transform="matrix(0.000120125,0,0,9.80827e-05,-376.894,-38.9591)"
font-family="Helvetica" font-size="14" font-weight="400" font-style="normal" 
>
<path vector-effect="none" fill-rule="evenodd" d="M9.4018e+06,4.80019e+06 L9.43999e+06,4.80019e+06 L9.45253e+06,4.76333e+06 L9.46507e+06,4.80019e+06 L9.50325e+06,4.80019e+06 L9.47281e+06,4.82326e+06 L9.48387e+06,4.85981e+06 L9.45253e+06,4.838e+06 L9.42118e+06,4.85981e+06 L9.43224e+06,4.82326e+06 L9.4018e+06,4.80019e+06"/>
</g>

<g fill="none" stroke="#ff0000" stroke-opacity="1" stroke-width="1.33333" stroke-linecap="butt" stroke-linejoin="miter" stroke-miterlimit="2" transform="matrix(1.20125,0,0,0.980828,-376.894,-38.9591)"
font-family="Helvetica" font-size="14" font-weight="400" font-style="normal" 
>
<path vector-effect="none" fill-rule="evenodd" d="M940.18,480.019 L943.999,480.019 L945.253,476.333 L946.506,480.019 L950.325,480.019 L947.281,482.326 L948.387,485.981 L945.253,483.8 L942.118,485.981 L943.224,482.326 L940.18,480.019"/>
</g>

<g fill="#ff0000" fill-opacity="1" stroke="none" transform="matrix(0.000120125,0,0,9.80827e-05,-376.894,-38.9591)"
font-family="Helvetica" font-size="14" font-weight="400" font-style="normal" 
>
<path vector-effect="none" fill-rule="evenodd" d="M1.24069e+07,4.80019e+06 L1.2445e+07,4.80019e+06 L1.24576e+07,4.76333e+06 L1.24701e+07,4.80019e+06 L1.25083e+07,4.80019e+06 L1.24779e+07,4.82326e+06 L1.24889e+07,4.85981e+06 L1.24576e+07,4.838e+06 L1.24262e+07,4.85981e+06 L1.24373e+07,4.82326e+06 L1.24069e+07,4.80019e+06"/>
</g>

<g fill="none" stroke="#ff0000" stroke-opacity="1" stroke-width="1.33333" stroke-linecap="butt" stroke-linejoin="miter" stroke-miterlimit="2" transform="matrix(1.20125,0,0,0.980828,-376.894,-38.9591)"
font-family="Helvetica" font-size="14" font-weight="400" font-style="normal" 
>
<path vector-effect="none" fill-rule="evenodd" d="M1240.69,480.019 L1244.5,480.019 L1245.76,476.333 L1247.01,480.019 L1250.83,480.019 L1247.79,482.326 L1248.89,485.981 L1245.76,483.8 L1242.62,485.981 L1243.73,482.326 L1240.69,480.019"/>
</g>

<g fill="#ff0000" fill-opacity="1" stroke="none" transform="matrix(0.000120125,0,0,9.80827e-05,-376.894,-38.9591)"
font-family="Helvetica" font-size="14" font-weight="400" font-style="normal" 
>
<path vector-effect="none" fill-rule="evenodd" d="M9.38912e+06,5.96273e+06 L9.43685e+06,5.96273e+06 L9.45253e+06,5.91667e+06 L9.4682e+06,5.96273e+06 L9.51593e+06,5.96273e+06 L9.47789e+06,5.99157e+06 L9.49171e+06,6.03727e+06 L9.45253e+06,6.01e+06 L9.41334e+06,6.03727e+06 L9.42716e+06,5.99157e+06 L9.38912e+06,5.96273e+06"/>
</g>

<g fill="none" stroke="#ff0000" stroke-opacity="1" stroke-width="1.33333" stroke-linecap="butt" stroke-linejoin="miter" stroke-miterlimit="2" transform="matrix(1.20125,0,0,0.980828,-376.894,-38.9591)"
font-family="Helvetica" font-size="14" font-weight="400" font-style="normal" 
>
<path vector-effect="none" fill-rule="evenodd" d="M938.912,596.273 L943.685,596.273 L945.253,591.667 L946.82,596.273 L951.593,596.273 L947.789,599.157 L949.171,603.727 L945.253,601 L941.334,603.727 L942.716,599.157 L938.912,596.273"/>
</g>

<g fill="#ff0000" fill-opacity="1" stroke="none" transform="matrix(0.000120125,0,0,9.80827e-05,-376.894,-38.9591)"
font-family="Helvetica" font-size="14" font-weight="400" font-style="normal" 
>
<path vector-effect="none" fill-rule="evenodd" d="M6.39548e+06,1.26467e+06 L6.39548e+06,1.36867e+06 L6.49948e+06,1.36867e+06 L6.49948e+06,1.26467e+06 L6.39548e+06,1.26467e+06"/>
</g>

<g fill="none" stroke="#ff0000" stroke-opacity="1" stroke-width="1.33333" stroke-linecap="butt" stroke-linejoin="miter" stroke-miterlimit="2" transform="matrix(1.20125,0,0,0.980828,-376.894,-38.9591)"
font-family="Helvetica" font-size="14" font-weight="400" font-style="normal" 
>
<path vector-effect="none" fill-rule="evenodd" d="M639.547,126.467 L639.547,136.867 L649.948,136.867 L649.948,126.467 L639.547,126.467"/>
</g>

<g fill="#212121" fill-opacity="1" stroke="#212121" stroke-opacity="1" stroke-width="1" stroke-linecap="square" stroke-linejoin="bevel" transform="matrix(1.12881,0.335463,-0.410852,0.921676,41.5515,554.063)"
font-family="Helvetica" font-size="13" font-weight="400" font-style="normal" 
>
<text fill="#212121" fill-opacity="1" stroke="none" xml:space="preserve" x="0" y="0" font-family="Helvetica" font-size="13" font-weight="400" font-style="normal" 
 >2</text>
</g>

<g fill="#212121" fill-opacity="1" stroke="#212121" stroke-opacity="1" stroke-width="1" stroke-linecap="square" stroke-linejoin="bevel" transform="matrix(1.12881,0.335463,-0.410852,0.921676,41.5515,439.633)"
font-family="Helvetica" font-size="13" font-weight="400" font-style="normal" 
>
<text fill="#212121" fill-opacity="1" stroke="none" xml:space="preserve" x="0" y="0" font-family="Helvetica" font-size="13" font-weight="400" font-style="normal" 
 >5</text>
</g>

<g fill="#212121" fill-opacity="1" stroke="#212121" stroke-opacity="1" stroke-width="1" stroke-linecap="square" stroke-linejoin="bevel" transform="matrix(1.12881,0.335463,-0.410852,0.921676,41.5515,325.203)"
font-family="Helvetica" font-size="13" font-weight="400" font-style="normal" 
>
<text fill="#212121" fill-opacity="1" stroke="none" xml:space="preserve" x="0" y="0" font-family="Helvetica" font-size="13" font-weight="400" font-style="normal" 
 >7</text>
</g>

<g fill="#212121" fill-opacity="1" stroke="#212121" stroke-opacity="1" stroke-width="1" stroke-linecap="square" stroke-linejoin="bevel" transform="matrix(1.12881,0.335463,-0.410852,0.921676,41.5515,210.773)"
font-family="Helvetica" font-size="13" font-weight="400" font-style="normal" 
>
<text fill="#212121" fill-opacity="1" stroke="none" xml:space="preserve" x="0" y="0" font-family="Helvetica" font-size="13" font-weight="400" font-style="normal" 
 >11</text>
</g>

<g fill="#212121" fill-opacity="1" stroke="#212121" stroke-opacity="1" stroke-width="1" stroke-linecap="square" stroke-linejoin="bevel" transform="matrix(1.12881,0.335463,-0.410852,0.921676,402.534,439.633)"
font-family="Helvetica" font-size="13" font-weight="400" font-style="normal" 
>
<text fill="#212121" fill-opacity="1" stroke="none" xml:space="preserve" x="0" y="0" font-family="Helvetica" font-size="13" font-weight="400" font-style="normal" 
 >13</text>
</g>

<g fill="#212121" fill-opacity="1" stroke="#212121" stroke-opacity="1" stroke-width="1" stroke-linecap="square" stroke-linejoin="bevel" transform="matrix(1.12881,0.335463,-0.410852,0.921676,402.534,96.3435)"
font-family="Helvetica" font-size="13" font-weight="400" font-style="normal" 
>
<text fill="#212121" fill-opacity="1" stroke="none" xml:space="preserve" x="0" y="0" font-family="Helvetica" font-size="13" font-weight="400" font-style="normal" 
 >14</text>
</g>

<g fill="#212121" fill-opacity="1" stroke="#212121" stroke-opacity="1" stroke-width="1" stroke-linecap="square" stroke-linejoin="bevel" transform="matrix(1.12881,0.335463,-0.410852,0.921676,402.534,554.063)"
font-family="Helvetica" font-size="13" font-weight="400" font-style="normal" 
>
<text fill="#212121" fill-opacity="1" stroke="none" xml:space="preserve" x="0" y="0" font-family="Helvetica" font-size="13" font-weight="400" font-style="normal" 
 >16</text>
</g>

<g fill="#212121" fill-opacity="1" stroke="#212121" stroke-opacity="1" stroke-width="1" stroke-linecap="square" stroke-linejoin="bevel" transform="matrix(1.12881,0.335463,-0.410852,0.921676,763.516,210.773)"
font-family="Helvetica" font-size="13" font-weight="400" font-style="normal" 
>
<text fill="#212121" fill-opacity="1" stroke="none" xml:space="preserve" x="0" y="0" font-family="Helvetica" font-size="13" font-weight="400" font-style="normal" 
 >17</text>
</g>

<g fill="#212121" fill-opacity="1" stroke="#212121" stroke-opacity="1" stroke-width="1" stroke-linecap="square" stroke-linejoin="bevel" transform="matrix(1.12881,0.335463,-0.410852,0.921676,402.534,325.203)"
font-family="Helvetica" font-size="13" font-weight="400" font-style="normal" 
>
<text fill="#212121" fill-opacity="1" stroke="none" xml:space="preserve" x="0" y="0" font-family="Helvetica" font-size="13" font-weight="400" font-style="normal" 
 >18</text>
</g>

<g fill="#212121" fill-opacity="1" stroke="#212121" stroke-opacity="1" stroke-width="1" stroke-linecap="square" stroke-linejoin="bevel" transform="matrix(1.12881,0.335463,-0.410852,0.921676,763.516,325.203)"
font-family="Helvetica" font-size="13" font-weight="400" font-style="normal" 
>
<text fill="#212121" fill-opacity="1" stroke="none" xml:space="preserve" x="0" y="0" font-family="Helvetica" font-size="13" font-weight="400" font-style="normal" 
 >20</text>
</g>

<g fill="#212121" fill-opacity="1" stroke="#212121" stroke-opacity="1" stroke-width="1" stroke-linecap="square" stroke-linejoin="bevel" transform="matrix(1.12881,0.335463,-0.410852,0.921676,763.516,439.633)"
font-family="Helvetica" font-size="13" font-weight="400" font-style="normal" 
>
<text fill="#212121" fill-opacity="1" stroke="none" xml:space="preserve" x="0" y="0" font-family="Helvetica" font-size="13" font-weight="400" font-style="normal" 
 >21</text>
</g>

<g fill="#212121" fill-opacity="1" stroke="#212121" stroke-opacity="1" stroke-width="1" stroke-linecap="square" stroke-linejoin="bevel" transform="matrix(1.12881,0.335463,-0.410852,0.921676,763.516,554.063)"
font-family="Helvetica" font-size="13" font-weight="400" font-style="normal" 
>
<text fill="#212121" fill-opacity="1" stroke="none" xml:space="preserve" x="0" y="0" font-family="Helvetica" font-size="13" font-weight="400" font-style="normal" 
 >22</text>
</g>

<g fill="#212121" fill-opacity="1" stroke="#212121" stroke-opacity="1" stroke-width="1" stroke-linecap="square" stroke-linejoin="bevel" transform="matrix(1.12881,0.335463,-0.410852,0.921676,1124.5,325.203)"
font-family="Helvetica" font-size="13" font-weight="400" font-style="normal" 
>
<text fill="#212121" fill-opacity="1" stroke="none" xml:space="preserve" x="0" y="0" font-family="Helvetica" font-size="13" font-weight="400" font-style="normal" 
 >23</text>
</g>

<g fill="#212121" fill-opacity="1" stroke="#212121" stroke-opacity="1" stroke-width="1" stroke-linecap="square" stroke-linejoin="bevel" transform="matrix(1.12881,0.335463,-0.410852,0.921676,1124.5,439.633)"
font-family="Helvetica" font-size="13" font-weight="400" font-style="normal" 
>
<text fill="#212121" fill-opacity="1" stroke="none" xml:space="preserve" x="0" y="0" font-family="Helvetica" font-size="13" font-weight="400" font-style="normal" 
 >28</text>
</g>

<g fill="#212121" fill-opacity="1" stroke="#212121" stroke-opacity="1" stroke-width="1" stroke-linecap="square" stroke-linejoin="bevel" transform="matrix(0,0.980828,-1.20125,0,40.2313,483.822)"
font-family="Helvetica" font-size="13" font-weight="400" font-style="italic" 
>
<text fill="#212121" fill-opacity="1" stroke="none" xml:space="preserve" x="0" y="0" font-family="Helvetica" font-size="13" font-weight="400" font-style="italic" 
 >12</text>
</g>

<g fill="#212121" fill-opacity="1" stroke="#212121" stroke-opacity="1" stroke-width="1" stroke-linecap="square" stroke-linejoin="bevel" transform="matrix(0,0.980828,-1.20125,0,40.2313,369.392)"
font-family="Helvetica" font-size="13" font-weight="400" font-style="italic" 
>
<text fill="#212121" fill-opacity="1" stroke="none" xml:space="preserve" x="0" y="0" font-family="Helvetica" font-size="13" font-weight="400" font-style="italic" 
 >18</text>
</g>

<g fill="#212121" fill-opacity="1" stroke="#212121" stroke-opacity="1" stroke-width="1" stroke-linecap="square" stroke-linejoin="bevel" transform="matrix(0,0.980828,-1.20125,0,40.2313,254.962)"
font-family="Helvetica" font-size="13" font-weight="400" font-style="italic" 
>
<text fill="#212121" fill-opacity="1" stroke="none" xml:space="preserve" x="0" y="0" font-family="Helvetica" font-size="13" font-weight="400" font-style="italic" 
 >29</text>
</g>

<g fill="#212121" fill-opacity="1" stroke="#212121" stroke-opacity="1" stroke-width="1" stroke-linecap="square" stroke-linejoin="bevel" transform="matrix(0,0.980828,-1.20125,0,401.213,483.822)"
font-family="Helvetica" font-size="13" font-weight="400" font-style="italic" 
>
<text fill="#212121" fill-opacity="1" stroke="none" xml:space="preserve" x="0" y="0" font-family="Helvetica" font-size="13" font-weight="400" font-style="italic" 
 >38</text>
</g>

<g fill="#212121" fill-opacity="1" stroke="#212121" stroke-opacity="1" stroke-width="1" stroke-linecap="square" stroke-linejoin="bevel" transform="matrix(1.11982,-0.354978,0.434753,0.914338,207.976,147.14)"
font-family="Helvetica" font-size="13" font-weight="400" font-style="italic" 
>
<text fill="#212121" fill-opacity="1" stroke="none" xml:space="preserve" x="0" y="0" font-family="Helvetica" font-size="13" font-weight="400" font-style="italic" 
 >41</text>
</g>

<g fill="#212121" fill-opacity="1" stroke="#212121" stroke-opacity="1" stroke-width="1" stroke-linecap="square" stroke-linejoin="bevel" transform="matrix(1.11982,0.354978,-0.434753,0.914338,571.566,142.17)"
font-family="Helvetica" font-size="13" font-weight="400" font-style="italic" 
>
<text fill="#212121" fill-opacity="1" stroke="none" xml:space="preserve" x="0" y="0" font-family="Helvetica" font-size="13" font-weight="400" font-style="italic" 
 >43</text>
</g>

<g fill="#212121" fill-opacity="1" stroke="#212121" stroke-opacity="1" stroke-width="1" stroke-linecap="square" stroke-linejoin="bevel" transform="matrix(1.11982,-0.354978,0.434753,0.914338,568.958,261.57)"
font-family="Helvetica" font-size="13" font-weight="400" font-style="italic" 
>
<text fill="#212121" fill-opacity="1" stroke="none" xml:space="preserve" x="0" y="0" font-family="Helvetica" font-size="13" font-weight="400" font-style="italic" 
 >52</text>
</g>

<g fill="#212121" fill-opacity="1" stroke="#212121" stroke-opacity="1" stroke-width="1" stroke-linecap="square" stroke-linejoin="bevel" transform="matrix(0,0.980828,-1.20125,0,762.195,254.962)"
font-family="Helvetica" font-size="13" font-weight="400" font-style="italic" 
>
<text fill="#212121" fill-opacity="1" stroke="none" xml:space="preserve" x="0" y="0" font-family="Helvetica" font-size="13" font-weight="400" font-style="italic" 
 >53</text>
</g>

<g fill="#212121" fill-opacity="1" stroke="#212121" stroke-opacity="1" stroke-width="1" stroke-linecap="square" stroke-linejoin="bevel" transform="matrix(1.11982,0.354978,-0.434753,0.914338,932.548,256.6)"
font-family="Helvetica" font-size="13" font-weight="400" font-style="italic" 
>
<text fill="#212121" fill-opacity="1" stroke="none" xml:space="preserve" x="0" y="0" font-family="Helvetica" font-size="13" font-weight="400" font-style="italic" 
 >54</text>
</g>

<g fill="#212121" fill-opacity="1" stroke="#212121" stroke-opacity="1" stroke-width="1" stroke-linecap="square" stroke-linejoin="bevel" transform="matrix(0,0.980828,-1.20125,0,401.213,369.392)"
font-family="Helvetica" font-size="13" font-weight="400" font-style="italic" 
>
<text fill="#212121" fill-opacity="1" stroke="none" xml:space="preserve" x="0" y="0" font-family="Helvetica" font-size="13" font-weight="400" font-style="italic" 
 >55</text>
</g>

<g fill="#212121" fill-opacity="1" stroke="#212121" stroke-opacity="1" stroke-width="1" stroke-linecap="square" stroke-linejoin="bevel" transform="matrix(0,0.980828,-1.20125,0,762.195,369.392)"
font-family="Helvetica" font-size="13" font-weight="400" font-style="italic" 
>
<text fill="#212121" fill-opacity="1" stroke="none" xml:space="preserve" x="0" y="0" font-family="Helvetica" font-size="13" font-weight="400" font-style="italic" 
 >65</text>
</g>

<g fill="#212121" fill-opacity="1" stroke="#212121" stroke-opacity="1" stroke-width="1" stroke-linecap="square" stroke-linejoin="bevel" transform="matrix(0,0.980828,-1.20125,0,762.195,483.822)"
font-family="Helvetica" font-size="13" font-weight="400" font-style="italic" 
>
<text fill="#212121" fill-opacity="1" stroke="none" xml:space="preserve" x="0" y="0" font-family="Helvetica" font-size="13" font-weight="400" font-style="italic" 
 >69</text>
</g>

<g fill="#212121" fill-opacity="1" stroke="#212121" stroke-opacity="1" stroke-width="1" stroke-linecap="square" stroke-linejoin="bevel" transform="matrix(0,0.980828,-1.20125,0,1123.18,369.392)"
font-family="Helvetica" font-size="13" font-weight="400" font-style="italic" 
>
<text fill="#212121" fill-opacity="1" stroke="none" xml:space="preserve" x="0" y="0" font-family="Helvetica" font-size="13" font-weight="400" font-style="italic" 
 >76</text>
</g>

<g fill="#ff0000" fill-opacity="1" stroke="#ff0000" stroke-opacity="1" stroke-width="1" stroke-linecap="square" stroke-linejoin="bevel" transform="matrix(1.20125,0,0,0.980828,371.182,77.4324)"
font-family="Helvetica" font-size="13" font-weight="700" font-style="normal" 
>
<text fill="#ff0000" fill-opacity="1" stroke="none" xml:space="preserve" x="0" y="0" font-family="Helvetica" font-size="13" font-weight="700" font-style="normal" 
 >Source</text>
</g>

<g fill="#ff0000" fill-opacity="1" stroke="#ff0000" stroke-opacity="1" stroke-width="1" stroke-linecap="square" stroke-linejoin="bevel" transform="matrix(1.20125,0,0,0.980828,1111.77,454.07)"
font-family="Helvetica" font-size="10" font-weight="400" font-style="normal" 
>
<text fill="#ff0000" fill-opacity="1" stroke="none" xml:space="preserve" x="0" y="0" font-family="Helvetica" font-size="10" font-weight="400" font-style="normal" 
 >D1</text>
</g>

<g fill="#ff0000" fill-opacity="1" stroke="#ff0000" stroke-opacity="1" stroke-width="1" stroke-linecap="square" stroke-linejoin="bevel" transform="matrix(1.20125,0,0,0.980828,28.8194,568.5)"
font-family="Helvetica" font-size="10" font-weight="400" font-style="normal" 
>
<text fill="#ff0000" fill-opacity="1" stroke="none" xml:space="preserve" x="0" y="0" font-family="Helvetica" font-size="10" font-weight="400" font-style="normal" 
 >D2</text>
</g>

<g fill="#ff0000" fill-opacity="1" stroke="#ff0000" stroke-opacity="1" stroke-width="1" stroke-linecap="square" stroke-linejoin="bevel" transform="matrix(1.20125,0,0,0.980828,389.801,568.5)"
font-family="Helvetica" font-size="10" font-weight="400" font-style="normal" 
>
<text fill="#ff0000" fill-opacity="1" stroke="none" xml:space="preserve" x="0" y="0" font-family="Helvetica" font-size="10" font-weight="400" font-style="normal" 
 >D3</text>
</g>

<g fill="#ff0000" fill-opacity="1" stroke="#ff0000" stroke-opacity="1" stroke-width="1" stroke-linecap="square" stroke-linejoin="bevel" transform="matrix(1.20125,0,0,0.980828,750.783,568.5)"
font-family="Helvetica" font-size="10" font-weight="400" font-style="normal" 
>
<text fill="#ff0000" fill-opacity="1" stroke="none" xml:space="preserve" x="0" y="0" font-family="Helvetica" font-size="10" font-weight="400" font-style="normal" 
 >D4</text>
</g>

<g fill="#ff0000" fill-opacity="1" stroke="#ff0000" stroke-opacity="1" stroke-width="1" stroke-linecap="square" stroke-linejoin="bevel" transform="matrix(1.20125,0,0,0.980828,750.783,454.07)"
font-family="Helvetica" font-size="10" font-weight="400" font-style="normal" 
>
<text fill="#ff0000" fill-opacity="1" stroke="none" xml:space="preserve" x="0" y="0" font-family="Helvetica" font-size="10" font-weight="400" font-style="normal" 
 >D5</text>
</g>

<g fill="#0000ff" fill-opacity="1" stroke="#0000ff" stroke-opacity="1" stroke-width="1" stroke-linecap="square" stroke-linejoin="bevel" transform="matrix(1.20125,0,0,0.980828,1.5,528.94)"
font-family="Helvetica" font-size="12" font-weight="700" font-style="normal" 
>
<text fill="#0000ff" fill-opacity="1" stroke="none" xml:space="preserve" x="0" y="0" font-family="Helvetica" font-size="12" font-weight="700" font-style="normal" 
 >VNF: 3,5,7</text>
</g>

<g fill="#0000ff" fill-opacity="1" stroke="#0000ff" stroke-opacity="1" stroke-width="1" stroke-linecap="square" stroke-linejoin="bevel" transform="matrix(1.20125,0,0,0.980828,363.077,528.94)"
font-family="Helvetica" font-size="12" font-weight="700" font-style="normal" 
>
<text fill="#0000ff" fill-opacity="1" stroke="none" xml:space="preserve" x="0" y="0" font-family="Helvetica" font-size="12" font-weight="700" font-style="normal" 
 >VNF: 3,5,7</text>
</g>

<g fill="#0000ff" fill-opacity="1" stroke="#0000ff" stroke-opacity="1" stroke-width="1" stroke-linecap="square" stroke-linejoin="bevel" transform="matrix(1.20125,0,0,0.980828,723.452,414.183)"
font-family="Helvetica" font-size="12" font-weight="700" font-style="normal" 
>
<text fill="#0000ff" fill-opacity="1" stroke="none" xml:space="preserve" x="0" y="0" font-family="Helvetica" font-size="12" font-weight="700" font-style="normal" 
 >VNF: 3,5,7</text>
</g>

<g fill="#0000ff" fill-opacity="1" stroke="#0000ff" stroke-opacity="1" stroke-width="1" stroke-linecap="square" stroke-linejoin="bevel" transform="matrix(1.20125,0,0,0.980828,1085.03,414.183)"
font-family="Helvetica" font-size="12" font-weight="700" font-style="normal" 
>
<text fill="#0000ff" fill-opacity="1" stroke="none" xml:space="preserve" x="0" y="0" font-family="Helvetica" font-size="12" font-weight="700" font-style="normal" 
 >VNF: 3,5,7</text>
</g>
</g>
</svg>
