<?xml version="1.0" encoding="UTF-8" standalone="no"?>
<svg width="185.208mm" height="125.589mm"
 viewBox="0 0 525 356"
 xmlns="http://www.w3.org/2000/svg" xmlns:xlink="http://www.w3.org/1999/xlink"  version="1.2" baseProfile="tiny">
<title>Qt SVG Document</title>
<desc>MATLAB, The MathWorks, Inc. Version 25.2.0.2998904 R2025b</desc>
<defs>
</defs>
<g fill="none" stroke="black" stroke-width="1" fill-rule="evenodd" stroke-linecap="square" stroke-linejoin="bevel" >

<g fill="#ffffff" fill-opacity="1" stroke="none" transform="matrix(0.5,0,0,0.5,-184.427,-21.625)"
font-family="SimSun" font-size="9" font-weight="400" font-style="normal" 
>
<path vector-effect="none" fill-rule="evenodd" d="M367,42 L1417,42 L1417,754 L367,754 L367,42"/>
</g>

<g fill="#212121" fill-opacity="1" stroke="#212121" stroke-opacity="1" stroke-width="1" stroke-linecap="square" stroke-linejoin="bevel" transform="matrix(0.5,0,0,0.5,134.823,9.5)"
font-family="Helvetica" font-size="22" font-weight="400" font-style="normal" 
>
<text fill="#212121" fill-opacity="1" stroke="none" xml:space="preserve" x="0" y="0" font-family="Helvetica" font-size="22" font-weight="400" font-style="normal" 
 >Multicast Service Function Chain Tree (Req ID: 29)</text>
</g>

<g fill="#1171be" fill-opacity="0.501961" stroke="none" transform="matrix(5e-05,0,0,5e-05,-184.427,-21.625)"
font-family="Helvetica" font-size="22" font-weight="400" font-style="normal" 
>
<path vector-effect="none" fill-rule="evenodd" d="M3.82364e+06,3.95934e+06 L3.89864e+06,3.75934e+06 L3.82364e+06,3.82934e+06 L3.74864e+06,3.75934e+06 L3.82364e+06,3.95934e+06"/>
</g>

<g fill="#1171be" fill-opacity="0.501961" stroke="none" transform="matrix(5e-05,0,0,5e-05,-184.427,-21.625)"
font-family="Helvetica" font-size="22" font-weight="400" font-style="normal" 
>
<path vector-effect="none" fill-rule="evenodd" d="M1.05055e+07,3.95934e+06 L1.05805e+07,3.75934e+06 L1.05055e+07,3.82934e+06 L1.04305e+07,3.75934e+06 L1.05055e+07,3.95934e+06"/>
</g>

<g fill="#1171be" fill-opacity="0.501961" stroke="none" transform="matrix(5e-05,0,0,5e-05,-184.427,-21.625)"
font-family="Helvetica" font-size="22" font-weight="400" font-style="normal" 
>
<path vector-effect="none" fill-rule="evenodd" d="M1.05055e+07,4.48e+06 L1.05805e+07,4.28e+06 L1.05055e+07,4.35e+06 L1.04305e+07,4.28e+06 L1.05055e+07,4.48e+06"/>
</g>

<g fill="#1171be" fill-opacity="0.501961" stroke="none" transform="matrix(5e-05,0,0,5e-05,-184.427,-21.625)"
font-family="Helvetica" font-size="22" font-weight="400" font-style="normal" 
>
<path vector-effect="none" fill-rule="evenodd" d="M5.49409e+06,3.43868e+06 L5.70325e+06,3.48199e+06 L5.62254e+06,3.41866e+06 L5.68016e+06,3.33378e+06 L5.49409e+06,3.43868e+06"/>
</g>

<g fill="#1171be" fill-opacity="0.501961" stroke="none" transform="matrix(5e-05,0,0,5e-05,-184.427,-21.625)"
font-family="Helvetica" font-size="22" font-weight="400" font-style="normal" 
>
<path vector-effect="none" fill-rule="evenodd" d="M8.835e+06,3.43868e+06 L8.64893e+06,3.33378e+06 L8.70655e+06,3.41866e+06 L8.62584e+06,3.48199e+06 L8.835e+06,3.43868e+06"/>
</g>

<g fill="#1171be" fill-opacity="0.501961" stroke="none" transform="matrix(5e-05,0,0,5e-05,-184.427,-21.625)"
font-family="Helvetica" font-size="22" font-weight="400" font-style="normal" 
>
<path vector-effect="none" fill-rule="evenodd" d="M7.16455e+06,2.91802e+06 L7.23955e+06,2.71802e+06 L7.16455e+06,2.78802e+06 L7.08955e+06,2.71802e+06 L7.16455e+06,2.91802e+06"/>
</g>

<g fill="#1171be" fill-opacity="0.501961" stroke="none" transform="matrix(5e-05,0,0,5e-05,-184.427,-21.625)"
font-family="Helvetica" font-size="22" font-weight="400" font-style="normal" 
>
<path vector-effect="none" fill-rule="evenodd" d="M7.16455e+06,2.39736e+06 L7.23955e+06,2.19736e+06 L7.16455e+06,2.26736e+06 L7.08955e+06,2.19736e+06 L7.16455e+06,2.39736e+06"/>
</g>

<g fill="#1171be" fill-opacity="0.501961" stroke="none" transform="matrix(5e-05,0,0,5e-05,-184.427,-21.625)"
font-family="Helvetica" font-size="22" font-weight="400" font-style="normal" 
>
<path vector-effect="none" fill-rule="evenodd" d="M1.05055e+07,5.00066e+06 L1.05805e+07,4.80066e+06 L1.05055e+07,4.87066e+06 L1.04305e+07,4.80066e+06 L1.05055e+07,5.00066e+06"/>
</g>

<g fill="#1171be" fill-opacity="0.501961" stroke="none" transform="matrix(5e-05,0,0,5e-05,-184.427,-21.625)"
font-family="Helvetica" font-size="22" font-weight="400" font-style="normal" 
>
<path vector-effect="none" fill-rule="evenodd" d="M7.16455e+06,1.87669e+06 L7.23955e+06,1.67669e+06 L7.16455e+06,1.74669e+06 L7.08955e+06,1.67669e+06 L7.16455e+06,1.87669e+06"/>
</g>

<g fill="#1171be" fill-opacity="0.501961" stroke="none" transform="matrix(5e-05,0,0,5e-05,-184.427,-21.625)"
font-family="Helvetica" font-size="22" font-weight="400" font-style="normal" 
>
<path vector-effect="none" fill-rule="evenodd" d="M8.835e+06,6.04198e+06 L9.04416e+06,6.08529e+06 L8.96345e+06,6.02197e+06 L9.02107e+06,5.93708e+06 L8.835e+06,6.04198e+06"/>
</g>

<g fill="#1171be" fill-opacity="0.501961" stroke="none" transform="matrix(5e-05,0,0,5e-05,-184.427,-21.625)"
font-family="Helvetica" font-size="22" font-weight="400" font-style="normal" 
>
<path vector-effect="none" fill-rule="evenodd" d="M1.21759e+07,6.04198e+06 L1.19898e+07,5.93708e+06 L1.20475e+07,6.02197e+06 L1.19667e+07,6.08529e+06 L1.21759e+07,6.04198e+06"/>
</g>

<g fill="#1171be" fill-opacity="0.501961" stroke="none" transform="matrix(5e-05,0,0,5e-05,-184.427,-21.625)"
font-family="Helvetica" font-size="22" font-weight="400" font-style="normal" 
>
<path vector-effect="none" fill-rule="evenodd" d="M7.16455e+06,6.56264e+06 L7.23955e+06,6.36264e+06 L7.16455e+06,6.43264e+06 L7.08955e+06,6.36264e+06 L7.16455e+06,6.56264e+06"/>
</g>

<g fill="#1171be" fill-opacity="0.501961" stroke="none" transform="matrix(5e-05,0,0,5e-05,-184.427,-21.625)"
font-family="Helvetica" font-size="22" font-weight="400" font-style="normal" 
>
<path vector-effect="none" fill-rule="evenodd" d="M7.16455e+06,7.08331e+06 L7.23955e+06,6.88331e+06 L7.16455e+06,6.95331e+06 L7.08955e+06,6.88331e+06 L7.16455e+06,7.08331e+06"/>
</g>

<g fill="#1171be" fill-opacity="0.501961" stroke="none" transform="matrix(5e-05,0,0,5e-05,-184.427,-21.625)"
font-family="Helvetica" font-size="22" font-weight="400" font-style="normal" 
>
<path vector-effect="none" fill-rule="evenodd" d="M1.05055e+07,5.52132e+06 L1.05805e+07,5.32132e+06 L1.05055e+07,5.39132e+06 L1.04305e+07,5.32132e+06 L1.05055e+07,5.52132e+06"/>
</g>

<g fill="#1171be" fill-opacity="0.501961" stroke="#1171be" stroke-opacity="0.501961" stroke-width="2.4" stroke-linecap="butt" stroke-linejoin="round" transform="matrix(0.5,0,0,0.5,-184.427,-21.625)"
font-family="Helvetica" font-size="22" font-weight="400" font-style="normal" 
>
<polyline fill="none" vector-effect="none" points="382.364,369.901 382.364,421.967 " />
<polyline fill="none" vector-effect="none" points="1050.55,369.901 1050.55,421.967 " />
<polyline fill="none" vector-effect="none" points="1050.55,421.967 1050.55,474.033 " />
<polyline fill="none" vector-effect="none" points="716.455,317.835 382.364,369.901 " />
<polyline fill="none" vector-effect="none" points="716.455,317.835 1050.55,369.901 " />
<polyline fill="none" vector-effect="none" points="716.455,265.769 716.455,317.835 " />
<polyline fill="none" vector-effect="none" points="716.455,213.702 716.455,265.769 " />
<polyline fill="none" vector-effect="none" points="1050.55,474.033 1050.55,526.099 " />
<polyline fill="none" vector-effect="none" points="716.455,161.636 716.455,213.702 " />
<polyline fill="none" vector-effect="none" points="1050.55,578.165 716.455,630.231 " />
<polyline fill="none" vector-effect="none" points="1050.55,578.165 1384.64,630.231 " />
<polyline fill="none" vector-effect="none" points="716.455,630.231 716.455,682.298 " />
<polyline fill="none" vector-effect="none" points="716.455,682.298 716.455,734.364 " />
<polyline fill="none" vector-effect="none" points="1050.55,526.099 1050.55,578.165 " />
</g>

<g fill="#999999" fill-opacity="1" stroke="none" transform="matrix(0.5,0,0,0.5,-184.427,-21.625)"
font-family="Helvetica" font-size="22" font-weight="400" font-style="normal" 
>
<circle cx="382.364" cy="369.901" r="6"/>
</g>

<g fill="none" stroke="#999999" stroke-opacity="1" stroke-width="2" stroke-linecap="butt" stroke-linejoin="miter" stroke-miterlimit="2" transform="matrix(0.5,0,0,0.5,-184.427,-21.625)"
font-family="Helvetica" font-size="22" font-weight="400" font-style="normal" 
>
<path vector-effect="none" fill-rule="evenodd" d="M388.364,369.901 C388.364,366.587 385.677,363.901 382.364,363.901 C379.05,363.901 376.364,366.587 376.364,369.901 C376.364,373.215 379.05,375.901 382.364,375.901 C385.677,375.901 388.364,373.215 388.364,369.901 "/>
</g>

<g fill="#999999" fill-opacity="1" stroke="none" transform="matrix(0.5,0,0,0.5,-184.427,-21.625)"
font-family="Helvetica" font-size="22" font-weight="400" font-style="normal" 
>
<circle cx="1050.55" cy="421.967" r="6"/>
</g>

<g fill="none" stroke="#999999" stroke-opacity="1" stroke-width="2" stroke-linecap="butt" stroke-linejoin="miter" stroke-miterlimit="2" transform="matrix(0.5,0,0,0.5,-184.427,-21.625)"
font-family="Helvetica" font-size="22" font-weight="400" font-style="normal" 
>
<path vector-effect="none" fill-rule="evenodd" d="M1056.55,421.967 C1056.55,418.653 1053.86,415.967 1050.55,415.967 C1047.23,415.967 1044.55,418.653 1044.55,421.967 C1044.55,425.281 1047.23,427.967 1050.55,427.967 C1053.86,427.967 1056.55,425.281 1056.55,421.967 "/>
</g>

<g fill="#999999" fill-opacity="1" stroke="none" transform="matrix(0.5,0,0,0.5,-184.427,-21.625)"
font-family="Helvetica" font-size="22" font-weight="400" font-style="normal" 
>
<circle cx="716.455" cy="265.769" r="6"/>
</g>

<g fill="none" stroke="#999999" stroke-opacity="1" stroke-width="2" stroke-linecap="butt" stroke-linejoin="miter" stroke-miterlimit="2" transform="matrix(0.5,0,0,0.5,-184.427,-21.625)"
font-family="Helvetica" font-size="22" font-weight="400" font-style="normal" 
>
<path vector-effect="none" fill-rule="evenodd" d="M722.455,265.769 C722.455,262.455 719.768,259.769 716.455,259.769 C713.141,259.769 710.455,262.455 710.455,265.769 C710.455,269.082 713.141,271.769 716.455,271.769 C719.768,271.769 722.455,269.082 722.455,265.769 "/>
</g>

<g fill="#999999" fill-opacity="1" stroke="none" transform="matrix(0.5,0,0,0.5,-184.427,-21.625)"
font-family="Helvetica" font-size="22" font-weight="400" font-style="normal" 
>
<circle cx="716.455" cy="213.702" r="6"/>
</g>

<g fill="none" stroke="#999999" stroke-opacity="1" stroke-width="2" stroke-linecap="butt" stroke-linejoin="miter" stroke-miterlimit="2" transform="matrix(0.5,0,0,0.5,-184.427,-21.625)"
font-family="Helvetica" font-size="22" font-weight="400" font-style="normal" 
>
<path vector-effect="none" fill-rule="evenodd" d="M722.455,213.702 C722.455,210.389 719.768,207.702 716.455,207.702 C713.141,207.702 710.455,210.389 710.455,213.702 C710.455,217.016 713.141,219.702 716.455,219.702 C719.768,219.702 722.455,217.016 722.455,213.702 "/>
</g>

<g fill="#999999" fill-opacity="1" stroke="none" transform="matrix(0.5,0,0,0.5,-184.427,-21.625)"
font-family="Helvetica" font-size="22" font-weight="400" font-style="normal" 
>
<circle cx="1050.55" cy="474.033" r="6"/>
</g>

<g fill="none" stroke="#999999" stroke-opacity="1" stroke-width="2" stroke-linecap="butt" stroke-linejoin="miter" stroke-miterlimit="2" transform="matrix(0.5,0,0,0.5,-184.427,-21.625)"
font-family="Helvetica" font-size="22" font-weight="400" font-style="normal" 
>
<path vector-effect="none" fill-rule="evenodd" d="M1056.55,474.033 C1056.55,470.719 1053.86,468.033 1050.55,468.033 C1047.23,468.033 1044.55,470.719 1044.55,474.033 C1044.55,477.347 1047.23,480.033 1050.55,480.033 C1053.86,480.033 1056.55,477.347 1056.55,474.033 "/>
</g>

<g fill="#999999" fill-opacity="1" stroke="none" transform="matrix(0.5,0,0,0.5,-184.427,-21.625)"
font-family="Helvetica" font-size="22" font-weight="400" font-style="normal" 
>
<circle cx="1050.55" cy="578.165" r="6"/>
</g>

<g fill="none" stroke="#999999" stroke-opacity="1" stroke-width="2" stroke-linecap="butt" stroke-linejoin="miter" stroke-miterlimit="2" transform="matrix(0.5,0,0,0.5,-184.427,-21.625)"
font-family="Helvetica" font-size="22" font-weight="400" font-style="normal" 
>
<path vector-effect="none" fill-rule="evenodd" d="M1056.55,578.165 C1056.55,574.852 1053.86,572.165 1050.55,572.165 C1047.23,572.165 1044.55,574.852 1044.55,578.165 C1044.55,581.479 1047.23,584.165 1050.55,584.165 C1053.86,584.165 1056.55,581.479 1056.55,578.165 "/>
</g>

<g fill="#999999" fill-opacity="1" stroke="none" transform="matrix(0.5,0,0,0.5,-184.427,-21.625)"
font-family="Helvetica" font-size="22" font-weight="400" font-style="normal" 
>
<circle cx="716.455" cy="630.231" r="6"/>
</g>

<g fill="none" stroke="#999999" stroke-opacity="1" stroke-width="2" stroke-linecap="butt" stroke-linejoin="miter" stroke-miterlimit="2" transform="matrix(0.5,0,0,0.5,-184.427,-21.625)"
font-family="Helvetica" font-size="22" font-weight="400" font-style="normal" 
>
<path vector-effect="none" fill-rule="evenodd" d="M722.455,630.231 C722.455,626.918 719.768,624.231 716.455,624.231 C713.141,624.231 710.455,626.918 710.455,630.231 C710.455,633.545 713.141,636.231 716.455,636.231 C719.768,636.231 722.455,633.545 722.455,630.231 "/>
</g>

<g fill="#999999" fill-opacity="1" stroke="none" transform="matrix(0.5,0,0,0.5,-184.427,-21.625)"
font-family="Helvetica" font-size="22" font-weight="400" font-style="normal" 
>
<circle cx="1050.55" cy="526.099" r="6"/>
</g>

<g fill="none" stroke="#999999" stroke-opacity="1" stroke-width="2" stroke-linecap="butt" stroke-linejoin="miter" stroke-miterlimit="2" transform="matrix(0.5,0,0,0.5,-184.427,-21.625)"
font-family="Helvetica" font-size="22" font-weight="400" font-style="normal" 
>
<path vector-effect="none" fill-rule="evenodd" d="M1056.55,526.099 C1056.55,522.785 1053.86,520.099 1050.55,520.099 C1047.23,520.099 1044.55,522.785 1044.55,526.099 C1044.55,529.413 1047.23,532.099 1050.55,532.099 C1053.86,532.099 1056.55,529.413 1056.55,526.099 "/>
</g>

<g fill="#999999" fill-opacity="1" stroke="none" transform="matrix(0.5,0,0,0.5,-184.427,-21.625)"
font-family="Helvetica" font-size="22" font-weight="400" font-style="normal" 
>
<circle cx="1050.55" cy="369.901" r="8"/>
</g>

<g fill="none" stroke="#999999" stroke-opacity="1" stroke-width="2" stroke-linecap="butt" stroke-linejoin="miter" stroke-miterlimit="2" transform="matrix(0.5,0,0,0.5,-184.427,-21.625)"
font-family="Helvetica" font-size="22" font-weight="400" font-style="normal" 
>
<path vector-effect="none" fill-rule="evenodd" d="M1058.55,369.901 C1058.55,365.483 1054.96,361.901 1050.55,361.901 C1046.13,361.901 1042.55,365.483 1042.55,369.901 C1042.55,374.319 1046.13,377.901 1050.55,377.901 C1054.96,377.901 1058.55,374.319 1058.55,369.901 "/>
</g>

<g fill="#ff0000" fill-opacity="1" stroke="none" transform="matrix(5e-05,0,0,5e-05,-184.427,-21.625)"
font-family="Helvetica" font-size="22" font-weight="400" font-style="normal" 
>
<path vector-effect="none" fill-rule="evenodd" d="M3.72853e+06,4.18877e+06 L3.80012e+06,4.18877e+06 L3.82364e+06,4.11967e+06 L3.84715e+06,4.18877e+06 L3.91874e+06,4.18877e+06 L3.86168e+06,4.23203e+06 L3.88242e+06,4.30057e+06 L3.82364e+06,4.25967e+06 L3.76486e+06,4.30057e+06 L3.78559e+06,4.23203e+06 L3.72853e+06,4.18877e+06"/>
</g>

<g fill="none" stroke="#ff0000" stroke-opacity="1" stroke-width="2" stroke-linecap="butt" stroke-linejoin="miter" stroke-miterlimit="2" transform="matrix(0.5,0,0,0.5,-184.427,-21.625)"
font-family="Helvetica" font-size="22" font-weight="400" font-style="normal" 
>
<path vector-effect="none" fill-rule="evenodd" d="M372.853,418.877 L380.012,418.877 L382.364,411.967 L384.715,418.877 L391.874,418.877 L386.168,423.203 L388.242,430.057 L382.364,425.967 L376.486,430.057 L378.559,423.203 L372.853,418.877"/>
</g>

<g fill="#ff0000" fill-opacity="1" stroke="none" transform="matrix(5e-05,0,0,5e-05,-184.427,-21.625)"
font-family="Helvetica" font-size="22" font-weight="400" font-style="normal" 
>
<path vector-effect="none" fill-rule="evenodd" d="M7.06944e+06,3.14745e+06 L7.14103e+06,3.14745e+06 L7.16455e+06,3.07835e+06 L7.18806e+06,3.14745e+06 L7.25965e+06,3.14745e+06 L7.20259e+06,3.19071e+06 L7.22332e+06,3.25925e+06 L7.16455e+06,3.21835e+06 L7.10577e+06,3.25925e+06 L7.1265e+06,3.19071e+06 L7.06944e+06,3.14745e+06"/>
</g>

<g fill="none" stroke="#ff0000" stroke-opacity="1" stroke-width="2" stroke-linecap="butt" stroke-linejoin="miter" stroke-miterlimit="2" transform="matrix(0.5,0,0,0.5,-184.427,-21.625)"
font-family="Helvetica" font-size="22" font-weight="400" font-style="normal" 
>
<path vector-effect="none" fill-rule="evenodd" d="M706.944,314.745 L714.103,314.745 L716.455,307.835 L718.806,314.745 L725.965,314.745 L720.259,319.071 L722.332,325.925 L716.455,321.835 L710.577,325.925 L712.65,319.071 L706.944,314.745"/>
</g>

<g fill="#ff0000" fill-opacity="1" stroke="none" transform="matrix(5e-05,0,0,5e-05,-184.427,-21.625)"
font-family="Helvetica" font-size="22" font-weight="400" font-style="normal" 
>
<path vector-effect="none" fill-rule="evenodd" d="M7.06944e+06,6.79207e+06 L7.14103e+06,6.79207e+06 L7.16455e+06,6.72298e+06 L7.18806e+06,6.79207e+06 L7.25965e+06,6.79207e+06 L7.20259e+06,6.83534e+06 L7.22332e+06,6.90388e+06 L7.16455e+06,6.86298e+06 L7.10577e+06,6.90388e+06 L7.1265e+06,6.83534e+06 L7.06944e+06,6.79207e+06"/>
</g>

<g fill="none" stroke="#ff0000" stroke-opacity="1" stroke-width="2" stroke-linecap="butt" stroke-linejoin="miter" stroke-miterlimit="2" transform="matrix(0.5,0,0,0.5,-184.427,-21.625)"
font-family="Helvetica" font-size="22" font-weight="400" font-style="normal" 
>
<path vector-effect="none" fill-rule="evenodd" d="M706.944,679.207 L714.103,679.207 L716.455,672.298 L718.806,679.207 L725.965,679.207 L720.259,683.534 L722.332,690.388 L716.455,686.298 L710.577,690.388 L712.65,683.534 L706.944,679.207"/>
</g>

<g fill="#ff0000" fill-opacity="1" stroke="none" transform="matrix(5e-05,0,0,5e-05,-184.427,-21.625)"
font-family="Helvetica" font-size="22" font-weight="400" font-style="normal" 
>
<path vector-effect="none" fill-rule="evenodd" d="M1.37513e+07,6.27141e+06 L1.38229e+07,6.27141e+06 L1.38464e+07,6.20231e+06 L1.38699e+07,6.27141e+06 L1.39415e+07,6.27141e+06 L1.38844e+07,6.31467e+06 L1.39051e+07,6.38322e+06 L1.38464e+07,6.34231e+06 L1.37876e+07,6.38322e+06 L1.38083e+07,6.31467e+06 L1.37513e+07,6.27141e+06"/>
</g>

<g fill="none" stroke="#ff0000" stroke-opacity="1" stroke-width="2" stroke-linecap="butt" stroke-linejoin="miter" stroke-miterlimit="2" transform="matrix(0.5,0,0,0.5,-184.427,-21.625)"
font-family="Helvetica" font-size="22" font-weight="400" font-style="normal" 
>
<path vector-effect="none" fill-rule="evenodd" d="M1375.13,627.141 L1382.29,627.141 L1384.64,620.231 L1386.99,627.141 L1394.15,627.141 L1388.44,631.467 L1390.51,638.322 L1384.64,634.231 L1378.76,638.322 L1380.83,631.467 L1375.13,627.141"/>
</g>

<g fill="#ff0000" fill-opacity="1" stroke="none" transform="matrix(5e-05,0,0,5e-05,-184.427,-21.625)"
font-family="Helvetica" font-size="22" font-weight="400" font-style="normal" 
>
<path vector-effect="none" fill-rule="evenodd" d="M7.06944e+06,7.31273e+06 L7.14103e+06,7.31273e+06 L7.16455e+06,7.24364e+06 L7.18806e+06,7.31273e+06 L7.25965e+06,7.31273e+06 L7.20259e+06,7.356e+06 L7.22332e+06,7.42454e+06 L7.16455e+06,7.38364e+06 L7.10577e+06,7.42454e+06 L7.1265e+06,7.356e+06 L7.06944e+06,7.31273e+06"/>
</g>

<g fill="none" stroke="#ff0000" stroke-opacity="1" stroke-width="2" stroke-linecap="butt" stroke-linejoin="miter" stroke-miterlimit="2" transform="matrix(0.5,0,0,0.5,-184.427,-21.625)"
font-family="Helvetica" font-size="22" font-weight="400" font-style="normal" 
>
<path vector-effect="none" fill-rule="evenodd" d="M706.944,731.273 L714.103,731.273 L716.455,724.364 L718.806,731.273 L725.965,731.273 L720.259,735.6 L722.332,742.454 L716.455,738.364 L710.577,742.454 L712.65,735.6 L706.944,731.273"/>
</g>

<g fill="#ff0000" fill-opacity="1" stroke="none" transform="matrix(5e-05,0,0,5e-05,-184.427,-21.625)"
font-family="Helvetica" font-size="22" font-weight="400" font-style="normal" 
>
<path vector-effect="none" fill-rule="evenodd" d="M7.08655e+06,1.53836e+06 L7.08655e+06,1.69436e+06 L7.24255e+06,1.69436e+06 L7.24255e+06,1.53836e+06 L7.08655e+06,1.53836e+06"/>
</g>

<g fill="none" stroke="#ff0000" stroke-opacity="1" stroke-width="2" stroke-linecap="butt" stroke-linejoin="miter" stroke-miterlimit="2" transform="matrix(0.5,0,0,0.5,-184.427,-21.625)"
font-family="Helvetica" font-size="22" font-weight="400" font-style="normal" 
>
<path vector-effect="none" fill-rule="evenodd" d="M708.655,153.836 L708.655,169.436 L724.255,169.436 L724.255,153.836 L708.655,153.836"/>
</g>

<g fill="#212121" fill-opacity="1" stroke="#212121" stroke-opacity="1" stroke-width="1" stroke-linecap="square" stroke-linejoin="bevel" transform="matrix(0.469846,0.17101,-0.17101,0.469846,9.78682,168.153)"
font-family="Helvetica" font-size="20" font-weight="400" font-style="normal" 
>
<text fill="#212121" fill-opacity="1" stroke="none" xml:space="preserve" x="0" y="0" font-family="Helvetica" font-size="20" font-weight="400" font-style="normal" 
 >7</text>
</g>

<g fill="#212121" fill-opacity="1" stroke="#212121" stroke-opacity="1" stroke-width="1" stroke-linecap="square" stroke-linejoin="bevel" transform="matrix(0.469846,0.17101,-0.17101,0.469846,9.78682,194.186)"
font-family="Helvetica" font-size="20" font-weight="400" font-style="normal" 
>
<text fill="#212121" fill-opacity="1" stroke="none" xml:space="preserve" x="0" y="0" font-family="Helvetica" font-size="20" font-weight="400" font-style="normal" 
 >8</text>
</g>

<g fill="#212121" fill-opacity="1" stroke="#212121" stroke-opacity="1" stroke-width="1" stroke-linecap="square" stroke-linejoin="bevel" transform="matrix(0.469846,0.17101,-0.17101,0.469846,343.878,168.153)"
font-family="Helvetica" font-size="20" font-weight="400" font-style="normal" 
>
<text fill="#212121" fill-opacity="1" stroke="none" xml:space="preserve" x="0" y="0" font-family="Helvetica" font-size="20" font-weight="400" font-style="normal" 
 >9</text>
</g>

<g fill="#212121" fill-opacity="1" stroke="#212121" stroke-opacity="1" stroke-width="1" stroke-linecap="square" stroke-linejoin="bevel" transform="matrix(0.469846,0.17101,-0.17101,0.469846,343.878,194.186)"
font-family="Helvetica" font-size="20" font-weight="400" font-style="normal" 
>
<text fill="#212121" fill-opacity="1" stroke="none" xml:space="preserve" x="0" y="0" font-family="Helvetica" font-size="20" font-weight="400" font-style="normal" 
 >10</text>
</g>

<g fill="#212121" fill-opacity="1" stroke="#212121" stroke-opacity="1" stroke-width="1" stroke-linecap="square" stroke-linejoin="bevel" transform="matrix(0.469846,0.17101,-0.17101,0.469846,176.832,142.12)"
font-family="Helvetica" font-size="20" font-weight="400" font-style="normal" 
>
<text fill="#212121" fill-opacity="1" stroke="none" xml:space="preserve" x="0" y="0" font-family="Helvetica" font-size="20" font-weight="400" font-style="normal" 
 >11</text>
</g>

<g fill="#212121" fill-opacity="1" stroke="#212121" stroke-opacity="1" stroke-width="1" stroke-linecap="square" stroke-linejoin="bevel" transform="matrix(0.469846,0.17101,-0.17101,0.469846,176.832,116.087)"
font-family="Helvetica" font-size="20" font-weight="400" font-style="normal" 
>
<text fill="#212121" fill-opacity="1" stroke="none" xml:space="preserve" x="0" y="0" font-family="Helvetica" font-size="20" font-weight="400" font-style="normal" 
 >12</text>
</g>

<g fill="#212121" fill-opacity="1" stroke="#212121" stroke-opacity="1" stroke-width="1" stroke-linecap="square" stroke-linejoin="bevel" transform="matrix(0.469846,0.17101,-0.17101,0.469846,176.832,90.0542)"
font-family="Helvetica" font-size="20" font-weight="400" font-style="normal" 
>
<text fill="#212121" fill-opacity="1" stroke="none" xml:space="preserve" x="0" y="0" font-family="Helvetica" font-size="20" font-weight="400" font-style="normal" 
 >13</text>
</g>

<g fill="#212121" fill-opacity="1" stroke="#212121" stroke-opacity="1" stroke-width="1" stroke-linecap="square" stroke-linejoin="bevel" transform="matrix(0.469846,0.17101,-0.17101,0.469846,343.878,220.22)"
font-family="Helvetica" font-size="20" font-weight="400" font-style="normal" 
>
<text fill="#212121" fill-opacity="1" stroke="none" xml:space="preserve" x="0" y="0" font-family="Helvetica" font-size="20" font-weight="400" font-style="normal" 
 >14</text>
</g>

<g fill="#212121" fill-opacity="1" stroke="#212121" stroke-opacity="1" stroke-width="1" stroke-linecap="square" stroke-linejoin="bevel" transform="matrix(0.469846,0.17101,-0.17101,0.469846,176.832,64.0212)"
font-family="Helvetica" font-size="20" font-weight="400" font-style="normal" 
>
<text fill="#212121" fill-opacity="1" stroke="none" xml:space="preserve" x="0" y="0" font-family="Helvetica" font-size="20" font-weight="400" font-style="normal" 
 >16</text>
</g>

<g fill="#212121" fill-opacity="1" stroke="#212121" stroke-opacity="1" stroke-width="1" stroke-linecap="square" stroke-linejoin="bevel" transform="matrix(0.469846,0.17101,-0.17101,0.469846,343.878,272.286)"
font-family="Helvetica" font-size="20" font-weight="400" font-style="normal" 
>
<text fill="#212121" fill-opacity="1" stroke="none" xml:space="preserve" x="0" y="0" font-family="Helvetica" font-size="20" font-weight="400" font-style="normal" 
 >17</text>
</g>

<g fill="#212121" fill-opacity="1" stroke="#212121" stroke-opacity="1" stroke-width="1" stroke-linecap="square" stroke-linejoin="bevel" transform="matrix(0.469846,0.17101,-0.17101,0.469846,176.832,298.319)"
font-family="Helvetica" font-size="20" font-weight="400" font-style="normal" 
>
<text fill="#212121" fill-opacity="1" stroke="none" xml:space="preserve" x="0" y="0" font-family="Helvetica" font-size="20" font-weight="400" font-style="normal" 
 >18</text>
</g>

<g fill="#212121" fill-opacity="1" stroke="#212121" stroke-opacity="1" stroke-width="1" stroke-linecap="square" stroke-linejoin="bevel" transform="matrix(0.469846,0.17101,-0.17101,0.469846,176.832,324.352)"
font-family="Helvetica" font-size="20" font-weight="400" font-style="normal" 
>
<text fill="#212121" fill-opacity="1" stroke="none" xml:space="preserve" x="0" y="0" font-family="Helvetica" font-size="20" font-weight="400" font-style="normal" 
 >19</text>
</g>

<g fill="#212121" fill-opacity="1" stroke="#212121" stroke-opacity="1" stroke-width="1" stroke-linecap="square" stroke-linejoin="bevel" transform="matrix(0.469846,0.17101,-0.17101,0.469846,510.923,298.319)"
font-family="Helvetica" font-size="20" font-weight="400" font-style="normal" 
>
<text fill="#212121" fill-opacity="1" stroke="none" xml:space="preserve" x="0" y="0" font-family="Helvetica" font-size="20" font-weight="400" font-style="normal" 
 >20</text>
</g>

<g fill="#212121" fill-opacity="1" stroke="#212121" stroke-opacity="1" stroke-width="1" stroke-linecap="square" stroke-linejoin="bevel" transform="matrix(0.469846,0.17101,-0.17101,0.469846,176.832,350.385)"
font-family="Helvetica" font-size="20" font-weight="400" font-style="normal" 
>
<text fill="#212121" fill-opacity="1" stroke="none" xml:space="preserve" x="0" y="0" font-family="Helvetica" font-size="20" font-weight="400" font-style="normal" 
 >22</text>
</g>

<g fill="#212121" fill-opacity="1" stroke="#212121" stroke-opacity="1" stroke-width="1" stroke-linecap="square" stroke-linejoin="bevel" transform="matrix(0.469846,0.17101,-0.17101,0.469846,343.878,246.253)"
font-family="Helvetica" font-size="20" font-weight="400" font-style="normal" 
>
<text fill="#212121" fill-opacity="1" stroke="none" xml:space="preserve" x="0" y="0" font-family="Helvetica" font-size="20" font-weight="400" font-style="normal" 
 >23</text>
</g>

<g fill="#212121" fill-opacity="1" stroke="#212121" stroke-opacity="1" stroke-width="1" stroke-linecap="square" stroke-linejoin="bevel" transform="matrix(0,0.5,-0.5,0,9.25529,170.842)"
font-family="Helvetica" font-size="20" font-weight="400" font-style="italic" 
>
<text fill="#212121" fill-opacity="1" stroke="none" xml:space="preserve" x="0" y="0" font-family="Helvetica" font-size="20" font-weight="400" font-style="italic" 
 >19</text>
</g>

<g fill="#212121" fill-opacity="1" stroke="#212121" stroke-opacity="1" stroke-width="1" stroke-linecap="square" stroke-linejoin="bevel" transform="matrix(0,0.5,-0.5,0,343.346,170.842)"
font-family="Helvetica" font-size="20" font-weight="400" font-style="italic" 
>
<text fill="#212121" fill-opacity="1" stroke="none" xml:space="preserve" x="0" y="0" font-family="Helvetica" font-size="20" font-weight="400" font-style="italic" 
 >25</text>
</g>

<g fill="#212121" fill-opacity="1" stroke="#212121" stroke-opacity="1" stroke-width="1" stroke-linecap="square" stroke-linejoin="bevel" transform="matrix(0,0.5,-0.5,0,343.346,196.875)"
font-family="Helvetica" font-size="20" font-weight="400" font-style="italic" 
>
<text fill="#212121" fill-opacity="1" stroke="none" xml:space="preserve" x="0" y="0" font-family="Helvetica" font-size="20" font-weight="400" font-style="italic" 
 >28</text>
</g>

<g fill="#212121" fill-opacity="1" stroke="#212121" stroke-opacity="1" stroke-width="1" stroke-linecap="square" stroke-linejoin="bevel" transform="matrix(0.494037,-0.0769927,0.0769927,0.494037,84.4587,148.686)"
font-family="Helvetica" font-size="20" font-weight="400" font-style="italic" 
>
<text fill="#212121" fill-opacity="1" stroke="none" xml:space="preserve" x="0" y="0" font-family="Helvetica" font-size="20" font-weight="400" font-style="italic" 
 >29</text>
</g>

<g fill="#212121" fill-opacity="1" stroke="#212121" stroke-opacity="1" stroke-width="1" stroke-linecap="square" stroke-linejoin="bevel" transform="matrix(0.494037,0.0769927,-0.0769927,0.494037,252.274,146.992)"
font-family="Helvetica" font-size="20" font-weight="400" font-style="italic" 
>
<text fill="#212121" fill-opacity="1" stroke="none" xml:space="preserve" x="0" y="0" font-family="Helvetica" font-size="20" font-weight="400" font-style="italic" 
 >30</text>
</g>

<g fill="#212121" fill-opacity="1" stroke="#212121" stroke-opacity="1" stroke-width="1" stroke-linecap="square" stroke-linejoin="bevel" transform="matrix(0,0.5,-0.5,0,176.301,118.776)"
font-family="Helvetica" font-size="20" font-weight="400" font-style="italic" 
>
<text fill="#212121" fill-opacity="1" stroke="none" xml:space="preserve" x="0" y="0" font-family="Helvetica" font-size="20" font-weight="400" font-style="italic" 
 >33</text>
</g>

<g fill="#212121" fill-opacity="1" stroke="#212121" stroke-opacity="1" stroke-width="1" stroke-linecap="square" stroke-linejoin="bevel" transform="matrix(0,0.5,-0.5,0,176.301,92.7428)"
font-family="Helvetica" font-size="20" font-weight="400" font-style="italic" 
>
<text fill="#212121" fill-opacity="1" stroke="none" xml:space="preserve" x="0" y="0" font-family="Helvetica" font-size="20" font-weight="400" font-style="italic" 
 >37</text>
</g>

<g fill="#212121" fill-opacity="1" stroke="#212121" stroke-opacity="1" stroke-width="1" stroke-linecap="square" stroke-linejoin="bevel" transform="matrix(0,0.5,-0.5,0,343.346,222.908)"
font-family="Helvetica" font-size="20" font-weight="400" font-style="italic" 
>
<text fill="#212121" fill-opacity="1" stroke="none" xml:space="preserve" x="0" y="0" font-family="Helvetica" font-size="20" font-weight="400" font-style="italic" 
 >44</text>
</g>

<g fill="#212121" fill-opacity="1" stroke="#212121" stroke-opacity="1" stroke-width="1" stroke-linecap="square" stroke-linejoin="bevel" transform="matrix(0,0.5,-0.5,0,176.301,66.7097)"
font-family="Helvetica" font-size="20" font-weight="400" font-style="italic" 
>
<text fill="#212121" fill-opacity="1" stroke="none" xml:space="preserve" x="0" y="0" font-family="Helvetica" font-size="20" font-weight="400" font-style="italic" 
 >48</text>
</g>

<g fill="#212121" fill-opacity="1" stroke="#212121" stroke-opacity="1" stroke-width="1" stroke-linecap="square" stroke-linejoin="bevel" transform="matrix(0.494037,-0.0769927,0.0769927,0.494037,251.504,278.851)"
font-family="Helvetica" font-size="20" font-weight="400" font-style="italic" 
>
<text fill="#212121" fill-opacity="1" stroke="none" xml:space="preserve" x="0" y="0" font-family="Helvetica" font-size="20" font-weight="400" font-style="italic" 
 >52</text>
</g>

<g fill="#212121" fill-opacity="1" stroke="#212121" stroke-opacity="1" stroke-width="1" stroke-linecap="square" stroke-linejoin="bevel" transform="matrix(0.494037,0.0769927,-0.0769927,0.494037,419.32,277.157)"
font-family="Helvetica" font-size="20" font-weight="400" font-style="italic" 
>
<text fill="#212121" fill-opacity="1" stroke="none" xml:space="preserve" x="0" y="0" font-family="Helvetica" font-size="20" font-weight="400" font-style="italic" 
 >53</text>
</g>

<g fill="#212121" fill-opacity="1" stroke="#212121" stroke-opacity="1" stroke-width="1" stroke-linecap="square" stroke-linejoin="bevel" transform="matrix(0,0.5,-0.5,0,176.301,301.007)"
font-family="Helvetica" font-size="20" font-weight="400" font-style="italic" 
>
<text fill="#212121" fill-opacity="1" stroke="none" xml:space="preserve" x="0" y="0" font-family="Helvetica" font-size="20" font-weight="400" font-style="italic" 
 >57</text>
</g>

<g fill="#212121" fill-opacity="1" stroke="#212121" stroke-opacity="1" stroke-width="1" stroke-linecap="square" stroke-linejoin="bevel" transform="matrix(0,0.5,-0.5,0,176.301,327.04)"
font-family="Helvetica" font-size="20" font-weight="400" font-style="italic" 
>
<text fill="#212121" fill-opacity="1" stroke="none" xml:space="preserve" x="0" y="0" font-family="Helvetica" font-size="20" font-weight="400" font-style="italic" 
 >62</text>
</g>

<g fill="#212121" fill-opacity="1" stroke="#212121" stroke-opacity="1" stroke-width="1" stroke-linecap="square" stroke-linejoin="bevel" transform="matrix(0,0.5,-0.5,0,343.346,248.941)"
font-family="Helvetica" font-size="20" font-weight="400" font-style="italic" 
>
<text fill="#212121" fill-opacity="1" stroke="none" xml:space="preserve" x="0" y="0" font-family="Helvetica" font-size="20" font-weight="400" font-style="italic" 
 >73</text>
</g>

<g fill="#ff0000" fill-opacity="1" stroke="#ff0000" stroke-opacity="1" stroke-width="1" stroke-linecap="square" stroke-linejoin="bevel" transform="matrix(0.5,0,0,0.5,157.051,58.7882)"
font-family="Helvetica" font-size="20" font-weight="700" font-style="normal" 
>
<text fill="#ff0000" fill-opacity="1" stroke="none" xml:space="preserve" x="0" y="0" font-family="Helvetica" font-size="20" font-weight="700" font-style="normal" 
 >Source</text>
</g>

<g fill="#ff0000" fill-opacity="1" stroke="#ff0000" stroke-opacity="1" stroke-width="1" stroke-linecap="square" stroke-linejoin="bevel" transform="matrix(0.5,0,0,0.5,168.551,143.947)"
font-family="Helvetica" font-size="16" font-weight="400" font-style="normal" 
>
<text fill="#ff0000" fill-opacity="1" stroke="none" xml:space="preserve" x="0" y="0" font-family="Helvetica" font-size="16" font-weight="400" font-style="normal" 
 >D1</text>
</g>

<g fill="#ff0000" fill-opacity="1" stroke="#ff0000" stroke-opacity="1" stroke-width="1" stroke-linecap="square" stroke-linejoin="bevel" transform="matrix(0.5,0,0,0.5,168.551,326.179)"
font-family="Helvetica" font-size="16" font-weight="400" font-style="normal" 
>
<text fill="#ff0000" fill-opacity="1" stroke="none" xml:space="preserve" x="0" y="0" font-family="Helvetica" font-size="16" font-weight="400" font-style="normal" 
 >D2</text>
</g>

<g fill="#ff0000" fill-opacity="1" stroke="#ff0000" stroke-opacity="1" stroke-width="1" stroke-linecap="square" stroke-linejoin="bevel" transform="matrix(0.5,0,0,0.5,502.642,300.146)"
font-family="Helvetica" font-size="16" font-weight="400" font-style="normal" 
>
<text fill="#ff0000" fill-opacity="1" stroke="none" xml:space="preserve" x="0" y="0" font-family="Helvetica" font-size="16" font-weight="400" font-style="normal" 
 >D3</text>
</g>

<g fill="#ff0000" fill-opacity="1" stroke="#ff0000" stroke-opacity="1" stroke-width="1" stroke-linecap="square" stroke-linejoin="bevel" transform="matrix(0.5,0,0,0.5,1.50529,196.013)"
font-family="Helvetica" font-size="16" font-weight="400" font-style="normal" 
>
<text fill="#ff0000" fill-opacity="1" stroke="none" xml:space="preserve" x="0" y="0" font-family="Helvetica" font-size="16" font-weight="400" font-style="normal" 
 >D4</text>
</g>

<g fill="#ff0000" fill-opacity="1" stroke="#ff0000" stroke-opacity="1" stroke-width="1" stroke-linecap="square" stroke-linejoin="bevel" transform="matrix(0.5,0,0,0.5,168.551,352.212)"
font-family="Helvetica" font-size="16" font-weight="400" font-style="normal" 
>
<text fill="#ff0000" fill-opacity="1" stroke="none" xml:space="preserve" x="0" y="0" font-family="Helvetica" font-size="16" font-weight="400" font-style="normal" 
 >D5</text>
</g>

<g fill="#0000ff" fill-opacity="1" stroke="#0000ff" stroke-opacity="1" stroke-width="1" stroke-linecap="square" stroke-linejoin="bevel" transform="matrix(0.5,0,0,0.5,326.573,161.375)"
font-family="Helvetica" font-size="18" font-weight="700" font-style="normal" 
>
<text fill="#0000ff" fill-opacity="1" stroke="none" xml:space="preserve" x="0" y="0" font-family="Helvetica" font-size="18" font-weight="700" font-style="normal" 
 >VNF: 1</text>
</g>
</g>
</svg>
