<?xml version="1.0" encoding="UTF-8" standalone="no"?>
<svg width="407.458mm" height="201.083mm"
 viewBox="0 0 1155 570"
 xmlns="http://www.w3.org/2000/svg" xmlns:xlink="http://www.w3.org/1999/xlink"  version="1.2" baseProfile="tiny">
<title>Qt SVG Document</title>
<desc>MATLAB, The MathWorks, Inc. Version 25.2.0.2998904 R2025b</desc>
<defs>
</defs>
<g fill="none" stroke="black" stroke-width="1" fill-rule="evenodd" stroke-linecap="square" stroke-linejoin="bevel" >

<g fill="#ffffff" fill-opacity="1" stroke="none" transform="matrix(1.22976,0,0,0.980828,-413.22,-38.9591)"
font-family="SimSun" font-size="9" font-weight="400" font-style="normal" 
>
<path vector-effect="none" fill-rule="evenodd" d="M335,39 L1275,39 L1275,622 L335,622 L335,39"/>
</g>

<g fill="#212121" fill-opacity="1" stroke="#212121" stroke-opacity="1" stroke-width="1" stroke-linecap="square" stroke-linejoin="bevel" transform="matrix(1.22976,0,0,0.980828,371.371,11.3083)"
font-family="Helvetica" font-size="14" font-weight="400" font-style="normal" 
>
<text fill="#212121" fill-opacity="1" stroke="none" xml:space="preserve" x="0" y="0" font-family="Helvetica" font-size="14" font-weight="400" font-style="normal" 
 >Multicast Service Function Chain Tree (Req ID: 1)</text>
</g>

<g fill="#1171be" fill-opacity="0.501961" stroke="none" transform="matrix(0.000122976,0,0,9.80827e-05,-413.22,-38.9591)"
font-family="Helvetica" font-size="14" font-weight="400" font-style="normal" 
>
<path vector-effect="none" fill-rule="evenodd" d="M3.44242e+06,5.4e+06 L3.49242e+06,5.26667e+06 L3.44242e+06,5.31333e+06 L3.39242e+06,5.26667e+06 L3.44242e+06,5.4e+06"/>
</g>

<g fill="#1171be" fill-opacity="0.501961" stroke="none" transform="matrix(0.000122976,0,0,9.80827e-05,-413.22,-38.9591)"
font-family="Helvetica" font-size="14" font-weight="400" font-style="normal" 
>
<path vector-effect="none" fill-rule="evenodd" d="M3.44242e+06,4.23333e+06 L3.49242e+06,4.1e+06 L3.44242e+06,4.14667e+06 L3.39242e+06,4.1e+06 L3.44242e+06,4.23333e+06"/>
</g>

<g fill="#1171be" fill-opacity="0.501961" stroke="none" transform="matrix(0.000122976,0,0,9.80827e-05,-413.22,-38.9591)"
font-family="Helvetica" font-size="14" font-weight="400" font-style="normal" 
>
<path vector-effect="none" fill-rule="evenodd" d="M4.00587e+06,3.06667e+06 L4.13447e+06,3.0055e+06 L4.06608e+06,3.00433e+06 L4.06254e+06,2.93603e+06 L4.00587e+06,3.06667e+06"/>
</g>

<g fill="#1171be" fill-opacity="0.501961" stroke="none" transform="matrix(0.000122976,0,0,9.80827e-05,-413.22,-38.9591)"
font-family="Helvetica" font-size="14" font-weight="400" font-style="normal" 
>
<path vector-effect="none" fill-rule="evenodd" d="M5.13277e+06,3.06667e+06 L5.0761e+06,2.93603e+06 L5.07255e+06,3.00433e+06 L5.00417e+06,3.0055e+06 L5.13277e+06,3.06667e+06"/>
</g>

<g fill="#1171be" fill-opacity="0.501961" stroke="none" transform="matrix(0.000122976,0,0,9.80827e-05,-413.22,-38.9591)"
font-family="Helvetica" font-size="14" font-weight="400" font-style="normal" 
>
<path vector-effect="none" fill-rule="evenodd" d="M5.69621e+06,4.23333e+06 L5.74621e+06,4.1e+06 L5.69621e+06,4.14667e+06 L5.64621e+06,4.1e+06 L5.69621e+06,4.23333e+06"/>
</g>

<g fill="#1171be" fill-opacity="0.501961" stroke="none" transform="matrix(0.000122976,0,0,9.80827e-05,-413.22,-38.9591)"
font-family="Helvetica" font-size="14" font-weight="400" font-style="normal" 
>
<path vector-effect="none" fill-rule="evenodd" d="M5.69621e+06,5.4e+06 L5.74621e+06,5.26667e+06 L5.69621e+06,5.31333e+06 L5.64621e+06,5.26667e+06 L5.69621e+06,5.4e+06"/>
</g>

<g fill="#1171be" fill-opacity="0.501961" stroke="none" transform="matrix(0.000122976,0,0,9.80827e-05,-413.22,-38.9591)"
font-family="Helvetica" font-size="14" font-weight="400" font-style="normal" 
>
<path vector-effect="none" fill-rule="evenodd" d="M6.82311e+06,1.9e+06 L6.96471e+06,1.915e+06 L6.90701e+06,1.87828e+06 L6.93966e+06,1.81819e+06 L6.82311e+06,1.9e+06"/>
</g>

<g fill="#1171be" fill-opacity="0.501961" stroke="none" transform="matrix(0.000122976,0,0,9.80827e-05,-413.22,-38.9591)"
font-family="Helvetica" font-size="14" font-weight="400" font-style="normal" 
>
<path vector-effect="none" fill-rule="evenodd" d="M9.07689e+06,1.9e+06 L9.12689e+06,1.76667e+06 L9.07689e+06,1.81333e+06 L9.02689e+06,1.76667e+06 L9.07689e+06,1.9e+06"/>
</g>

<g fill="#1171be" fill-opacity="0.501961" stroke="none" transform="matrix(0.000122976,0,0,9.80827e-05,-413.22,-38.9591)"
font-family="Helvetica" font-size="14" font-weight="400" font-style="normal" 
>
<path vector-effect="none" fill-rule="evenodd" d="M1.07672e+07,1.9e+06 L1.06575e+07,1.80924e+06 L1.06853e+07,1.87173e+06 L1.06249e+07,1.90377e+06 L1.07672e+07,1.9e+06"/>
</g>

<g fill="#1171be" fill-opacity="0.501961" stroke="none" transform="matrix(0.000122976,0,0,9.80827e-05,-413.22,-38.9591)"
font-family="Helvetica" font-size="14" font-weight="400" font-style="normal" 
>
<path vector-effect="none" fill-rule="evenodd" d="M8.51345e+06,3.06667e+06 L8.64204e+06,3.0055e+06 L8.57366e+06,3.00433e+06 L8.57012e+06,2.93603e+06 L8.51345e+06,3.06667e+06"/>
</g>

<g fill="#1171be" fill-opacity="0.501961" stroke="none" transform="matrix(0.000122976,0,0,9.80827e-05,-413.22,-38.9591)"
font-family="Helvetica" font-size="14" font-weight="400" font-style="normal" 
>
<path vector-effect="none" fill-rule="evenodd" d="M9.64034e+06,3.06667e+06 L9.58367e+06,2.93603e+06 L9.58013e+06,3.00433e+06 L9.51175e+06,3.0055e+06 L9.64034e+06,3.06667e+06"/>
</g>

<g fill="#1171be" fill-opacity="0.501961" stroke="none" transform="matrix(0.000122976,0,0,9.80827e-05,-413.22,-38.9591)"
font-family="Helvetica" font-size="14" font-weight="400" font-style="normal" 
>
<path vector-effect="none" fill-rule="evenodd" d="M7.95e+06,4.23333e+06 L8e+06,4.1e+06 L7.95e+06,4.14667e+06 L7.9e+06,4.1e+06 L7.95e+06,4.23333e+06"/>
</g>

<g fill="#1171be" fill-opacity="0.501961" stroke="none" transform="matrix(0.000122976,0,0,9.80827e-05,-413.22,-38.9591)"
font-family="Helvetica" font-size="14" font-weight="400" font-style="normal" 
>
<path vector-effect="none" fill-rule="evenodd" d="M7.95e+06,5.4e+06 L8e+06,5.26667e+06 L7.95e+06,5.31333e+06 L7.9e+06,5.26667e+06 L7.95e+06,5.4e+06"/>
</g>

<g fill="#1171be" fill-opacity="0.501961" stroke="none" transform="matrix(0.000122976,0,0,9.80827e-05,-413.22,-38.9591)"
font-family="Helvetica" font-size="14" font-weight="400" font-style="normal" 
>
<path vector-effect="none" fill-rule="evenodd" d="M1.02038e+07,4.23333e+06 L1.02538e+07,4.1e+06 L1.02038e+07,4.14667e+06 L1.01538e+07,4.1e+06 L1.02038e+07,4.23333e+06"/>
</g>

<g fill="#1171be" fill-opacity="0.501961" stroke="none" transform="matrix(0.000122976,0,0,9.80827e-05,-413.22,-38.9591)"
font-family="Helvetica" font-size="14" font-weight="400" font-style="normal" 
>
<path vector-effect="none" fill-rule="evenodd" d="M1.24576e+07,3.06667e+06 L1.25076e+07,2.93333e+06 L1.24576e+07,2.98e+06 L1.24076e+07,2.93333e+06 L1.24576e+07,3.06667e+06"/>
</g>

<g fill="#1171be" fill-opacity="0.501961" stroke="#1171be" stroke-opacity="0.501961" stroke-width="1.6" stroke-linecap="butt" stroke-linejoin="round" transform="matrix(1.22976,0,0,0.980828,-413.22,-38.9591)"
font-family="Helvetica" font-size="14" font-weight="400" font-style="normal" 
>
<polyline fill="none" vector-effect="none" points="344.242,481.667 344.242,598.333 " />
<polyline fill="none" vector-effect="none" points="344.242,365 344.242,481.667 " />
<polyline fill="none" vector-effect="none" points="456.932,248.333 344.242,365 " />
<polyline fill="none" vector-effect="none" points="456.932,248.333 569.621,365 " />
<polyline fill="none" vector-effect="none" points="569.621,365 569.621,481.667 " />
<polyline fill="none" vector-effect="none" points="569.621,481.667 569.621,598.333 " />
<polyline fill="none" vector-effect="none" points="907.689,131.667 456.932,248.333 " />
<polyline fill="none" vector-effect="none" points="907.689,131.667 907.689,248.333 " />
<polyline fill="none" vector-effect="none" points="907.689,131.667 1245.76,248.333 " />
<polyline fill="none" vector-effect="none" points="907.689,248.333 795,365 " />
<polyline fill="none" vector-effect="none" points="907.689,248.333 1020.38,365 " />
<polyline fill="none" vector-effect="none" points="795,365 795,481.667 " />
<polyline fill="none" vector-effect="none" points="795,481.667 795,598.333 " />
<polyline fill="none" vector-effect="none" points="1020.38,365 1020.38,481.667 " />
<polyline fill="none" vector-effect="none" points="1245.76,248.333 1245.76,365 " />
</g>

<g fill="#999999" fill-opacity="1" stroke="none" transform="matrix(1.22976,0,0,0.980828,-413.22,-38.9591)"
font-family="Helvetica" font-size="14" font-weight="400" font-style="normal" 
>
<circle cx="344.242" cy="481.667" r="4"/>
</g>

<g fill="none" stroke="#999999" stroke-opacity="1" stroke-width="1.33333" stroke-linecap="butt" stroke-linejoin="miter" stroke-miterlimit="2" transform="matrix(1.22976,0,0,0.980828,-413.22,-38.9591)"
font-family="Helvetica" font-size="14" font-weight="400" font-style="normal" 
>
<path vector-effect="none" fill-rule="evenodd" d="M348.242,481.667 C348.242,479.458 346.452,477.667 344.242,477.667 C342.033,477.667 340.242,479.458 340.242,481.667 C340.242,483.876 342.033,485.667 344.242,485.667 C346.452,485.667 348.242,483.876 348.242,481.667 "/>
</g>

<g fill="#999999" fill-opacity="1" stroke="none" transform="matrix(1.22976,0,0,0.980828,-413.22,-38.9591)"
font-family="Helvetica" font-size="14" font-weight="400" font-style="normal" 
>
<circle cx="344.242" cy="365" r="4"/>
</g>

<g fill="none" stroke="#999999" stroke-opacity="1" stroke-width="1.33333" stroke-linecap="butt" stroke-linejoin="miter" stroke-miterlimit="2" transform="matrix(1.22976,0,0,0.980828,-413.22,-38.9591)"
font-family="Helvetica" font-size="14" font-weight="400" font-style="normal" 
>
<path vector-effect="none" fill-rule="evenodd" d="M348.242,365 C348.242,362.791 346.452,361 344.242,361 C342.033,361 340.242,362.791 340.242,365 C340.242,367.209 342.033,369 344.242,369 C346.452,369 348.242,367.209 348.242,365 "/>
</g>

<g fill="#999999" fill-opacity="1" stroke="none" transform="matrix(1.22976,0,0,0.980828,-413.22,-38.9591)"
font-family="Helvetica" font-size="14" font-weight="400" font-style="normal" 
>
<circle cx="569.621" cy="365" r="4"/>
</g>

<g fill="none" stroke="#999999" stroke-opacity="1" stroke-width="1.33333" stroke-linecap="butt" stroke-linejoin="miter" stroke-miterlimit="2" transform="matrix(1.22976,0,0,0.980828,-413.22,-38.9591)"
font-family="Helvetica" font-size="14" font-weight="400" font-style="normal" 
>
<path vector-effect="none" fill-rule="evenodd" d="M573.621,365 C573.621,362.791 571.83,361 569.621,361 C567.412,361 565.621,362.791 565.621,365 C565.621,367.209 567.412,369 569.621,369 C571.83,369 573.621,367.209 573.621,365 "/>
</g>

<g fill="#999999" fill-opacity="1" stroke="none" transform="matrix(1.22976,0,0,0.980828,-413.22,-38.9591)"
font-family="Helvetica" font-size="14" font-weight="400" font-style="normal" 
>
<circle cx="569.621" cy="481.667" r="4"/>
</g>

<g fill="none" stroke="#999999" stroke-opacity="1" stroke-width="1.33333" stroke-linecap="butt" stroke-linejoin="miter" stroke-miterlimit="2" transform="matrix(1.22976,0,0,0.980828,-413.22,-38.9591)"
font-family="Helvetica" font-size="14" font-weight="400" font-style="normal" 
>
<path vector-effect="none" fill-rule="evenodd" d="M573.621,481.667 C573.621,479.458 571.83,477.667 569.621,477.667 C567.412,477.667 565.621,479.458 565.621,481.667 C565.621,483.876 567.412,485.667 569.621,485.667 C571.83,485.667 573.621,483.876 573.621,481.667 "/>
</g>

<g fill="#999999" fill-opacity="1" stroke="none" transform="matrix(1.22976,0,0,0.980828,-413.22,-38.9591)"
font-family="Helvetica" font-size="14" font-weight="400" font-style="normal" 
>
<circle cx="795" cy="365" r="4"/>
</g>

<g fill="none" stroke="#999999" stroke-opacity="1" stroke-width="1.33333" stroke-linecap="butt" stroke-linejoin="miter" stroke-miterlimit="2" transform="matrix(1.22976,0,0,0.980828,-413.22,-38.9591)"
font-family="Helvetica" font-size="14" font-weight="400" font-style="normal" 
>
<path vector-effect="none" fill-rule="evenodd" d="M799,365 C799,362.791 797.209,361 795,361 C792.791,361 791,362.791 791,365 C791,367.209 792.791,369 795,369 C797.209,369 799,367.209 799,365 "/>
</g>

<g fill="#999999" fill-opacity="1" stroke="none" transform="matrix(1.22976,0,0,0.980828,-413.22,-38.9591)"
font-family="Helvetica" font-size="14" font-weight="400" font-style="normal" 
>
<circle cx="795" cy="481.667" r="4"/>
</g>

<g fill="none" stroke="#999999" stroke-opacity="1" stroke-width="1.33333" stroke-linecap="butt" stroke-linejoin="miter" stroke-miterlimit="2" transform="matrix(1.22976,0,0,0.980828,-413.22,-38.9591)"
font-family="Helvetica" font-size="14" font-weight="400" font-style="normal" 
>
<path vector-effect="none" fill-rule="evenodd" d="M799,481.667 C799,479.458 797.209,477.667 795,477.667 C792.791,477.667 791,479.458 791,481.667 C791,483.876 792.791,485.667 795,485.667 C797.209,485.667 799,483.876 799,481.667 "/>
</g>

<g fill="#999999" fill-opacity="1" stroke="none" transform="matrix(1.22976,0,0,0.980828,-413.22,-38.9591)"
font-family="Helvetica" font-size="14" font-weight="400" font-style="normal" 
>
<circle cx="1020.38" cy="365" r="4"/>
</g>

<g fill="none" stroke="#999999" stroke-opacity="1" stroke-width="1.33333" stroke-linecap="butt" stroke-linejoin="miter" stroke-miterlimit="2" transform="matrix(1.22976,0,0,0.980828,-413.22,-38.9591)"
font-family="Helvetica" font-size="14" font-weight="400" font-style="normal" 
>
<path vector-effect="none" fill-rule="evenodd" d="M1024.38,365 C1024.38,362.791 1022.59,361 1020.38,361 C1018.17,361 1016.38,362.791 1016.38,365 C1016.38,367.209 1018.17,369 1020.38,369 C1022.59,369 1024.38,367.209 1024.38,365 "/>
</g>

<g fill="#999999" fill-opacity="1" stroke="none" transform="matrix(1.22976,0,0,0.980828,-413.22,-38.9591)"
font-family="Helvetica" font-size="14" font-weight="400" font-style="normal" 
>
<circle cx="456.932" cy="248.333" r="5.33333"/>
</g>

<g fill="none" stroke="#999999" stroke-opacity="1" stroke-width="1.33333" stroke-linecap="butt" stroke-linejoin="miter" stroke-miterlimit="2" transform="matrix(1.22976,0,0,0.980828,-413.22,-38.9591)"
font-family="Helvetica" font-size="14" font-weight="400" font-style="normal" 
>
<path vector-effect="none" fill-rule="evenodd" d="M462.265,248.333 C462.265,245.388 459.877,243 456.932,243 C453.986,243 451.598,245.388 451.598,248.333 C451.598,251.279 453.986,253.667 456.932,253.667 C459.877,253.667 462.265,251.279 462.265,248.333 "/>
</g>

<g fill="#999999" fill-opacity="1" stroke="none" transform="matrix(1.22976,0,0,0.980828,-413.22,-38.9591)"
font-family="Helvetica" font-size="14" font-weight="400" font-style="normal" 
>
<circle cx="907.689" cy="248.333" r="5.33333"/>
</g>

<g fill="none" stroke="#999999" stroke-opacity="1" stroke-width="1.33333" stroke-linecap="butt" stroke-linejoin="miter" stroke-miterlimit="2" transform="matrix(1.22976,0,0,0.980828,-413.22,-38.9591)"
font-family="Helvetica" font-size="14" font-weight="400" font-style="normal" 
>
<path vector-effect="none" fill-rule="evenodd" d="M913.023,248.333 C913.023,245.388 910.635,243 907.689,243 C904.744,243 902.356,245.388 902.356,248.333 C902.356,251.279 904.744,253.667 907.689,253.667 C910.635,253.667 913.023,251.279 913.023,248.333 "/>
</g>

<g fill="#999999" fill-opacity="1" stroke="none" transform="matrix(1.22976,0,0,0.980828,-413.22,-38.9591)"
font-family="Helvetica" font-size="14" font-weight="400" font-style="normal" 
>
<circle cx="1245.76" cy="248.333" r="5.33333"/>
</g>

<g fill="none" stroke="#999999" stroke-opacity="1" stroke-width="1.33333" stroke-linecap="butt" stroke-linejoin="miter" stroke-miterlimit="2" transform="matrix(1.22976,0,0,0.980828,-413.22,-38.9591)"
font-family="Helvetica" font-size="14" font-weight="400" font-style="normal" 
>
<path vector-effect="none" fill-rule="evenodd" d="M1251.09,248.333 C1251.09,245.388 1248.7,243 1245.76,243 C1242.81,243 1240.42,245.388 1240.42,248.333 C1240.42,251.279 1242.81,253.667 1245.76,253.667 C1248.7,253.667 1251.09,251.279 1251.09,248.333 "/>
</g>

<g fill="#ff0000" fill-opacity="1" stroke="none" transform="matrix(0.000122976,0,0,9.80827e-05,-413.22,-38.9591)"
font-family="Helvetica" font-size="14" font-weight="400" font-style="normal" 
>
<path vector-effect="none" fill-rule="evenodd" d="M3.37902e+06,5.96273e+06 L3.42675e+06,5.96273e+06 L3.44242e+06,5.91667e+06 L3.4581e+06,5.96273e+06 L3.50583e+06,5.96273e+06 L3.46779e+06,5.99157e+06 L3.48161e+06,6.03727e+06 L3.44242e+06,6.01e+06 L3.40324e+06,6.03727e+06 L3.41706e+06,5.99157e+06 L3.37902e+06,5.96273e+06"/>
</g>

<g fill="none" stroke="#ff0000" stroke-opacity="1" stroke-width="1.33333" stroke-linecap="butt" stroke-linejoin="miter" stroke-miterlimit="2" transform="matrix(1.22976,0,0,0.980828,-413.22,-38.9591)"
font-family="Helvetica" font-size="14" font-weight="400" font-style="normal" 
>
<path vector-effect="none" fill-rule="evenodd" d="M337.902,596.273 L342.675,596.273 L344.242,591.667 L345.81,596.273 L350.583,596.273 L346.779,599.157 L348.161,603.727 L344.242,601 L340.324,603.727 L341.706,599.157 L337.902,596.273"/>
</g>

<g fill="#ff0000" fill-opacity="1" stroke="none" transform="matrix(0.000122976,0,0,9.80827e-05,-413.22,-38.9591)"
font-family="Helvetica" font-size="14" font-weight="400" font-style="normal" 
>
<path vector-effect="none" fill-rule="evenodd" d="M5.63281e+06,5.96273e+06 L5.68054e+06,5.96273e+06 L5.69621e+06,5.91667e+06 L5.71189e+06,5.96273e+06 L5.75962e+06,5.96273e+06 L5.72157e+06,5.99157e+06 L5.7354e+06,6.03727e+06 L5.69621e+06,6.01e+06 L5.65703e+06,6.03727e+06 L5.67085e+06,5.99157e+06 L5.63281e+06,5.96273e+06"/>
</g>

<g fill="none" stroke="#ff0000" stroke-opacity="1" stroke-width="1.33333" stroke-linecap="butt" stroke-linejoin="miter" stroke-miterlimit="2" transform="matrix(1.22976,0,0,0.980828,-413.22,-38.9591)"
font-family="Helvetica" font-size="14" font-weight="400" font-style="normal" 
>
<path vector-effect="none" fill-rule="evenodd" d="M563.281,596.273 L568.054,596.273 L569.621,591.667 L571.189,596.273 L575.962,596.273 L572.157,599.157 L573.54,603.727 L569.621,601 L565.703,603.727 L567.085,599.157 L563.281,596.273"/>
</g>

<g fill="#ff0000" fill-opacity="1" stroke="none" transform="matrix(0.000122976,0,0,9.80827e-05,-413.22,-38.9591)"
font-family="Helvetica" font-size="14" font-weight="400" font-style="normal" 
>
<path vector-effect="none" fill-rule="evenodd" d="M1.01404e+07,4.79607e+06 L1.01881e+07,4.79607e+06 L1.02038e+07,4.75e+06 L1.02195e+07,4.79607e+06 L1.02672e+07,4.79607e+06 L1.02291e+07,4.82491e+06 L1.0243e+07,4.8706e+06 L1.02038e+07,4.84333e+06 L1.01646e+07,4.8706e+06 L1.01784e+07,4.82491e+06 L1.01404e+07,4.79607e+06"/>
</g>

<g fill="none" stroke="#ff0000" stroke-opacity="1" stroke-width="1.33333" stroke-linecap="butt" stroke-linejoin="miter" stroke-miterlimit="2" transform="matrix(1.22976,0,0,0.980828,-413.22,-38.9591)"
font-family="Helvetica" font-size="14" font-weight="400" font-style="normal" 
>
<path vector-effect="none" fill-rule="evenodd" d="M1014.04,479.607 L1018.81,479.607 L1020.38,475 L1021.95,479.607 L1026.72,479.607 L1022.91,482.491 L1024.3,487.06 L1020.38,484.333 L1016.46,487.06 L1017.84,482.491 L1014.04,479.607"/>
</g>

<g fill="#ff0000" fill-opacity="1" stroke="none" transform="matrix(0.000122976,0,0,9.80827e-05,-413.22,-38.9591)"
font-family="Helvetica" font-size="14" font-weight="400" font-style="normal" 
>
<path vector-effect="none" fill-rule="evenodd" d="M7.8866e+06,5.96273e+06 L7.93433e+06,5.96273e+06 L7.95e+06,5.91667e+06 L7.96567e+06,5.96273e+06 L8.0134e+06,5.96273e+06 L7.97536e+06,5.99157e+06 L7.98919e+06,6.03727e+06 L7.95e+06,6.01e+06 L7.91081e+06,6.03727e+06 L7.92464e+06,5.99157e+06 L7.8866e+06,5.96273e+06"/>
</g>

<g fill="none" stroke="#ff0000" stroke-opacity="1" stroke-width="1.33333" stroke-linecap="butt" stroke-linejoin="miter" stroke-miterlimit="2" transform="matrix(1.22976,0,0,0.980828,-413.22,-38.9591)"
font-family="Helvetica" font-size="14" font-weight="400" font-style="normal" 
>
<path vector-effect="none" fill-rule="evenodd" d="M788.66,596.273 L793.433,596.273 L795,591.667 L796.567,596.273 L801.34,596.273 L797.536,599.157 L798.919,603.727 L795,601 L791.081,603.727 L792.464,599.157 L788.66,596.273"/>
</g>

<g fill="#ff0000" fill-opacity="1" stroke="none" transform="matrix(0.000122976,0,0,9.80827e-05,-413.22,-38.9591)"
font-family="Helvetica" font-size="14" font-weight="400" font-style="normal" 
>
<path vector-effect="none" fill-rule="evenodd" d="M1.23942e+07,3.6294e+06 L1.24419e+07,3.6294e+06 L1.24576e+07,3.58333e+06 L1.24733e+07,3.6294e+06 L1.2521e+07,3.6294e+06 L1.24829e+07,3.65824e+06 L1.24968e+07,3.70393e+06 L1.24576e+07,3.67667e+06 L1.24184e+07,3.70393e+06 L1.24322e+07,3.65824e+06 L1.23942e+07,3.6294e+06"/>
</g>

<g fill="none" stroke="#ff0000" stroke-opacity="1" stroke-width="1.33333" stroke-linecap="butt" stroke-linejoin="miter" stroke-miterlimit="2" transform="matrix(1.22976,0,0,0.980828,-413.22,-38.9591)"
font-family="Helvetica" font-size="14" font-weight="400" font-style="normal" 
>
<path vector-effect="none" fill-rule="evenodd" d="M1239.42,362.94 L1244.19,362.94 L1245.76,358.333 L1247.32,362.94 L1252.1,362.94 L1248.29,365.824 L1249.68,370.393 L1245.76,367.667 L1241.84,370.393 L1243.22,365.824 L1239.42,362.94"/>
</g>

<g fill="#ff0000" fill-opacity="1" stroke="none" transform="matrix(0.000122976,0,0,9.80827e-05,-413.22,-38.9591)"
font-family="Helvetica" font-size="14" font-weight="400" font-style="normal" 
>
<path vector-effect="none" fill-rule="evenodd" d="M9.02489e+06,1.26467e+06 L9.02489e+06,1.36867e+06 L9.12889e+06,1.36867e+06 L9.12889e+06,1.26467e+06 L9.02489e+06,1.26467e+06"/>
</g>

<g fill="none" stroke="#ff0000" stroke-opacity="1" stroke-width="1.33333" stroke-linecap="butt" stroke-linejoin="miter" stroke-miterlimit="2" transform="matrix(1.22976,0,0,0.980828,-413.22,-38.9591)"
font-family="Helvetica" font-size="14" font-weight="400" font-style="normal" 
>
<path vector-effect="none" fill-rule="evenodd" d="M902.489,126.467 L902.489,136.867 L912.889,136.867 L912.889,126.467 L902.489,126.467"/>
</g>

<g fill="#212121" fill-opacity="1" stroke="#212121" stroke-opacity="1" stroke-width="1" stroke-linecap="square" stroke-linejoin="bevel" transform="matrix(1.1556,0.335463,-0.420604,0.921676,15.1579,554.063)"
font-family="Helvetica" font-size="13" font-weight="400" font-style="normal" 
>
<text fill="#212121" fill-opacity="1" stroke="none" xml:space="preserve" x="0" y="0" font-family="Helvetica" font-size="13" font-weight="400" font-style="normal" 
 >2</text>
</g>

<g fill="#212121" fill-opacity="1" stroke="#212121" stroke-opacity="1" stroke-width="1" stroke-linecap="square" stroke-linejoin="bevel" transform="matrix(1.1556,0.335463,-0.420604,0.921676,15.1579,439.633)"
font-family="Helvetica" font-size="13" font-weight="400" font-style="normal" 
>
<text fill="#212121" fill-opacity="1" stroke="none" xml:space="preserve" x="0" y="0" font-family="Helvetica" font-size="13" font-weight="400" font-style="normal" 
 >5</text>
</g>

<g fill="#212121" fill-opacity="1" stroke="#212121" stroke-opacity="1" stroke-width="1" stroke-linecap="square" stroke-linejoin="bevel" transform="matrix(1.1556,0.335463,-0.420604,0.921676,15.1579,325.203)"
font-family="Helvetica" font-size="13" font-weight="400" font-style="normal" 
>
<text fill="#212121" fill-opacity="1" stroke="none" xml:space="preserve" x="0" y="0" font-family="Helvetica" font-size="13" font-weight="400" font-style="normal" 
 >7</text>
</g>

<g fill="#212121" fill-opacity="1" stroke="#212121" stroke-opacity="1" stroke-width="1" stroke-linecap="square" stroke-linejoin="bevel" transform="matrix(1.1556,0.335463,-0.420604,0.921676,153.739,210.773)"
font-family="Helvetica" font-size="13" font-weight="400" font-style="normal" 
>
<text fill="#212121" fill-opacity="1" stroke="none" xml:space="preserve" x="0" y="0" font-family="Helvetica" font-size="13" font-weight="400" font-style="normal" 
 >11</text>
</g>

<g fill="#212121" fill-opacity="1" stroke="#212121" stroke-opacity="1" stroke-width="1" stroke-linecap="square" stroke-linejoin="bevel" transform="matrix(1.1556,0.335463,-0.420604,0.921676,292.321,325.203)"
font-family="Helvetica" font-size="13" font-weight="400" font-style="normal" 
>
<text fill="#212121" fill-opacity="1" stroke="none" xml:space="preserve" x="0" y="0" font-family="Helvetica" font-size="13" font-weight="400" font-style="normal" 
 >12</text>
</g>

<g fill="#212121" fill-opacity="1" stroke="#212121" stroke-opacity="1" stroke-width="1" stroke-linecap="square" stroke-linejoin="bevel" transform="matrix(1.1556,0.335463,-0.420604,0.921676,292.321,439.633)"
font-family="Helvetica" font-size="13" font-weight="400" font-style="normal" 
>
<text fill="#212121" fill-opacity="1" stroke="none" xml:space="preserve" x="0" y="0" font-family="Helvetica" font-size="13" font-weight="400" font-style="normal" 
 >13</text>
</g>

<g fill="#212121" fill-opacity="1" stroke="#212121" stroke-opacity="1" stroke-width="1" stroke-linecap="square" stroke-linejoin="bevel" transform="matrix(1.1556,0.335463,-0.420604,0.921676,708.065,96.3435)"
font-family="Helvetica" font-size="13" font-weight="400" font-style="normal" 
>
<text fill="#212121" fill-opacity="1" stroke="none" xml:space="preserve" x="0" y="0" font-family="Helvetica" font-size="13" font-weight="400" font-style="normal" 
 >14</text>
</g>

<g fill="#212121" fill-opacity="1" stroke="#212121" stroke-opacity="1" stroke-width="1" stroke-linecap="square" stroke-linejoin="bevel" transform="matrix(1.1556,0.335463,-0.420604,0.921676,292.321,554.063)"
font-family="Helvetica" font-size="13" font-weight="400" font-style="normal" 
>
<text fill="#212121" fill-opacity="1" stroke="none" xml:space="preserve" x="0" y="0" font-family="Helvetica" font-size="13" font-weight="400" font-style="normal" 
 >16</text>
</g>

<g fill="#212121" fill-opacity="1" stroke="#212121" stroke-opacity="1" stroke-width="1" stroke-linecap="square" stroke-linejoin="bevel" transform="matrix(1.1556,0.335463,-0.420604,0.921676,708.065,210.773)"
font-family="Helvetica" font-size="13" font-weight="400" font-style="normal" 
>
<text fill="#212121" fill-opacity="1" stroke="none" xml:space="preserve" x="0" y="0" font-family="Helvetica" font-size="13" font-weight="400" font-style="normal" 
 >17</text>
</g>

<g fill="#212121" fill-opacity="1" stroke="#212121" stroke-opacity="1" stroke-width="1" stroke-linecap="square" stroke-linejoin="bevel" transform="matrix(1.1556,0.335463,-0.420604,0.921676,569.484,325.203)"
font-family="Helvetica" font-size="13" font-weight="400" font-style="normal" 
>
<text fill="#212121" fill-opacity="1" stroke="none" xml:space="preserve" x="0" y="0" font-family="Helvetica" font-size="13" font-weight="400" font-style="normal" 
 >18</text>
</g>

<g fill="#212121" fill-opacity="1" stroke="#212121" stroke-opacity="1" stroke-width="1" stroke-linecap="square" stroke-linejoin="bevel" transform="matrix(1.1556,0.335463,-0.420604,0.921676,569.484,439.633)"
font-family="Helvetica" font-size="13" font-weight="400" font-style="normal" 
>
<text fill="#212121" fill-opacity="1" stroke="none" xml:space="preserve" x="0" y="0" font-family="Helvetica" font-size="13" font-weight="400" font-style="normal" 
 >19</text>
</g>

<g fill="#212121" fill-opacity="1" stroke="#212121" stroke-opacity="1" stroke-width="1" stroke-linecap="square" stroke-linejoin="bevel" transform="matrix(1.1556,0.335463,-0.420604,0.921676,846.647,325.203)"
font-family="Helvetica" font-size="13" font-weight="400" font-style="normal" 
>
<text fill="#212121" fill-opacity="1" stroke="none" xml:space="preserve" x="0" y="0" font-family="Helvetica" font-size="13" font-weight="400" font-style="normal" 
 >20</text>
</g>

<g fill="#212121" fill-opacity="1" stroke="#212121" stroke-opacity="1" stroke-width="1" stroke-linecap="square" stroke-linejoin="bevel" transform="matrix(1.1556,0.335463,-0.420604,0.921676,846.647,439.633)"
font-family="Helvetica" font-size="13" font-weight="400" font-style="normal" 
>
<text fill="#212121" fill-opacity="1" stroke="none" xml:space="preserve" x="0" y="0" font-family="Helvetica" font-size="13" font-weight="400" font-style="normal" 
 >21</text>
</g>

<g fill="#212121" fill-opacity="1" stroke="#212121" stroke-opacity="1" stroke-width="1" stroke-linecap="square" stroke-linejoin="bevel" transform="matrix(1.1556,0.335463,-0.420604,0.921676,569.484,554.063)"
font-family="Helvetica" font-size="13" font-weight="400" font-style="normal" 
>
<text fill="#212121" fill-opacity="1" stroke="none" xml:space="preserve" x="0" y="0" font-family="Helvetica" font-size="13" font-weight="400" font-style="normal" 
 >22</text>
</g>

<g fill="#212121" fill-opacity="1" stroke="#212121" stroke-opacity="1" stroke-width="1" stroke-linecap="square" stroke-linejoin="bevel" transform="matrix(1.1556,0.335463,-0.420604,0.921676,1123.81,210.773)"
font-family="Helvetica" font-size="13" font-weight="400" font-style="normal" 
>
<text fill="#212121" fill-opacity="1" stroke="none" xml:space="preserve" x="0" y="0" font-family="Helvetica" font-size="13" font-weight="400" font-style="normal" 
 >23</text>
</g>

<g fill="#212121" fill-opacity="1" stroke="#212121" stroke-opacity="1" stroke-width="1" stroke-linecap="square" stroke-linejoin="bevel" transform="matrix(1.1556,0.335463,-0.420604,0.921676,1123.81,325.203)"
font-family="Helvetica" font-size="13" font-weight="400" font-style="normal" 
>
<text fill="#212121" fill-opacity="1" stroke="none" xml:space="preserve" x="0" y="0" font-family="Helvetica" font-size="13" font-weight="400" font-style="normal" 
 >28</text>
</g>

<g fill="#212121" fill-opacity="1" stroke="#212121" stroke-opacity="1" stroke-width="1" stroke-linecap="square" stroke-linejoin="bevel" transform="matrix(0,0.980828,-1.22976,0,13.8063,483.822)"
font-family="Helvetica" font-size="13" font-weight="400" font-style="italic" 
>
<text fill="#212121" fill-opacity="1" stroke="none" xml:space="preserve" x="0" y="0" font-family="Helvetica" font-size="13" font-weight="400" font-style="italic" 
 >12</text>
</g>

<g fill="#212121" fill-opacity="1" stroke="#212121" stroke-opacity="1" stroke-width="1" stroke-linecap="square" stroke-linejoin="bevel" transform="matrix(0,0.980828,-1.22976,0,13.8063,369.392)"
font-family="Helvetica" font-size="13" font-weight="400" font-style="italic" 
>
<text fill="#212121" fill-opacity="1" stroke="none" xml:space="preserve" x="0" y="0" font-family="Helvetica" font-size="13" font-weight="400" font-style="italic" 
 >18</text>
</g>

<g fill="#212121" fill-opacity="1" stroke="#212121" stroke-opacity="1" stroke-width="1" stroke-linecap="square" stroke-linejoin="bevel" transform="matrix(0.854367,-0.705471,0.884521,0.68142,70.7736,264.722)"
font-family="Helvetica" font-size="13" font-weight="400" font-style="italic" 
>
<text fill="#212121" fill-opacity="1" stroke="none" xml:space="preserve" x="0" y="0" font-family="Helvetica" font-size="13" font-weight="400" font-style="italic" 
 >29</text>
</g>

<g fill="#212121" fill-opacity="1" stroke="#212121" stroke-opacity="1" stroke-width="1" stroke-linecap="square" stroke-linejoin="bevel" transform="matrix(0.854367,0.705471,-0.884521,0.68142,214.662,254.845)"
font-family="Helvetica" font-size="13" font-weight="400" font-style="italic" 
>
<text fill="#212121" fill-opacity="1" stroke="none" xml:space="preserve" x="0" y="0" font-family="Helvetica" font-size="13" font-weight="400" font-style="italic" 
 >31</text>
</g>

<g fill="#212121" fill-opacity="1" stroke="#212121" stroke-opacity="1" stroke-width="1" stroke-linecap="square" stroke-linejoin="bevel" transform="matrix(0,0.980828,-1.22976,0,290.969,369.392)"
font-family="Helvetica" font-size="13" font-weight="400" font-style="italic" 
>
<text fill="#212121" fill-opacity="1" stroke="none" xml:space="preserve" x="0" y="0" font-family="Helvetica" font-size="13" font-weight="400" font-style="italic" 
 >34</text>
</g>

<g fill="#212121" fill-opacity="1" stroke="#212121" stroke-opacity="1" stroke-width="1" stroke-linecap="square" stroke-linejoin="bevel" transform="matrix(0,0.980828,-1.22976,0,290.969,483.822)"
font-family="Helvetica" font-size="13" font-weight="400" font-style="italic" 
>
<text fill="#212121" fill-opacity="1" stroke="none" xml:space="preserve" x="0" y="0" font-family="Helvetica" font-size="13" font-weight="400" font-style="italic" 
 >38</text>
</g>

<g fill="#212121" fill-opacity="1" stroke="#212121" stroke-opacity="1" stroke-width="1" stroke-linecap="square" stroke-linejoin="bevel" transform="matrix(1.19053,-0.245763,0.308138,0.949538,416.603,146.27)"
font-family="Helvetica" font-size="13" font-weight="400" font-style="italic" 
>
<text fill="#212121" fill-opacity="1" stroke="none" xml:space="preserve" x="0" y="0" font-family="Helvetica" font-size="13" font-weight="400" font-style="italic" 
 >41</text>
</g>

<g fill="#212121" fill-opacity="1" stroke="#212121" stroke-opacity="1" stroke-width="1" stroke-linecap="square" stroke-linejoin="bevel" transform="matrix(0,0.980828,-1.22976,0,706.713,140.532)"
font-family="Helvetica" font-size="13" font-weight="400" font-style="italic" 
>
<text fill="#212121" fill-opacity="1" stroke="none" xml:space="preserve" x="0" y="0" font-family="Helvetica" font-size="13" font-weight="400" font-style="italic" 
 >43</text>
</g>

<g fill="#212121" fill-opacity="1" stroke="#212121" stroke-opacity="1" stroke-width="1" stroke-linecap="square" stroke-linejoin="bevel" transform="matrix(1.16249,0.319965,-0.401173,0.927171,903.962,142.377)"
font-family="Helvetica" font-size="13" font-weight="400" font-style="italic" 
>
<text fill="#212121" fill-opacity="1" stroke="none" xml:space="preserve" x="0" y="0" font-family="Helvetica" font-size="13" font-weight="400" font-style="italic" 
 >44</text>
</g>

<g fill="#212121" fill-opacity="1" stroke="#212121" stroke-opacity="1" stroke-width="1" stroke-linecap="square" stroke-linejoin="bevel" transform="matrix(0.854367,-0.705471,0.884521,0.68142,625.099,264.722)"
font-family="Helvetica" font-size="13" font-weight="400" font-style="italic" 
>
<text fill="#212121" fill-opacity="1" stroke="none" xml:space="preserve" x="0" y="0" font-family="Helvetica" font-size="13" font-weight="400" font-style="italic" 
 >52</text>
</g>

<g fill="#212121" fill-opacity="1" stroke="#212121" stroke-opacity="1" stroke-width="1" stroke-linecap="square" stroke-linejoin="bevel" transform="matrix(0.854367,0.705471,-0.884521,0.68142,768.988,254.845)"
font-family="Helvetica" font-size="13" font-weight="400" font-style="italic" 
>
<text fill="#212121" fill-opacity="1" stroke="none" xml:space="preserve" x="0" y="0" font-family="Helvetica" font-size="13" font-weight="400" font-style="italic" 
 >53</text>
</g>

<g fill="#212121" fill-opacity="1" stroke="#212121" stroke-opacity="1" stroke-width="1" stroke-linecap="square" stroke-linejoin="bevel" transform="matrix(0,0.980828,-1.22976,0,568.132,369.392)"
font-family="Helvetica" font-size="13" font-weight="400" font-style="italic" 
>
<text fill="#212121" fill-opacity="1" stroke="none" xml:space="preserve" x="0" y="0" font-family="Helvetica" font-size="13" font-weight="400" font-style="italic" 
 >57</text>
</g>

<g fill="#212121" fill-opacity="1" stroke="#212121" stroke-opacity="1" stroke-width="1" stroke-linecap="square" stroke-linejoin="bevel" transform="matrix(0,0.980828,-1.22976,0,568.132,483.822)"
font-family="Helvetica" font-size="13" font-weight="400" font-style="italic" 
>
<text fill="#212121" fill-opacity="1" stroke="none" xml:space="preserve" x="0" y="0" font-family="Helvetica" font-size="13" font-weight="400" font-style="italic" 
 >62</text>
</g>

<g fill="#212121" fill-opacity="1" stroke="#212121" stroke-opacity="1" stroke-width="1" stroke-linecap="square" stroke-linejoin="bevel" transform="matrix(0,0.980828,-1.22976,0,845.295,369.392)"
font-family="Helvetica" font-size="13" font-weight="400" font-style="italic" 
>
<text fill="#212121" fill-opacity="1" stroke="none" xml:space="preserve" x="0" y="0" font-family="Helvetica" font-size="13" font-weight="400" font-style="italic" 
 >65</text>
</g>

<g fill="#212121" fill-opacity="1" stroke="#212121" stroke-opacity="1" stroke-width="1" stroke-linecap="square" stroke-linejoin="bevel" transform="matrix(0,0.980828,-1.22976,0,1122.46,254.962)"
font-family="Helvetica" font-size="13" font-weight="400" font-style="italic" 
>
<text fill="#212121" fill-opacity="1" stroke="none" xml:space="preserve" x="0" y="0" font-family="Helvetica" font-size="13" font-weight="400" font-style="italic" 
 >76</text>
</g>

<g fill="#ff0000" fill-opacity="1" stroke="#ff0000" stroke-opacity="1" stroke-width="1" stroke-linecap="square" stroke-linejoin="bevel" transform="matrix(1.22976,0,0,0.980828,675.969,77.4324)"
font-family="Helvetica" font-size="13" font-weight="700" font-style="normal" 
>
<text fill="#ff0000" fill-opacity="1" stroke="none" xml:space="preserve" x="0" y="0" font-family="Helvetica" font-size="13" font-weight="700" font-style="normal" 
 >Source</text>
</g>

<g fill="#ff0000" fill-opacity="1" stroke="#ff0000" stroke-opacity="1" stroke-width="1" stroke-linecap="square" stroke-linejoin="bevel" transform="matrix(1.22976,0,0,0.980828,1110.77,339.64)"
font-family="Helvetica" font-size="10" font-weight="400" font-style="normal" 
>
<text fill="#ff0000" fill-opacity="1" stroke="none" xml:space="preserve" x="0" y="0" font-family="Helvetica" font-size="10" font-weight="400" font-style="normal" 
 >D1</text>
</g>

<g fill="#ff0000" fill-opacity="1" stroke="#ff0000" stroke-opacity="1" stroke-width="1" stroke-linecap="square" stroke-linejoin="bevel" transform="matrix(1.22976,0,0,0.980828,2.12355,568.5)"
font-family="Helvetica" font-size="10" font-weight="400" font-style="normal" 
>
<text fill="#ff0000" fill-opacity="1" stroke="none" xml:space="preserve" x="0" y="0" font-family="Helvetica" font-size="10" font-weight="400" font-style="normal" 
 >D2</text>
</g>

<g fill="#ff0000" fill-opacity="1" stroke="#ff0000" stroke-opacity="1" stroke-width="1" stroke-linecap="square" stroke-linejoin="bevel" transform="matrix(1.22976,0,0,0.980828,279.286,568.5)"
font-family="Helvetica" font-size="10" font-weight="400" font-style="normal" 
>
<text fill="#ff0000" fill-opacity="1" stroke="none" xml:space="preserve" x="0" y="0" font-family="Helvetica" font-size="10" font-weight="400" font-style="normal" 
 >D3</text>
</g>

<g fill="#ff0000" fill-opacity="1" stroke="#ff0000" stroke-opacity="1" stroke-width="1" stroke-linecap="square" stroke-linejoin="bevel" transform="matrix(1.22976,0,0,0.980828,556.449,568.5)"
font-family="Helvetica" font-size="10" font-weight="400" font-style="normal" 
>
<text fill="#ff0000" fill-opacity="1" stroke="none" xml:space="preserve" x="0" y="0" font-family="Helvetica" font-size="10" font-weight="400" font-style="normal" 
 >D4</text>
</g>

<g fill="#ff0000" fill-opacity="1" stroke="#ff0000" stroke-opacity="1" stroke-width="1" stroke-linecap="square" stroke-linejoin="bevel" transform="matrix(1.22976,0,0,0.980828,833.612,454.07)"
font-family="Helvetica" font-size="10" font-weight="400" font-style="normal" 
>
<text fill="#ff0000" fill-opacity="1" stroke="none" xml:space="preserve" x="0" y="0" font-family="Helvetica" font-size="10" font-weight="400" font-style="normal" 
 >D5</text>
</g>

<g fill="#0000ff" fill-opacity="1" stroke="#0000ff" stroke-opacity="1" stroke-width="1" stroke-linecap="square" stroke-linejoin="bevel" transform="matrix(1.22976,0,0,0.980828,113.119,185.65)"
font-family="Helvetica" font-size="12" font-weight="700" font-style="normal" 
>
<text fill="#0000ff" fill-opacity="1" stroke="none" xml:space="preserve" x="0" y="0" font-family="Helvetica" font-size="12" font-weight="700" font-style="normal" 
 >VNF: 3,5,7</text>
</g>

<g fill="#0000ff" fill-opacity="1" stroke="#0000ff" stroke-opacity="1" stroke-width="1" stroke-linecap="square" stroke-linejoin="bevel" transform="matrix(1.22976,0,0,0.980828,667.743,185.65)"
font-family="Helvetica" font-size="12" font-weight="700" font-style="normal" 
>
<text fill="#0000ff" fill-opacity="1" stroke="none" xml:space="preserve" x="0" y="0" font-family="Helvetica" font-size="12" font-weight="700" font-style="normal" 
 >VNF: 3,5,7</text>
</g>

<g fill="#0000ff" fill-opacity="1" stroke="#0000ff" stroke-opacity="1" stroke-width="1" stroke-linecap="square" stroke-linejoin="bevel" transform="matrix(1.22976,0,0,0.980828,1083.4,185.65)"
font-family="Helvetica" font-size="12" font-weight="700" font-style="normal" 
>
<text fill="#0000ff" fill-opacity="1" stroke="none" xml:space="preserve" x="0" y="0" font-family="Helvetica" font-size="12" font-weight="700" font-style="normal" 
 >VNF: 3,5,7</text>
</g>
</g>
</svg>
