<?xml version="1.0" encoding="UTF-8" standalone="no"?>
<svg width="407.458mm" height="201.083mm"
 viewBox="0 0 1155 570"
 xmlns="http://www.w3.org/2000/svg" xmlns:xlink="http://www.w3.org/1999/xlink"  version="1.2" baseProfile="tiny">
<title>Qt SVG Document</title>
<desc>MATLAB, The MathWorks, Inc. Version 25.2.0.2998904 R2025b</desc>
<defs>
</defs>
<g fill="none" stroke="black" stroke-width="1" fill-rule="evenodd" stroke-linecap="square" stroke-linejoin="bevel" >

<g fill="#ffffff" fill-opacity="1" stroke="none" transform="matrix(1.22411,0,0,0.980828,-396.336,-38.9591)"
font-family="SimSun" font-size="9" font-weight="400" font-style="normal" 
>
<path vector-effect="none" fill-rule="evenodd" d="M323,39 L1268,39 L1268,622 L323,622 L323,39"/>
</g>

<g fill="#212121" fill-opacity="1" stroke="#212121" stroke-opacity="1" stroke-width="1" stroke-linecap="square" stroke-linejoin="bevel" transform="matrix(1.22411,0,0,0.980828,379.752,11.3083)"
font-family="Helvetica" font-size="14" font-weight="400" font-style="normal" 
>
<text fill="#212121" fill-opacity="1" stroke="none" xml:space="preserve" x="0" y="0" font-family="Helvetica" font-size="14" font-weight="400" font-style="normal" 
 >Multicast Service Function Chain Tree (Req ID: 13)</text>
</g>

<g fill="#1171be" fill-opacity="0.501961" stroke="none" transform="matrix(0.000122411,0,0,9.80827e-05,-396.336,-38.9591)"
font-family="Helvetica" font-size="14" font-weight="400" font-style="normal" 
>
<path vector-effect="none" fill-rule="evenodd" d="M3.44242e+06,5.4e+06 L3.49242e+06,5.26667e+06 L3.44242e+06,5.31333e+06 L3.39242e+06,5.26667e+06 L3.44242e+06,5.4e+06"/>
</g>

<g fill="#1171be" fill-opacity="0.501961" stroke="none" transform="matrix(0.000122411,0,0,9.80827e-05,-396.336,-38.9591)"
font-family="Helvetica" font-size="14" font-weight="400" font-style="normal" 
>
<path vector-effect="none" fill-rule="evenodd" d="M3.44242e+06,4.23333e+06 L3.49242e+06,4.1e+06 L3.44242e+06,4.14667e+06 L3.39242e+06,4.1e+06 L3.44242e+06,4.23333e+06"/>
</g>

<g fill="#1171be" fill-opacity="0.501961" stroke="none" transform="matrix(0.000122411,0,0,9.80827e-05,-396.336,-38.9591)"
font-family="Helvetica" font-size="14" font-weight="400" font-style="normal" 
>
<path vector-effect="none" fill-rule="evenodd" d="M9.45253e+06,4.23333e+06 L9.50253e+06,4.1e+06 L9.45253e+06,4.14667e+06 L9.40253e+06,4.1e+06 L9.45253e+06,4.23333e+06"/>
</g>

<g fill="#1171be" fill-opacity="0.501961" stroke="none" transform="matrix(0.000122411,0,0,9.80827e-05,-396.336,-38.9591)"
font-family="Helvetica" font-size="14" font-weight="400" font-style="normal" 
>
<path vector-effect="none" fill-rule="evenodd" d="M9.45253e+06,3.06667e+06 L9.50253e+06,2.93333e+06 L9.45253e+06,2.98e+06 L9.40253e+06,2.93333e+06 L9.45253e+06,3.06667e+06"/>
</g>

<g fill="#1171be" fill-opacity="0.501961" stroke="none" transform="matrix(0.000122411,0,0,9.80827e-05,-396.336,-38.9591)"
font-family="Helvetica" font-size="14" font-weight="400" font-style="normal" 
>
<path vector-effect="none" fill-rule="evenodd" d="M4.19369e+06,3.06667e+06 L4.32967e+06,3.02439e+06 L4.26214e+06,3.01351e+06 L4.26834e+06,2.9454e+06 L4.19369e+06,3.06667e+06"/>
</g>

<g fill="#1171be" fill-opacity="0.501961" stroke="none" transform="matrix(0.000122411,0,0,9.80827e-05,-396.336,-38.9591)"
font-family="Helvetica" font-size="14" font-weight="400" font-style="normal" 
>
<path vector-effect="none" fill-rule="evenodd" d="M5.69621e+06,3.06667e+06 L5.62156e+06,2.9454e+06 L5.62776e+06,3.01351e+06 L5.56023e+06,3.02439e+06 L5.69621e+06,3.06667e+06"/>
</g>

<g fill="#1171be" fill-opacity="0.501961" stroke="none" transform="matrix(0.000122411,0,0,9.80827e-05,-396.336,-38.9591)"
font-family="Helvetica" font-size="14" font-weight="400" font-style="normal" 
>
<path vector-effect="none" fill-rule="evenodd" d="M6.44748e+06,4.23333e+06 L6.49748e+06,4.1e+06 L6.44748e+06,4.14667e+06 L6.39748e+06,4.1e+06 L6.44748e+06,4.23333e+06"/>
</g>

<g fill="#1171be" fill-opacity="0.501961" stroke="none" transform="matrix(0.000122411,0,0,9.80827e-05,-396.336,-38.9591)"
font-family="Helvetica" font-size="14" font-weight="400" font-style="normal" 
>
<path vector-effect="none" fill-rule="evenodd" d="M9.45253e+06,1.9e+06 L9.50253e+06,1.76667e+06 L9.45253e+06,1.81333e+06 L9.40253e+06,1.76667e+06 L9.45253e+06,1.9e+06"/>
</g>

<g fill="#1171be" fill-opacity="0.501961" stroke="none" transform="matrix(0.000122411,0,0,9.80827e-05,-396.336,-38.9591)"
font-family="Helvetica" font-size="14" font-weight="400" font-style="normal" 
>
<path vector-effect="none" fill-rule="evenodd" d="M7.19874e+06,1.9e+06 L7.34035e+06,1.915e+06 L7.28264e+06,1.87828e+06 L7.31529e+06,1.81819e+06 L7.19874e+06,1.9e+06"/>
</g>

<g fill="#1171be" fill-opacity="0.501961" stroke="none" transform="matrix(0.000122411,0,0,9.80827e-05,-396.336,-38.9591)"
font-family="Helvetica" font-size="14" font-weight="400" font-style="normal" 
>
<path vector-effect="none" fill-rule="evenodd" d="M1.09551e+07,1.9e+06 L1.08489e+07,1.80513e+06 L1.08743e+07,1.86863e+06 L1.08127e+07,1.89836e+06 L1.09551e+07,1.9e+06"/>
</g>

<g fill="#1171be" fill-opacity="0.501961" stroke="none" transform="matrix(0.000122411,0,0,9.80827e-05,-396.336,-38.9591)"
font-family="Helvetica" font-size="14" font-weight="400" font-style="normal" 
>
<path vector-effect="none" fill-rule="evenodd" d="M1.24576e+07,3.06667e+06 L1.25076e+07,2.93333e+06 L1.24576e+07,2.98e+06 L1.24076e+07,2.93333e+06 L1.24576e+07,3.06667e+06"/>
</g>

<g fill="#1171be" fill-opacity="0.501961" stroke="none" transform="matrix(0.000122411,0,0,9.80827e-05,-396.336,-38.9591)"
font-family="Helvetica" font-size="14" font-weight="400" font-style="normal" 
>
<path vector-effect="none" fill-rule="evenodd" d="M1.24576e+07,4.23333e+06 L1.25076e+07,4.1e+06 L1.24576e+07,4.14667e+06 L1.24076e+07,4.1e+06 L1.24576e+07,4.23333e+06"/>
</g>

<g fill="#1171be" fill-opacity="0.501961" stroke="#1171be" stroke-opacity="0.501961" stroke-width="1.6" stroke-linecap="butt" stroke-linejoin="round" transform="matrix(1.22411,0,0,0.980828,-396.336,-38.9591)"
font-family="Helvetica" font-size="14" font-weight="400" font-style="normal" 
>
<polyline fill="none" vector-effect="none" points="344.242,481.667 344.242,598.333 " />
<polyline fill="none" vector-effect="none" points="344.242,365 344.242,481.667 " />
<polyline fill="none" vector-effect="none" points="945.253,365 945.253,481.667 " />
<polyline fill="none" vector-effect="none" points="945.253,248.333 945.253,365 " />
<polyline fill="none" vector-effect="none" points="494.495,248.333 344.242,365 " />
<polyline fill="none" vector-effect="none" points="494.495,248.333 644.747,365 " />
<polyline fill="none" vector-effect="none" points="644.747,365 644.747,481.667 " />
<polyline fill="none" vector-effect="none" points="945.253,131.667 945.253,248.333 " />
<polyline fill="none" vector-effect="none" points="945.253,131.667 494.495,248.333 " />
<polyline fill="none" vector-effect="none" points="945.253,131.667 1245.76,248.333 " />
<polyline fill="none" vector-effect="none" points="1245.76,248.333 1245.76,365 " />
<polyline fill="none" vector-effect="none" points="1245.76,365 1245.76,481.667 " />
</g>

<g fill="#999999" fill-opacity="1" stroke="none" transform="matrix(1.22411,0,0,0.980828,-396.336,-38.9591)"
font-family="Helvetica" font-size="14" font-weight="400" font-style="normal" 
>
<circle cx="344.242" cy="481.667" r="5.33333"/>
</g>

<g fill="none" stroke="#999999" stroke-opacity="1" stroke-width="1.33333" stroke-linecap="butt" stroke-linejoin="miter" stroke-miterlimit="2" transform="matrix(1.22411,0,0,0.980828,-396.336,-38.9591)"
font-family="Helvetica" font-size="14" font-weight="400" font-style="normal" 
>
<path vector-effect="none" fill-rule="evenodd" d="M349.576,481.667 C349.576,478.721 347.188,476.333 344.242,476.333 C341.297,476.333 338.909,478.721 338.909,481.667 C338.909,484.612 341.297,487 344.242,487 C347.188,487 349.576,484.612 349.576,481.667 "/>
</g>

<g fill="#999999" fill-opacity="1" stroke="none" transform="matrix(1.22411,0,0,0.980828,-396.336,-38.9591)"
font-family="Helvetica" font-size="14" font-weight="400" font-style="normal" 
>
<circle cx="344.242" cy="365" r="5.33333"/>
</g>

<g fill="none" stroke="#999999" stroke-opacity="1" stroke-width="1.33333" stroke-linecap="butt" stroke-linejoin="miter" stroke-miterlimit="2" transform="matrix(1.22411,0,0,0.980828,-396.336,-38.9591)"
font-family="Helvetica" font-size="14" font-weight="400" font-style="normal" 
>
<path vector-effect="none" fill-rule="evenodd" d="M349.576,365 C349.576,362.054 347.188,359.667 344.242,359.667 C341.297,359.667 338.909,362.054 338.909,365 C338.909,367.946 341.297,370.333 344.242,370.333 C347.188,370.333 349.576,367.946 349.576,365 "/>
</g>

<g fill="#999999" fill-opacity="1" stroke="none" transform="matrix(1.22411,0,0,0.980828,-396.336,-38.9591)"
font-family="Helvetica" font-size="14" font-weight="400" font-style="normal" 
>
<circle cx="945.253" cy="365" r="5.33333"/>
</g>

<g fill="none" stroke="#999999" stroke-opacity="1" stroke-width="1.33333" stroke-linecap="butt" stroke-linejoin="miter" stroke-miterlimit="2" transform="matrix(1.22411,0,0,0.980828,-396.336,-38.9591)"
font-family="Helvetica" font-size="14" font-weight="400" font-style="normal" 
>
<path vector-effect="none" fill-rule="evenodd" d="M950.586,365 C950.586,362.054 948.198,359.667 945.253,359.667 C942.307,359.667 939.919,362.054 939.919,365 C939.919,367.946 942.307,370.333 945.253,370.333 C948.198,370.333 950.586,367.946 950.586,365 "/>
</g>

<g fill="#999999" fill-opacity="1" stroke="none" transform="matrix(1.22411,0,0,0.980828,-396.336,-38.9591)"
font-family="Helvetica" font-size="14" font-weight="400" font-style="normal" 
>
<circle cx="494.495" cy="248.333" r="5.33333"/>
</g>

<g fill="none" stroke="#999999" stroke-opacity="1" stroke-width="1.33333" stroke-linecap="butt" stroke-linejoin="miter" stroke-miterlimit="2" transform="matrix(1.22411,0,0,0.980828,-396.336,-38.9591)"
font-family="Helvetica" font-size="14" font-weight="400" font-style="normal" 
>
<path vector-effect="none" fill-rule="evenodd" d="M499.828,248.333 C499.828,245.388 497.44,243 494.495,243 C491.549,243 489.162,245.388 489.162,248.333 C489.162,251.279 491.549,253.667 494.495,253.667 C497.44,253.667 499.828,251.279 499.828,248.333 "/>
</g>

<g fill="#999999" fill-opacity="1" stroke="none" transform="matrix(1.22411,0,0,0.980828,-396.336,-38.9591)"
font-family="Helvetica" font-size="14" font-weight="400" font-style="normal" 
>
<circle cx="644.748" cy="365" r="5.33333"/>
</g>

<g fill="none" stroke="#999999" stroke-opacity="1" stroke-width="1.33333" stroke-linecap="butt" stroke-linejoin="miter" stroke-miterlimit="2" transform="matrix(1.22411,0,0,0.980828,-396.336,-38.9591)"
font-family="Helvetica" font-size="14" font-weight="400" font-style="normal" 
>
<path vector-effect="none" fill-rule="evenodd" d="M650.081,365 C650.081,362.054 647.693,359.667 644.748,359.667 C641.802,359.667 639.414,362.054 639.414,365 C639.414,367.946 641.802,370.333 644.748,370.333 C647.693,370.333 650.081,367.946 650.081,365 "/>
</g>

<g fill="#999999" fill-opacity="1" stroke="none" transform="matrix(1.22411,0,0,0.980828,-396.336,-38.9591)"
font-family="Helvetica" font-size="14" font-weight="400" font-style="normal" 
>
<circle cx="1245.76" cy="248.333" r="5.33333"/>
</g>

<g fill="none" stroke="#999999" stroke-opacity="1" stroke-width="1.33333" stroke-linecap="butt" stroke-linejoin="miter" stroke-miterlimit="2" transform="matrix(1.22411,0,0,0.980828,-396.336,-38.9591)"
font-family="Helvetica" font-size="14" font-weight="400" font-style="normal" 
>
<path vector-effect="none" fill-rule="evenodd" d="M1251.09,248.333 C1251.09,245.388 1248.7,243 1245.76,243 C1242.81,243 1240.42,245.388 1240.42,248.333 C1240.42,251.279 1242.81,253.667 1245.76,253.667 C1248.7,253.667 1251.09,251.279 1251.09,248.333 "/>
</g>

<g fill="#999999" fill-opacity="1" stroke="none" transform="matrix(1.22411,0,0,0.980828,-396.336,-38.9591)"
font-family="Helvetica" font-size="14" font-weight="400" font-style="normal" 
>
<circle cx="1245.76" cy="365" r="5.33333"/>
</g>

<g fill="none" stroke="#999999" stroke-opacity="1" stroke-width="1.33333" stroke-linecap="butt" stroke-linejoin="miter" stroke-miterlimit="2" transform="matrix(1.22411,0,0,0.980828,-396.336,-38.9591)"
font-family="Helvetica" font-size="14" font-weight="400" font-style="normal" 
>
<path vector-effect="none" fill-rule="evenodd" d="M1251.09,365 C1251.09,362.054 1248.7,359.667 1245.76,359.667 C1242.81,359.667 1240.42,362.054 1240.42,365 C1240.42,367.946 1242.81,370.333 1245.76,370.333 C1248.7,370.333 1251.09,367.946 1251.09,365 "/>
</g>

<g fill="#ff0000" fill-opacity="1" stroke="none" transform="matrix(0.000122411,0,0,9.80827e-05,-396.336,-38.9591)"
font-family="Helvetica" font-size="14" font-weight="400" font-style="normal" 
>
<path vector-effect="none" fill-rule="evenodd" d="M3.3917e+06,5.96685e+06 L3.42988e+06,5.96685e+06 L3.44242e+06,5.93e+06 L3.45496e+06,5.96685e+06 L3.49315e+06,5.96685e+06 L3.46271e+06,5.98993e+06 L3.47377e+06,6.02648e+06 L3.44242e+06,6.00467e+06 L3.41108e+06,6.02648e+06 L3.42214e+06,5.98993e+06 L3.3917e+06,5.96685e+06"/>
</g>

<g fill="none" stroke="#ff0000" stroke-opacity="1" stroke-width="1.33333" stroke-linecap="butt" stroke-linejoin="miter" stroke-miterlimit="2" transform="matrix(1.22411,0,0,0.980828,-396.336,-38.9591)"
font-family="Helvetica" font-size="14" font-weight="400" font-style="normal" 
>
<path vector-effect="none" fill-rule="evenodd" d="M339.17,596.685 L342.988,596.685 L344.242,593 L345.496,596.685 L349.315,596.685 L346.271,598.993 L347.377,602.648 L344.242,600.467 L341.108,602.648 L342.214,598.993 L339.17,596.685"/>
</g>

<g fill="#ff0000" fill-opacity="1" stroke="none" transform="matrix(0.000122411,0,0,9.80827e-05,-396.336,-38.9591)"
font-family="Helvetica" font-size="14" font-weight="400" font-style="normal" 
>
<path vector-effect="none" fill-rule="evenodd" d="M9.4018e+06,4.80019e+06 L9.43999e+06,4.80019e+06 L9.45253e+06,4.76333e+06 L9.46507e+06,4.80019e+06 L9.50325e+06,4.80019e+06 L9.47281e+06,4.82326e+06 L9.48387e+06,4.85981e+06 L9.45253e+06,4.838e+06 L9.42118e+06,4.85981e+06 L9.43224e+06,4.82326e+06 L9.4018e+06,4.80019e+06"/>
</g>

<g fill="none" stroke="#ff0000" stroke-opacity="1" stroke-width="1.33333" stroke-linecap="butt" stroke-linejoin="miter" stroke-miterlimit="2" transform="matrix(1.22411,0,0,0.980828,-396.336,-38.9591)"
font-family="Helvetica" font-size="14" font-weight="400" font-style="normal" 
>
<path vector-effect="none" fill-rule="evenodd" d="M940.18,480.019 L943.999,480.019 L945.253,476.333 L946.506,480.019 L950.325,480.019 L947.281,482.326 L948.387,485.981 L945.253,483.8 L942.118,485.981 L943.224,482.326 L940.18,480.019"/>
</g>

<g fill="#ff0000" fill-opacity="1" stroke="none" transform="matrix(0.000122411,0,0,9.80827e-05,-396.336,-38.9591)"
font-family="Helvetica" font-size="14" font-weight="400" font-style="normal" 
>
<path vector-effect="none" fill-rule="evenodd" d="M9.4018e+06,2.46685e+06 L9.43999e+06,2.46685e+06 L9.45253e+06,2.43e+06 L9.46507e+06,2.46685e+06 L9.50325e+06,2.46685e+06 L9.47281e+06,2.48993e+06 L9.48387e+06,2.52648e+06 L9.45253e+06,2.50467e+06 L9.42118e+06,2.52648e+06 L9.43224e+06,2.48993e+06 L9.4018e+06,2.46685e+06"/>
</g>

<g fill="none" stroke="#ff0000" stroke-opacity="1" stroke-width="1.33333" stroke-linecap="butt" stroke-linejoin="miter" stroke-miterlimit="2" transform="matrix(1.22411,0,0,0.980828,-396.336,-38.9591)"
font-family="Helvetica" font-size="14" font-weight="400" font-style="normal" 
>
<path vector-effect="none" fill-rule="evenodd" d="M940.18,246.685 L943.999,246.685 L945.253,243 L946.506,246.685 L950.325,246.685 L947.281,248.993 L948.387,252.648 L945.253,250.467 L942.118,252.648 L943.224,248.993 L940.18,246.685"/>
</g>

<g fill="#ff0000" fill-opacity="1" stroke="none" transform="matrix(0.000122411,0,0,9.80827e-05,-396.336,-38.9591)"
font-family="Helvetica" font-size="14" font-weight="400" font-style="normal" 
>
<path vector-effect="none" fill-rule="evenodd" d="M6.39675e+06,4.80019e+06 L6.43494e+06,4.80019e+06 L6.44748e+06,4.76333e+06 L6.46001e+06,4.80019e+06 L6.4982e+06,4.80019e+06 L6.46776e+06,4.82326e+06 L6.47882e+06,4.85981e+06 L6.44748e+06,4.838e+06 L6.41613e+06,4.85981e+06 L6.42719e+06,4.82326e+06 L6.39675e+06,4.80019e+06"/>
</g>

<g fill="none" stroke="#ff0000" stroke-opacity="1" stroke-width="1.33333" stroke-linecap="butt" stroke-linejoin="miter" stroke-miterlimit="2" transform="matrix(1.22411,0,0,0.980828,-396.336,-38.9591)"
font-family="Helvetica" font-size="14" font-weight="400" font-style="normal" 
>
<path vector-effect="none" fill-rule="evenodd" d="M639.675,480.019 L643.494,480.019 L644.747,476.333 L646.001,480.019 L649.82,480.019 L646.776,482.326 L647.882,485.981 L644.747,483.8 L641.613,485.981 L642.719,482.326 L639.675,480.019"/>
</g>

<g fill="#ff0000" fill-opacity="1" stroke="none" transform="matrix(0.000122411,0,0,9.80827e-05,-396.336,-38.9591)"
font-family="Helvetica" font-size="14" font-weight="400" font-style="normal" 
>
<path vector-effect="none" fill-rule="evenodd" d="M1.24069e+07,4.80019e+06 L1.2445e+07,4.80019e+06 L1.24576e+07,4.76333e+06 L1.24701e+07,4.80019e+06 L1.25083e+07,4.80019e+06 L1.24779e+07,4.82326e+06 L1.24889e+07,4.85981e+06 L1.24576e+07,4.838e+06 L1.24262e+07,4.85981e+06 L1.24373e+07,4.82326e+06 L1.24069e+07,4.80019e+06"/>
</g>

<g fill="none" stroke="#ff0000" stroke-opacity="1" stroke-width="1.33333" stroke-linecap="butt" stroke-linejoin="miter" stroke-miterlimit="2" transform="matrix(1.22411,0,0,0.980828,-396.336,-38.9591)"
font-family="Helvetica" font-size="14" font-weight="400" font-style="normal" 
>
<path vector-effect="none" fill-rule="evenodd" d="M1240.69,480.019 L1244.5,480.019 L1245.76,476.333 L1247.01,480.019 L1250.83,480.019 L1247.79,482.326 L1248.89,485.981 L1245.76,483.8 L1242.62,485.981 L1243.73,482.326 L1240.69,480.019"/>
</g>

<g fill="#ff0000" fill-opacity="1" stroke="none" transform="matrix(0.000122411,0,0,9.80827e-05,-396.336,-38.9591)"
font-family="Helvetica" font-size="14" font-weight="400" font-style="normal" 
>
<path vector-effect="none" fill-rule="evenodd" d="M9.40053e+06,1.26467e+06 L9.40053e+06,1.36867e+06 L9.50453e+06,1.36867e+06 L9.50453e+06,1.26467e+06 L9.40053e+06,1.26467e+06"/>
</g>

<g fill="none" stroke="#ff0000" stroke-opacity="1" stroke-width="1.33333" stroke-linecap="butt" stroke-linejoin="miter" stroke-miterlimit="2" transform="matrix(1.22411,0,0,0.980828,-396.336,-38.9591)"
font-family="Helvetica" font-size="14" font-weight="400" font-style="normal" 
>
<path vector-effect="none" fill-rule="evenodd" d="M940.052,126.467 L940.052,136.867 L950.453,136.867 L950.453,126.467 L940.052,126.467"/>
</g>

<g fill="#212121" fill-opacity="1" stroke="#212121" stroke-opacity="1" stroke-width="1" stroke-linecap="square" stroke-linejoin="bevel" transform="matrix(1.15029,0.335463,-0.418671,0.921676,30.0726,554.063)"
font-family="Helvetica" font-size="13" font-weight="400" font-style="normal" 
>
<text fill="#212121" fill-opacity="1" stroke="none" xml:space="preserve" x="0" y="0" font-family="Helvetica" font-size="13" font-weight="400" font-style="normal" 
 >1</text>
</g>

<g fill="#212121" fill-opacity="1" stroke="#212121" stroke-opacity="1" stroke-width="1" stroke-linecap="square" stroke-linejoin="bevel" transform="matrix(1.15029,0.335463,-0.418671,0.921676,30.0726,439.633)"
font-family="Helvetica" font-size="13" font-weight="400" font-style="normal" 
>
<text fill="#212121" fill-opacity="1" stroke="none" xml:space="preserve" x="0" y="0" font-family="Helvetica" font-size="13" font-weight="400" font-style="normal" 
 >4</text>
</g>

<g fill="#212121" fill-opacity="1" stroke="#212121" stroke-opacity="1" stroke-width="1" stroke-linecap="square" stroke-linejoin="bevel" transform="matrix(1.15029,0.335463,-0.418671,0.921676,765.776,439.633)"
font-family="Helvetica" font-size="13" font-weight="400" font-style="normal" 
>
<text fill="#212121" fill-opacity="1" stroke="none" xml:space="preserve" x="0" y="0" font-family="Helvetica" font-size="13" font-weight="400" font-style="normal" 
 >6</text>
</g>

<g fill="#212121" fill-opacity="1" stroke="#212121" stroke-opacity="1" stroke-width="1" stroke-linecap="square" stroke-linejoin="bevel" transform="matrix(1.15029,0.335463,-0.418671,0.921676,30.0726,325.203)"
font-family="Helvetica" font-size="13" font-weight="400" font-style="normal" 
>
<text fill="#212121" fill-opacity="1" stroke="none" xml:space="preserve" x="0" y="0" font-family="Helvetica" font-size="13" font-weight="400" font-style="normal" 
 >7</text>
</g>

<g fill="#212121" fill-opacity="1" stroke="#212121" stroke-opacity="1" stroke-width="1" stroke-linecap="square" stroke-linejoin="bevel" transform="matrix(1.15029,0.335463,-0.418671,0.921676,765.776,325.203)"
font-family="Helvetica" font-size="13" font-weight="400" font-style="normal" 
>
<text fill="#212121" fill-opacity="1" stroke="none" xml:space="preserve" x="0" y="0" font-family="Helvetica" font-size="13" font-weight="400" font-style="normal" 
 >9</text>
</g>

<g fill="#212121" fill-opacity="1" stroke="#212121" stroke-opacity="1" stroke-width="1" stroke-linecap="square" stroke-linejoin="bevel" transform="matrix(1.15029,0.335463,-0.418671,0.921676,765.776,210.773)"
font-family="Helvetica" font-size="13" font-weight="400" font-style="normal" 
>
<text fill="#212121" fill-opacity="1" stroke="none" xml:space="preserve" x="0" y="0" font-family="Helvetica" font-size="13" font-weight="400" font-style="normal" 
 >10</text>
</g>

<g fill="#212121" fill-opacity="1" stroke="#212121" stroke-opacity="1" stroke-width="1" stroke-linecap="square" stroke-linejoin="bevel" transform="matrix(1.15029,0.335463,-0.418671,0.921676,213.998,210.773)"
font-family="Helvetica" font-size="13" font-weight="400" font-style="normal" 
>
<text fill="#212121" fill-opacity="1" stroke="none" xml:space="preserve" x="0" y="0" font-family="Helvetica" font-size="13" font-weight="400" font-style="normal" 
 >11</text>
</g>

<g fill="#212121" fill-opacity="1" stroke="#212121" stroke-opacity="1" stroke-width="1" stroke-linecap="square" stroke-linejoin="bevel" transform="matrix(1.15029,0.335463,-0.418671,0.921676,397.925,325.203)"
font-family="Helvetica" font-size="13" font-weight="400" font-style="normal" 
>
<text fill="#212121" fill-opacity="1" stroke="none" xml:space="preserve" x="0" y="0" font-family="Helvetica" font-size="13" font-weight="400" font-style="normal" 
 >12</text>
</g>

<g fill="#212121" fill-opacity="1" stroke="#212121" stroke-opacity="1" stroke-width="1" stroke-linecap="square" stroke-linejoin="bevel" transform="matrix(1.15029,0.335463,-0.418671,0.921676,397.925,439.633)"
font-family="Helvetica" font-size="13" font-weight="400" font-style="normal" 
>
<text fill="#212121" fill-opacity="1" stroke="none" xml:space="preserve" x="0" y="0" font-family="Helvetica" font-size="13" font-weight="400" font-style="normal" 
 >13</text>
</g>

<g fill="#212121" fill-opacity="1" stroke="#212121" stroke-opacity="1" stroke-width="1" stroke-linecap="square" stroke-linejoin="bevel" transform="matrix(1.15029,0.335463,-0.418671,0.921676,765.776,96.3435)"
font-family="Helvetica" font-size="13" font-weight="400" font-style="normal" 
>
<text fill="#212121" fill-opacity="1" stroke="none" xml:space="preserve" x="0" y="0" font-family="Helvetica" font-size="13" font-weight="400" font-style="normal" 
 >14</text>
</g>

<g fill="#212121" fill-opacity="1" stroke="#212121" stroke-opacity="1" stroke-width="1" stroke-linecap="square" stroke-linejoin="bevel" transform="matrix(1.15029,0.335463,-0.418671,0.921676,1133.63,210.773)"
font-family="Helvetica" font-size="13" font-weight="400" font-style="normal" 
>
<text fill="#212121" fill-opacity="1" stroke="none" xml:space="preserve" x="0" y="0" font-family="Helvetica" font-size="13" font-weight="400" font-style="normal" 
 >17</text>
</g>

<g fill="#212121" fill-opacity="1" stroke="#212121" stroke-opacity="1" stroke-width="1" stroke-linecap="square" stroke-linejoin="bevel" transform="matrix(1.15029,0.335463,-0.418671,0.921676,1133.63,325.203)"
font-family="Helvetica" font-size="13" font-weight="400" font-style="normal" 
>
<text fill="#212121" fill-opacity="1" stroke="none" xml:space="preserve" x="0" y="0" font-family="Helvetica" font-size="13" font-weight="400" font-style="normal" 
 >20</text>
</g>

<g fill="#212121" fill-opacity="1" stroke="#212121" stroke-opacity="1" stroke-width="1" stroke-linecap="square" stroke-linejoin="bevel" transform="matrix(1.15029,0.335463,-0.418671,0.921676,1133.63,439.633)"
font-family="Helvetica" font-size="13" font-weight="400" font-style="normal" 
>
<text fill="#212121" fill-opacity="1" stroke="none" xml:space="preserve" x="0" y="0" font-family="Helvetica" font-size="13" font-weight="400" font-style="normal" 
 >25</text>
</g>

<g fill="#212121" fill-opacity="1" stroke="#212121" stroke-opacity="1" stroke-width="1" stroke-linecap="square" stroke-linejoin="bevel" transform="matrix(0,0.980828,-1.22411,0,28.7272,487.255)"
font-family="Helvetica" font-size="13" font-weight="400" font-style="italic" 
>
<text fill="#212121" fill-opacity="1" stroke="none" xml:space="preserve" x="0" y="0" font-family="Helvetica" font-size="13" font-weight="400" font-style="italic" 
 >9</text>
</g>

<g fill="#212121" fill-opacity="1" stroke="#212121" stroke-opacity="1" stroke-width="1" stroke-linecap="square" stroke-linejoin="bevel" transform="matrix(0,0.980828,-1.22411,0,28.7272,369.392)"
font-family="Helvetica" font-size="13" font-weight="400" font-style="italic" 
>
<text fill="#212121" fill-opacity="1" stroke="none" xml:space="preserve" x="0" y="0" font-family="Helvetica" font-size="13" font-weight="400" font-style="italic" 
 >17</text>
</g>

<g fill="#212121" fill-opacity="1" stroke="#212121" stroke-opacity="1" stroke-width="1" stroke-linecap="square" stroke-linejoin="bevel" transform="matrix(0,0.980828,-1.22411,0,764.431,369.392)"
font-family="Helvetica" font-size="13" font-weight="400" font-style="italic" 
>
<text fill="#212121" fill-opacity="1" stroke="none" xml:space="preserve" x="0" y="0" font-family="Helvetica" font-size="13" font-weight="400" font-style="italic" 
 >24</text>
</g>

<g fill="#212121" fill-opacity="1" stroke="#212121" stroke-opacity="1" stroke-width="1" stroke-linecap="square" stroke-linejoin="bevel" transform="matrix(0,0.980828,-1.22411,0,764.431,254.962)"
font-family="Helvetica" font-size="13" font-weight="400" font-style="italic" 
>
<text fill="#212121" fill-opacity="1" stroke="none" xml:space="preserve" x="0" y="0" font-family="Helvetica" font-size="13" font-weight="400" font-style="italic" 
 >27</text>
</g>

<g fill="#212121" fill-opacity="1" stroke="#212121" stroke-opacity="1" stroke-width="1" stroke-linecap="square" stroke-linejoin="bevel" transform="matrix(0.966868,-0.601539,0.750744,0.774709,107.998,263.715)"
font-family="Helvetica" font-size="13" font-weight="400" font-style="italic" 
>
<text fill="#212121" fill-opacity="1" stroke="none" xml:space="preserve" x="0" y="0" font-family="Helvetica" font-size="13" font-weight="400" font-style="italic" 
 >29</text>
</g>

<g fill="#212121" fill-opacity="1" stroke="#212121" stroke-opacity="1" stroke-width="1" stroke-linecap="square" stroke-linejoin="bevel" transform="matrix(0.966868,0.601539,-0.750744,0.774709,296.428,255.293)"
font-family="Helvetica" font-size="13" font-weight="400" font-style="italic" 
>
<text fill="#212121" fill-opacity="1" stroke="none" xml:space="preserve" x="0" y="0" font-family="Helvetica" font-size="13" font-weight="400" font-style="italic" 
 >31</text>
</g>

<g fill="#212121" fill-opacity="1" stroke="#212121" stroke-opacity="1" stroke-width="1" stroke-linecap="square" stroke-linejoin="bevel" transform="matrix(0,0.980828,-1.22411,0,396.579,369.392)"
font-family="Helvetica" font-size="13" font-weight="400" font-style="italic" 
>
<text fill="#212121" fill-opacity="1" stroke="none" xml:space="preserve" x="0" y="0" font-family="Helvetica" font-size="13" font-weight="400" font-style="italic" 
 >34</text>
</g>

<g fill="#212121" fill-opacity="1" stroke="#212121" stroke-opacity="1" stroke-width="1" stroke-linecap="square" stroke-linejoin="bevel" transform="matrix(0,0.980828,-1.22411,0,764.431,140.532)"
font-family="Helvetica" font-size="13" font-weight="400" font-style="italic" 
>
<text fill="#212121" fill-opacity="1" stroke="none" xml:space="preserve" x="0" y="0" font-family="Helvetica" font-size="13" font-weight="400" font-style="italic" 
 >40</text>
</g>

<g fill="#212121" fill-opacity="1" stroke="#212121" stroke-opacity="1" stroke-width="1" stroke-linecap="square" stroke-linejoin="bevel" transform="matrix(1.18506,-0.245763,0.306722,0.949538,475.654,146.27)"
font-family="Helvetica" font-size="13" font-weight="400" font-style="italic" 
>
<text fill="#212121" fill-opacity="1" stroke="none" xml:space="preserve" x="0" y="0" font-family="Helvetica" font-size="13" font-weight="400" font-style="italic" 
 >41</text>
</g>

<g fill="#212121" fill-opacity="1" stroke="#212121" stroke-opacity="1" stroke-width="1" stroke-linecap="square" stroke-linejoin="bevel" transform="matrix(1.14113,0.354978,-0.443027,0.914338,938.026,142.17)"
font-family="Helvetica" font-size="13" font-weight="400" font-style="italic" 
>
<text fill="#212121" fill-opacity="1" stroke="none" xml:space="preserve" x="0" y="0" font-family="Helvetica" font-size="13" font-weight="400" font-style="italic" 
 >43</text>
</g>

<g fill="#212121" fill-opacity="1" stroke="#212121" stroke-opacity="1" stroke-width="1" stroke-linecap="square" stroke-linejoin="bevel" transform="matrix(0,0.980828,-1.22411,0,1132.28,254.962)"
font-family="Helvetica" font-size="13" font-weight="400" font-style="italic" 
>
<text fill="#212121" fill-opacity="1" stroke="none" xml:space="preserve" x="0" y="0" font-family="Helvetica" font-size="13" font-weight="400" font-style="italic" 
 >53</text>
</g>

<g fill="#212121" fill-opacity="1" stroke="#212121" stroke-opacity="1" stroke-width="1" stroke-linecap="square" stroke-linejoin="bevel" transform="matrix(0,0.980828,-1.22411,0,1132.28,369.392)"
font-family="Helvetica" font-size="13" font-weight="400" font-style="italic" 
>
<text fill="#212121" fill-opacity="1" stroke="none" xml:space="preserve" x="0" y="0" font-family="Helvetica" font-size="13" font-weight="400" font-style="italic" 
 >66</text>
</g>

<g fill="#ff0000" fill-opacity="1" stroke="#ff0000" stroke-opacity="1" stroke-width="1" stroke-linecap="square" stroke-linejoin="bevel" transform="matrix(1.22411,0,0,0.980828,733.828,77.4324)"
font-family="Helvetica" font-size="13" font-weight="700" font-style="normal" 
>
<text fill="#ff0000" fill-opacity="1" stroke="none" xml:space="preserve" x="0" y="0" font-family="Helvetica" font-size="13" font-weight="700" font-style="normal" 
 >Source</text>
</g>

<g fill="#ff0000" fill-opacity="1" stroke="#ff0000" stroke-opacity="1" stroke-width="1" stroke-linecap="square" stroke-linejoin="bevel" transform="matrix(1.22411,0,0,0.980828,752.802,225.21)"
font-family="Helvetica" font-size="10" font-weight="400" font-style="normal" 
>
<text fill="#ff0000" fill-opacity="1" stroke="none" xml:space="preserve" x="0" y="0" font-family="Helvetica" font-size="10" font-weight="400" font-style="normal" 
 >D1</text>
</g>

<g fill="#ff0000" fill-opacity="1" stroke="#ff0000" stroke-opacity="1" stroke-width="1" stroke-linecap="square" stroke-linejoin="bevel" transform="matrix(1.22411,0,0,0.980828,752.802,454.07)"
font-family="Helvetica" font-size="10" font-weight="400" font-style="normal" 
>
<text fill="#ff0000" fill-opacity="1" stroke="none" xml:space="preserve" x="0" y="0" font-family="Helvetica" font-size="10" font-weight="400" font-style="normal" 
 >D2</text>
</g>

<g fill="#ff0000" fill-opacity="1" stroke="#ff0000" stroke-opacity="1" stroke-width="1" stroke-linecap="square" stroke-linejoin="bevel" transform="matrix(1.22411,0,0,0.980828,17.0982,568.5)"
font-family="Helvetica" font-size="10" font-weight="400" font-style="normal" 
>
<text fill="#ff0000" fill-opacity="1" stroke="none" xml:space="preserve" x="0" y="0" font-family="Helvetica" font-size="10" font-weight="400" font-style="normal" 
 >D3</text>
</g>

<g fill="#ff0000" fill-opacity="1" stroke="#ff0000" stroke-opacity="1" stroke-width="1" stroke-linecap="square" stroke-linejoin="bevel" transform="matrix(1.22411,0,0,0.980828,384.95,454.07)"
font-family="Helvetica" font-size="10" font-weight="400" font-style="normal" 
>
<text fill="#ff0000" fill-opacity="1" stroke="none" xml:space="preserve" x="0" y="0" font-family="Helvetica" font-size="10" font-weight="400" font-style="normal" 
 >D4</text>
</g>

<g fill="#ff0000" fill-opacity="1" stroke="#ff0000" stroke-opacity="1" stroke-width="1" stroke-linecap="square" stroke-linejoin="bevel" transform="matrix(1.22411,0,0,0.980828,1120.65,454.07)"
font-family="Helvetica" font-size="10" font-weight="400" font-style="normal" 
>
<text fill="#ff0000" fill-opacity="1" stroke="none" xml:space="preserve" x="0" y="0" font-family="Helvetica" font-size="10" font-weight="400" font-style="normal" 
 >D5</text>
</g>

<g fill="#0000ff" fill-opacity="1" stroke="#0000ff" stroke-opacity="1" stroke-width="1" stroke-linecap="square" stroke-linejoin="bevel" transform="matrix(1.22411,0,0,0.980828,1.5,528.94)"
font-family="Helvetica" font-size="12" font-weight="700" font-style="normal" 
>
<text fill="#0000ff" fill-opacity="1" stroke="none" xml:space="preserve" x="0" y="0" font-family="Helvetica" font-size="12" font-weight="700" font-style="normal" 
 >VNF: 4</text>
</g>

<g fill="#0000ff" fill-opacity="1" stroke="#0000ff" stroke-opacity="1" stroke-width="1" stroke-linecap="square" stroke-linejoin="bevel" transform="matrix(1.22411,0,0,0.980828,1.5,414.183)"
font-family="Helvetica" font-size="12" font-weight="700" font-style="normal" 
>
<text fill="#0000ff" fill-opacity="1" stroke="none" xml:space="preserve" x="0" y="0" font-family="Helvetica" font-size="12" font-weight="700" font-style="normal" 
 >VNF: 8</text>
</g>

<g fill="#0000ff" fill-opacity="1" stroke="#0000ff" stroke-opacity="1" stroke-width="1" stroke-linecap="square" stroke-linejoin="bevel" transform="matrix(1.22411,0,0,0.980828,737.191,414.183)"
font-family="Helvetica" font-size="12" font-weight="700" font-style="normal" 
>
<text fill="#0000ff" fill-opacity="1" stroke="none" xml:space="preserve" x="0" y="0" font-family="Helvetica" font-size="12" font-weight="700" font-style="normal" 
 >VNF: 4</text>
</g>

<g fill="#0000ff" fill-opacity="1" stroke="#0000ff" stroke-opacity="1" stroke-width="1" stroke-linecap="square" stroke-linejoin="bevel" transform="matrix(1.22411,0,0,0.980828,1.5,300.407)"
font-family="Helvetica" font-size="12" font-weight="700" font-style="normal" 
>
<text fill="#0000ff" fill-opacity="1" stroke="none" xml:space="preserve" x="0" y="0" font-family="Helvetica" font-size="12" font-weight="700" font-style="normal" 
 >VNF: 3</text>
</g>

<g fill="#0000ff" fill-opacity="1" stroke="#0000ff" stroke-opacity="1" stroke-width="1" stroke-linecap="square" stroke-linejoin="bevel" transform="matrix(1.22411,0,0,0.980828,737.191,300.407)"
font-family="Helvetica" font-size="12" font-weight="700" font-style="normal" 
>
<text fill="#0000ff" fill-opacity="1" stroke="none" xml:space="preserve" x="0" y="0" font-family="Helvetica" font-size="12" font-weight="700" font-style="normal" 
 >VNF: 8</text>
</g>

<g fill="#0000ff" fill-opacity="1" stroke="#0000ff" stroke-opacity="1" stroke-width="1" stroke-linecap="square" stroke-linejoin="bevel" transform="matrix(1.22411,0,0,0.980828,724.95,185.65)"
font-family="Helvetica" font-size="12" font-weight="700" font-style="normal" 
>
<text fill="#0000ff" fill-opacity="1" stroke="none" xml:space="preserve" x="0" y="0" font-family="Helvetica" font-size="12" font-weight="700" font-style="normal" 
 >VNF: 3,4,8</text>
</g>

<g fill="#0000ff" fill-opacity="1" stroke="#0000ff" stroke-opacity="1" stroke-width="1" stroke-linecap="square" stroke-linejoin="bevel" transform="matrix(1.22411,0,0,0.980828,185.117,185.65)"
font-family="Helvetica" font-size="12" font-weight="700" font-style="normal" 
>
<text fill="#0000ff" fill-opacity="1" stroke="none" xml:space="preserve" x="0" y="0" font-family="Helvetica" font-size="12" font-weight="700" font-style="normal" 
 >VNF: 3</text>
</g>

<g fill="#0000ff" fill-opacity="1" stroke="#0000ff" stroke-opacity="1" stroke-width="1" stroke-linecap="square" stroke-linejoin="bevel" transform="matrix(1.22411,0,0,0.980828,369.958,300.407)"
font-family="Helvetica" font-size="12" font-weight="700" font-style="normal" 
>
<text fill="#0000ff" fill-opacity="1" stroke="none" xml:space="preserve" x="0" y="0" font-family="Helvetica" font-size="12" font-weight="700" font-style="normal" 
 >VNF: 8</text>
</g>

<g fill="#0000ff" fill-opacity="1" stroke="#0000ff" stroke-opacity="1" stroke-width="1" stroke-linecap="square" stroke-linejoin="bevel" transform="matrix(1.22411,0,0,0.980828,369.958,414.183)"
font-family="Helvetica" font-size="12" font-weight="700" font-style="normal" 
>
<text fill="#0000ff" fill-opacity="1" stroke="none" xml:space="preserve" x="0" y="0" font-family="Helvetica" font-size="12" font-weight="700" font-style="normal" 
 >VNF: 4</text>
</g>

<g fill="#0000ff" fill-opacity="1" stroke="#0000ff" stroke-opacity="1" stroke-width="1" stroke-linecap="square" stroke-linejoin="bevel" transform="matrix(1.22411,0,0,0.980828,1105.65,185.65)"
font-family="Helvetica" font-size="12" font-weight="700" font-style="normal" 
>
<text fill="#0000ff" fill-opacity="1" stroke="none" xml:space="preserve" x="0" y="0" font-family="Helvetica" font-size="12" font-weight="700" font-style="normal" 
 >VNF: 3</text>
</g>

<g fill="#0000ff" fill-opacity="1" stroke="#0000ff" stroke-opacity="1" stroke-width="1" stroke-linecap="square" stroke-linejoin="bevel" transform="matrix(1.22411,0,0,0.980828,1105.65,300.407)"
font-family="Helvetica" font-size="12" font-weight="700" font-style="normal" 
>
<text fill="#0000ff" fill-opacity="1" stroke="none" xml:space="preserve" x="0" y="0" font-family="Helvetica" font-size="12" font-weight="700" font-style="normal" 
 >VNF: 8</text>
</g>

<g fill="#0000ff" fill-opacity="1" stroke="#0000ff" stroke-opacity="1" stroke-width="1" stroke-linecap="square" stroke-linejoin="bevel" transform="matrix(1.22411,0,0,0.980828,1105.65,414.183)"
font-family="Helvetica" font-size="12" font-weight="700" font-style="normal" 
>
<text fill="#0000ff" fill-opacity="1" stroke="none" xml:space="preserve" x="0" y="0" font-family="Helvetica" font-size="12" font-weight="700" font-style="normal" 
 >VNF: 4</text>
</g>
</g>
</svg>
